<?xml version="1.0" encoding="iso-8859-1"?>
<!-- Uploaded to: SVG Repo, www.svgrepo.com, Generator: SVG Repo Mixer Tools -->
<svg fill="#000000" height="800px" width="800px" version="1.1" id="Layer_1" xmlns="http://www.w3.org/2000/svg" xmlns:xlink="http://www.w3.org/1999/xlink" 
	 viewBox="0 0 512 512" xml:space="preserve">
<g>
	<g>
		<path d="M429.303,247.885l-124.262-40.405L264.294,40.644c-0.939-3.823-4.361-6.511-8.294-6.511c-3.934,0-7.356,2.688-8.294,6.511
			l-40.747,166.835L82.697,247.885c-3.516,1.143-5.897,4.42-5.897,8.115s2.381,6.972,5.897,8.115l124.655,40.533l40.533,124.655
			c1.143,3.516,4.42,5.897,8.115,5.897s6.972-2.381,8.115-5.897l40.533-124.655l124.655-40.533c3.516-1.143,5.897-4.42,5.897-8.115
			S432.819,249.028,429.303,247.885z M228.113,271.821l-14.481,14.481c-1.135,1.135-2.807,1.536-4.335,1.041l-44.527-14.481
			c-4.617-1.51-3.541-8.329,1.323-8.329h59.008C228.898,264.533,230.801,269.133,228.113,271.821z M247.467,225.101
			c0,3.797-4.599,5.7-7.287,3.012l-14.933-14.933c-1.058-1.058-1.485-2.586-1.126-4.028l14.933-61.15
			c1.203-4.898,8.414-4.028,8.414,1.015V225.101z M287.343,302.703l-14.481,44.527c-1.51,4.617-8.329,3.541-8.329-1.323v-59.008
			c0-3.797,4.599-5.7,7.287-3.012l14.481,14.481C287.437,299.503,287.838,301.175,287.343,302.703z M345.907,247.467h-59.008
			c-3.797,0-5.7-4.599-3.012-7.287l14.481-14.481c1.135-1.135,2.807-1.536,4.335-1.041l44.527,14.481
			C351.846,240.649,350.771,247.467,345.907,247.467z"/>
	</g>
</g>
<g>
	<g>
		<path d="M256,0C114.842,0,0,114.842,0,256s114.842,256,256,256s256-114.842,256-256S397.158,0,256,0z M256,494.933
			C124.254,494.933,17.067,387.746,17.067,256S124.254,17.067,256,17.067S494.933,124.254,494.933,256S387.746,494.933,256,494.933z
			"/>
	</g>
</g>
</svg>