<?xml version="1.0" encoding="iso-8859-1"?>
<!-- Uploaded to: SVG Repo, www.svgrepo.com, Generator: SVG Repo Mixer Tools -->
<svg fill="#000000" height="800px" width="800px" version="1.1" id="Layer_1" xmlns="http://www.w3.org/2000/svg" xmlns:xlink="http://www.w3.org/1999/xlink" 
	 viewBox="0 0 512 512" xml:space="preserve">
<g>
	<g>
		<path d="M454.886,299.076l-94.362-30.353l31.497-86.605c1.152-3.166,0.333-6.707-2.082-9.045
			c-2.406-2.338-5.982-3.021-9.096-1.792l-79.138,31.659L264.38,6.938C263.62,2.91,260.096,0,256,0s-7.62,2.91-8.38,6.938
			l-37.308,195.994l-79.138-31.659c-3.115-1.246-6.699-0.546-9.097,1.792c-2.415,2.338-3.234,5.879-2.082,9.045l31.497,86.605
			l-94.379,30.362c-3.524,1.135-5.914,4.42-5.914,8.124s2.389,6.989,5.914,8.124l94.362,30.353l-31.488,86.605
			c-1.135,3.115-0.358,6.605,1.98,8.951c1.621,1.63,3.806,2.5,6.033,2.5c0.973,0,1.963-0.171,2.918-0.512l86.605-31.497
			l30.353,94.353c1.135,3.533,4.412,5.922,8.124,5.922s6.989-2.389,8.124-5.922l30.353-94.353l86.605,31.497
			c0.956,0.341,1.946,0.512,2.918,0.512c2.227,0,4.412-0.87,6.033-2.5c2.338-2.338,3.115-5.837,1.98-8.951l-31.497-86.605
			l94.362-30.353c3.533-1.135,5.922-4.42,5.922-8.124S458.411,300.211,454.886,299.076z M162.756,226.022l24.619,24.619
			c2.253,2.253,1.331,6.101-1.707,7.083l-14.029,4.514c-2.185,0.7-4.531-0.444-5.316-2.603l-10.59-29.133
			C154.172,226.21,159.531,222.797,162.756,226.022z M208.444,396.86l-29.124,10.59c-4.301,1.57-7.714-3.789-4.489-7.014
			l24.619-24.619c2.253-2.253,6.101-1.331,7.083,1.707l4.514,14.02C211.746,393.728,210.603,396.075,208.444,396.86z
			 M228.122,323.021l-20.386,20.386c-1.135,1.135-2.799,1.536-4.326,1.041l-63.386-20.386c-4.634-1.493-3.567-8.329,1.306-8.329
			h83.772C228.898,315.733,230.81,320.333,228.122,323.021z M247.467,276.301c0,3.797-4.599,5.7-7.287,3.012l-21.129-21.129
			c-0.998-0.998-1.442-2.423-1.178-3.814l21.129-110.967c0.973-5.077,8.465-4.378,8.465,0.802V276.301z M308.207,218.701
			l21.06-8.422c4.309-1.715,7.885,3.703,4.608,6.98l-19.038,19.038c-2.423,2.423-6.571,1.143-7.211-2.219l-2.022-10.615
			C305.22,221.457,306.313,219.46,308.207,218.701z M293.248,359.791l-20.386,63.386c-1.493,4.634-8.329,3.558-8.329-1.306v-83.772
			c0-3.797,4.599-5.709,7.287-3.021l20.386,20.386C293.342,356.599,293.743,358.263,293.248,359.791z M349.244,388.369
			l-24.619-24.619c-2.253-2.253-1.331-6.101,1.707-7.083l14.029-4.514c2.185-0.7,4.531,0.444,5.316,2.603l10.59,29.133
			C357.828,388.19,352.469,391.603,349.244,388.369z M370.671,298.667h-83.772c-3.797,0-5.7-4.599-3.012-7.287l20.386-20.386
			c1.135-1.135,2.799-1.536,4.326-1.041l63.386,20.386C376.61,291.831,375.543,298.667,370.671,298.667z"/>
	</g>
</g>
</svg>