<?xml version="1.0" encoding="iso-8859-1"?>
<!-- Uploaded to: SVG Repo, www.svgrepo.com, Generator: SVG Repo Mixer Tools -->
<svg fill="#000000" height="800px" width="800px" version="1.1" id="Layer_1" xmlns="http://www.w3.org/2000/svg" xmlns:xlink="http://www.w3.org/1999/xlink" 
	 viewBox="0 0 512 512" xml:space="preserve">
<g>
	<g>
		<path d="M480.461,273.246l-145.22-30.251l46.652-76.416c2.065-3.379,1.527-7.731-1.289-10.513
			c-2.807-2.782-7.168-3.26-10.53-1.161l-74.018,46.464L263.561,7.125C262.878,3.012,259.311,0,255.147,0c-0.009,0-0.017,0-0.026,0
			c-4.181,0.017-7.74,3.055-8.397,7.185l-31.053,194.091l-75.52-46.413c-3.371-2.074-7.748-1.545-10.539,1.271
			c-2.79,2.816-3.26,7.194-1.143,10.556l48.205,76.322L31.539,273.246c-3.951,0.828-6.793,4.309-6.793,8.354
			s2.842,7.526,6.793,8.354l145.126,30.234l-48.205,76.322c-2.116,3.362-1.638,7.731,1.143,10.556
			c1.655,1.664,3.857,2.534,6.076,2.534c1.536,0,3.081-0.41,4.463-1.263l77.124-47.394l29.517,144.239
			c0.811,3.951,4.284,6.801,8.32,6.818c0.009,0,0.026,0,0.034,0c4.028,0,7.501-2.816,8.346-6.75L294.4,360.798l75.674,47.497
			c1.399,0.879,2.97,1.306,4.54,1.306c2.185,0,4.361-0.836,5.999-2.466c2.816-2.782,3.354-7.134,1.289-10.513l-46.652-76.416
			l145.22-30.251c3.951-0.828,6.784-4.309,6.784-8.354S484.42,274.074,480.461,273.246z M172.228,204.1
			c-2.398-3.823,2.014-8.252,5.862-5.888l32.23,19.806c1.468,0.905,2.253,2.603,1.98,4.309l-1.732,10.812
			c-0.282,1.749-1.613,3.14-3.345,3.507l-9.992,2.082c-1.732,0.358-3.482-0.367-4.42-1.86
			C189.141,231.014,179.618,215.868,172.228,204.1z M211.132,344.798c-5.956,3.644-21.256,13.013-33.118,20.275
			c-3.849,2.355-8.226-2.082-5.828-5.897c7.407-11.776,16.956-26.974,20.634-32.845c0.939-1.493,2.688-2.227,4.42-1.86l10.385,2.159
			c1.664,0.35,2.97,1.655,3.311,3.319l2.125,10.368C213.419,342.076,212.668,343.859,211.132,344.798z M301.508,218.086
			l31.625-19.849c3.814-2.389,8.269,1.971,5.931,5.811c-7.125,11.716-16.299,26.803-19.891,32.725
			c-0.939,1.545-2.731,2.295-4.497,1.929l-9.967-2.074c-1.724-0.358-3.046-1.741-3.336-3.473l-1.801-10.752
			C299.29,220.706,300.049,219,301.508,218.086z M339.123,359.253c2.338,3.831-2.074,8.192-5.888,5.82
			c-11.639-7.27-26.675-16.649-32.555-20.309c-1.527-0.947-2.261-2.739-1.886-4.497l2.21-10.325c0.35-1.655,1.647-2.935,3.302-3.285
			l10.368-2.159c1.766-0.367,3.558,0.384,4.497,1.929C322.773,332.365,331.989,347.52,339.123,359.253z"/>
	</g>
</g>
</svg>