<?xml version="1.0" encoding="iso-8859-1"?>
<!-- Uploaded to: SVG Repo, www.svgrepo.com, Generator: SVG Repo Mixer Tools -->
<svg fill="#000000" height="800px" width="800px" version="1.1" id="Layer_1" xmlns="http://www.w3.org/2000/svg" xmlns:xlink="http://www.w3.org/1999/xlink" 
	 viewBox="0 0 511.995 511.995" xml:space="preserve">
<g>
	<g>
		<path d="M282.895,104.158l-18.517-97.22C263.618,2.91,260.094,0,255.998,0c-4.096,0-7.62,2.91-8.38,6.938l-18.509,97.22
			C116.017,119.006,33.952,225.749,54.304,343.04c15.59,89.847,90.812,159.292,181.581,167.987
			c121.924,11.699,224.913-84.267,224.913-203.827C460.798,204.723,384.322,117.47,282.895,104.158z M283.885,291.379l19.857-19.857
			c1.22-1.22,3.063-1.587,4.659-0.922l47.531,19.857c4.292,1.801,3.012,8.209-1.655,8.209h-67.379
			C283.1,298.667,281.197,294.067,283.885,291.379z M308.956,219.554l15.206-3.806c4.198-1.05,7.108,4.096,4.053,7.159l-13.38,13.38
			c-2.423,2.432-6.562,1.152-7.211-2.21l-1.826-9.583C305.372,222.276,306.763,220.109,308.956,219.554z M335.81,374.955
			l-12.51-12.51c-2.142-2.15-1.425-5.786,1.374-6.955l7.535-3.149c2.313-0.964,4.949,0.256,5.709,2.645l4.975,15.659
			C344.25,374.904,338.967,378.112,335.81,374.955z M264.531,338.099c0-3.797,4.599-5.7,7.287-3.012l19.857,19.849
			c1.22,1.22,1.587,3.063,0.922,4.659l-19.857,47.531c-1.801,4.301-8.209,3.021-8.209-1.647V338.099z M238.999,143.403
			c0.973-5.094,8.465-4.386,8.465,0.794v132.105c0,3.797-4.599,5.709-7.287,3.021l-21.129-21.129
			c-0.998-0.998-1.442-2.423-1.178-3.814L238.999,143.403z M208.254,342.869c-1.22,1.22-3.063,1.587-4.659,0.922l-47.531-19.849
			c-4.292-1.801-3.012-8.209,1.655-8.209h67.379c3.797,0,5.7,4.599,3.012,7.287L208.254,342.869z M208.8,390.81l-18.33,5.299
			c-4.233,1.229-7.322-3.994-4.198-7.117l14.49-14.49c2.142-2.142,5.777-1.425,6.946,1.374l3.84,9.19
			C212.529,387.422,211.249,390.101,208.8,390.81z M174.197,237.466l14.498,14.498c2.142,2.142,1.425,5.777-1.374,6.955l-9.19,3.84
			c-2.355,0.981-5.035-0.299-5.743-2.748l-5.308-18.347C165.852,237.431,171.074,234.342,174.197,237.466z M237.856,494.071
			c-86.417-8.158-156.988-76.467-168.03-162.56c-13.107-102.178,57.89-193.493,155.861-209.425l-15.548,81.655l-63.01-15.753
			c-2.978-0.742-6.101,0.162-8.209,2.355c-2.125,2.193-2.901,5.359-2.057,8.294l21.001,72.585l-67.285,28.109
			c-3.183,1.323-5.248,4.429-5.248,7.868c0,3.439,2.065,6.545,5.248,7.876l67.285,28.109l-20.992,72.576
			c-0.87,2.987-0.034,6.212,2.159,8.405c1.621,1.621,3.806,2.5,6.033,2.5c0.794,0,1.596-0.111,2.372-0.341l72.576-20.992
			l28.109,67.285c1.331,3.183,4.437,5.248,7.876,5.248c3.439,0,6.545-2.065,7.876-5.248l28.109-67.285l72.576,20.992
			c0.785,0.23,1.579,0.341,2.372,0.341c2.27,0,4.48-0.905,6.11-2.577c2.193-2.253,2.978-5.538,2.022-8.533l-22.741-71.612
			l69.094-28.86c3.183-1.34,5.248-4.446,5.248-7.885c0-3.439-2.065-6.545-5.248-7.876l-69.094-28.86l22.741-71.612
			c0.939-2.953,0.205-6.17-1.911-8.422c-2.116-2.261-5.282-3.2-8.294-2.441l-63.01,15.753L286.3,122.086
			c90.129,14.652,157.431,93.099,157.431,185.114C443.731,416.7,349.489,504.61,237.856,494.071z"/>
	</g>
</g>
</svg>