<?xml version="1.0" encoding="UTF-8"?>
<svg id="Lag_1" xmlns="http://www.w3.org/2000/svg" version="1.1" viewBox="0 0 201.6 227.2">
  <!-- Generator: Adobe Illustrator 29.0.1, SVG Export Plug-In . SVG Version: 2.1.0 Build 192)  -->
  <defs>
    <style>
      .st0 {
        fill: #fff;
      }

      .st1 {
        isolation: isolate;
      }

      .st2 {
        fill: #e71c30;
      }
    </style>
  </defs>
  <g>
    <path class="st0" d="M20.4,148.5L98.1,14.7l.3-.9c.3-.7,1-1.3,1.7-1.3h0c.8,0,1.5.6,1.8,1.3l.3.9,77.4,133.8H20.4Z"/>
    <path class="st2" d="M100.1,31.1l36.7,63.4,25.4,44H37.8l25.5-43.9,36.8-63.4M100.1,2.5h-.4c-4.8.2-9.1,3.3-10.7,7.9C60.3,59.8,31.7,109.1,3.1,158.5h193.8c-28.5-49.3-57.1-98.6-85.6-148-1.7-4.8-6.2-8-11.2-8h0Z"/>
  </g>
  <g>
    <path class="st0" d="M15.7,221.1c-5.6,0-10.2-4.6-10.2-10.2v-49.9h188.8v49.9c0,5.6-4.6,10.2-10.2,10.2H15.7Z"/>
    <path class="st2" d="M191.9,163.5v47.4c0,4.2-3.4,7.7-7.7,7.7H15.7c-4.2,0-7.7-3.4-7.7-7.7v-47.4h183.8M196.9,158.5H3.1v52.4c0,7,5.7,12.7,12.7,12.7h168.5c7,0,12.7-5.7,12.7-12.7v-52.4h-.1Z"/>
  </g>
  <path d="M96.1,108.9c.2,2.2,2,4,4.1,4.1,2.3,0,4.4-1.7,4.6-4.1l5.7-38.4c.3-2.1,0-4-.5-5.8-1.1-3.2-4.5-7.9-9.6-7.8-5.1,0-8.3,4.9-9.3,7.9-.9,2.5-.6,4.8-.5,5.7,1.7,14.9,4.4,25.6,5.5,38.4Z"/>
  <circle cx="100.6" cy="127.8" r="8.2"/>
  <g class="st1">
    <g class="st1">
      <path d="M46.2,179.8v-12.2h8.3v2.1h-5.9v2.9h5.1v2.1h-5.1v5.2h-2.5Z"/>
      <path d="M56,175.3c0-.8.2-1.5.6-2.2.4-.7.9-1.3,1.6-1.7.7-.4,1.5-.6,2.3-.6,1.3,0,2.4.4,3.3,1.3s1.3,2,1.3,3.3-.4,2.4-1.3,3.3c-.9.9-1.9,1.3-3.2,1.3s-1.6-.2-2.3-.5c-.7-.4-1.3-.9-1.7-1.6-.4-.7-.6-1.6-.6-2.6ZM58.4,175.4c0,.9.2,1.5.6,2s.9.7,1.5.7,1.1-.2,1.5-.7c.4-.5.6-1.1.6-2s-.2-1.5-.6-2c-.4-.5-.9-.7-1.5-.7s-1.1.2-1.5.7-.6,1.1-.6,2Z"/>
      <path d="M75,179.8h-2.2v-1.3c-.4.5-.8.9-1.3,1.1-.5.2-1,.4-1.5.4-1,0-1.9-.4-2.6-1.2-.7-.8-1.1-2-1.1-3.4s.4-2.6,1.1-3.4,1.6-1.2,2.7-1.2,1.8.4,2.6,1.2v-4.4h2.3v12.2ZM68.7,175.2c0,.9.1,1.6.4,2,.4.6.9.9,1.6.9s1-.2,1.4-.7c.4-.5.6-1.1.6-2s-.2-1.7-.5-2.2-.8-.7-1.4-.7-1,.2-1.4.7c-.4.4-.6,1.1-.6,2Z"/>
      <path d="M77.1,180.4l2.7.3c0,.3.1.5.3.6.2.2.6.2,1,.2s1.1,0,1.4-.3c.2-.1.4-.3.5-.6,0-.2.1-.6.1-1.1v-1.3c-.7,1-1.6,1.4-2.6,1.4s-2.1-.5-2.8-1.5c-.5-.8-.8-1.8-.8-3s.4-2.6,1.1-3.4c.7-.8,1.6-1.2,2.7-1.2s2,.5,2.7,1.4v-1.2h2.2v7.9c0,1,0,1.8-.3,2.3s-.4.9-.7,1.2-.7.5-1.2.7c-.5.2-1.2.2-2,.2-1.5,0-2.6-.3-3.2-.8s-.9-1.2-.9-1.9,0-.2,0-.3ZM79.1,175.2c0,.9.2,1.6.5,2.1.4.4.8.7,1.3.7s1.1-.2,1.4-.7.6-1.1.6-2-.2-1.6-.6-2c-.4-.4-.9-.7-1.4-.7s-1,.2-1.4.7c-.4.4-.5,1.1-.5,2Z"/>
      <path d="M98.4,177l2.3.4c-.3.9-.8,1.5-1.4,2s-1.5.7-2.5.7-1.2-.1-1.7-.3-1-.5-1.4-.9c-.4.3-.9.6-1.5.9-.6.2-1.3.4-1.9.4-.9,0-1.7-.2-2.2-.7-.5-.5-.8-1.1-.8-1.9s0-.8.3-1.2c.2-.3.4-.6.7-.8.3-.2.6-.4,1.1-.5.2,0,.9-.2,2-.4.5-.1,1-.2,1.4-.4v-.2c0-.4-.1-.7-.3-1-.2-.2-.6-.3-1.1-.3s-.8,0-1.1.3-.4.5-.6.8l-2.1-.4c.3-.9.7-1.5,1.3-1.9.6-.4,1.5-.6,2.7-.6s1.1,0,1.5.2c.5.1.8.3,1.2.6.3-.3.7-.5,1.1-.6.4-.1.8-.2,1.3-.2.9,0,1.6.2,2.2.6.6.4,1.1.9,1.4,1.7.4.7.5,1.8.5,3.1h-5.9c0,.8.3,1.3.6,1.6.3.3.7.5,1.2.5s.7-.1,1-.3.5-.5.6-.9ZM92.6,175.6c-1.3.3-2,.5-2.1.6-.4.1-.6.3-.8.4-.1.2-.2.4-.2.6s.1.6.4.8c.2.2.6.3.9.3s.8-.1,1.2-.4c.3-.2.4-.4.5-.7,0-.3.1-.8.1-1.7ZM98.4,174.6c0-.5,0-.8-.2-1.1-.1-.3-.3-.6-.6-.7-.3-.2-.6-.3-1-.3s-.6,0-.9.2c-.2.2-.4.4-.6.7-.2.4-.3.8-.3,1.1h3.5Z"/>
      <path d="M110.8,179.8h-2.3v-4.5c0-1,0-1.6-.1-1.8s-.3-.5-.5-.7c-.2-.2-.5-.2-.8-.2s-.8.1-1.1.3c-.3.2-.5.5-.7.9s-.2,1-.2,2v4h-2.3v-8.8h2.2v1.3c.8-1,1.7-1.5,2.9-1.5s1,0,1.4.3c.4.2.7.4,1,.7.2.3.4.6.5,1s.1.9.1,1.6v5.5Z"/>
      <path d="M112.9,180.4l2.7.3c0,.3.1.5.3.6.2.2.6.2,1,.2s1.1,0,1.4-.3c.2-.1.4-.3.5-.6,0-.2.1-.6.1-1.1v-1.3c-.7,1-1.6,1.4-2.6,1.4s-2.1-.5-2.8-1.5c-.5-.8-.8-1.8-.8-3s.4-2.6,1.1-3.4c.7-.8,1.6-1.2,2.7-1.2s2,.5,2.7,1.4v-1.2h2.2v7.9c0,1,0,1.8-.3,2.3-.2.5-.4.9-.7,1.2-.3.3-.7.5-1.2.7s-1.2.2-2,.2c-1.5,0-2.6-.3-3.2-.8-.6-.5-.9-1.2-.9-1.9s0-.2,0-.3ZM115,175.2c0,.9.2,1.6.5,2.1.4.4.8.7,1.3.7s1.1-.2,1.4-.7c.4-.4.6-1.1.6-2s-.2-1.6-.6-2c-.4-.4-.9-.7-1.4-.7s-1,.2-1.4.7c-.4.4-.5,1.1-.5,2Z"/>
      <path d="M128.6,177l2.3.4c-.3.9-.8,1.5-1.4,1.9s-1.5.7-2.4.7c-1.5,0-2.7-.5-3.4-1.5-.6-.8-.9-1.8-.9-3s.4-2.6,1.1-3.4,1.7-1.2,2.9-1.2,2.3.4,3.1,1.3c.8.9,1.1,2.2,1.1,4h-5.8c0,.7.2,1.2.6,1.6.4.4.8.6,1.3.6s.7,0,.9-.3.4-.5.6-1ZM128.8,174.6c0-.7-.2-1.2-.5-1.5s-.7-.5-1.2-.5-.9.2-1.3.6-.5.9-.5,1.5h3.5Z"/>
      <path d="M135.2,179.8h-2.3v-8.8h2.2v1.3c.4-.6.7-1,1-1.2s.6-.3,1-.3,1,.1,1.5.4l-.7,2c-.4-.3-.8-.4-1.1-.4s-.6,0-.8.3c-.2.2-.4.5-.5,1-.1.5-.2,1.5-.2,3v2.7Z"/>
      <path d="M144.7,177l2.3.4c-.3.9-.8,1.5-1.4,1.9s-1.5.7-2.4.7c-1.5,0-2.7-.5-3.4-1.5-.6-.8-.9-1.8-.9-3s.4-2.6,1.1-3.4,1.7-1.2,2.9-1.2,2.3.4,3.1,1.3c.8.9,1.1,2.2,1.1,4h-5.8c0,.7.2,1.2.6,1.6.4.4.8.6,1.3.6s.7,0,.9-.3.4-.5.6-1ZM144.8,174.6c0-.7-.2-1.2-.5-1.5s-.7-.5-1.2-.5-.9.2-1.3.6-.5.9-.5,1.5h3.5Z"/>
    </g>
    <g class="st1">
      <path d="M52.6,184.6v4.5c.8-.9,1.7-1.3,2.7-1.3s1,0,1.5.3.8.5,1,.8c.2.3.4.7.4,1,0,.4.1,1,.1,1.8v5.2h-2.3v-4.7c0-.9,0-1.5-.1-1.8,0-.2-.2-.4-.5-.6-.2-.1-.5-.2-.8-.2s-.7,0-1,.3c-.3.2-.5.5-.7.9-.1.4-.2.9-.2,1.7v4.4h-2.3v-12.2h2.3Z"/>
      <path d="M65.8,194l2.3.4c-.3.9-.8,1.5-1.4,1.9-.6.4-1.5.7-2.4.7-1.5,0-2.7-.5-3.4-1.5-.6-.8-.9-1.8-.9-3s.4-2.6,1.1-3.4,1.7-1.2,2.9-1.2,2.3.4,3.1,1.3,1.1,2.2,1.1,4h-5.8c0,.7.2,1.2.6,1.6s.8.6,1.3.6.7,0,.9-.3.4-.5.6-1ZM65.9,191.6c0-.7-.2-1.2-.5-1.5s-.7-.5-1.2-.5-.9.2-1.3.6-.5.9-.5,1.5h3.5Z"/>
      <path d="M78.2,196.8h-2.3v-4.5c0-1,0-1.6-.1-1.8s-.3-.5-.5-.7c-.2-.2-.5-.2-.8-.2s-.8.1-1.1.3c-.3.2-.5.5-.7.9-.1.4-.2,1-.2,2v4h-2.3v-8.8h2.2v1.3c.8-1,1.7-1.5,2.9-1.5s1,0,1.4.3.7.4,1,.7c.2.3.4.6.5,1,0,.4.1.9.1,1.6v5.5Z"/>
      <path d="M83,196.8l-3.6-8.8h2.4l1.7,4.5.5,1.5c.1-.4.2-.6.2-.8,0-.2.2-.5.2-.7l1.7-4.5h2.4l-3.5,8.8h-2.1Z"/>
      <path d="M90,186.8v-2.2h2.3v2.2h-2.3ZM90,196.8v-8.8h2.3v8.8h-2.3Z"/>
      <path d="M93.9,194.3l2.3-.4c0,.5.3.8.6,1s.7.4,1.3.4,1.1-.1,1.4-.3c.2-.2.3-.4.3-.6s0-.3-.2-.4c-.1-.1-.4-.2-.8-.3-1.9-.4-3.1-.8-3.6-1.1-.7-.5-1-1.1-1-2s.3-1.4.9-1.9,1.5-.8,2.8-.8,2.1.2,2.7.6c.6.4,1,1,1.2,1.7l-2.2.4c0-.3-.3-.6-.5-.8-.3-.2-.6-.3-1.1-.3s-1.1,0-1.3.3c-.2.1-.3.3-.3.5s0,.3.2.4c.2.2.9.4,2.2.7,1.2.3,2.1.6,2.6,1,.5.4.7,1,.7,1.7s-.3,1.5-1,2.1c-.7.6-1.7.9-3,.9s-2.2-.2-2.9-.7c-.7-.5-1.2-1.1-1.4-2Z"/>
      <path d="M109.3,194l2.3.4c-.3.9-.8,1.5-1.4,1.9s-1.5.7-2.4.7c-1.5,0-2.7-.5-3.4-1.5-.6-.8-.9-1.8-.9-3s.4-2.6,1.1-3.4,1.7-1.2,2.9-1.2,2.3.4,3.1,1.3c.8.9,1.1,2.2,1.1,4h-5.8c0,.7.2,1.2.6,1.6.4.4.8.6,1.3.6s.7,0,.9-.3.4-.5.6-1ZM109.4,191.6c0-.7-.2-1.2-.5-1.5s-.7-.5-1.2-.5-.9.2-1.3.6-.5.9-.5,1.5h3.5Z"/>
      <path d="M112.8,194.3l2.3-.4c0,.5.3.8.6,1,.3.2.7.4,1.3.4s1.1-.1,1.4-.3c.2-.2.3-.4.3-.6s0-.3-.2-.4c-.1-.1-.4-.2-.8-.3-1.9-.4-3.1-.8-3.6-1.1-.7-.5-1-1.1-1-2s.3-1.4.9-1.9c.6-.5,1.5-.8,2.8-.8s2.1.2,2.7.6c.6.4,1,1,1.2,1.7l-2.2.4c0-.3-.3-.6-.5-.8-.3-.2-.6-.3-1.1-.3s-1.1,0-1.3.3c-.2.1-.3.3-.3.5s0,.3.2.4c.2.2.9.4,2.2.7s2.1.6,2.6,1c.5.4.7,1,.7,1.7s-.3,1.5-1,2.1c-.7.6-1.7.9-3,.9s-2.2-.2-2.9-.7c-.7-.5-1.2-1.1-1.4-2Z"/>
      <path d="M131.9,188v1.9h-1.6v3.6c0,.7,0,1.1,0,1.3,0,.1,0,.2.2.3.1,0,.2.1.4.1s.5,0,.9-.2l.2,1.8c-.5.2-1.2.3-1.8.3s-.8,0-1.1-.2c-.3-.1-.6-.3-.7-.5-.2-.2-.3-.5-.3-.9,0-.3,0-.8,0-1.6v-3.8h-1.1v-1.9h1.1v-1.8l2.3-1.4v3.1h1.6Z"/>
      <path d="M133.5,186.8v-2.2h2.3v2.2h-2.3ZM133.5,196.8v-8.8h2.3v8.8h-2.3Z"/>
      <path d="M138.2,196.8v-12.2h2.3v12.2h-2.3Z"/>
    </g>
    <g class="st1">
      <path d="M30.7,205h2.1v1.2c.8-.9,1.7-1.4,2.7-1.4s1.1.1,1.5.3.8.6,1,1.1c.4-.5.8-.8,1.3-1.1s.9-.3,1.4-.3,1.2.1,1.6.4.8.6,1,1.2c.2.4.2,1,.2,1.8v5.6h-2.3v-5c0-.9,0-1.4-.2-1.7-.2-.3-.5-.5-1-.5s-.6,0-.9.3-.5.5-.6.9-.2,1-.2,1.8v4.2h-2.3v-4.8c0-.9,0-1.4-.1-1.7s-.2-.4-.4-.6c-.2-.1-.4-.2-.7-.2s-.7,0-1,.3-.5.5-.6.8c-.1.4-.2,1-.2,1.8v4.3h-2.3v-8.8Z"/>
      <path d="M45.5,209.3c0-.8.2-1.5.6-2.2.4-.7.9-1.3,1.6-1.7.7-.4,1.5-.6,2.3-.6,1.3,0,2.4.4,3.3,1.3s1.3,2,1.3,3.3-.4,2.4-1.3,3.3c-.9.9-1.9,1.3-3.2,1.3s-1.6-.2-2.3-.5c-.7-.4-1.3-.9-1.7-1.6-.4-.7-.6-1.6-.6-2.6ZM47.9,209.4c0,.9.2,1.5.6,2s.9.7,1.5.7,1.1-.2,1.5-.7c.4-.5.6-1.1.6-2s-.2-1.5-.6-2c-.4-.5-.9-.7-1.5-.7s-1.1.2-1.5.7-.6,1.1-.6,2Z"/>
      <path d="M64.5,213.8h-2.2v-1.3c-.4.5-.8.9-1.3,1.1-.5.2-1,.4-1.5.4-1,0-1.9-.4-2.6-1.2-.7-.8-1.1-2-1.1-3.4s.4-2.6,1.1-3.4,1.6-1.2,2.7-1.2,1.8.4,2.6,1.2v-4.4h2.3v12.2ZM58.3,209.2c0,.9.1,1.6.4,2,.4.6.9.9,1.6.9s1-.2,1.4-.7c.4-.5.6-1.1.6-2s-.2-1.7-.5-2.2-.8-.7-1.4-.7-1,.2-1.4.7c-.4.4-.6,1.1-.6,2Z"/>
      <path d="M66,211.3l2.3-.4c0,.5.3.8.6,1s.7.4,1.3.4,1.1-.1,1.4-.3c.2-.2.3-.4.3-.6s0-.3-.2-.4c-.1-.1-.4-.2-.8-.3-1.9-.4-3.1-.8-3.6-1.1-.7-.5-1-1.1-1-2s.3-1.4.9-1.9,1.5-.8,2.8-.8,2.1.2,2.7.6c.6.4,1,1,1.2,1.7l-2.2.4c0-.3-.3-.6-.5-.8-.3-.2-.6-.3-1.1-.3s-1.1,0-1.3.3c-.2.1-.3.3-.3.5s0,.3.2.4c.2.2.9.4,2.2.7,1.2.3,2.1.6,2.6,1,.5.4.7,1,.7,1.7s-.3,1.5-1,2.1c-.7.6-1.7.9-3,.9s-2.2-.2-2.9-.7c-.7-.5-1.2-1.1-1.4-2Z"/>
      <path d="M78,207.7l-2.1-.4c.2-.9.6-1.5,1.2-1.9s1.4-.6,2.6-.6,1.8.1,2.3.4.9.6,1.1.9c.2.4.3,1.1.3,2.1v2.7c0,.8,0,1.3,0,1.7,0,.4.2.8.4,1.2h-2.3c0-.2-.1-.4-.2-.7,0-.1,0-.2,0-.3-.4.4-.8.7-1.3.9-.5.2-.9.3-1.5.3-.9,0-1.6-.2-2.1-.7-.5-.5-.8-1.1-.8-1.9s.1-.9.4-1.3c.2-.4.6-.7,1-.9.4-.2,1-.4,1.9-.5,1.1-.2,1.8-.4,2.3-.6v-.2c0-.4-.1-.8-.3-1-.2-.2-.6-.3-1.3-.3s-.7,0-1,.2-.4.5-.6.9ZM81.1,209.6c-.3,0-.8.2-1.4.4-.6.1-1.1.3-1.3.4-.3.2-.5.5-.5.8s.1.6.4.8c.2.2.6.4.9.4s.8-.1,1.2-.4c.3-.2.5-.5.6-.8,0-.2,0-.6,0-1.1v-.5Z"/>
      <path d="M89.8,205v1.9h-1.6v3.6c0,.7,0,1.1,0,1.3,0,.1,0,.2.2.3.1,0,.2.1.4.1s.5,0,.9-.2l.2,1.8c-.5.2-1.2.3-1.8.3s-.8,0-1.1-.2c-.3-.1-.6-.3-.7-.5-.2-.2-.3-.5-.3-.9,0-.3,0-.8,0-1.6v-3.8h-1.1v-1.9h1.1v-1.8l2.3-1.4v3.1h1.6Z"/>
      <path d="M95.4,205v1.9h-1.6v3.6c0,.7,0,1.1,0,1.3,0,.1,0,.2.2.3.1,0,.2.1.4.1s.5,0,.9-.2l.2,1.8c-.5.2-1.2.3-1.8.3s-.8,0-1.1-.2c-.3-.1-.6-.3-.7-.5-.2-.2-.3-.5-.3-.9,0-.3,0-.8,0-1.6v-3.8h-1.1v-1.9h1.1v-1.8l2.3-1.4v3.1h1.6Z"/>
      <path d="M102.1,211l2.3.4c-.3.9-.8,1.5-1.4,1.9s-1.5.7-2.4.7c-1.5,0-2.7-.5-3.4-1.5-.6-.8-.9-1.8-.9-3s.4-2.6,1.1-3.4,1.7-1.2,2.9-1.2,2.3.4,3.1,1.3c.8.9,1.1,2.2,1.1,4h-5.8c0,.7.2,1.2.6,1.6s.8.6,1.3.6.7,0,.9-.3.4-.5.6-1ZM102.3,208.6c0-.7-.2-1.2-.5-1.5s-.7-.5-1.2-.5-.9.2-1.3.6-.5.9-.5,1.5h3.5Z"/>
      <path d="M110.2,205h1.3v-.7c0-.7,0-1.3.2-1.7.2-.4.4-.7.9-.9.4-.2,1-.3,1.6-.3s1.3,0,2,.3l-.3,1.6c-.4,0-.7-.1-1.1-.1s-.6,0-.7.2c-.1.2-.2.5-.2.9v.6h1.7v1.8h-1.7v7h-2.3v-7h-1.3v-1.8Z"/>
      <path d="M116.3,209.3c0-.8.2-1.5.6-2.2.4-.7.9-1.3,1.6-1.7.7-.4,1.5-.6,2.3-.6,1.3,0,2.4.4,3.3,1.3.9.9,1.3,2,1.3,3.3s-.4,2.4-1.3,3.3c-.9.9-1.9,1.3-3.2,1.3s-1.6-.2-2.3-.5c-.7-.4-1.3-.9-1.7-1.6-.4-.7-.6-1.6-.6-2.6ZM118.7,209.4c0,.9.2,1.5.6,2s.9.7,1.5.7,1.1-.2,1.5-.7c.4-.5.6-1.1.6-2s-.2-1.5-.6-2c-.4-.5-.9-.7-1.5-.7s-1.1.2-1.5.7-.6,1.1-.6,2Z"/>
      <path d="M129.5,213.8h-2.3v-8.8h2.2v1.3c.4-.6.7-1,1-1.2s.6-.3,1-.3,1,.1,1.5.4l-.7,2c-.4-.3-.8-.4-1.1-.4s-.6,0-.8.3c-.2.2-.4.5-.5,1-.1.5-.2,1.5-.2,3v2.7Z"/>
      <path d="M137.9,205v1.9h-1.6v3.6c0,.7,0,1.1,0,1.3s0,.2.2.3c.1,0,.2.1.4.1s.5,0,.9-.2l.2,1.8c-.5.2-1.2.3-1.8.3s-.8,0-1.1-.2c-.3-.1-.6-.3-.7-.5-.2-.2-.3-.5-.3-.9,0-.3,0-.8,0-1.6v-3.8h-1.1v-1.9h1.1v-1.8l2.3-1.4v3.1h1.6Z"/>
      <path d="M139,209.3c0-.8.2-1.5.6-2.2.4-.7.9-1.3,1.6-1.7.7-.4,1.5-.6,2.3-.6,1.3,0,2.4.4,3.3,1.3.9.9,1.3,2,1.3,3.3s-.4,2.4-1.3,3.3c-.9.9-1.9,1.3-3.2,1.3s-1.6-.2-2.3-.5c-.7-.4-1.3-.9-1.7-1.6-.4-.7-.6-1.6-.6-2.6ZM141.4,209.4c0,.9.2,1.5.6,2s.9.7,1.5.7,1.1-.2,1.5-.7c.4-.5.6-1.1.6-2s-.2-1.5-.6-2c-.4-.5-.9-.7-1.5-.7s-1.1.2-1.5.7-.6,1.1-.6,2Z"/>
      <path d="M152.3,213.8l-3.6-8.8h2.4l1.7,4.5.5,1.5c.1-.4.2-.6.2-.8,0-.2.2-.5.2-.7l1.7-4.5h2.4l-3.5,8.8h-2.1Z"/>
    </g>
  </g>
</svg>