<?xml version="1.0" encoding="UTF-8"?>
<svg id="Lag_1" xmlns="http://www.w3.org/2000/svg" version="1.1" viewBox="0 0 201.6 162.6">
  <!-- Generator: Adobe Illustrator 29.0.1, SVG Export Plug-In . SVG Version: 2.1.0 Build 192)  -->
  <defs>
    <style>
      .st0 {
        fill: #fff;
      }

      .st1 {
        fill: #e71c30;
      }
    </style>
  </defs>
  <path class="st0" d="M100.8,14.3c25.3,44.8,50.6,89.7,75.9,134.5-51.4-1-102.7-2-154.1-3C48.7,102,74.7,58.2,100.8,14.3Z"/>
  <g>
    <circle cx="105.7" cy="68.6" r="7.3"/>
    <path d="M72.7,87.7c2.7-3.5,5.4-7,8.1-10.4.2-.3.6-.7,1.2-1.1.9-.5,1.7-.5,2-.4,6.2-.2,11,0,13.5,0s1.6,0,2.8.6c.6.3,2,.9,3.2,2.3s1.6,2.8,1.8,3.8c.2.8.3,1.5.3,1.9,0,7.8,0,15.7,0,23.5,0,1.9-1.6,3.4-3.2,3.2-1.4,0-2.6-1.5-2.6-3.1,0-5.3,0-10.6,0-15.9-2.5,3.2-5,6.4-7.6,9.6,3,4.5,6,9.1,8.9,13.6v18.3c-.4,2-2.2,3.4-4.1,3.3-1.8-.1-3.3-1.5-3.7-3.3v-15c-2.3-3.7-4.7-7.3-7-11v10.9c-3,5-6,10-8.9,15-1.5,1.6-3.9,1.7-5.4.5-1.2-1-1.6-2.9-.9-4.5,2.2-3.8,4.4-7.6,6.5-11.4v-19.1c0-.6.2-1.3.5-2.2.4-1.2,1-2,1.5-2.5,3.1-3.9,6.1-7.9,9.2-11.8h-5.1c-2.1,2.8-4.2,5.5-6.3,8.3-.9,1.4-2.8,1.8-4.1.9-1.3-.9-1.6-2.7-.7-4h0Z"/>
    <polygon points="151.6 118.3 143.1 112 137.4 112 131.8 115.2 131.8 119.1 122.2 127.2 119 131.7 114.4 131.7 109.1 139.3 165.6 140 151.6 118.3"/>
    <rect x="96.3" y="77.3" width="3.2" height="53.4" transform="translate(-43.9 120.8) rotate(-53.5)"/>
    <rect x="118.2" y="115.4" width="11.4" height="15.6" rx="1.2" ry="1.2" transform="translate(-48.9 149.5) rotate(-53.5)"/>
  </g>
  <path class="st1" d="M100.1,31.1l62.1,107.3H37.8L100.1,31.1M100.1,2.5h-.4c-4.8.2-9.1,3.3-10.7,7.9-24.7,42.5-49.3,85-74,127.5-.2.3-4,6.6-.8,13.2,2.2,4.5,6.9,7.3,12,7.3s0,0,.1,0h147.2c2.1,0,7.3-.5,10.8-4.9,3.4-4.3,3.8-10.4.8-15.4-24.6-42.6-49.3-85.1-73.9-127.7-1.7-4.8-6.2-8-11.2-8h0Z"/>
</svg>