<?xml version="1.0" encoding="UTF-8"?>
<svg id="Lag_1" xmlns="http://www.w3.org/2000/svg" version="1.1" viewBox="0 0 201.6 350.1">
  <!-- Generator: Adobe Illustrator 29.0.1, SVG Export Plug-In . SVG Version: 2.1.0 Build 192)  -->
  <defs>
    <style>
      .st0 {
        fill: #fff;
      }

      .st1 {
        isolation: isolate;
      }

      .st2 {
        fill: #e71c30;
      }
    </style>
  </defs>
  <g>
    <path class="st0" d="M20.4,148.5L98.1,14.7l.3-.9c.3-.7,1-1.3,1.7-1.3h0c.8,0,1.5.6,1.8,1.3l.3.9,77.4,133.8H20.4Z"/>
    <path class="st2" d="M100.1,31.1l36.7,63.4,25.4,44H37.8l25.5-43.9,36.8-63.4M100.1,2.5h-.4c-4.8.2-9.1,3.3-10.7,7.9C60.3,59.8,31.7,109.1,3.1,158.5h193.8c-28.5-49.3-57.1-98.6-85.6-148-1.7-4.8-6.2-8-11.2-8h0Z"/>
  </g>
  <g>
    <path class="st0" d="M15.7,221.1c-5.6,0-10.2-4.6-10.2-10.2v-49.9h188.8v49.9c0,5.6-4.6,10.2-10.2,10.2H15.7Z"/>
    <path class="st2" d="M191.9,163.5v47.4c0,4.2-3.4,7.7-7.7,7.7H15.7c-4.2,0-7.7-3.4-7.7-7.7v-47.4h183.8M196.9,158.5H3.1v52.4c0,7,5.7,12.7,12.7,12.7h168.5c7,0,12.7-5.7,12.7-12.7v-52.4h-.1Z"/>
  </g>
  <g class="st1">
    <path d="M52.7,186.8l-5.9-16.5h3.6l4.2,12.2,4-12.2h3.5l-5.9,16.5s-3.5,0-3.5,0Z"/>
    <path d="M67.2,178.5l-2.9-.5c.3-1.2.9-2,1.7-2.6s2-.8,3.5-.8,2.5.2,3.1.5,1.2.8,1.5,1.3.4,1.5.4,2.8v3.7c0,1,0,1.8,0,2.3s.3,1,.6,1.6h-3.1c0-.2-.2-.5-.3-.9,0-.2,0-.3,0-.4-.5.5-1.1.9-1.7,1.2s-1.3.4-2,.4c-1.2,0-2.2-.3-2.9-1-.7-.7-1.1-1.5-1.1-2.5s.2-1.3.5-1.8.8-.9,1.4-1.2,1.4-.5,2.5-.7c1.5-.3,2.5-.5,3.1-.8v-.3c0-.6,0-1-.4-1.3s-.9-.4-1.7-.4-1,.1-1.3.3-.6.6-.8,1.2h0ZM71.4,181.1c-.4.1-1,.3-1.9.5s-1.4.4-1.7.5c-.4.3-.6.7-.6,1.1s.2.8.5,1.1.7.5,1.3.5,1.1-.2,1.6-.6c.4-.3.6-.6.8-1,0-.3,0-.8,0-1.5v-.6h-.1Z"/>
    <path d="M90.8,186.8h-3.2v-6.1c0-1.3,0-2.1-.2-2.5s-.4-.7-.7-.9c-.3-.2-.7-.3-1.1-.3s-1,.1-1.5.4c-.4.3-.7.7-.9,1.2-.2.5-.2,1.4-.2,2.7v5.4h-3.2v-11.9h2.9v1.8c1-1.3,2.4-2,3.9-2s1.3.1,1.9.4,1,.6,1.3,1,.5.8.6,1.3.2,1.2.2,2.1v7.4h.2Z"/>
    <path d="M107.2,186.8h-2.9v-1.8c-.5.7-1.1,1.2-1.7,1.5-.7.3-1.3.5-2,.5-1.4,0-2.5-.6-3.5-1.7-1-1.1-1.5-2.6-1.5-4.6s.5-3.6,1.4-4.6,2.2-1.6,3.6-1.6,2.5.6,3.5,1.7v-5.9h3.2v16.5h0ZM98.8,180.6c0,1.3.2,2.2.5,2.8.5.8,1.2,1.2,2.1,1.2s1.3-.3,1.9-.9c.5-.6.8-1.5.8-2.8s-.2-2.4-.7-3-1.1-.9-1.9-.9-1.4.3-1.9.9c-.5.6-.8,1.5-.8,2.7Z"/>
    <path d="M121.2,174.9h2.9v1.8c.4-.6.9-1.1,1.5-1.5s1.4-.6,2.2-.6c1.4,0,2.6.5,3.5,1.6,1,1.1,1.4,2.6,1.4,4.5s-.5,3.5-1.5,4.6-2.2,1.7-3.5,1.7-1.3-.1-1.8-.4c-.5-.3-1.1-.7-1.7-1.3v6h-3.2v-16.5h.2ZM124.3,180.6c0,1.3.3,2.3.8,3,.5.6,1.2,1,1.9,1s1.3-.3,1.8-.9c.5-.6.7-1.6.7-2.9s-.3-2.2-.8-2.8-1.1-.9-1.9-.9-1.4.3-1.9.9c-.5.6-.8,1.5-.8,2.6h.2Z"/>
    <path d="M140,178.5l-2.9-.5c.3-1.2.9-2,1.7-2.6s2-.8,3.5-.8,2.5.2,3.1.5c.7.3,1.2.8,1.5,1.3s.4,1.5.4,2.8v3.7c0,1,0,1.8.1,2.3s.3,1,.6,1.6h-3.1c0-.2-.2-.5-.3-.9,0-.2,0-.3-.1-.4-.5.5-1.1.9-1.7,1.2-.6.3-1.3.4-2,.4-1.2,0-2.2-.3-2.9-1s-1.1-1.5-1.1-2.5.2-1.3.5-1.8.8-.9,1.4-1.2c.6-.3,1.4-.5,2.5-.7,1.5-.3,2.5-.5,3.1-.8v-.3c0-.6-.2-1-.4-1.3-.3-.3-.9-.4-1.7-.4s-1,.1-1.3.3-.6.6-.8,1.2h-.1ZM144.2,181.1c-.4.1-1,.3-1.9.5s-1.4.4-1.7.5c-.4.3-.6.7-.6,1.1s.2.8.5,1.1.7.5,1.3.5,1.1-.2,1.6-.6c.4-.3.6-.6.8-1,0-.3.1-.8.1-1.5v-.6h-.1ZM144.6,171.7c0,.6-.2,1.1-.6,1.6-.4.4-.9.6-1.6.6s-1.1-.2-1.6-.6-.6-.9-.6-1.6.2-1.1.6-1.6.9-.6,1.6-.6,1.1.2,1.6.6c.4.4.6.9.6,1.6ZM143.4,171.7c0-.3,0-.5-.3-.7s-.4-.3-.7-.3-.5,0-.7.3c-.2.2-.3.4-.3.7s0,.5.3.7c.2.2.4.3.7.3s.5,0,.7-.3.3-.4.3-.7Z"/>
  </g>
  <g class="st1">
    <path d="M69.8,208.8l-4.8-11.9h3.3l2.2,6.1.7,2c.2-.5.3-.9.3-1,0-.3.2-.7.3-1l2.3-6.1h3.2l-4.7,11.9h-2.8Z"/>
    <path d="M88.4,205l3.1.5c-.4,1.2-1,2-1.9,2.6s-2,.9-3.3.9c-2.1,0-3.6-.7-4.6-2-.8-1.1-1.2-2.5-1.2-4.1s.5-3.5,1.5-4.6,2.3-1.7,3.9-1.7,3.2.6,4.2,1.8,1.5,3,1.5,5.4h-7.9c0,.9.3,1.7.8,2.2s1.1.8,1.8.8.9-.1,1.2-.4.6-.7.8-1.3h0ZM88.6,201.8c0-.9-.3-1.6-.7-2.1s-1-.7-1.6-.7-1.3.2-1.7.8-.7,1.2-.7,2c0,0,4.7,0,4.7,0Z"/>
    <path d="M99.6,196.9v11.6c0,1.5,0,2.6-.3,3.2-.2.6-.6,1.1-1.1,1.5-.6.4-1.3.5-2.2.5h-1c-.4,0-.8-.1-1.2-.3l.6-2.7h.8c.3,0,.6,0,.8-.2.2-.1.3-.3.4-.5,0-.2,0-.8,0-1.8v-11.4h3.2-.1ZM96.4,195.3v-2.9h3.2v2.9h-3.2Z"/>
    <path d="M112,205l3.1.5c-.4,1.2-1,2-1.9,2.6s-2,.9-3.3.9c-2.1,0-3.6-.7-4.6-2-.8-1.1-1.2-2.5-1.2-4.1s.5-3.5,1.5-4.6,2.3-1.7,3.9-1.7,3.2.6,4.2,1.8,1.5,3,1.5,5.4h-7.9c0,.9.3,1.7.8,2.2s1.1.8,1.8.8.9-.1,1.2-.4.6-.7.8-1.3h0ZM112.2,201.8c0-.9-.3-1.6-.7-2.1s-1-.7-1.6-.7-1.3.2-1.7.8-.7,1.2-.7,2c0,0,4.7,0,4.7,0Z"/>
    <path d="M130.9,208.8h-3.2v-6.1c0-1.3,0-2.1-.2-2.5s-.4-.7-.7-.9c-.3-.2-.7-.3-1.1-.3s-1,.1-1.5.4c-.4.3-.7.7-.9,1.2s-.2,1.4-.2,2.7v5.4h-3.2v-11.9h2.9v1.8c1-1.3,2.4-2,3.9-2s1.3.1,1.9.4c.6.3,1,.6,1.3,1s.5.8.6,1.3.2,1.2.2,2.1v7.4h.2Z"/>
  </g>
  <path d="M96.1,108.9c.2,2.2,2,4,4.1,4.1,2.3,0,4.4-1.7,4.6-4.1l5.7-38.4c.3-2.1,0-4-.5-5.8-1.1-3.2-4.5-7.9-9.6-7.8-5.1,0-8.3,4.9-9.3,7.9-.9,2.5-.6,4.8-.5,5.7,1.7,14.9,4.4,25.6,5.5,38.4Z"/>
  <circle cx="100.6" cy="127.8" r="8.2"/>
  <g>
    <g>
      <rect class="st0" x="47.3" y="229.4" width="113.7" height="113.7" rx="6.3" ry="6.3"/>
      <path class="st2" d="M154.7,231.9c2.1,0,3.8,1.7,3.8,3.8v101c0,2.1-1.7,3.8-3.8,3.8H53.6c-2.1,0-3.8-1.7-3.8-3.8v-101c0-2.1,1.7-3.8,3.8-3.8h101M154.7,226.9H53.6c-4.9,0-8.8,4-8.8,8.8v101c0,4.9,4,8.8,8.8,8.8h101c4.9,0,8.8-4,8.8-8.8v-101c0-4.9-4-8.8-8.8-8.8h0Z"/>
    </g>
    <path d="M124.2,246.1c8,5.9,16,11.9,24,17.8.7.4,1.1,1.2,1,2,0,1.1-.9,1.7-1,1.7-7.8,5.9-15.6,11.8-23.4,17.6-.8.7-1.9.7-2.6.1-.5-.5-.8-1.3-.5-2,.8-4.1,1.6-8.3,2.4-12.4h-36.9c-.2,0-2.7-.2-4.3,1.8-1.2,1.5-1.1,3.2-1,3.6v50.5h-9.9v-50.7c0-1-.2-6.2,3.8-10.5,4.5-4.9,10.5-4.7,11.4-4.7h36.9c-.8-4.6-1.7-9.2-2.5-13.8,0,0,0-.9.8-1.3.6-.3,1.4-.2,2,.3h-.2Z"/>
  </g>
</svg>