<?xml version="1.0" encoding="UTF-8"?>
<svg id="Lag_1" xmlns="http://www.w3.org/2000/svg" version="1.1" viewBox="0 0 201.6 162.6">
  <!-- Generator: Adobe Illustrator 29.0.1, SVG Export Plug-In . SVG Version: 2.1.0 Build 192)  -->
  <defs>
    <style>
      .st0 {
        fill: #fff;
      }

      .st1 {
        fill: #e71c30;
      }
    </style>
  </defs>
  <g>
    <path class="st0" d="M84.2,148.4c-37.5,0-68-30.5-68-68S46.7,12.4,84.2,12.4s68,30.5,68,68-30.5,68-68,68Z"/>
    <path class="st1" d="M84.2,22.4c32,0,58,26,58,58s-26,58-58,58-58-26-58-58,26-58,58-58M84.2,2.4C41.1,2.4,6.2,37.3,6.2,80.4s34.9,78,78,78,78-34.9,78-78S127.3,2.4,84.2,2.4h0Z"/>
  </g>
  <g>
    <path d="M78.5,65.8l-10.8,1.2c-.3-2.2-.9-3.8-2.1-4.9-1.1-1.1-2.5-1.6-4.3-1.6s-4.3,1.1-6,3.2c-1.6,2.1-2.6,6.5-3.1,13.2,2.8-3.3,6.2-4.9,10.3-4.9s8.6,1.8,11.9,5.3c3.3,3.5,5,8.1,5,13.7s-1.7,10.7-5.2,14.3c-3.5,3.6-7.9,5.4-13.4,5.4s-10.7-2.3-14.4-6.8c-3.8-4.5-5.7-12-5.7-22.4s2-18.3,5.9-23c3.9-4.7,9-7,15.3-7s8,1.2,10.9,3.7c2.9,2.5,4.7,6,5.5,10.7ZM53.3,90c0,3.6.8,6.4,2.5,8.4s3.6,2.9,5.7,2.9,3.8-.8,5.1-2.4c1.4-1.6,2.1-4.2,2.1-7.9s-.7-6.5-2.2-8.3c-1.5-1.8-3.3-2.6-5.5-2.6s-3.9.8-5.4,2.5c-1.5,1.7-2.2,4.1-2.2,7.4Z"/>
    <path d="M107.8,51.3c5.6,0,10,2,13.2,6,3.8,4.7,5.7,12.6,5.7,23.6s-1.9,18.9-5.7,23.7c-3.1,4-7.5,5.9-13.1,5.9s-10.2-2.2-13.6-6.5c-3.5-4.3-5.2-12.1-5.2-23.2s1.9-18.8,5.7-23.6c3.1-4,7.5-5.9,13.1-5.9ZM107.8,60.6c-1.3,0-2.5.4-3.6,1.3-1.1.9-1.9,2.4-2.5,4.6-.8,2.9-1.1,7.7-1.1,14.5s.3,11.5,1,14c.7,2.5,1.5,4.2,2.6,5.1,1,.8,2.2,1.3,3.6,1.3s2.5-.4,3.6-1.3,1.9-2.4,2.5-4.6c.8-2.8,1.1-7.7,1.1-14.5s-.3-11.5-1-14c-.7-2.5-1.5-4.2-2.6-5.1s-2.2-1.3-3.6-1.3Z"/>
  </g>
</svg>