<?xml version="1.0" encoding="UTF-8"?>
<svg xmlns="http://www.w3.org/2000/svg" viewBox="0 0 15.59 15.59">
  <defs>
    <style>
      .cls-1 {
        fill: none;
      }

      .cls-1, .cls-2, .cls-3 {
        stroke-width: 0px;
      }

      .cls-2 {
        fill: #071f39;
      }

      .cls-3 {
        fill: #fff;
      }
    </style>
  </defs>
  <g id="Cirkel">
    <rect class="cls-2" x="0" y="0" width="15.59" height="15.59" rx="7.8" ry="7.8"/>
  </g>
  <g id="ICONS">
    <polygon class="cls-1" points="4.34 6.97 4.8 5.93 4.53 5.94 4.79 5.27 4.06 5.28 4.07 6.19 4.36 6.18 4.34 6.97"/>
    <path class="cls-3" d="M8.93,6.76c.46,0,.83-.37.83-.83s-.37-.83-.83-.83-.83.37-.83.83.37.83.83.83Z"/>
    <path class="cls-3" d="M12.35,11.48h0s-.55-1.38-.55-1.38c0,0-.1-.24-.22-.32-.25-.17-.66-.12-.66-.12,0,0,.08.32.14.73.04.27.02.7.02.7l.3.78s0,0,0,.01v.02s.01,0,.01,0c.09.17.26.29.46.29.29,0,.52-.23.52-.52,0-.07-.02-.13-.04-.19Z"/>
    <path class="cls-3" d="M6.46,10.18c-.02.11.05.21.15.24.11.03.21-.05.24-.15.05-.22.16-.42.29-.61l-.18-.43c-.24.27-.43.59-.5.95Z"/>
    <path class="cls-3" d="M9.99,9.07c-.4-.37-.92-.56-1.46-.56l.17.41c.38.04.73.18,1.01.44.42.39.61.93.54,1.5-.11.84-.93,1.5-1.87,1.5-2.06,0-3.74-1.68-3.74-3.75v-.67h0s0,0,0,0h.06c.12,0,.22-.1.22-.22h0s0-.01,0-.01c0-.02,0-.04,0-.07v-.23c.05,0,.1,0,.14,0,.13,0,.26-.01.38-.05.23-.08.36-.26.35-.5,0-.14,0-.27,0-.41,0-.35,0-.69,0-1.04,0-.13,0-.27,0-.4.08,0,.15,0,.22,0,.03,0,.05-.01.08-.03.2-.19.2-.5,0-.69-.03-.03-.05-.04-.1-.04-.12,0-.23,0-.35,0-.05,0-.11,0-.17,0,0-.33,0-.64,0-.96,0-.1-.04-.17-.11-.22-.08-.06-.17-.09-.26-.04-.09.05-.17.12-.17.24,0,.31,0,.62,0,.93,0,.02,0,.04,0,.06-.35,0-.69,0-1.02,0,0-.1-.02-.19-.02-.28,0-.26,0-.52,0-.77,0-.02,0-.03,0-.05-.05-.09-.12-.17-.24-.18-.11-.01-.18.04-.24.12-.03.03-.05.06-.05.11,0,.26,0,.53,0,.79,0,.08,0,.17,0,.26-.05,0-.09,0-.13,0-.13,0-.26,0-.39,0-.04,0-.06.01-.09.04-.19.19-.2.49,0,.69.03.03.06.05.11.04.07,0,.13,0,.2,0,0,.09,0,.18.01.26,0,.28,0,.56,0,.84,0,.26,0,.53,0,.79,0,.2.1.34.28.43.15.07.31.08.47.08.04,0,.09,0,.12,0,0,0,0,0,0,0v.3c0,.12.1.22.22.22h.04v.67c0,2.29,1.86,4.15,4.15,4.15,1.16,0,2.13-.79,2.27-1.85.09-.7-.15-1.37-.66-1.84ZM4.07,6.19v-.9s.72-.01.72-.01l-.26.67h.27s-.46,1.03-.46,1.03l.03-.79h-.29Z"/>
    <path class="cls-3" d="M9.12,8.17c.38.06.77.26.77.26,0,0-.08-.71-.15-1.05-.06-.33-.28-.41-.28-.41,0,0-.18.12-.53.12s-.52-.12-.52-.12l-1.1.91c-.22.18-.29.49-.18.75l.09.21.05.11.16.38.08.18.42.99h0c.07.18.25.3.45.3.27,0,.49-.22.49-.49,0-.04-.01-.08-.02-.12h0s-.02-.04-.02-.04c0-.02-.01-.04-.02-.06l-.38-.89h0s-.12-.28-.12-.28l-.17-.38-.04-.1-.02-.05.38-.28s.3-.01.68.05Z"/>
    <rect class="cls-3" x="7.24" y="8.84" width="0" height=".12" transform="translate(-2.88 3.51) rotate(-22.82)"/>
    <polygon class="cls-3" points="7.42 9.33 7.42 9.33 7.5 9.51 7.5 9.51 7.42 9.33"/>
    <polygon class="cls-3" points="7.26 8.95 7.42 9.33 7.42 9.33 7.26 8.95 7.26 8.95"/>
    <polygon class="cls-3" points="8.29 8.93 8.41 9.21 8.41 9.21 8.29 8.93 8.29 8.93"/>
    <polygon class="cls-3" points="8.13 8.55 8.13 8.55 8.08 8.45 8.08 8.45 8.13 8.55"/>
    <polygon class="cls-3" points="8.29 8.93 8.29 8.93 8.13 8.55 8.13 8.55 8.29 8.93"/>
  </g>
</svg>