<?xml version="1.0" encoding="UTF-8"?>
<svg xmlns="http://www.w3.org/2000/svg" viewBox="0 0 15.59 15.59">
  <defs>
    <style>
      .cls-1 {
        fill: none;
      }

      .cls-1, .cls-2, .cls-3 {
        stroke-width: 0px;
      }

      .cls-2 {
        fill: #071f39;
      }

      .cls-3 {
        fill: #fff;
      }
    </style>
  </defs>
  <g id="Cirkel">
    <rect class="cls-1" x="6.94" y="3.1" width="1.51" height=".67"/>
    <rect class="cls-2" x="0" y="0" width="15.59" height="15.59" rx="7.79" ry="7.79"/>
  </g>
  <g id="ICONS">
    <path class="cls-3" d="M4.78,12.41c0,.21.17.38.38.38h5.17c.21,0,.38-.17.38-.38v-6.92h-5.94v6.92ZM9.17,7.19c0-.14.11-.25.25-.25s.25.11.25.25v4.6c0,.14-.11.25-.25.25s-.25-.11-.25-.25v-4.6ZM7.51,7.19c0-.14.11-.25.25-.25s.25.11.25.25v4.6c0,.14-.11.25-.25.25s-.25-.11-.25-.25v-4.6ZM5.74,7.19c0-.14.11-.25.25-.25s.25.11.25.25v4.6c0,.14-.11.25-.25.25s-.25-.11-.25-.25v-4.6Z"/>
    <path class="cls-3" d="M10.79,3.77h-1.73v-.97c0-.17-.13-.3-.3-.3h-2.11c-.17,0-.3.13-.3.3v.97h-1.64c-.15,0-.28.14-.28.3v.83h6.64v-.83c0-.17-.12-.3-.28-.3ZM6.94,3.1h1.51v.67h-1.51v-.67Z"/>
  </g>
</svg>