<?xml version="1.0" encoding="UTF-8"?>
<svg xmlns="http://www.w3.org/2000/svg" viewBox="0 0 15.59 15.59">
  <defs>
    <style>
      .cls-1 {
        fill: #071f39;
      }

      .cls-1, .cls-2 {
        stroke-width: 0px;
      }

      .cls-2 {
        fill: #fff;
      }
    </style>
  </defs>
  <g id="Cirkel">
    <rect class="cls-1" x="0" y="0" width="15.59" height="15.59" rx="7.8" ry="7.8"/>
  </g>
  <g id="ICONS">
    <g>
      <g>
        <path class="cls-2" d="M13.76,7.81c-.04-.08-.1-.13-.13-.14-.38-.18-.75-.36-1.13-.54-.23-.56-.47-1.11-.7-1.67-.02-.05-.05-.14-.13-.22-.03-.03-.1-.11-.23-.15-.16-.06-.31-.04-.37-.03-.13.03-.23.1-.27.14l-1.4.72c-.08.04-.14.07-.21.11-.03.01-.06.03-.1.07-.02.03-.04.05-.05.08-.04.08-.06.12-.07.17-.02.08-.16.4-.54,1.28-.01.03-.03.07-.04.12,0,.03-.02.09,0,.16.02.11.1.18.12.2.03.03.11.08.22.08.12,0,.2-.05.22-.07.07-.05.11-.11.13-.15.19-.46.38-.92.57-1.38.27-.14.17-.07.43-.13-.27,1.49-.39,2.08-.72,3.57-.48.62-.81,1.12-1.29,1.73-.02.03-.07.11-.07.21,0,.03,0,.14.06.25.07.11.16.16.18.17.14.07.28.03.31.02.13-.04.21-.13.23-.16.48-.62.92-.97,1.4-1.59l.66-.72c.41.25.26.15.71.41.06.6.21.98.26,1.58,0,.04,0,.11.02.18.01.04.04.14.13.22.03.02.15.13.32.11.16-.01.25-.12.28-.15.03-.03.11-.12.12-.24,0-.04,0-.07,0-.09-.06-.68-.13-1.35-.19-2.03,0-.03,0-.07-.02-.12-.02-.06-.05-.11-.08-.14-.39-.49-.57-.71-.96-1.2.06-.48.15-.79.22-1.28.1.13.12.17.13.17.02.03.05.07.09.13,0,.03.03.08.07.13.04.05.09.08.12.1.42.19.83.39,1.25.58.03.01.13.04.25,0,.1-.03.15-.1.16-.11.01-.02.06-.08.07-.17.01-.11-.02-.19-.03-.2ZM11.75,7.33s0,.01.01.02c0,0,0-.01-.01-.02Z"/>
        <path class="cls-2" d="M11.67,4.83c.46,0,.84-.38.84-.84s-.38-.84-.84-.84-.84.38-.84.84.38.84.84.84Z"/>
      </g>
      <path class="cls-2" d="M6.79,8.14s.24-.03.27.19c.06.43.05.68-.47.96l-.22,1.14s.31.54.4.78.32.74.32.74c0,0,.06.2-.13.21s-.28-.1-.3-.14-.31-.58-.31-.58l-.25-.21-.16.62s-.04.11-.14.16-.65.36-.65.36c0,0-.11.04-.2-.07s-.08-.17,0-.26.55-.46.55-.46l-.03-.44-1.1-.23s-.12.3-.52.45-.69.32-.69.32v.53s-.02.16-.22.15-.22-.21-.22-.21v-.73l.32-.32-.59.03-.35.38s-.13.16-.29,0,0-.3,0-.3l.44-.5.56-.19s.03-.15.19-.36c0,0-.45-.33-.57-.52s-.01-.22-.01-.22c0,0,.07-.07.2.07s.47.33,1,.23,1.77-.37,1.77-.37l-.22-.88s-.03-.35.38-.07l1.23-.25Z"/>
    </g>
  </g>
</svg>