<?xml version="1.0" encoding="UTF-8"?>
<svg xmlns="http://www.w3.org/2000/svg" viewBox="0 0 15.59 15.59">
  <defs>
    <style>
      .cls-1 {
        fill: #071f39;
      }

      .cls-1, .cls-2 {
        stroke-width: 0px;
      }

      .cls-2 {
        fill: #fff;
      }
    </style>
  </defs>
  <g id="Cirkel">
    <rect class="cls-1" x="0" y="0" width="15.59" height="15.59" rx="7.8" ry="7.8"/>
  </g>
  <g id="ICONS">
    <g>
      <path class="cls-2" d="M5.4,7.93h3.56c.12,0,.21-.1.2-.22-.1-.81-.58-3.72-2.65-5.35-.12-.09-.3-.02-.32.13l-.98,5.21c-.02.12.07.24.2.24Z"/>
      <path class="cls-2" d="M12.67,11.12c-.3,0-.44-.12-.64-.29-.23-.2-.52-.45-1.07-.45s-.84.25-1.07.45c-.2.18-.34.29-.64.29s-.44-.12-.64-.29c-.23-.2-.52-.45-1.07-.45s-.84.25-1.07.45c-.2.18-.33.29-.64.29s-.44-.12-.64-.29c-.23-.2-.52-.45-1.07-.45s-.84.25-1.07.45c-.2.18-.34.29-.64.29-.18,0-.33.15-.33.33s.15.33.33.33c.55,0,.84-.25,1.07-.45.2-.18.34-.29.64-.29s.44.12.64.29c.23.2.52.45,1.07.45s.84-.25,1.07-.45c.2-.18.33-.29.64-.29s.44.12.64.29c.23.2.52.45,1.07.45s.84-.25,1.07-.45c.2-.18.34-.29.64-.29s.44.12.64.29c.23.2.52.45,1.07.45.18,0,.33-.15.33-.33s-.15-.33-.33-.33Z"/>
      <path class="cls-2" d="M13.21,7.05c-.18,0-.32.14-.32.32v.29c-.06-.04-.12-.08-.2-.08-.18,0-.33.15-.33.33,0,.1.05.18.12.24-.01.6-.22.89-.67.96,0-.22-.18-.44-.45-.44H3c-.35,0-.57.35-.4.63l.65.77c.21-.14.47-.26.85-.26.59,0,.91.28,1.15.48.2.17.3.27.57.27s.37-.09.57-.27c.23-.2.55-.48,1.14-.48s.91.28,1.15.48c.2.17.3.27.57.27s.37-.09.57-.27c.23-.2.55-.48,1.15-.48.11,0,.2.02.29.03l.49-.52c.6-.05.91-.41.95-1.1,0,0,0,0,0,0,.08,0,.15-.03.2-.08v1.82c0,.18.14.32.32.32s.32-.14.32-.32v-2.61c0-.18-.14-.32-.32-.32Z"/>
    </g>
  </g>
</svg>