<?xml version="1.0" encoding="UTF-8"?>
<svg xmlns="http://www.w3.org/2000/svg" viewBox="0 0 15.59 15.59">
  <defs>
    <style>
      .cls-1 {
        fill: #071f39;
      }

      .cls-1, .cls-2 {
        stroke-width: 0px;
      }

      .cls-2 {
        fill: #fff;
      }
    </style>
  </defs>
  <g id="Cirkel">
    <rect class="cls-1" x="0" y="0" width="15.59" height="15.59" rx="7.8" ry="7.8"/>
  </g>
  <g id="ICONS">
    <g>
      <path class="cls-2" d="M11.12,11.96l-1.49-.36,1.24-.32c.24-.06.39-.31.33-.56-.06-.25-.31-.39-.56-.33l-2.92.74-3.04-.74c-.25-.06-.49.09-.55.34-.06.25.09.49.34.55l1.36.33-1.37.35c-.24.06-.39.31-.33.56.05.21.24.34.44.34.04,0,.08,0,.11-.01l3.04-.77,3.17.77s.07.01.11.01c.21,0,.39-.14.44-.35.06-.25-.09-.49-.34-.55Z"/>
      <path class="cls-2" d="M6.85,10.32c.08-.1-.57-.47-.65-1.2-.06-.51.17-1.05.21-1.13.12-.26.22-.36.32-.69.11-.35-.09-.7-.02-.71.35-.05.46,1.3.63,1.29.2,0,.36-.72.42-1.22.12-.97-.11-1.57.06-1.64.17-.07.26.52.47.82.4.57.78,1.1.89,1.93.04.3.12.89-.15,1.51-.29.67-.8.97-.74,1.05.07.09.96-.21,1.43-.67.54-.54.69-1.2.74-1.42.21-1-.14-1.83-.36-2.33-.24-.55-.55-.94-1.16-1.72-.43-.54-1.61-2.04-1.93-1.85-.07.04-.06.15-.08.32-.03.39-.2.76-.54,1.48-.51,1.07-.67,1.08-1.07,1.96-.35.76-.53,1.17-.51,1.75,0,.19.03.88.51,1.51.5.65,1.44,1.08,1.53.98Z"/>
    </g>
  </g>
</svg>