<?xml version="1.0" encoding="UTF-8"?>
<svg xmlns="http://www.w3.org/2000/svg" viewBox="0 0 15.59 15.59">
  <defs>
    <style>
      .cls-1 {
        fill: #071f39;
      }

      .cls-1, .cls-2 {
        stroke-width: 0px;
      }

      .cls-2 {
        fill: #fff;
      }
    </style>
  </defs>
  <g id="Cirkel">
    <rect class="cls-1" x="0" y="0" width="15.59" height="15.59" rx="7.8" ry="7.8"/>
  </g>
  <g id="ICONS">
    <g>
      <path class="cls-2" d="M10.53,12.79l-.72-.17.51-.13c.27-.07.43-.34.36-.61s-.34-.43-.61-.36l-2.34.59-2.44-.6c-.26-.07-.54.1-.6.37-.07.27.1.54.37.6l.61.15-.61.16c-.27.07-.43.34-.36.61.06.23.26.38.48.38.04,0,.08,0,.12-.02l2.44-.62,2.55.62s.08.01.12.01c.23,0,.43-.15.49-.38.07-.27-.1-.54-.37-.6Z"/>
      <path class="cls-2" d="M8.2,11.58c.05.07.78-.17,1.16-.54.44-.44.56-.97.6-1.15.17-.82-.12-1.49-.29-1.9-.19-.45-.44-.77-.94-1.4-.35-.44-1.31-1.66-1.57-1.51-.06.03-.05.12-.06.26-.03.32-.16.62-.44,1.2-.41.87-.54.88-.87,1.59-.28.62-.43.95-.42,1.42,0,.15.03.71.42,1.22.41.53,1.17.88,1.24.79.07-.08-.46-.38-.53-.98-.05-.41.14-.85.17-.92.09-.21.18-.29.26-.56.09-.29-.07-.57-.02-.57.28-.04.38,1.06.51,1.05.16,0,.29-.58.34-.99.09-.79-.09-1.28.05-1.33.14-.06.21.42.38.67.33.46.63.9.72,1.57.03.25.09.72-.12,1.22-.24.54-.65.79-.6.86Z"/>
      <path class="cls-2" d="M13.67,5.22l-5.62-3.37c-.16-.09-.36-.09-.51,0L1.92,5.22c-.24.14-.31.45-.17.69.09.16.26.24.43.24.09,0,.18-.02.26-.07l5.36-3.21,5.36,3.21c.23.14.54.06.69-.17s.07-.54-.17-.69Z"/>
    </g>
  </g>
</svg>