<?xml version="1.0" encoding="UTF-8"?>
<svg xmlns="http://www.w3.org/2000/svg" viewBox="0 0 15.59 15.59">
  <defs>
    <style>
      .cls-1 {
        fill: #071f39;
      }

      .cls-1, .cls-2 {
        stroke-width: 0px;
      }

      .cls-2 {
        fill: #fff;
      }
    </style>
  </defs>
  <g id="Cirkel">
    <rect class="cls-1" x="0" y="0" width="15.59" height="15.59" rx="7.8" ry="7.8"/>
  </g>
  <g id="ICONS">
    <path class="cls-2" d="M12.63,3.23c0-.08-.05-.1-.13-.11,0,0-.22-.04-.39-.05-.77-.06-1.56-.1-2.3.02-.76.13-1.46.42-2.22.54-.74.12-1.51.04-2.28-.02-.61-.05-1.23,0-1.83.13l-.02-.19c.08-.06.13-.15.13-.26,0-.19-.15-.34-.34-.34s-.34.15-.34.34c0,.13.08.25.19.3l.95,9.44c0,.09.09.16.18.16,0,0,.01,0,.02,0,.1,0,.17-.1.16-.2l-.29-2.93c.61-.14,1.25-.21,1.88-.18.77.04,1.54.1,2.27-.04.76-.15,1.45-.45,2.21-.6.73-.14,1.49-.11,2.26-.07.17,0,.43.04.43.04.08,0,.09-.03.09-.11l-.63-5.88ZM3.61,4.67c.36-.04.52-.13.71-.24.23-.13.49-.29,1-.34.52-.05.8.05,1.05.13.22.07.39.13.75.1.36-.04.51-.13.71-.24.23-.13.49-.29,1-.34.52-.05.8.05,1.05.13.21.07.39.13.74.1l.07.71c-.52.05-.8-.05-1.05-.13-.21-.07-.39-.13-.74-.1-.36.04-.51.13-.71.24-.23.13-.49.29-1,.34-.52.05-.8-.05-1.05-.13-.22-.07-.39-.13-.75-.1-.36.04-.52.13-.71.24-.23.13-.49.29-1,.34l-.07-.71ZM3.75,6.06c.36-.04.52-.13.71-.24.23-.13.49-.29,1-.34.52-.05.8.05,1.05.13.21.07.39.13.75.1.36-.04.51-.13.71-.24.23-.13.49-.29,1-.34.52-.05.8.05,1.05.13.21.07.39.13.74.1l.07.71c-.52.05-.8-.05-1.05-.13-.22-.07-.39-.13-.74-.1-.36.04-.51.13-.71.24-.23.13-.49.29-1,.34-.52.05-.8-.05-1.05-.13-.22-.07-.39-.13-.75-.1-.36.04-.52.13-.71.24-.23.13-.49.29-1,.34l-.07-.71ZM3.87,7.46c.36-.04.52-.13.71-.24.23-.13.49-.29,1-.34.52-.05.8.05,1.05.13.22.07.39.13.75.1.36-.04.51-.13.71-.24.23-.13.49-.29,1-.34.52-.05.8.05,1.05.13.21.07.39.13.74.1l.07.71c-.52.05-.8-.05-1.05-.13-.22-.07-.39-.13-.74-.1-.36.04-.51.13-.71.24-.23.13-.49.29-1,.34-.52.05-.8-.05-1.05-.13-.22-.07-.39-.13-.75-.1-.36.04-.52.13-.71.24-.23.13-.49.29-1,.34l-.07-.71ZM10.08,8.73c-.22-.07-.39-.13-.74-.1-.36.04-.51.13-.71.24-.23.13-.49.29-1,.34-.52.05-.8-.05-1.05-.13-.22-.07-.39-.13-.75-.1-.36.04-.52.13-.71.24-.23.13-.49.29-1,.34l-.07-.71c.36-.04.52-.13.71-.24.23-.13.49-.29,1-.34.52-.05.8.05,1.05.13.22.07.38.13.75.1.36-.04.51-.13.71-.24.23-.13.49-.29,1-.34.52-.05.8.05,1.05.13.21.07.39.13.74.1l.07.71c-.52.05-.8-.05-1.05-.13Z"/>
  </g>
</svg>