<?xml version="1.0" encoding="UTF-8"?>
<svg xmlns="http://www.w3.org/2000/svg" viewBox="0 0 15.59 15.59">
  <defs>
    <style>
      .cls-1 {
        fill: #071f39;
      }

      .cls-1, .cls-2 {
        stroke-width: 0px;
      }

      .cls-2 {
        fill: #fff;
      }
    </style>
  </defs>
  <g id="Cirkel">
    <rect class="cls-1" x="0" y="0" width="15.55" height="15.55" rx="7.78" ry="7.78"/>
  </g>
  <g id="ICONS">
    <path class="cls-2" d="M8.89,7.81h5.11c.39,0,.39-.61,0-.61h-5.11c-.39,0-.39.61,0,.61h0Z"/>
    <circle class="cls-2" cx="4.89" cy="5.15" r=".77"/>
    <path class="cls-2" d="M12.85,9.87s-.09-.05-.13-.07c-.09-.06-.16-.13-.24-.2-.37-.34-.85-.52-1.35-.39-.23.06-.44.17-.63.31s-.35.28-.56.37c-.14.06-.31.08-.44.06-.2-.04-.36-.16-.51-.3-.38-.34-.84-.55-1.36-.47-.21.03-.41.12-.59.24-.19.12-.34.29-.53.4-.31.17-.64.15-.94-.06-.18-.12-.32-.28-.51-.39-.2-.11-.42-.17-.65-.19-.5-.05-.93.17-1.28.52-.15.15-.3.22-.37.24-.06.02-.16.02-.19.02-.2-.01-.39.05-.45.25-.05.17.06.42.25.45h0c.28.05.55,0,.81-.12.21-.1.38-.25.54-.41.11-.11.22-.17.38-.21.14-.03.3-.03.45.02.17.05.31.17.45.3.38.32.84.47,1.33.4.21-.03.42-.11.6-.23.19-.12.34-.28.53-.4.16-.09.29-.14.47-.13.05,0,.13.02.2.05.09.04.19.1.27.16.2.16.38.35.63.45.21.09.44.15.68.13s.47-.09.69-.2.37-.27.57-.39.37-.2.57-.19c.06,0,.16.03.24.08.11.06.19.14.28.22.29.27.66.45,1.05.49.2.02.36-.18.36-.36,0-.21-.15-.35-.35-.36-.1,0-.22-.06-.26-.08Z"/>
    <path class="cls-2" d="M9.6,9.46s0,0,.01,0c.03,0,.08,0,.13-.03.1-.04.21-.12.33-.21.05-.04.09-.07.14-.1.18-.13.37-.23.55-.3v-.95c0-.32-.28-.62-.61-.61-.33.01-.61.27-.61.61v1.59s.03.01.05.02Z"/>
    <g>
      <path class="cls-2" d="M5.05,9.36c-.2-.11-.42-.17-.65-.19-.05,0-.09,0-.14,0-.02,0-.04,0-.06,0l.05.54,1.15-.09c-.11-.09-.22-.19-.35-.26Z"/>
      <path class="cls-2" d="M1.94,8.79h0s2.07-1.12,2.07-1.12c.03-.02.06,0,.06.03l.09.98s.07,0,.1,0c.06,0,.12,0,.18,0,.3.03.57.11.83.25.17.09.29.19.4.29.06.05.11.09.16.13.08.06.16.09.24.09.04,0,.09-.01.14-.03l-.05-1.9s.03-.06.06-.04l.58.24s.06.05.06.09l-.02.7c0,.16.1.29.24.34.14-.06.28-.11.41-.13.03-.04.05-.09.06-.14h0s.22-.98.22-.98c.04-.16-.04-.33-.19-.42l-1.71-.96c-.07-.04-.15-.06-.23-.06l-1.21.04c-.08,0-.16.03-.22.07l-2.65,1.84s-.02.01-.03.02h0s0,0,0,0c-.09.07-.15.18-.15.3,0,.22.17.4.39.4.07,0,.13-.02.18-.04Z"/>
    </g>
  </g>
</svg>