<?xml version="1.0" encoding="UTF-8"?>
<svg xmlns="http://www.w3.org/2000/svg" viewBox="0 0 15.59 15.59">
  <defs>
    <style>
      .cls-1 {
        fill: #071f39;
      }

      .cls-1, .cls-2 {
        stroke-width: 0px;
      }

      .cls-2 {
        fill: #fff;
      }
    </style>
  </defs>
  <g id="Cirkel">
    <rect class="cls-1" x="0" y="0" width="15.59" height="15.59" rx="7.8" ry="7.8"/>
  </g>
  <g id="ICONS">
    <path class="cls-2" d="M12.78,2.91c0-.08-.05-.11-.13-.11,0,0-.23-.04-.41-.06-.81-.06-1.64-.11-2.41.02-.79.13-1.53.44-2.32.57-.78.13-1.58.04-2.39-.02-.64-.05-1.29,0-1.93.13l-.02-.2c.08-.07.14-.16.14-.28,0-.2-.16-.36-.36-.36s-.36.16-.36.36c0,.14.08.26.2.32l.99,9.9c0,.1.09.17.19.17,0,0,.01,0,.02,0,.1-.01.18-.1.17-.21l-.31-3.07c.64-.15,1.32-.22,1.97-.18.8.04,1.61.11,2.38-.04.8-.15,1.52-.47,2.32-.63.77-.15,1.57-.11,2.37-.07.18,0,.46.04.46.04.08,0,.1-.03.09-.11l-.66-6.17ZM9.34,4.19l.41-.11s0,0,0,0l.13-.4s.02-.01.02,0l.23.35s0,0,.01,0h.42s.02.01.01.02l-.27.33s0,0,0,.01l.13.4s0,.02-.02.02l-.39-.15s0,0-.01,0l-.34.25s-.02,0-.02-.01l.02-.42s0,0,0-.01l-.34-.25s0-.02,0-.02ZM9.83,7.16c-.24.09-.51-.03-.6-.27-.09-.24.03-.51.27-.6.24-.09.51.03.6.27.09.24-.03.51-.27.6ZM7.26,4.44l.41-.11s0,0,0,0l.13-.4s.02-.01.02,0l.23.35s0,0,.01,0h.42s.02.01.01.02l-.27.33s0,0,0,.01l.13.4s0,.02-.02.02l-.39-.15s0,0-.01,0l-.34.25s-.02,0-.02-.01l.02-.42s0,0,0-.01l-.34-.25s0-.02,0-.02ZM8.01,6.98l.17-1.27c0-.12.09-.21.21-.21l.85.02c.14,0,.2.09.2.2,0,.1-.06.16-.16.19-.03.01-.06.01-.09.01l-.49.08.63,1.83c-.16.02-.24-.03-.37-.12-.16-.11-.38-.26-.76-.22-.37.04-.55.24-.68.39-.11.12-.17.19-.34.21-.14.02-.22-.02-.32-.08l1.16-1.02ZM5.18,4.68l.41-.11s0,0,0,0l.13-.4s.02-.01.02,0l.23.35s0,0,.01,0h.42s.02.01.01.02l-.27.33s0,0,0,.01l.13.4s0,.02-.02.02l-.39-.15s0,0-.01,0l-.34.25s-.02,0-.02-.01l.02-.42s0,0,0-.01l-.34-.25s0-.02,0-.02ZM11.57,8.34c-.35.04-.55-.1-.71-.21-.14-.1-.23-.16-.42-.14-.19.02-.27.11-.38.23-.13.15-.29.33-.64.37-.35.04-.55-.1-.71-.21-.14-.1-.23-.16-.42-.14-.19.02-.27.11-.38.23-.13.15-.29.33-.64.37-.35.04-.55-.1-.71-.21-.14-.1-.23-.16-.43-.14-.19.02-.27.11-.38.23-.13.14-.29.33-.64.37-.11.01-.22-.07-.23-.18-.01-.11.07-.22.18-.23.19-.02.27-.11.38-.23.13-.14.29-.33.64-.37.35-.04.55.1.71.21.14.1.23.16.43.14.19-.02.27-.11.38-.23.13-.14.29-.33.64-.37.35-.04.55.1.71.21.14.1.23.16.42.14.19-.02.27-.11.38-.23.13-.14.29-.33.64-.37.35-.04.55.1.71.21.14.1.23.16.42.14.11-.01.22.07.23.18.01.11-.07.22-.18.23Z"/>
  </g>
</svg>