<?xml version="1.0" encoding="UTF-8"?>
<svg xmlns="http://www.w3.org/2000/svg" viewBox="0 0 15.59 15.59">
  <defs>
    <style>
      .cls-1 {
        fill: #071f39;
      }

      .cls-1, .cls-2 {
        stroke-width: 0px;
      }

      .cls-2 {
        fill: #fff;
      }
    </style>
  </defs>
  <g id="Cirkel">
    <rect class="cls-1" x="0" y="0" width="15.59" height="15.59" rx="7.79" ry="7.79"/>
  </g>
  <g id="ICONS">
    <g>
      <path class="cls-2" d="M3.09,9.97h.49v1.39c0,.07.02.12.05.18.06.1.17.17.3.17s.24-.07.3-.17c.03-.05.05-.11.05-.18v-1.39h7.03v1.39c0,.07.02.12.05.18.06.1.17.17.3.17s.24-.07.3-.17c.03-.05.05-.11.05-.18v-1.39h.5v-.75H3.09v.75Z"/>
      <path class="cls-2" d="M11.48,5.12v-.32c0-.19-.16-.35-.35-.35s-.35.16-.35.35v.32h-5.97v-.32c0-.19-.16-.35-.35-.35s-.35.16-.35.35v.32h-1.02v1.05h9.42v-1.05h-1.03Z"/>
      <polygon class="cls-2" points="10.78 6.59 4.81 6.59 4.11 6.59 3.09 6.59 3.09 7.64 4.11 7.64 4.11 8.8 4.81 8.8 4.81 7.64 10.78 7.64 10.78 8.8 11.48 8.8 11.48 7.64 12.51 7.64 12.51 6.59 11.48 6.59 10.78 6.59"/>
    </g>
  </g>
</svg>