<?xml version="1.0" encoding="UTF-8"?>
<svg xmlns="http://www.w3.org/2000/svg" viewBox="0 0 15.59 15.59">
  <defs>
    <style>
      .cls-1 {
        fill: #071f39;
      }

      .cls-1, .cls-2 {
        stroke-width: 0px;
      }

      .cls-2 {
        fill: #fff;
      }
    </style>
  </defs>
  <g id="Cirkel">
    <rect class="cls-1" x="0" y="0" width="15.59" height="15.59" rx="7.8" ry="7.8"/>
  </g>
  <g id="ICONS">
    <g>
      <path class="cls-2" d="M7.02,5.97c.53,0,.95-.43.95-.95s-.43-.95-.95-.95-.95.43-.95.95.43.95.95.95"/>
      <path class="cls-2" d="M10.34,3.29c.53,0,.95-.43.95-.95s-.43-.95-.95-.95-.95.43-.95.95.43.95.95.95"/>
      <path class="cls-2" d="M11.47,4.95l-3.49,1.36-3.12-.04.18-.87c.03-.06.05-.14.05-.21.03-.28-.09-.5-.34-.58-.3-.1-.57.03-.69.33l-.66,1.66c-.06.14-.06.29,0,.43.06.14.18.25.31.29l2.36,1.26,1.33,2.55s-.86,1.66-.99,1.95,0,.56.25.64c.05.02.11.03.16.03.11,0,.22-.03.34-.1.03-.01.06-.04.09-.06,0,0,1.42-1.58,1.53-1.7s.15-.35.12-.45-.16-.45-.12-.52.18-.08.28-.03c.19.09.57.6.55.82s-.34.65-.37.71c0,0-.49.72-.74,1.15-.24.41.33.68.69.47.28-.17,1.67-1.98,1.67-1.98,0,0,.47-.47-.29-1.69-.49-.8-1.52-2.76-1.52-2.76l2.79-1.85h.01c.14-.08.23-.23.23-.39,0-.31-.34-.54-.63-.39Z"/>
    </g>
  </g>
</svg>