<?xml version="1.0" encoding="UTF-8"?>
<svg xmlns="http://www.w3.org/2000/svg" viewBox="0 0 15.59 15.59">
  <defs>
    <style>
      .cls-1 {
        fill: #071f39;
      }

      .cls-1, .cls-2 {
        stroke-width: 0px;
      }

      .cls-2 {
        fill: #fff;
      }
    </style>
  </defs>
  <g id="Cirkel">
    <rect class="cls-1" x="0" y="0" width="15.59" height="15.59" rx="7.8" ry="7.8"/>
  </g>
  <g id="ICONS">
    <path class="cls-2" d="M13.38,9.03c-.11,0-.21.05-.29.12v-.38c0-.19-.15-.34-.34-.34s-.34.15-.34.34v.49c-.53-.03-1.03-.28-1.03-1.49v-2.11l.17.03s.04,0,.07.01c.33.06.62-.19.61-.51,0-.18-.1-.32-.25-.42-.45-.3-.9-.6-1.35-.89-.09-.06-.09-.21-.09-.21v-.46s-.01-.01-.03-.03c-.03-.02-.06,0-.06,0,0,0-1.84,1.7-2.66,2.54-.03.03-.25.32-.25.32,0,0-3.98.03-4.2.03-.21,0-.43-.01-.64.02-.53.07-.91.52-.91,1.07,0,.56,0,1.11,0,1.67,0,.03,0,.06,0,.08h.76v-.11c0-.52,0-1.05,0-1.57,0-.04,0-.09.03-.12.1-.16.2-.32.31-.47.01-.02.03-.03.05-.05,0,.03,0,.04,0,.06,0,.66,0,1.32,0,1.98,0,.03-.02.07-.03.1-.1.17-.21.33-.32.5-.02.04-.04.09-.04.14,0,.59,0,1.17,0,1.76,0,.3,0,.6,0,.9.01.28.29.49.57.43.24-.05.39-.24.39-.51,0-.73,0-1.46,0-2.19,0-.06.02-.12.05-.17.12-.2.24-.39.37-.58.01-.02.03-.04.06-.08,0,.25,0,.48,0,.71,0,.04,0,.08.02.12.34.8.68,1.61,1.02,2.41.11.25.38.36.64.25.25-.11.35-.38.24-.63-.3-.72-.6-1.43-.9-2.15-.02-.05-.02-.09.01-.14.12-.2.24-.4.35-.6.03-.06.07-.08.14-.08.75,0,1.5,0,2.26,0,.03,0,.06,0,.09,0v.07c0,.52,0,1.04,0,1.56,0,.5,0,1,0,1.5,0,.35.3.58.62.48.22-.07.34-.25.34-.51,0-.98,0-1.97,0-2.95,0-.06.01-.12.04-.17.34-.7.68-1.4,1.02-2.09l.17-.33c.13-.25.25-.5.37-.74.07-.15.07-.15.24-.11.17.03.34.07.52.1v2.16c0,1.12.4,1.66,1.25,1.71v2.56c0,.19.15.34.34.34s.34-.15.34-.34v-2.31c.07.07.17.12.29.12.23,0,.41-.18.41-.41s-.18-.41-.41-.41Z"/>
  </g>
</svg>