<?xml version="1.0" encoding="UTF-8"?>
<svg xmlns="http://www.w3.org/2000/svg" viewBox="0 0 15.59 15.59">
  <defs>
    <style>
      .cls-1 {
        fill: #021e3a;
      }

      .cls-1, .cls-2 {
        stroke-width: 0px;
      }

      .cls-2 {
        fill: #fff;
      }
    </style>
  </defs>
  <g id="Cirkel">
    <rect class="cls-1" x="0" y="0" width="15.59" height="15.59" rx="7.8" ry="7.8"/>
  </g>
  <g id="ICONS">
    <path class="cls-2" d="M12.76,4.44H2.56c-.43,0-.77.35-.77.77v4.99c0,.43.35.77.77.77h1.55s.04.01.06.01h6.99s.04,0,.06-.01h1.55c.43,0,.77-.35.77-.77v-4.99c0-.43-.35-.77-.77-.77ZM3.65,10.2h-1.09v-.63s0,0,0,0h1.09v.63ZM3.65,8.8h-1.09s0,0,0,0v-.73s0,0,0,0h1.09v.73ZM3.65,7.3h-1.09s0,0,0,0v-.73s0,0,0,0h1.09v.73ZM3.65,5.8h-1.09s0,0,0,0v-.59h1.09v.59ZM8.89,8l-.59.34c-.28.16-.73.42-1.01.58l-.59.34c-.28.16-.51.03-.51-.29v-2.52c0-.32.23-.45.51-.29l.59.34c.28.16.73.42,1.01.58l.59.34c.28.16.28.42,0,.58ZM12.76,10.2h-1.09v-.63h1.09v.63ZM12.76,8.8h-1.09v-.73h1.09v.73ZM12.76,7.3h-1.09v-.73h1.09v.73ZM12.76,5.8h-1.09v-.59h1.09v.59Z"/>
  </g>
</svg>