<?xml version="1.0" encoding="UTF-8"?>
<svg xmlns="http://www.w3.org/2000/svg" viewBox="0 0 15.59 15.59">
  <defs>
    <style>
      .cls-1 {
        fill: #071f39;
      }

      .cls-1, .cls-2 {
        stroke-width: 0px;
      }

      .cls-2 {
        fill: #fff;
      }
    </style>
  </defs>
  <g id="Cirkel">
    <rect class="cls-1" x="0" y="0" width="15.59" height="15.59" rx="7.8" ry="7.8"/>
  </g>
  <g id="ICONS">
    <path class="cls-2" d="M7.79,1.8C4.49,1.8,1.8,4.49,1.8,7.8s2.69,5.99,5.99,5.99,6-2.69,6-5.99S11.1,1.8,7.79,1.8ZM7.79,2.55c2.9,0,5.25,2.35,5.25,5.24,0,.04,0,.07-.01.1-.19-.07-.37-.13-.57-.21-.87-.37-1.11-.57-1.19-.64-.13-.11-.25-.24-.36-.37-.62.32-1.27.59-1.93.79-.82.25-1.72.42-2.61.48-.62.04-1.05.02-1.84-.01-.65-.03-1.32-.09-1.99-.16,0-2.88,2.35-5.23,5.24-5.23ZM12.44,10.02c-.31-.11-.77-.27-1.29-.66-.16-.12-.31-.25-.45-.4-.29.13-.59.25-.89.35-.9.32-1.65.48-2.01.54-.85.15-1.49.16-2.23.17-.7.01-1.29-.02-2.38-.09-.06,0-.12,0-.18-.01-.14-.32-.26-.65-.33-1,.17.01.34.02.51.03,1.16.07,1.7.1,2.36.08.73-.01,1.36-.02,2.19-.17.35-.06,1.08-.22,1.97-.53.32-.12.65-.24.96-.38l.09-.04.06.07c.15.16.31.3.48.43.48.36.92.52,1.21.62.11.04.21.07.32.1-.08.31-.19.6-.32.88-.02,0-.05-.01-.07-.02ZM11.01,11.9c-.13-.06-.25-.12-.37-.2-.18-.11-.35-.23-.52-.36-.61.21-1.23.38-1.86.48-.78.13-1.45.16-2.16.2-.24.01-.59.02-1.23.03-.04,0-.07,0-.11,0-.29-.21-.56-.44-.8-.71.19,0,.38,0,.57-.01.71-.02,1.11-.02,1.37-.04.79-.04,1.53-.07,2.39-.22.7-.12,1.41-.31,2.1-.55l.07-.03.06.05c.19.16.39.3.6.43.18.11.37.2.57.29-.21.23-.43.44-.67.63Z"/>
  </g>
</svg>