<?xml version="1.0" encoding="UTF-8"?>
<svg xmlns="http://www.w3.org/2000/svg" viewBox="0 0 15.59 15.59">
  <defs>
    <style>
      .cls-1 {
        fill: #071f39;
      }

      .cls-1, .cls-2 {
        stroke-width: 0px;
      }

      .cls-2 {
        fill: #fff;
      }
    </style>
  </defs>
  <g id="Cirkel">
    <rect class="cls-1" x="0" y="0" width="15.59" height="15.59" rx="7.8" ry="7.8"/>
  </g>
  <g id="ICONS">
    <path class="cls-2" d="M14.03,7.41c-.04-.71-.2-1.39-.48-2.05-.09-.22-.2-.43-.31-.63-.28-.5-.62-.95-1.03-1.36-.57-.57-1.24-1.02-1.99-1.34-.26-.11-.52-.2-.79-.27-.53-.14-1.08-.22-1.64-.22s-1.12.07-1.66.22c-.26.07-.52.16-.78.27-.74.31-1.41.77-1.99,1.34-.41.41-.76.87-1.04,1.37-.11.2-.21.4-.3.61-.28.65-.44,1.34-.48,2.05,0,.13-.01.26-.01.39,0,.84.17,1.66.49,2.43.27.64.64,1.23,1.11,1.75.07.08.15.16.23.24.56.56,1.21,1,1.93,1.31.02,0,.04.02.06.03.77.33,1.59.49,2.43.49s1.66-.17,2.43-.49c.02,0,.04-.02.06-.03.72-.31,1.37-.75,1.93-1.31.08-.08.15-.16.23-.24.47-.52.84-1.1,1.11-1.75.33-.77.49-1.59.49-2.43,0-.13,0-.26-.01-.39ZM2.38,7.72c.04-.84.3-1.9.74-2.67.07-.12.19-.19.32-.2l1.48-.15c.15-.01.29.05.37.17l.71.98c.08.11.1.24.06.37l-.58,1.78c-.04.13-.14.23-.27.27l-1.44.43c-.12.03-.24.02-.34-.05l-.86-.57c-.12-.08-.19-.21-.19-.36ZM7.31,12.03l-1.07.78c-.11.08-.26.11-.4.06-.91-.35-1.7-.94-2.3-1.69-.08-.1-.11-.25-.07-.37l.33-1.2c.04-.14.14-.24.28-.28l1.33-.4c.12-.04.26-.01.36.06l1.54,1.12c.11.08.17.2.17.33v1.27c0,.13-.06.26-.17.33ZM6.57,5.51l-.85-1.18c-.07-.09-.09-.21-.07-.33l.23-1.06c.03-.15.14-.27.28-.31.52-.16,1.06-.25,1.63-.25s1.1.09,1.61.25c.14.04.25.17.28.31l.24,1.11c.02.11,0,.23-.07.33l-.81,1.14c-.08.11-.2.17-.34.17h-1.82c-.13,0-.26-.06-.33-.17ZM9.34,12.8l-1.03-.75c-.11-.08-.17-.2-.17-.33v-1.33c0-.13.06-.26.17-.33l1.51-1.1c.1-.08.24-.1.36-.06l1.31.39c.14.04.24.15.28.28l.34,1.22c.04.13.01.27-.07.37-.6.75-1.39,1.34-2.3,1.69-.13.05-.28.03-.4-.06ZM13.03,8.07l-.86.57c-.1.07-.23.09-.34.05l-1.45-.43c-.13-.04-.23-.14-.27-.27l-.56-1.73c-.04-.12-.02-.26.06-.36l.72-1.02c.09-.12.23-.19.38-.17l1.47.14c.13.01.25.08.32.2.45.77.76,1.77.75,2.68,0,.14-.08.26-.19.34Z"/>
  </g>
</svg>