<?xml version="1.0" encoding="UTF-8"?>
<svg xmlns="http://www.w3.org/2000/svg" viewBox="0 0 15.59 15.59">
  <defs>
    <style>
      .cls-1 {
        fill: #071f39;
      }

      .cls-1, .cls-2 {
        stroke-width: 0px;
      }

      .cls-2 {
        fill: #fff;
      }
    </style>
  </defs>
  <g id="Cirkel">
    <rect class="cls-1" x="0" y="0" width="15.59" height="15.59" rx="7.8" ry="7.8"/>
  </g>
  <g id="ICONS">
    <path class="cls-2" d="M13.48,9.48h-1.09v-1.59h1.09c.24,0,.43-.19.43-.43s-.19-.43-.43-.43h-3.05c-.24,0-.43.19-.43.43s.19.43.43.43h1.09v1.59h-3.12v-3.73h2.14c.3,0,.54-.24.54-.54s-.24-.54-.54-.54h-5.37c-.3,0-.54.24-.54.54s.24.54.54.54h2.14v3.73h-3.24v-1.59h1.09c.24,0,.43-.19.43-.43s-.19-.43-.43-.43h-3.05c-.24,0-.43.19-.43.43s.19.43.43.43h1.09v1.59h-1.03c-.24,0-.43.19-.43.43s.19.43.43.43h11.31c.24,0,.43-.19.43-.43s-.19-.43-.43-.43Z"/>
  </g>
</svg>