<?xml version="1.0" encoding="UTF-8"?>
<svg xmlns="http://www.w3.org/2000/svg" viewBox="0 0 15.59 15.59">
  <defs>
    <style>
      .cls-1 {
        fill: #071f39;
      }

      .cls-1, .cls-2 {
        stroke-width: 0px;
      }

      .cls-2 {
        fill: #fff;
      }
    </style>
  </defs>
  <g id="Cirkel">
    <rect class="cls-1" x=".01" y="0" width="15.59" height="15.59" rx="7.79" ry="7.79"/>
  </g>
  <g id="ICONS">
    <path class="cls-2" d="M12.8,9.91s-.09-.05-.13-.07c-.09-.06-.16-.13-.24-.2-.37-.34-.85-.52-1.35-.39-.23.06-.44.17-.63.31s-.35.28-.56.37c-.15.06-.31.09-.44.06-.2-.04-.36-.16-.51-.3-.38-.35-.84-.55-1.36-.47-.21.03-.41.12-.59.24-.19.12-.34.29-.54.4-.31.17-.64.15-.94-.06-.18-.12-.32-.28-.51-.39-.21-.11-.42-.17-.65-.19-.5-.05-.94.17-1.28.52-.15.15-.3.22-.37.24-.06.02-.16.02-.2.02-.2-.01-.39.05-.45.25-.05.17.06.42.25.45h0c.28.05.56,0,.81-.12.21-.1.38-.25.54-.41.11-.11.22-.17.38-.21.14-.03.3-.03.45.02.17.05.31.17.45.3.38.32.84.47,1.33.4.21-.03.42-.11.6-.23.19-.12.34-.28.53-.4.16-.09.29-.14.47-.13.05,0,.13.02.2.05.09.04.19.1.27.16.2.16.38.35.63.45.21.09.44.15.68.13s.47-.09.69-.2.37-.27.57-.39.37-.2.57-.19c.06,0,.16.03.24.08.11.06.19.14.28.22.29.27.66.45,1.05.49.2.02.37-.18.37-.37,0-.21-.15-.35-.35-.36-.1,0-.22-.06-.26-.08Z"/>
    <path class="cls-2" d="M10.95,8.77c.15-.04.3-.06.45-.06.49,0,.96.19,1.36.56.02.02.04.03.05.05.05.04.08.08.11.1.03.02.07.04.1.05.02.01.06.03.08.03.11,0,.22.04.31.08v-1.45c0-.28-.23-.5-.51-.49-.09,0-.19.01-.29.02-1.56.1-2.17.61-2.42,1.47.25-.18.51-.3.77-.37Z"/>
    <path class="cls-2" d="M2.43,9.5s.05,0,.07,0c.01,0,.03,0,.04,0,.03-.01.09-.05.16-.11.43-.44.95-.67,1.49-.67.06,0,.12,0,.18,0,.3.03.57.11.83.25.17.09.29.19.4.29.06.05.11.09.16.13,0,0,.01,0,.02.01-.22-1.02-.81-1.62-2.6-1.73-.23-.01-.45-.02-.66-.03-.27,0-.5.21-.5.49v1.46c.12-.05.26-.08.41-.08Z"/>
    <path class="cls-2" d="M12.54,8.22c-.24-.31-.52-.59-.82-.85v-1.97c.15.11.3.23.44.36.22.2.54-.12.32-.32-1.9-1.73-4.93-2.06-7.29-1.21-.65.23-1.26.56-1.81.99-.1.08-.08.24,0,.32.09.1.23.08.32,0,.1-.08.2-.15.3-.22v1.96c-.24.2-.47.41-.68.64-.26.29.17.72.43.43.84-.93,1.96-1.54,3.2-1.74,1.24-.2,2.53.05,3.61.69.6.35,1.11.81,1.54,1.36.1.13.32.11.43,0,.13-.13.1-.3,0-.43ZM4.31,7.05v-1.92c.47-.28.99-.49,1.52-.63v1.77c-.24.08-.47.18-.7.29-.29.14-.56.31-.82.49ZM6.14,6.17v-1.75c.26-.06.53-.1.8-.13.24-.03.48-.04.72-.05v1.7c-.51.01-1.02.09-1.52.23ZM7.96,5.94v-1.7c.53,0,1.06.07,1.58.19v1.75c-.1-.03-.21-.06-.32-.09-.41-.1-.84-.15-1.26-.16ZM9.84,6.29v-1.77c.26.07.52.16.78.27.28.12.54.25.8.41v1.93c-.48-.36-1.01-.65-1.58-.85Z"/>
  </g>
</svg>