<?xml version="1.0" encoding="UTF-8"?>
<svg xmlns="http://www.w3.org/2000/svg" viewBox="0 0 15.59 15.59">
  <defs>
    <style>
      .cls-1 {
        fill: #071f39;
      }

      .cls-1, .cls-2 {
        stroke-width: 0px;
      }

      .cls-2 {
        fill: #fff;
      }
    </style>
  </defs>
  <g id="Cirkel">
    <rect class="cls-1" x="0" y="0" width="15.59" height="15.59" rx="7.8" ry="7.8"/>
  </g>
  <g id="ICONS">
    <g>
      <path class="cls-2" d="M9.15,1.98c-.2,0-.36.16-.36.36,0,.01,0,.02,0,.04v2.53h-4.27c-.31,0-.56.25-.56.56,0,.37.56.56.56.56l.87.37v1.78s-.61,2.84-.61,2.84c0,0-.72,1.88-.73,1.91,0,.03,0,.16.07.3.08.14.2.19.22.21.17.08.33.04.37.03.16-.05.25-.16.27-.19.19-.25.8-1.31.8-1.31l.7-1.73.7,1.24s.61,1.71.62,1.75c.01.05.05.16.15.26.03.03.18.15.38.13.19-.02.3-.14.34-.17.04-.04.13-.14.14-.28,0-.02-.5-2.18-.5-2.18l-.7-2.14.18-2.59.97-.06v2.39s0,.02,0,.04c0,.2.16.36.36.36,1.92,0,3.49-1.56,3.49-3.49s-1.56-3.49-3.49-3.49ZM9.28,8.23v-2.08l1.66-.11c.31,0,.56-.25.56-.56s-.25-.56-.56-.56h-1.66v-2.19c1.46.07,2.64,1.27,2.64,2.75s-1.17,2.68-2.64,2.75Z"/>
      <path class="cls-2" d="M6.75,4.48c.55,0,1-.45,1-1s-.45-1-1-1-1,.45-1,1,.45,1,1,1Z"/>
    </g>
  </g>
</svg>