<?xml version="1.0" encoding="UTF-8"?>
<svg xmlns="http://www.w3.org/2000/svg" viewBox="0 0 15.59 15.59">
  <defs>
    <style>
      .cls-1 {
        fill: #021e3a;
      }

      .cls-1, .cls-2 {
        stroke-width: 0px;
      }

      .cls-2 {
        fill: #fff;
      }
    </style>
  </defs>
  <g id="Cirkel">
    <rect class="cls-1" x="0" y="0" width="15.59" height="15.59" rx="7.8" ry="7.8"/>
  </g>
  <g id="ICONS">
    <g>
      <path class="cls-2" d="M14.13,8.64h-1.09c-.52-2.67-2.87-4.7-5.69-4.7H3.11c-.6,0-1.1.49-1.1,1.1v4.7c0,.6.49,1.1,1.1,1.1h1.69c.22.48.7.81,1.26.81s1.04-.33,1.26-.81h4.75c.6,0,1.1-.49,1.1-1.1,0-.13-.01-.26-.02-.39h1c.2,0,.36-.16.36-.36s-.16-.36-.36-.36ZM6.05,10.93c-.37,0-.67-.3-.67-.67s.3-.67.67-.67.67.3.67.67-.3.67-.67.67ZM12.05,10.12h-1.69c.02-.06.04-.13.04-.2v-3.06c0-.35-.28-.63-.63-.63h-.88c-.35,0-.63.28-.63.63v3.06c0,.07.02.14.04.2h-.89c-.07-.69-.65-1.23-1.37-1.23s-1.29.54-1.37,1.23h-1.58c-.21,0-.38-.17-.38-.38v-4.7c0-.21.17-.38.38-.38h4.25c2.8,0,5.08,2.28,5.08,5.08,0,.21-.17.38-.38.38Z"/>
      <rect class="cls-2" x="3.78" y="5.86" width="2.9" height="1.53" rx=".5" ry=".5"/>
    </g>
  </g>
</svg>