<?xml version="1.0" encoding="UTF-8"?>
<svg xmlns="http://www.w3.org/2000/svg" viewBox="0 0 15.59 15.59">
  <defs>
    <style>
      .cls-1 {
        fill: #fff;
        fill-rule: evenodd;
      }

      .cls-1, .cls-2 {
        stroke-width: 0px;
      }

      .cls-2 {
        fill: #071f39;
      }
    </style>
  </defs>
  <g id="Cirkel">
    <rect class="cls-2" x="0" y="0" width="15.59" height="15.59" rx="7.8" ry="7.8"/>
  </g>
  <g id="ICONS">
    <path class="cls-1" d="M2.17,9.85c.43.43,1.14.43,1.58,0,.43-.43.43-1.14,0-1.58-.43-.43-1.14-.43-1.58,0-.43.43-.43,1.14,0,1.58h0ZM10.45,6.02l2.5-2.5c.05-.05.05-.13,0-.18l-.43-.43c-.05-.05-.13-.05-.18,0l-2.5,2.5-.14.14-.74-.15h0c-.06-.01-.12-.05-.17,0l-5.69,5.69s-.03.11,0,.17c.44,1,.5,1.06,1.5,1.5.06.03.12.05.17,0l5.69-5.69s.01-.1,0-.17l-.15-.74.14-.14Z"/>
  </g>
</svg>