<?xml version="1.0" encoding="UTF-8"?>
<svg xmlns="http://www.w3.org/2000/svg" viewBox="0 0 15.59 15.59">
  <defs>
    <style>
      .cls-1 {
        fill: #071f39;
      }

      .cls-1, .cls-2 {
        stroke-width: 0px;
      }

      .cls-2 {
        fill: #fff;
      }
    </style>
  </defs>
  <g id="Cirkel">
    <rect class="cls-1" x="0" y="0" width="15.59" height="15.59" rx="7.8" ry="7.8"/>
  </g>
  <g id="ICONS">
    <g>
      <path class="cls-2" d="M5.54,10.24c.36,0,.72-.06,1.05-.16-.17-.11-.28-.3-.28-.51,0-.33.27-.61.61-.61s.61.27.61.61c0,.02,0,.04,0,.06.93-.63,1.54-1.7,1.54-2.91,0-1.94-1.58-3.52-3.52-3.52s-3.52,1.58-3.52,3.52,1.58,3.52,3.52,3.52ZM3.72,8.68l1.08-1.08s.07.06.11.08l-.73,1.34c-.17-.1-.32-.21-.46-.35ZM5.44,9.4c-.39-.01-.76-.11-1.09-.27l.73-1.34c.11.05.23.08.36.09v1.53ZM5.64,9.4v-1.53s.09,0,.14-.02l.44,1.46c-.19.05-.38.07-.57.08ZM6.98,8.35c-.34,0-.62.24-.68.57l-.33-1.12c.12-.05.22-.11.32-.19l.75.75s-.04,0-.06,0ZM7.5,8.54l-1.08-1.08s.06-.07.08-.11l1.34.73c-.1.16-.21.32-.35.46ZM7.94,7.91l-1.34-.73c.05-.11.08-.23.09-.36h1.53c-.01.38-.11.75-.27,1.09ZM8.21,6.62h-1.53s0-.09-.02-.14l1.46-.44c.05.18.08.38.08.57ZM8.07,5.86l-1.46.44c-.05-.12-.11-.22-.19-.32l1.08-1.08c.25.27.45.6.58.96ZM7.36,4.76l-1.08,1.08s-.07-.06-.11-.08l.72-1.34c.17.1.32.21.46.35ZM5.64,4.04c.39.01.76.11,1.09.27l-.72,1.34c-.11-.05-.23-.08-.36-.09v-1.53ZM5.89,6.72c0,.2-.16.36-.36.36s-.36-.16-.36-.36.16-.36.36-.36.36.16.36.36ZM5.44,4.04v1.53s-.09,0-.14.02l-.44-1.46c.18-.05.38-.08.57-.08ZM4.68,4.18l.44,1.46c-.12.05-.22.11-.32.19l-1.08-1.08c.27-.25.6-.45.96-.58ZM3.58,4.9l1.08,1.08s-.06.07-.08.11l-1.34-.73c.1-.17.21-.32.35-.46ZM3.14,5.53l1.34.73c-.05.11-.08.23-.09.36h-1.53c.01-.39.11-.76.27-1.09ZM2.86,6.82h1.53s0,.09.02.14l-1.46.44c-.05-.18-.08-.38-.08-.57ZM4.47,7.14c.05.12.11.22.19.32l-1.08,1.08c-.25-.27-.45-.6-.58-.96l1.46-.44Z"/>
      <path class="cls-2" d="M12.74,3.07h-1.56v-.26h-.88v.26h-1.56c-.24,0-.43.19-.43.43s.19.43.43.43h1.56v.16h.24v2.88h-.54c-.11,0-.2.09-.2.2v4.53h-.28c-.21,0-.39.13-.46.32H3.54c-.17,0-.31-.14-.31-.31s.14-.31.31-.31h2.63c.52,0,.95-.43.95-.95v-.52c.12-.07.2-.2.2-.35,0-.23-.18-.41-.41-.41s-.41.18-.41.41c0,.16.09.3.23.37v.51c0,.31-.25.55-.55.55h-2.63c-.39,0-.71.32-.71.71s.32.71.71.71h5.51c.06.21.25.37.48.37h2.29c.28,0,.5-.22.5-.5v-.08c0-.27-.22-.5-.5-.5h-.15v-4.53c0-.11-.09-.2-.2-.2h-.54v-2.88h.24v-.16h1.56c.24,0,.43-.19.43-.43s-.19-.43-.43-.43Z"/>
    </g>
  </g>
</svg>