<?xml version="1.0" encoding="UTF-8"?>
<svg xmlns="http://www.w3.org/2000/svg" viewBox="0 0 15.59 15.59">
  <defs>
    <style>
      .cls-1 {
        fill: none;
      }

      .cls-1, .cls-2, .cls-3 {
        stroke-width: 0px;
      }

      .cls-2 {
        fill: #071f39;
      }

      .cls-3 {
        fill: #fff;
      }
    </style>
  </defs>
  <g id="Cirkel">
    <rect class="cls-2" x="0" y="0" width="15.59" height="15.59" rx="7.8" ry="7.8"/>
  </g>
  <g id="ICONS">
    <g>
      <path class="cls-1" d="M6.26,9.32l.05.18s.03,0,.05,0l-.05-.18s-.04,0-.06,0Z"/>
      <path class="cls-1" d="M5.36,8.56l-.14-.15-.08.16c.08.04.15.09.22.14l-.08-.07.07-.08Z"/>
      <polygon class="cls-1" points="5.49 7.75 5.52 7.77 5.56 7.68 5.49 7.75"/>
      <path class="cls-1" d="M9.91,9.08c.42.14.86.1,1.25-.09.39-.2.68-.53.82-.95.14-.42.1-.86-.09-1.25-.41-.81-1.39-1.13-2.2-.73-.07.04-.14.08-.2.12l1.14,1.07c.13.12.14.33.01.46-.12.13-.33.14-.46.01l-1.14-1.07c-.3.47-.35,1.08-.08,1.61.2.39.53.68.95.82Z"/>
      <path class="cls-1" d="M6.04,9.28c.06.08.12.17.17.26l.11-.04-.26-.22s-.01,0-.02,0Z"/>
      <polygon class="cls-1" points="5.19 8.38 5.14 8.56 5.22 8.4 5.19 8.38"/>
      <path class="cls-1" d="M6.76,6.81l.26,1.36.69-2.11-.25-.25-.79.78c.04.06.07.13.09.22Z"/>
      <path class="cls-1" d="M4.7,10.12l.9-.34c-.16-.25-.38-.45-.64-.58l-.26.93Z"/>
      <path class="cls-1" d="M6.17,6.18l.96-.94-.72-.09-1.32-.38-.47,1.17.05.21,1.42.21c.01-.06.02-.12.07-.17Z"/>
      <path class="cls-1" d="M4.95,12.12c.39-.2.68-.53.82-.95.08-.26.1-.52.06-.78l-1.5.57c-.11.04-.24.02-.33-.06-.09-.08-.13-.21-.09-.33l.44-1.55c-.29-.02-.59.03-.87.17-.81.41-1.13,1.39-.73,2.2.41.81,1.39,1.13,2.2.73Z"/>
    </g>
    <path class="cls-3" d="M13.62,7.9l-1.96,2.47c-.05.06-.12.1-.2.11l-2.44.18s-.08.01-.11.03l-1.05.56s-.09.06-.11.11l-.63,1.11c-.04.07-.1.12-.18.13l-2.64.7-.27.77,7.69-1.63c.16,0,.29-.13.29-.29l2.22-4.31-.6.06Z"/>
    <path class="cls-3" d="M4.87,3.05c.07.02.23.08.52.2.31.13.68.34.85.44.05.03.14,0,.17-.04l.15-.2s.03-.06.03-.1v-.17s-.06-.1-.06-.1l-.1-.12.07-.45v-.04s-.01-.02,0-.02l.32-.03c.09,0,.28-.04.1-.13l-.75-.39-.02-.04c-.13-.06-.4-.13-.59-.13-.28,0-.53.13-.63.2-.06.04-.06.04-.08.11-.04.15-.09.49-.11.63-.02.12.02.2.06.32,0,.02.03.04.06.06Z"/>
    <path class="cls-3" d="M5.24,12.7c.96-.48,1.43-1.55,1.2-2.54l.1-.04c.05-.02.1-.06.13-.1.27.05.68-.09.63-.35l-.1-.52c.11-.02.21-.1.25-.21l.93-2.85s0-.03.01-.04l.17.16c-.47.67-.57,1.57-.18,2.35.27.55.74.95,1.33,1.14.24.08.48.12.72.12.35,0,.7-.08,1.03-.25.55-.27.95-.75,1.14-1.33.19-.58.15-1.2-.13-1.75-.57-1.13-1.95-1.58-3.07-1.02-.14.07-.27.15-.39.25l-.78-.73s-.04-.01-.06-.02c0-.16-.08-.31-.22-.34l-1.39-.24-1.05-.61c-.33-.19-.59-.27-.81-.27-.15.02-.31.05-.46.1-.76.24-1.13,1.89-1.09,2.68.03.46.22.89.72.95l.51.06c-.01.09,0,.19.07.26l.23.25-.16.56c-.45-.06-.92.01-1.34.22-1.13.57-1.58,1.94-1.02,3.07.4.8,1.21,1.26,2.05,1.26.35,0,.7-.08,1.02-.24ZM9.04,6.65l1.14,1.07c.13.12.34.12.46-.01.12-.13.12-.34-.01-.46l-1.14-1.07c.06-.04.13-.08.2-.12.81-.41,1.8-.08,2.2.73.2.39.23.84.09,1.25-.14.42-.43.75-.82.95-.39.2-.84.23-1.25.09-.42-.14-.75-.43-.95-.82-.27-.53-.22-1.14.08-1.61ZM6.32,9.51l-.11.04c-.36-.71-.99-.95-1.07-.98l.51-1.09.2.02.52,2s-.03,0-.05,0ZM5.6,9.78l-.9.34.26-.93c.26.13.48.33.64.58ZM7.71,6.07l-.69,2.11-.26-1.36c-.02-.09-.05-.16-.09-.22l.79-.78.25.25ZM4.67,6.14l-.05-.21.47-1.17,1.32.38.72.09-.96.94s-.06.11-.07.17l-1.42-.21ZM2.74,11.39c-.41-.81-.08-1.8.73-2.2.27-.14.57-.19.87-.17l-.44,1.55c-.03.12,0,.24.09.33.09.08.22.11.33.06l1.5-.57c.04.26.02.53-.06.78-.14.42-.43.75-.82.95-.81.41-1.8.08-2.2-.73Z"/>
  </g>
</svg>