<?xml version="1.0" encoding="UTF-8"?>
<svg xmlns="http://www.w3.org/2000/svg" viewBox="0 0 15.59 15.59">
  <defs>
    <style>
      .cls-1 {
        fill: #071f39;
      }

      .cls-1, .cls-2 {
        stroke-width: 0px;
      }

      .cls-2 {
        fill: #fff;
      }
    </style>
  </defs>
  <g id="Cirkel">
    <rect class="cls-1" x="0" y="0" width="15.59" height="15.59" rx="7.8" ry="7.8"/>
  </g>
  <g id="ICONS">
    <g>
      <path class="cls-2" d="M12.75,2.39h-1.93c-.12,0-.21.1-.21.21v2.52c0,.12.1.21.21.21h.71v1.81c-.42.1-.73.45-.77.88-.21-.07-.43-.12-.67-.12-.21,0-.41.03-.6.09l-1.06-2.52c.1-.02.17-.11.17-.21,0-.12-.09-.21-.21-.21h-1.2c-.12,0-.21.09-.21.21s.09.21.21.21h.79s0,.02.01.04l.59,1.39-2.17,2.64-1.34-3.18h.61c.12,0,.21-.09.21-.21s-.09-.21-.21-.21h-1.2c-.12,0-.21.09-.21.21s.09.21.21.21h.14s0,.04.01.05l.42,1-.52.74c-.3-.16-.64-.26-1-.26-1.13,0-2.05.92-2.05,2.05s.92,2.05,2.05,2.05c1.06,0,1.94-.81,2.04-1.84h.75s0,0,0,0c.07,0,.13-.02.18-.08l2.25-2.74.34.81c-.64.35-1.07,1.02-1.07,1.8,0,1.13.92,2.05,2.05,2.05.23,0,.45-.05.65-.12v.22c0,.13.11.24.24.24s.24-.11.24-.24v-.44c.56-.37.93-1,.93-1.71s-.37-1.35-.93-1.71v-.12c0-.3.25-.55.55-.55s.55.25.55.55v3.99c0,.13.11.24.24.24s.24-.11.24-.24v-3.99c0-.48-.34-.87-.79-.98v-1.81h.74c.12,0,.21-.1.21-.21v-2.52c0-.12-.1-.21-.21-.21ZM3.54,11.59c-.9,0-1.63-.73-1.63-1.63s.73-1.63,1.63-1.63c.27,0,.53.07.75.18l-.93,1.32c-.04.05-.04.11-.02.17,0,.09.08.17.18.17h1.64c-.1.8-.79,1.42-1.62,1.42ZM3.94,9.75l.7-.99c.28.25.47.6.52.99h-1.22ZM5.58,9.75c-.05-.53-.31-1.01-.7-1.34l.37-.52.78,1.86h-.45ZM10.09,11.59c-.9,0-1.63-.73-1.63-1.63,0-.6.33-1.13.81-1.41l.59,1.4c.05.11.17.16.28.11.11-.05.16-.17.11-.28l-.59-1.4c.14-.04.28-.06.43-.06.23,0,.45.05.65.14v2.98c-.2.09-.42.14-.65.14ZM11.72,9.96c0,.46-.19.88-.5,1.17v-2.35c.31.3.5.71.5,1.17ZM11.89,4.06h-.23v.6c0,.08-.06.14-.14.14h-.18c-.08,0-.14-.06-.14-.14v-1.57c0-.08.06-.14.14-.14h.55c.41,0,.63.23.63.56,0,.29-.2.55-.63.55Z"/>
      <path class="cls-2" d="M11.85,3.33h-.18v.36h.18c.14,0,.2-.07.2-.18s-.06-.18-.2-.18Z"/>
    </g>
  </g>
</svg>