<?xml version="1.0" encoding="UTF-8"?>
<svg xmlns="http://www.w3.org/2000/svg" viewBox="0 0 15.59 15.59">
  <defs>
    <style>
      .cls-1 {
        fill: #021e3a;
      }

      .cls-1, .cls-2 {
        stroke-width: 0px;
      }

      .cls-2 {
        fill: #fff;
      }
    </style>
  </defs>
  <g id="Cirkel">
    <rect class="cls-1" x="0" y="0" width="15.59" height="15.59" rx="7.8" ry="7.8"/>
  </g>
  <g id="ICONS">
    <g id="W7HL19">
      <g>
        <path class="cls-2" d="M5.19,5.43c.26,0,.44.12.55.33.19.34.39.69.58,1.03.28.5.56,1,.84,1.49.02.03.04.05.08.06.78.22,1.55.43,2.33.65.23.06.43.19.6.36.78.8,1.57,1.61,2.36,2.41.18.18.18.45,0,.62-.18.17-.45.17-.63,0-.5-.51-1-1.02-1.5-1.52-.03-.03-.06-.05-.1-.06-1.07-.3-2.15-.6-3.22-.91-.19-.05-.36-.15-.5-.29-.03-.03-.07-.07-.09-.12-.6-1.05-1.2-2.1-1.8-3.15-.2-.35-.02-.78.36-.89.05-.01.1-.02.13-.02Z"/>
        <path class="cls-2" d="M12.95,9.65c.09.05-.62.86-.7.76s-.23-.3-.33-.44c-.12.03-.23.06-.34.08-.43.05-.85-.28-.91-.71-.07-.48.23-.89.7-.98.45-.08.91.24.98.69.01.07.01.14,0,.21,0,.04.01.06.05.08.16.09.45.25.54.3Z"/>
        <path class="cls-2" d="M9.51,8.57c-.19-.05-.37-.1-.55-.15-.46-.13-.91-.25-1.37-.38-.11-.03-.2-.08-.21-.2,0-.04,0-.08,0-.12.06-.21.12-.42.17-.63.05-.16.17-.23.32-.18.63.18,1.26.36,1.89.53.02,0,.03,0,.05.02-.1.37-.21.74-.31,1.12Z"/>
        <path class="cls-2" d="M4.42,5.5l-1.78-1.53s-.03-.06,0-.09l1.1-.8s.06-.01.08.02c0,0,1.14,1.91,1.16,1.96s0,.09,0,.09l-.47.35s-.05.04-.09,0Z"/>
        <path class="cls-2" d="M9.78,8.65c.11-.38.21-.75.31-1.13.16.05.32.07.45.18.22.18.28.48.15.73-.13.25-.42.37-.7.29-.07-.02-.14-.04-.22-.07Z"/>
      </g>
    </g>
  </g>
</svg>