<?xml version="1.0" encoding="UTF-8"?>
<svg xmlns="http://www.w3.org/2000/svg" viewBox="0 0 15.59 15.59">
  <defs>
    <style>
      .cls-1 {
        fill: #071f39;
      }

      .cls-1, .cls-2 {
        stroke-width: 0px;
      }

      .cls-2 {
        fill: #fff;
      }
    </style>
  </defs>
  <g id="Cirkel">
    <rect class="cls-1" x="0" y="0" width="15.59" height="15.59" rx="7.79" ry="7.79"/>
  </g>
  <g id="ICONS">
    <g>
      <path class="cls-2" d="M8.34,6.05l2.01.89v-1.34c0-.16-.13-.3-.3-.3h-4.54c-.16,0-.3.13-.3.3v1.34l2.01-.89c.36-.16.76-.16,1.12,0Z"/>
      <path class="cls-2" d="M7.59,4.01h-1.17c-.1,0-.18.08-.18.18v.65h3.08v-.65c0-.1-.08-.18-.18-.18h-1.55Z"/>
      <path class="cls-2" d="M8.01,6.55v3.28c.54.06.87.32,1.11.53.23.2.35.31.65.31s.43-.11.65-.31c.14-.12.3-.26.52-.37l.2-1.77c.03-.23-.1-.45-.31-.54l-1.23-.56-1.45-.66s-.11-.05-.15-.06v.14ZM7.55,6.43s-.09.02-.14.04l-1.48.66-1.21.54c-.21.09-.33.31-.31.54l.2,1.77c.23.11.41.26.56.39.23.2.35.31.66.31s.43-.11.66-.31c.23-.2.55-.46,1.07-.53v-3.41ZM6.33,8.28l-1.05.47s-.06.02-.09.02c-.09,0-.17-.05-.21-.14-.05-.12,0-.25.12-.31l1.05-.47c.12-.05.25,0,.31.12s0,.25-.12.31ZM10.58,8.63c-.04.09-.12.14-.21.14-.03,0-.06,0-.09-.02l-1.05-.47c-.12-.05-.17-.19-.12-.31.05-.12.19-.17.31-.12l1.05.47c.12.05.17.19.12.31Z"/>
      <path class="cls-2" d="M13.43,11.38c-.33,0-.48-.13-.7-.32-.25-.22-.57-.5-1.18-.5s-.92.28-1.18.5c-.22.19-.37.32-.7.32s-.48-.13-.7-.32c-.26-.22-.57-.5-1.18-.5s-.92.28-1.18.5c-.22.19-.37.32-.7.32s-.48-.13-.71-.32c-.26-.22-.57-.5-1.18-.5s-.93.28-1.18.5c-.22.19-.37.32-.7.32-.2,0-.36.16-.36.36s.16.36.36.36c.61,0,.93-.28,1.18-.5.22-.19.37-.32.7-.32s.48.13.7.32c.26.22.57.5,1.18.5s.92-.28,1.18-.5c.22-.19.37-.32.7-.32s.48.13.7.32c.26.22.57.5,1.18.5s.92-.28,1.18-.5c.22-.19.37-.32.7-.32s.48.13.7.32c.25.22.57.5,1.18.5.2,0,.36-.16.36-.36s-.16-.36-.36-.36Z"/>
      <path class="cls-2" d="M8.03,2.55c0-.14-.11-.25-.25-.25s-.25.11-.25.25v1h.5v-1Z"/>
    </g>
  </g>
</svg>