<?xml version="1.0" encoding="UTF-8"?>
<svg xmlns="http://www.w3.org/2000/svg" viewBox="0 0 15.59 15.59">
  <defs>
    <style>
      .cls-1 {
        fill: none;
      }

      .cls-1, .cls-2, .cls-3 {
        stroke-width: 0px;
      }

      .cls-2 {
        fill: #071f39;
      }

      .cls-3 {
        fill: #fff;
      }
    </style>
  </defs>
  <g id="Cirkel">
    <rect class="cls-2" x="0" y="0" width="15.59" height="15.59" rx="7.79" ry="7.79"/>
  </g>
  <g id="ICONS">
    <g>
      <path class="cls-3" d="M8.4,5.54l1.9.85v-1.27c0-.15-.13-.28-.28-.28h-4.3c-.15,0-.28.13-.28.28v1.27l1.9-.85c.34-.15.72-.15,1.06,0Z"/>
      <path class="cls-3" d="M7.69,3.61h-1.11c-.09,0-.17.08-.17.17v.62h2.91v-.62c0-.09-.07-.17-.17-.17h-1.47Z"/>
      <path class="cls-3" d="M8.08,6.02v3.11c.51.06.83.31,1.05.5.21.19.33.29.62.29s.41-.1.62-.29c.13-.11.28-.25.49-.35l.19-1.67c.02-.22-.09-.42-.29-.51l-1.17-.53-1.37-.63s-.1-.04-.14-.06v.13ZM7.65,5.91s-.09.02-.13.04l-1.4.62-1.15.51c-.2.09-.32.29-.29.51l.19,1.68c.22.11.39.25.53.36.21.19.33.29.62.29s.41-.1.62-.29c.22-.19.52-.43,1.01-.5v-3.23ZM6.49,7.66l-.99.44s-.06.02-.09.02c-.08,0-.16-.05-.2-.13-.05-.11,0-.24.11-.29l.99-.44c.11-.05.24,0,.29.11s0,.24-.11.29ZM10.51,7.99c-.04.08-.12.13-.2.13-.03,0-.06,0-.09-.02l-.99-.44c-.11-.05-.16-.18-.11-.29.05-.11.18-.16.29-.11l.99.44c.11.05.16.18.11.29Z"/>
      <path class="cls-3" d="M13.21,10.58c-.32,0-.45-.12-.66-.3-.24-.21-.54-.47-1.11-.47s-.87.26-1.12.47c-.21.18-.35.3-.67.3s-.46-.12-.66-.3c-.24-.21-.54-.47-1.12-.47s-.87.26-1.12.47c-.21.18-.35.3-.67.3s-.46-.12-.67-.3c-.24-.21-.54-.47-1.12-.47s-.88.26-1.12.47c-.21.18-.35.3-.67.3-.19,0-.34.15-.34.34s.15.34.34.34c.57,0,.88-.26,1.12-.47.21-.18.35-.3.67-.3s.46.12.67.3c.24.21.54.47,1.12.47s.87-.26,1.12-.47c.21-.18.35-.3.66-.3s.46.12.67.3c.24.21.54.47,1.12.47s.87-.26,1.12-.47c.21-.18.35-.3.66-.3s.45.12.66.3c.24.21.54.47,1.11.47.19,0,.34-.15.34-.34s-.15-.34-.34-.34Z"/>
      <path class="cls-3" d="M8.1,2.6c0-.08-.11-.14-.24-.14s-.24.06-.24.14v.58h.47v-.58Z"/>
      <g>
        <path class="cls-1" d="M3.71,2.09v7.31c.2-.14.45-.26.82-.26.54,0,.83.25,1.06.45.2.17.33.29.63.29s.43-.11.63-.29c.23-.2.51-.45,1.06-.45s.83.25,1.06.45c.2.17.33.29.63.29s.43-.11.63-.29c.23-.2.51-.45,1.06-.45.33,0,.56.1.75.21V2.09H3.71Z"/>
        <path class="cls-3" d="M2.81,4.84v5.04s.02,0,.03,0c.3,0,.43-.11.63-.29.07-.06.15-.12.23-.19v-4.56"/>
        <path class="cls-3" d="M12.03,4.84v4.51c.12.07.22.16.31.23.19.16.32.27.59.28v-5.03"/>
      </g>
      <circle class="cls-3" cx="3.26" cy="4.8" r=".45"/>
      <circle class="cls-3" cx="12.48" cy="4.8" r=".45"/>
    </g>
  </g>
</svg>