<?xml version="1.0" encoding="UTF-8"?>
<svg xmlns="http://www.w3.org/2000/svg" viewBox="0 0 15.59 15.59">
  <defs>
    <style>
      .cls-1 {
        fill: #071f39;
      }

      .cls-1, .cls-2 {
        stroke-width: 0px;
      }

      .cls-2 {
        fill: #fff;
      }
    </style>
  </defs>
  <g id="Cirkel">
    <rect class="cls-1" x="0" y="0" width="15.59" height="15.59" rx="7.8" ry="7.8"/>
  </g>
  <g id="ICONS">
    <g>
      <circle class="cls-2" cx="4.66" cy="3.32" r=".92"/>
      <path class="cls-2" d="M6.43,10.99c.23,0,.41-.18.41-.41l.13-1.47s0-.04,0-.06h-.86c.02.06.04.13.04.19l-.13,1.34c0,.23.18.41.41.41Z"/>
      <path class="cls-2" d="M3.53,11c.11,0,.21-.05.29-.12h0s0,0,0,0c0,0,0,0,0,0l1.27-1.07c.09-.08.16-.18.2-.29l.14-.47h-.91c-.07.15-.17.29-.3.4l-.99.84h0c-.08.08-.14.18-.14.3,0,.23.18.41.41.41Z"/>
      <path class="cls-2" d="M12.83,11.96c-.16,0-.23-.06-.34-.15-.12-.11-.27-.24-.56-.24s-.44.13-.56.24c-.07.06-.14.1-.21.13l-1.4-8.11c.05,0,.1,0,.15,0,.08,0,.16-.05.17-.13,0-.08-.05-.16-.13-.17-1.06-.12-1.87.04-2.47.45,0-.02-.01-.03-.02-.05-.11-.15-.3-.19-.46-.13,0,0-.72.54-1.05.64-.31.1-1.17.15-1.6.17-.15,0-.26.13-.25.28,0,0,0,.95.11,1.2.1.22.43.2.43.2l.27,1.51h1.76l-.32-1.09.25.07s.05,0,.05,0c.08,0,.17,0,.24-.06.16-.11.19-.33.08-.49-.05-.07-.12-.11-.2-.13,0-.38.08-1.08.55-1.61.03-.02.06-.04.06-.04.04-.03.08-.07.11-.11.47-.41,1.15-.59,2.03-.55l1.4,8.12c-.07-.03-.14-.06-.2-.12-.12-.11-.27-.24-.56-.24s-.44.13-.56.24c-.11.09-.18.15-.34.15s-.23-.06-.34-.15c-.09-.08-.19-.15-.3-.19-.08-.03-.16-.04-.24-.04-.04,0-.08,0-.11.01-.03.01-.05.03-.08.06-.02.03-.04.07-.04.1,0,.06.04.13.09.16.01,0,.03.01.04.02.02,0,.03,0,.05,0,.04,0,.08,0,.12,0,.09.02.17.08.24.14.12.11.27.24.57.24s.44-.13.56-.24c.11-.09.18-.15.34-.15s.23.06.34.15c.12.11.27.24.56.24s.44-.13.56-.24c.11-.09.18-.15.34-.15s.23.06.34.15c.12.11.27.24.56.24.1,0,.17-.08.17-.17s-.08-.17-.17-.17ZM6.45,6.04l-.3-.07-.23-.81s.49-.13.66-.2c.03-.01.08-.04.12-.07-.19.43-.25.86-.25,1.16Z"/>
      <polygon class="cls-2" points="7.4 7.81 7.4 8.22 6.78 8.22 5.71 8.22 5.7 8.19 5.69 8.22 4.81 8.22 2.58 8.22 2.58 8.63 4.67 8.63 5.56 8.63 5.93 8.63 6.9 8.63 7.4 8.63 7.4 9.05 7.4 11.06 2.58 11.06 2.58 11.56 7.4 11.56 7.4 13.19 7.9 13.19 7.9 11.31 7.9 11.06 7.9 7.46 7.4 7.46 7.4 7.81"/>
    </g>
  </g>
</svg>