<?xml version="1.0" encoding="UTF-8"?>
<svg xmlns="http://www.w3.org/2000/svg" viewBox="0 0 15.59 15.59">
  <defs>
    <style>
      .cls-1 {
        fill: #071f39;
      }

      .cls-1, .cls-2 {
        stroke-width: 0px;
      }

      .cls-2 {
        fill: #fff;
      }
    </style>
  </defs>
  <g id="Cirkel">
    <rect class="cls-1" x="0" y="0" width="15.59" height="15.59" rx="7.8" ry="7.8"/>
  </g>
  <g id="ICONS">
    <path class="cls-2" d="M13.11,12.15c-.57,0-.87-.26-1.11-.47-.21-.18-.35-.3-.66-.3s-.45.12-.66.3c-.24.21-.54.47-1.11.47s-.87-.26-1.11-.47c-.21-.18-.35-.3-.66-.3s-.45.12-.66.3c-.24.21-.54.47-1.11.47s-.87-.26-1.11-.47c-.21-.18-.35-.3-.66-.3s-.45.12-.66.3c-.24.21-.54.47-1.11.47-.19,0-.34-.15-.34-.34s.15-.34.34-.34c.32,0,.45-.12.66-.3.24-.21.54-.47,1.11-.47s.87.26,1.11.47c.21.18.35.3.66.3s.45-.12.66-.3c.24-.21.54-.47,1.11-.47s.87.26,1.11.47c.21.18.35.3.66.3s.45-.12.66-.3c.24-.21.54-.47,1.11-.47s.87.26,1.11.47c.21.18.35.3.66.3.19,0,.34.15.34.34s-.15.34-.34.34Z"/>
    <path class="cls-2" d="M9.95,2.59c0-.55-.45-1-1.01-1s-1,.45-1,1c0,.43.28.8.66.94v4.64c0,.52-.42.94-.94.94s-.94-.42-.94-.94v-.19c.09.06.21.08.32.03.17-.07.26-.27.18-.45l-.53-1.28c-.06-.15-.22-.23-.38-.2-.16.03-.27.17-.27.33v1.75c0,.9.73,1.63,1.63,1.63s1.63-.73,1.63-1.63V3.53c.39-.14.66-.5.66-.94ZM8.95,2.27c.18,0,.32.15.32.32s-.15.32-.32.32-.32-.15-.32-.32.15-.32.32-.32Z"/>
  </g>
</svg>