<?xml version="1.0" encoding="UTF-8"?>
<svg xmlns="http://www.w3.org/2000/svg" viewBox="0 0 15.59 15.59">
  <defs>
    <style>
      .cls-1 {
        fill: #071f39;
      }

      .cls-1, .cls-2 {
        stroke-width: 0px;
      }

      .cls-2 {
        fill: #fff;
      }
    </style>
  </defs>
  <g id="Cirkel">
    <rect class="cls-1" x="0" y="0" width="15.59" height="15.59" rx="7.8" ry="7.8"/>
  </g>
  <g id="ICONS">
    <g>
      <path class="cls-2" d="M6.47,6.44l.86-.46c0,.05.02.11.05.16.07.14.21.21.36.21.07,0,.13-.02.19-.05l2.04-1.11c.2-.11.27-.36.16-.55-.03-.05-.06-.09-.11-.13l1.89-1.03c.2-.11.27-.36.16-.55-.11-.2-.36-.27-.55-.16l-6.96,3.78s-.02.02-.03.03c-.01,0-.03,0-.04.01l-2.54,1.38c-.09.05-.17.14-.2.24-.03.1-.02.22.03.31l.67,1.23c.06.11.16.18.28.2.03,0,.05,0,.08,0,.09,0,.18-.03.25-.09l1.56-1.24.52.04c.19.02.38-.11.43-.3l.24-.93.59-.32c.2-.11.27-.36.16-.55-.03-.05-.06-.09-.11-.13Z"/>
      <path class="cls-2" d="M12.5,9.29h-.05c-.17-1.04-.99-1.86-2.04-2.04v-.11c0-.23-.18-.41-.41-.41s-.41.18-.41.41v.11c-1.04.17-1.86.99-2.04,2.04h-.16c-.23,0-.41.18-.41.41s.18.41.41.41h.16c.17,1.04.99,1.86,2.04,2.04v.13c0,.23.18.41.41.41s.41-.18.41-.41v-.13c1.04-.17,1.87-.99,2.04-2.04h.05c.23,0,.41-.18.41-.41s-.18-.41-.41-.41ZM10.41,11.32c0-.22-.18-.4-.41-.4s-.4.18-.41.4c-.59-.15-1.06-.62-1.21-1.21.21-.02.38-.19.38-.4s-.17-.39-.38-.4c.15-.6.61-1.06,1.21-1.21v.02c0,.23.18.41.41.41s.41-.18.41-.41v-.02c.59.15,1.06.61,1.21,1.21h-.08c-.23,0-.41.18-.41.41s.18.41.41.41h.08c-.15.59-.62,1.06-1.21,1.21Z"/>
      <circle class="cls-2" cx="10" cy="9.7" r=".4"/>
    </g>
  </g>
</svg>