<?xml version="1.0" encoding="UTF-8"?>
<svg xmlns="http://www.w3.org/2000/svg" viewBox="0 0 15.59 15.59">
  <defs>
    <style>
      .cls-1 {
        fill: #071f39;
      }

      .cls-1, .cls-2 {
        stroke-width: 0px;
      }

      .cls-2 {
        fill: #fff;
      }
    </style>
  </defs>
  <g id="Cirkel">
    <rect class="cls-1" x="0" y="0" width="15.59" height="15.59" rx="7.8" ry="7.8"/>
  </g>
  <g id="ICONS">
    <g>
      <path class="cls-2" d="M6.69,9.54s0-.07-.02-.12c-.02-.06-.05-.11-.08-.14-.39-.49-.58-.72-.97-1.21.06-.49.15-.79.22-1.29.1.13.25.38.29.43.04.05.09.08.12.1.42.2.84.39,1.25.59.03.01.13.04.25,0,.1-.03.15-.1.16-.11.01-.02.06-.08.07-.17.01-.11-.02-.19-.03-.2-.04-.08-.1-.13-.13-.14-.38-.18-.75-.36-1.13-.54-.24-.56-.47-1.12-.71-1.68-.02-.05-.05-.14-.13-.22-.03-.03-.11-.11-.23-.15-.17-.06-.31-.04-.37-.03-.13.03-1.21.62-1.68.86-.08.04-.14.07-.21.11-.03.01-.06.03-.1.07-.02.03-.04.05-.05.08-.04.08-.06.12-.07.17-.02.08-.16.4-.54,1.29-.01.03-.03.07-.04.12,0,.03-.02.09,0,.16.02.11.1.18.12.2.03.03.11.08.22.08.12,0,.2-.05.22-.07.07-.05.11-.11.13-.15.19-.46.57-1.38.57-1.38l.43-.13s-.4,2.09-.73,3.59c-.48.62-.82,1.12-1.3,1.74-.02.03-.07.11-.07.21,0,.03,0,.14.06.25.07.12.16.16.18.17.14.07.28.03.31.02.13-.04.23-.16.23-.16l2.07-2.32c.41.25.71.41.71.41,0,0,.26,1.69.29,1.77.01.04.04.14.13.22.03.02.15.13.32.11.16-.01.26-.12.28-.15.03-.03.11-.12.12-.24,0-.04,0-.07,0-.09l-.19-2.04Z"/>
      <path class="cls-2" d="M5.87,4.4c.47,0,.84-.38.84-.84s-.38-.84-.84-.84-.84.38-.84.84.38.84.84.84Z"/>
      <path class="cls-2" d="M8.37,10.37c-.47,0-.86.38-.86.86s.38.86.86.86.86-.38.86-.86-.38-.86-.86-.86Z"/>
      <path class="cls-2" d="M12.32,11.08V3.91s0,0,0,0v-.44c0-.2-.2-.33-.39-.25l-2.18,1c-.22.09-.24.4-.02.51l2.12,1.02v5.34c-.63.06-1.1.33-1.1.65,0,.37.6.66,1.34.66s1.34-.3,1.34-.66c0-.33-.48-.6-1.1-.65Z"/>
    </g>
  </g>
</svg>