<?xml version="1.0" encoding="UTF-8"?>
<svg xmlns="http://www.w3.org/2000/svg" viewBox="0 0 15.59 15.59">
  <defs>
    <style>
      .cls-1 {
        fill: #071f39;
      }

      .cls-1, .cls-2 {
        stroke-width: 0px;
      }

      .cls-2 {
        fill: #fff;
      }
    </style>
  </defs>
  <g id="Cirkel">
    <rect class="cls-1" x="0" y="0" width="15.59" height="15.59" rx="7.8" ry="7.8"/>
  </g>
  <g id="ICONS">
    <g>
      <path class="cls-2" d="M11.38,6.82c-.05-.07-.14-.09-.21-.04,0,0-.36.23-1.03.23h-2.22c-.67,0-1.02-.23-1.03-.23-.07-.04-.16-.03-.21.04-.05.07-.03.16.04.21.02.01.43.28,1.2.28h.96v1.7c-.2.05-.39.22-.39.69v2.81c0,.66.41.72.54.72.26,0,.54-.22.54-.72v-2.86c0-.44-.19-.6-.39-.65v-1.7h.96c.77,0,1.18-.27,1.2-.28.07-.05.09-.14.04-.21ZM9.28,9.66v2.86c0,.33-.15.42-.24.42-.16,0-.24-.14-.24-.42v-2.81c0-.35.09-.42.24-.42.1,0,.24,0,.24.37Z"/>
      <path class="cls-2" d="M8.03,5.53v1.16h2v-1.16s.31.43.37,1.16c0,0,.42-.01.72-.33,0,0-.05-2.27-1.11-2.27h-1.96c-1.06,0-1.11,2.27-1.11,2.27.3.32.72.33.72.33.06-.73.37-1.16.37-1.16Z"/>
      <circle class="cls-2" cx="9.04" cy="2.77" r=".99"/>
      <path class="cls-2" d="M9.56,8.77s.36.15.36.68v1.69s.31,0,.31-.48v-3.05h-.67v1.16Z"/>
      <path class="cls-2" d="M8.52,7.61h-.67l-.9,2.29h0l-.27.7-.02.06s0,0,0,0c-.02.08-.03.15-.02.21,0,.02.01.04.02.05,0,.04.02.07.04.1.01.02.03.03.04.04.02.02.04.04.07.05.02,0,.04.01.06.02.03,0,.05.01.08.02.01,0,.02,0,.03,0,0,0,.01,0,.02,0,.08,0,.15-.02.22-.07.01,0,.02-.01.03-.02.07-.05.14-.12.18-.21.12-.27.75-1.41.75-1.41,0-.53.36-.68.36-.68v-1.16Z"/>
      <path class="cls-2" d="M6.43,11.24c-.06-.08-.15-.26-.11-.53l-1.84.55v-3.01l2.55-.76c-.15-.05-.31-.11-.46-.21l-2.08.62v-.85c0-.08-.07-.15-.15-.15s-.15.07-.15.15v6.04c0,.08.07.15.15.15s.15-.07.15-.15v-1l2.19-.66c-.1-.04-.18-.11-.24-.19Z"/>
      <path class="cls-2" d="M7.81,10.81c-.04.08-.07.14-.09.19-.02.05-.06.1-.09.15l.53-.16v-.83h-.05c-.11.26-.22.49-.3.65Z"/>
    </g>
  </g>
</svg>