<?xml version="1.0" encoding="UTF-8"?>
<svg xmlns="http://www.w3.org/2000/svg" viewBox="0 0 15.59 15.59">
  <defs>
    <style>
      .cls-1 {
        fill: #021e3a;
      }

      .cls-1, .cls-2 {
        stroke-width: 0px;
      }

      .cls-2 {
        fill: #fff;
      }
    </style>
  </defs>
  <g id="Cirkel">
    <rect class="cls-1" x="0" y="0" width="15.59" height="15.59" rx="7.8" ry="7.8"/>
  </g>
  <g id="ICONS">
    <g>
      <path class="cls-2" d="M4.89,8.26c.28,0,.5-.23.5-.5s-.23-.5-.5-.5-.5.23-.5.5.23.5.5.5Z"/>
      <path class="cls-2" d="M5.39,8.44h-.97c-.31,0-.56.24-.56.53l.09,1.61c0,.24.16.44.38.51.04.01.06.04.07.08l.14,1.19c.01.18.17.33.36.33h0c.19,0,.35-.14.36-.33l.14-1.19s.03-.07.07-.08c.22-.07.38-.27.38-.51l.09-1.61c0-.3-.25-.53-.56-.53Z"/>
      <path class="cls-2" d="M7.65,8.26c.28,0,.5-.23.5-.5s-.23-.5-.5-.5-.5.23-.5.5.23.5.5.5Z"/>
      <path class="cls-2" d="M8.15,8.44h-.97c-.31,0-.56.24-.56.53l.09,1.61c0,.24.16.44.38.51.04.01.06.04.07.08l.14,1.19c.01.18.17.33.36.33h0c.19,0,.35-.14.36-.33l.14-1.19s.03-.07.07-.08c.22-.07.38-.27.38-.51l.09-1.61c0-.3-.25-.53-.56-.53Z"/>
      <path class="cls-2" d="M10.4,8.26c.28,0,.5-.23.5-.5s-.23-.5-.5-.5-.5.23-.5.5.23.5.5.5Z"/>
      <path class="cls-2" d="M10.9,8.44h-.97c-.31,0-.56.24-.56.53l.09,1.61c0,.24.16.44.38.51.04.01.06.04.07.08l.14,1.19c.01.18.17.33.36.33h0c.19,0,.35-.14.36-.33l.14-1.19s.03-.07.07-.08c.22-.07.38-.27.38-.51l.09-1.61c0-.3-.25-.53-.56-.53Z"/>
      <path class="cls-2" d="M13.23,5.2l-5.19-3.11c-.15-.09-.33-.09-.48,0l-5.19,3.11c-.22.13-.29.41-.16.63.13.22.42.29.63.16l4.96-2.97,4.96,2.97c.07.04.16.07.24.07.16,0,.31-.08.4-.22.13-.22.06-.5-.16-.63Z"/>
    </g>
  </g>
</svg>