<?xml version="1.0" encoding="UTF-8"?>
<svg xmlns="http://www.w3.org/2000/svg" viewBox="0 0 15.59 15.59">
  <defs>
    <style>
      .cls-1 {
        fill: #071f39;
      }

      .cls-1, .cls-2 {
        stroke-width: 0px;
      }

      .cls-2 {
        fill: #fff;
      }
    </style>
  </defs>
  <g id="Cirkel">
    <rect class="cls-1" x="0" y="0" width="15.59" height="15.59" rx="7.8" ry="7.8"/>
  </g>
  <g id="ICONS">
    <path class="cls-2" d="M12.39,12.45h-1.07l-1.29-2.21c.39-.28.72-.63.97-1.03l.45.26c-.03.07-.05.14-.06.22v.28c0,.26.21.48.47.48h.48c.26,0,.48-.21.48-.48v-.28c-.03-.37-.34-.67-.72-.67-.14,0-.27.05-.38.13l-.52-.3c.25-.51.4-1.07.4-1.67s-.15-1.17-.4-1.67l.58-.34s.05.02.08.02h.48c.26,0,.48-.21.48-.48v-.28c-.03-.37-.34-.67-.72-.67s-.68.3-.71.67v.28c0,.07,0,.13.03.18l-.42.24c-.64-1-1.74-1.68-3-1.75v-.31h.03c.26,0,.48-.21.48-.48v-.28c-.03-.37-.34-.67-.72-.67s-.68.3-.71.67v.28c0,.26.21.48.47.48h.03v.31c-1.23.07-2.31.71-2.96,1.67l-.39-.23s.03-.08.03-.13v-.28c-.03-.37-.34-.67-.72-.67s-.68.3-.71.67v.28c0,.26.21.48.47.48h.48c.06,0,.11-.01.16-.03l.48.28c-.28.53-.45,1.12-.45,1.75s.17,1.22.45,1.75l-.45.26c-.12-.1-.27-.16-.43-.16-.38,0-.68.3-.71.67v.28c0,.26.21.48.47.48h.48c.26,0,.48-.21.48-.48v-.28c-.01-.06-.03-.11-.05-.16l.41-.24c.26.39.59.72.97.99l-1.27,2.17h-1.13c-.18,0-.32.14-.32.32s.14.32.32.32h9.19c.18,0,.32-.14.32-.32s-.14-.32-.32-.32ZM10.59,12.45h-2.58v-1.49c.53-.03,1.03-.17,1.48-.39l1.1,1.88ZM9.17,10.02c-.36.17-.75.27-1.16.3v-2.28l1.16,1.98ZM7.58,10.32c-.39-.03-.77-.12-1.11-.28l1.11-1.9v2.17ZM9.71,9.69l-1.09-1.86,1.84,1.06c-.2.31-.46.57-.75.8ZM10.98,7.17c0,.49-.12.95-.32,1.36l-2.07-1.19c.01-.06.03-.11.03-.17s-.02-.11-.03-.17l2.07-1.19c.2.41.32.87.32,1.36ZM10.46,5.43l-2.05,1.18c-.11-.12-.24-.2-.4-.24v-2.37c1.03.07,1.92.61,2.45,1.43ZM7.58,4.01v2.37c-.13.03-.24.09-.34.18l-2.07-1.19c.54-.77,1.41-1.29,2.4-1.36ZM4.61,7.17c0-.52.14-1,.36-1.44l2.04,1.18c-.03.08-.05.16-.05.26s.02.17.05.26l-2.04,1.18c-.22-.43-.36-.92-.36-1.44ZM5.18,8.97l1.8-1.04-1.05,1.79c-.29-.21-.54-.46-.75-.76ZM6.15,10.59c.44.21.92.34,1.43.37v1.49h-2.52l1.09-1.86Z"/>
  </g>
</svg>