<?xml version="1.0" encoding="UTF-8"?>
<svg xmlns="http://www.w3.org/2000/svg" viewBox="0 0 15.59 15.59">
  <defs>
    <style>
      .cls-1 {
        fill: #021e3a;
      }

      .cls-1, .cls-2 {
        stroke-width: 0px;
      }

      .cls-2 {
        fill: #fff;
      }
    </style>
  </defs>
  <g id="Cirkel">
    <rect class="cls-1" x="0" y="0" width="15.59" height="15.59" rx="7.8" ry="7.8"/>
  </g>
  <g id="ICONS">
    <path class="cls-2" d="M13.31,6.99L7.98,2.63c-.11-.09-.26-.09-.37,0L2.28,6.99c-.13.1-.05.31.11.31h1.39v5.53c0,.11.09.2.2.2h7.62c.11,0,.2-.09.2-.2v-5.53h1.39c.16,0,.23-.2.11-.31ZM10.3,10.48c-.34.08-1.17.45-1.86-.15-.2.05-.41.08-.63.08-1.22,0-2.21-.83-2.21-1.84s.99-1.84,2.21-1.84,2.21.83,2.21,1.84c0,.44-.19.85-.5,1.17,0,0,0,0,0,0,.22.26.5.53.78.65.04.02.08.02.08.05s0,.02-.09.04Z"/>
  </g>
</svg>