<?xml version="1.0" encoding="UTF-8"?>
<svg xmlns="http://www.w3.org/2000/svg" viewBox="0 0 15.59 15.59">
  <defs>
    <style>
      .cls-1 {
        fill: #021e3a;
      }

      .cls-1, .cls-2 {
        stroke-width: 0px;
      }

      .cls-2 {
        fill: #fff;
      }
    </style>
  </defs>
  <g id="Cirkel">
    <rect class="cls-1" x="0" y="0" width="15.59" height="15.59" rx="7.8" ry="7.8"/>
  </g>
  <g id="ICONS">
    <path class="cls-2" d="M13.29,6.99L7.98,2.65c-.11-.09-.26-.09-.37,0L2.3,6.99c-.12.1-.05.3.11.3h1.27v5.52c0,.11.09.2.2.2h1.98c.11,0,.2-.09.2-.2v-3.28c0-.11.09-.2.2-.2h2.84c.11,0,.2.09.2.2v3.28c0,.11.09.2.2.2h1.98c.11,0,.2-.09.2-.2v-5.52h1.5c.16,0,.23-.2.11-.3ZM7.8,6.73c-.39,0-.7-.31-.7-.7s.31-.7.7-.7.7.31.7.7-.31.7-.7.7Z"/>
  </g>
</svg>