<?xml version="1.0" encoding="UTF-8"?>
<svg xmlns="http://www.w3.org/2000/svg" viewBox="0 0 15.59 15.59">
  <defs>
    <style>
      .cls-1 {
        fill: #071f39;
      }

      .cls-1, .cls-2 {
        stroke-width: 0px;
      }

      .cls-2 {
        fill: #fff;
      }
    </style>
  </defs>
  <g id="Cirkel">
    <rect class="cls-1" x="0" y="0" width="15.59" height="15.59" rx="7.8" ry="7.8"/>
  </g>
  <g id="ICONS">
    <g>
      <path class="cls-2" d="M13.07,11.84l-2.83-4.91c-.1-.18-.35-.18-.46,0l-2.83,4.91c-.1.18.03.4.23.4h1.18c.17,0,.32-.09.41-.24l1.02-1.77c.1-.18.35-.18.46,0l1.02,1.77c.08.14.24.23.4.23h1.18c.2,0,.33-.22.23-.4Z"/>
      <path class="cls-2" d="M7.77,9.12s-1.66-2.88-1.68-2.91c-.02-.03,0-.09.05-.09h.65c.16,0,.27-.18.18-.32l-1.94-3.36c-.08-.14-.29-.14-.37,0l-1.94,3.36c-.08.14.02.32.18.32,0,0,.6,0,.66,0,.04,0,.07.06.05.08-.02.03-1.69,2.92-1.69,2.92-.08.14.02.32.18.32h2.13c.11,0,.21.09.21.21v2.23c0,.22.18.4.4.4s.4-.18.4-.4v-2.22c0-.12.1-.21.21-.21h2.12c.16,0,.27-.18.18-.32Z"/>
    </g>
  </g>
</svg>