<?xml version="1.0" encoding="UTF-8"?>
<svg xmlns="http://www.w3.org/2000/svg" viewBox="0 0 15.59 15.59">
  <defs>
    <style>
      .cls-1 {
        fill: #071f39;
      }

      .cls-1, .cls-2 {
        stroke-width: 0px;
      }

      .cls-2 {
        fill: #fff;
      }
    </style>
  </defs>
  <g id="Cirkel">
    <rect class="cls-1" x="0" y="0" width="15.59" height="15.59" rx="7.8" ry="7.8"/>
  </g>
  <g id="ICONS">
    <path class="cls-2" d="M10.59,3.72c0-.73-.59-1.32-1.32-1.32s-1.32.59-1.32,1.32c0,.57.37,1.05.87,1.23v6.1c0,.68-.56,1.24-1.24,1.24s-1.24-.56-1.24-1.24v-.25c.12.08.28.11.43.04.23-.1.34-.36.24-.59l-.7-1.68c-.08-.2-.29-.31-.5-.27-.21.04-.36.23-.36.44v2.3c0,1.18.96,2.14,2.14,2.14s2.14-.96,2.14-2.14v-6.1c.51-.19.87-.66.87-1.23ZM9.27,3.3c.23,0,.42.19.42.42s-.19.43-.42.43-.43-.19-.43-.43.19-.42.43-.42Z"/>
  </g>
</svg>