<?xml version="1.0" encoding="UTF-8"?>
<svg xmlns="http://www.w3.org/2000/svg" viewBox="0 0 15.59 15.59">
  <defs>
    <style>
      .cls-1 {
        fill: #071f39;
      }

      .cls-1, .cls-2 {
        stroke-width: 0px;
      }

      .cls-2 {
        fill: #fff;
      }
    </style>
  </defs>
  <g id="Cirkel">
    <rect class="cls-1" x="0" y="0" width="15.59" height="15.59" rx="7.8" ry="7.8"/>
  </g>
  <g id="ICONS">
    <path class="cls-2" d="M11.64,4.25l-3.65-2.61c-.12-.08-.28-.08-.39,0l-3.65,2.61c-.16.11-.08.36.12.36h.46v9.01c0,.22.18.39.39.39s.39-.18.39-.39v-.63l2.39-1.44,2.57,1.54v.52c0,.22.18.39.39.39s.39-.18.39-.39V4.61h.46c.19,0,.27-.25.12-.36ZM5.31,6.26v-1.48c0-.1.08-.17.17-.17h2.05c.1,0,.17.08.17.17v1.48c0,.1-.08.17-.17.17h-2.05c-.1,0-.17-.08-.17-.17ZM5.31,12.07v-1.95l1.63.98-1.63.98ZM10.28,12.18l-1.8-1.08,1.8-1.08v2.16ZM10.28,9.09l-2.57,1.54-2.39-1.44v-.91h4.96v.8Z"/>
  </g>
</svg>