<?xml version="1.0" encoding="UTF-8"?>
<svg xmlns="http://www.w3.org/2000/svg" viewBox="0 0 15.59 15.59">
  <defs>
    <style>
      .cls-1 {
        fill: #071f39;
      }

      .cls-1, .cls-2 {
        stroke-width: 0px;
      }

      .cls-2 {
        fill: #fff;
      }
    </style>
  </defs>
  <g id="Cirkel">
    <rect class="cls-1" x="0" y="0" width="15.59" height="15.59" rx="7.8" ry="7.8"/>
  </g>
  <g id="ICONS">
    <path class="cls-2" d="M8.56,9.07h0s0,0,0,0V2.73s0,0,0,0v-.48c0-.21-.22-.36-.42-.28l-2.36,1.08c-.24.1-.26.44-.03.56l2.29,1.11v4.32s-.1,0-.15-.01c-.05,0-.1,0-.15,0-1.93,0-4.36-1-4.36.18s2.44,4.11,4.36,4.11,3.49-.96,3.49-2.15c0-1.04-1.07-1.9-2.67-2.1ZM8.16,11.75c-.74,0-1.34-.32-1.34-.72,0-.35.47-.65,1.09-.71h.13v.51c0,.14.12.26.26.26s.26-.12.26-.26v-.51h0c.62.06.94.36.94.71,0,.4-.6.72-1.34.72Z"/>
  </g>
</svg>