<?xml version="1.0" encoding="UTF-8"?>
<svg xmlns="http://www.w3.org/2000/svg" viewBox="0 0 15.59 15.59">
  <defs>
    <style>
      .cls-1 {
        fill: #071f39;
      }

      .cls-1, .cls-2 {
        stroke-width: 0px;
      }

      .cls-2 {
        fill: #fff;
      }
    </style>
  </defs>
  <g id="Cirkel">
    <rect class="cls-1" x="0" y="0" width="15.59" height="15.59" rx="7.8" ry="7.8"/>
  </g>
  <g id="ICONS">
    <path class="cls-2" d="M11.29,3.24c-1.14,0-2.07.93-2.07,2.07v.88c0,.98.68,1.79,1.59,2.01v1.19c-.22,0-.41-.01-.59.02-.12.02-.27.15-.32.27-.07.17.03.32.21.39.04.02.08.03.18.07-1.87.34-3.68.37-5.53,0,.07-.03.09-.04.11-.04.25,0,.42-.09.42-.36,0-.22-.15-.33-.45-.33-.15,0-.29,0-.43,0v-.56c2.66-.4.49-5.03-.3-6.56-.11-.21-.41-.2-.51,0-.72,1.52-2.63,6.03-.07,6.54v.56h-.14c-.57.03-.73.1-.72.33.02.5.43.34.73.41l.14.07v2.86c0,.24.2.44.44.44s.44-.2.44-.44v-2.41c.97.8,2.01,1.39,3.31,1.33,1.22-.05,2.18-.64,3.11-1.44v2.51c0,.24.2.44.44.44s.44-.2.44-.44v-2.88l.2-.05c.31-.04.6-.02.62-.38.01-.23-.13-.32-.56-.38h-.25s0-1.15,0-1.15c.95-.19,1.66-1.02,1.66-2.03v-.88c0-1.14-.93-2.07-2.07-2.07Z"/>
  </g>
</svg>