<?xml version="1.0" encoding="UTF-8"?>
<svg xmlns="http://www.w3.org/2000/svg" viewBox="0 0 15.59 15.59">
  <defs>
    <style>
      .cls-1 {
        fill: none;
      }

      .cls-1, .cls-2, .cls-3 {
        stroke-width: 0px;
      }

      .cls-2 {
        fill: #071f39;
      }

      .cls-3 {
        fill: #fff;
      }
    </style>
  </defs>
  <g id="Cirkel">
    <g>
      <path class="cls-1" d="M7.24,6.91v.75h.81v-.75c0-.22-.18-.4-.4-.4s-.4.18-.4.4Z"/>
      <rect class="cls-1" x="2.99" y="8.15" width=".74" height=".98"/>
      <rect class="cls-1" x="2.99" y="9.71" width=".74" height=".98"/>
    </g>
    <rect class="cls-2" x="0" y="0" width="15.59" height="15.59" rx="7.79" ry="7.79"/>
  </g>
  <g id="ICONS">
    <path class="cls-3" d="M5.04,3.55c0-.13-.08-.23-.17-.23h-.67c-.09,0-.17.1-.17.23v.44h1.01v-.44Z"/>
    <path class="cls-3" d="M11.28,3.55c0-.13-.08-.23-.17-.23h-.67c-.09,0-.17.1-.17.23v.44h1.01v-.44Z"/>
    <rect class="cls-3" x="4.69" y="7.5" width=".51" height="3.86"/>
    <path class="cls-3" d="M2.39,7.5v3.68c0,.1.08.19.19.19h1.62v-3.86h-1.81ZM3.66,10.69h-.74v-.98h.74v.98ZM2.92,9.13v-.98h.74v.98h-.74Z"/>
    <rect class="cls-3" x="10.1" y="7.5" width=".5" height="3.86"/>
    <path class="cls-3" d="M11.11,11.36h1.62c.1,0,.19-.08.19-.19v-3.68h-1.81v3.86ZM11.64,8.15h.74v.98h-.74v-.98ZM11.91,9.71h.47v.98h-.74v-.98h.27Z"/>
    <rect class="cls-3" x="11.14" y="8.15" width=".42" height=".98"/>
    <rect class="cls-3" x="11.14" y="9.71" width=".42" height=".98"/>
    <path class="cls-3" d="M13.35,6.67l-1.55-2.02c-.11-.14-.27-.22-.43-.22,0,0,0,0,0,0h-2.33l-.59-.5-.61-.52c-.1-.08-.24-.08-.34,0l-.61.52-.59.5h-2.33s0,0,0,0c-.17,0-.32.08-.43.22l-1.55,2.02c-.1.13,0,.32.16.33,0,0,0,0,0,0h3.09v-.53c0-.07.03-.14.08-.18l.09-.09,1.91-1.77h0s.2-.18.2-.18c.1-.09.24-.09.34,0l.2.18h0s1.88,1.76,1.88,1.76l.1.1h0s0,0,0,0c0,0,0,0,0,0h0s.07.11.07.18v.53h0s2.81,0,2.81,0h.27s0,0,0,0c.17,0,.26-.2.16-.33Z"/>
    <path class="cls-3" d="M5.71,6.58v.42h0v4.59c0,.11.09.2.2.2h1.22v-1.5c0-.29.23-.52.52-.52s.52.23.52.52v1.5h1.22c.11,0,.2-.09.2-.2v-4.59h0v-.42l-1.94-1.81-1.96,1.81ZM8.05,6.91v.75h-.81v-.75c0-.22.18-.4.4-.4s.4.18.4.4Z"/>
  </g>
</svg>