<?xml version="1.0" encoding="UTF-8"?>
<svg xmlns="http://www.w3.org/2000/svg" viewBox="0 0 15.59 15.59">
  <defs>
    <style>
      .cls-1 {
        fill: #071f39;
      }

      .cls-1, .cls-2 {
        stroke-width: 0px;
      }

      .cls-2 {
        fill: #fff;
      }
    </style>
  </defs>
  <g id="Cirkel">
    <rect class="cls-1" x="0" y="0" width="15.59" height="15.59" rx="7.8" ry="7.8"/>
  </g>
  <g id="ICONS">
    <g>
      <path class="cls-2" d="M12.36,10.18c-.07,0-.13.03-.18.06v-.28c0-.18-.15-.33-.33-.33s-.33.15-.33.33v.38c-.4-.04-.77-.26-.77-1.2v-1.72l.12.02s.03,0,.06,0c.27.05.51-.15.5-.42,0-.15-.08-.26-.21-.35-.37-.24-.73-.49-1.1-.73-.07-.05-.08-.17-.08-.17v-.38s-.01-.01-.03-.02c-.02-.02-.05,0-.05,0,0,0-1.5,1.39-2.17,2.08-.03.03-.2.26-.2.26,0,0-3.25.03-3.43.03-.18,0-.35-.01-.53.01-.44.06-.74.42-.74.87,0,.46,0,.91,0,1.37,0,.02,0,.05,0,.07h.62s0-.06,0-.09c0-.43,0-.85,0-1.28,0-.03,0-.07.03-.1.08-.13.17-.26.25-.39,0-.01.02-.03.04-.04,0,.02,0,.03,0,.05,0,.54,0,1.08,0,1.62,0,.03-.01.06-.03.08-.09.14-.17.27-.26.41-.02.03-.03.07-.03.11,0,.48,0,.96,0,1.44,0,.24,0,.49,0,.73,0,.23.24.4.47.35.2-.04.32-.2.32-.42,0-.6,0-1.2,0-1.79,0-.05.02-.1.04-.14.1-.16.2-.32.3-.47.01-.02.02-.03.05-.06,0,.21,0,.39,0,.58,0,.03,0,.07.02.1.28.66.56,1.31.83,1.97.09.21.31.3.52.21.2-.09.29-.31.2-.52-.25-.58-.49-1.17-.74-1.75-.02-.04-.01-.07,0-.11.1-.16.19-.33.29-.49.03-.05.06-.06.11-.06.61,0,1.23,0,1.84,0,.02,0,.05,0,.07,0v.06c0,.42,0,.85,0,1.27,0,.41,0,.82,0,1.22,0,.29.25.48.51.4.18-.05.28-.2.28-.41,0-.8,0-1.61,0-2.41,0-.05.01-.09.03-.14.28-.57.56-1.14.83-1.71l.14-.27c.1-.21.2-.41.31-.61.06-.12.06-.12.19-.09.14.03.27.05.4.08v1.77c0,.88.33,1.33.99,1.4v2.1c0,.18.15.33.33.33s.33-.15.33-.33v-1.85c.05.04.11.06.18.06.18,0,.33-.15.33-.33s-.15-.33-.33-.33Z"/>
      <path class="cls-2" d="M12.9,4.74l-4.88-2.93c-.14-.08-.31-.08-.45,0l-4.88,2.93c-.21.12-.27.39-.15.6.12.21.39.27.6.15l4.66-2.79,4.66,2.79c.07.04.15.06.22.06.15,0,.29-.08.37-.21.12-.21.06-.47-.15-.6Z"/>
    </g>
  </g>
</svg>