<?xml version="1.0" encoding="UTF-8"?>
<svg xmlns="http://www.w3.org/2000/svg" viewBox="0 0 15.59 15.59">
  <defs>
    <style>
      .cls-1 {
        fill: #071f39;
      }

      .cls-1, .cls-2 {
        stroke-width: 0px;
      }

      .cls-2 {
        fill: #fff;
      }
    </style>
  </defs>
  <g id="Cirkel">
    <rect class="cls-1" x="0" y="0" width="15.59" height="15.59" rx="7.79" ry="7.79"/>
  </g>
  <g id="ICONS">
    <path class="cls-2" d="M12.75,7.67h-1c-.24-.53-.48-1.05-.72-1.58-.05-.12-.11-.24-.16-.35-.05-.11-.2-.18-.32-.18h-5.56c-.12,0-.27.07-.32.18-.28.64-.56,1.29-.84,1.93h-1.11c-.09,0-.15.07-.15.15v.4c0,.09.07.15.15.15h.8c-.03.07-.06.13-.09.2-.02.05-.03.11-.04.16h-.01v3.48c0,.17.14.31.31.31h.89c.17,0,.31-.14.31-.31v-1.28h5.78v1.28c0,.17.14.31.31.31h.89c.17,0,.31-.14.31-.31v-3.48h0c0-.05-.02-.11-.04-.16-.03-.07-.06-.13-.09-.2h.68c.09,0,.15-.07.15-.15v-.4c0-.09-.07-.15-.15-.15ZM5.15,6.46c.03-.06.05-.12.08-.18h5.09c.29.65.59,1.29.88,1.94h-6.81l.76-1.76ZM5.81,9.3c0,.19-.15.34-.34.34h-.85c-.25,0-.45-.2-.45-.45,0-.14.11-.26.26-.26h1.13c.14,0,.26.11.26.26v.12ZM11.07,9.64h-.85c-.19,0-.34-.15-.34-.34v-.12c0-.14.11-.26.26-.26h1.13c.14,0,.26.11.26.26,0,.25-.2.45-.45.45Z"/>
    <path class="cls-2" d="M8.3,1.51c-.63-.24-1.36-.04-1.79.48-.42.52-.49,1.26-.14,1.83.34.57,1.01.87,1.67.75.75-.14,1.29-.81,1.3-1.57,0-.66-.42-1.26-1.04-1.49ZM8.18,4.22c-.51.18-1.1.02-1.44-.4-.34-.42-.38-1.02-.11-1.48.27-.46.82-.71,1.34-.61.61.12,1.05.65,1.06,1.27,0,.54-.34,1.03-.85,1.21Z"/>
    <path class="cls-2" d="M8.31,3.36l-.41-.41h-.01v-.92c0-.08-.07-.16-.15-.15-.08,0-.15.07-.15.15v.97s0,.04.01.05c0,0,0,0,0,0,0,.01.02.03.03.04,0,0,0,0,0,0l.41.41.06.06c.06.06.16.06.22,0,.06-.06.06-.15,0-.22Z"/>
  </g>
</svg>