<?xml version="1.0" encoding="UTF-8"?>
<svg xmlns="http://www.w3.org/2000/svg" viewBox="0 0 15.59 15.59">
  <defs>
    <style>
      .cls-1 {
        fill: #071f39;
      }

      .cls-1, .cls-2 {
        stroke-width: 0px;
      }

      .cls-2 {
        fill: #fff;
      }
    </style>
  </defs>
  <g id="Cirkel">
    <rect class="cls-1" x="0" y="0" width="15.59" height="15.59" rx="7.8" ry="7.8"/>
  </g>
  <g id="ICONS">
    <path class="cls-2" d="M12.95,11.07h-4.83v-.88c.64-.27,1.05-1.28,1.22-2.48.1.06.21.12.33.19.12.07.25.13.34.16.27.07,1.31.04,1.51.11l.49.44s.23.29.47.11c.24-.17-.06-.43-.12-.49-.06-.05-1.14-1.19-1.63-1.24,0,0-.11-.27-.26-.41,0,0,.35-.4.75-.54.4-.15.53-.15.61-.21.07-.06.08-.22-.29-.17-.35.04-1.31.31-1.77.46-.04.01-.1.03-.14.04,0,0-.09.04-.21.08-.04-1.83-.6-3.61-1.66-3.61-.9,0-1.45,1.32-1.61,2.86-.03,0-.05,0-.05,0l-.28-.19-.39-.26s.29-.57.18-.66c-.1-.08-.7.34-.7.34,0,0-.16-.03-.21-.03-.27-.03-.81-.04-1.08.16-.18.13-.31.34-.31.34,0,0-.53.08-.55.12-.03.04.06.77.33.87.27.09,1.4.2,1.4.2,0,0,.32.13.39.53.02.1-1.09.46-1.09.46,0,0-.51.17-.5.36.02.45.92.12.92.12,0,0,1.14-.35,1.45-.34.02,0,.09,0,.15,0,.09,0,.2,0,.35.01.15,1.28.57,2.4,1.25,2.68v.87H2.64c-.11,0-.2.09-.2.2s.09.2.2.2h4.78v.81h-1.06c-.19,0-.35.16-.35.35s.16.35.35.35h2.78c.19,0,.35-.16.35-.35s-.16-.35-.35-.35h-1.02v-.81h4.83c.11,0,.2-.09.2-.2s-.09-.2-.2-.2ZM6.88,7.53c.11,0,.23,0,.35.01.37.01.74.03,1.06.04.05-.34.08-.71.08-1.14,0-.15-.02-.27-.03-.41-.38-.12-.81-.26-1.15-.36-.09-.03-.18-.05-.26-.07-.04,0-.06-.01-.1-.02.14-1.39.59-2.27.92-2.27.36,0,.89,1.12.95,2.83,0,.1.01.19.01.3,0,.42-.03.8-.08,1.15-.17,1.22-.58,1.97-.88,1.97s-.72-.79-.89-2.04Z"/>
  </g>
</svg>