<?xml version="1.0" encoding="UTF-8"?>
<svg xmlns="http://www.w3.org/2000/svg" viewBox="0 0 15.59 15.59">
  <defs>
    <style>
      .cls-1 {
        fill: #071f39;
      }

      .cls-1, .cls-2 {
        stroke-width: 0px;
      }

      .cls-2 {
        fill: #fff;
      }
    </style>
  </defs>
  <g id="Cirkel">
    <rect class="cls-1" x="0" y="0" width="15.59" height="15.59" rx="7.8" ry="7.8"/>
  </g>
  <g id="ICONS">
    <g>
      <path class="cls-2" d="M7.12,11.02c-.09-.24-.4-.77-.4-.77l.22-1.13c.51-.27.52-.52.47-.95-.03-.22-.27-.19-.27-.19l-1.21.24c-.41-.28-.38.07-.38.07l.22.87s-1.24.27-1.76.37-.86-.09-.99-.23-.2-.07-.2-.07c0,0-.11.02.01.21.12.19.57.51.57.51-.16.21-.19.36-.19.36l-.56.19-.43.49s-.17.14,0,.3c.17.15.29,0,.29,0l.35-.38.58-.03-.31.32v.72s.02.2.21.21c.2,0,.22-.15.22-.15v-.52s.28-.17.68-.32c.4-.15.52-.44.52-.44l1.09.23.03.44s-.47.36-.55.46c-.08.09-.09.15,0,.26.09.11.2.07.2.07,0,0,.54-.31.64-.36.1-.05.14-.16.14-.16l.15-.61.24.21s.28.53.3.57c.02.05.11.15.3.14.18-.01.12-.21.12-.21,0,0-.23-.5-.31-.73Z"/>
      <path class="cls-2" d="M13.41,9.19s-1.57-2.72-1.59-2.75,0-.09.05-.09h.62c.15,0,.25-.17.17-.3l-1.83-3.17c-.08-.13-.27-.13-.35,0l-1.83,3.17c-.08.13.02.3.17.3,0,0,.57,0,.62,0,.04,0,.06.05.05.08-.01.02-1.59,2.76-1.59,2.76-.08.13.02.3.17.3h2.01c.11,0,.19.09.19.19v2.1c0,.21.17.38.38.38s.38-.17.38-.38v-2.09c0-.11.09-.2.2-.2h2c.15,0,.25-.17.17-.3Z"/>
    </g>
  </g>
</svg>