<?xml version="1.0" encoding="UTF-8"?>
<svg xmlns="http://www.w3.org/2000/svg" viewBox="0 0 15.59 15.59">
  <defs>
    <style>
      .cls-1 {
        fill: #021e3a;
      }

      .cls-1, .cls-2 {
        stroke-width: 0px;
      }

      .cls-2 {
        fill: #fff;
      }
    </style>
  </defs>
  <g id="Cirkel">
    <rect class="cls-1" x="0" y="0" width="15.59" height="15.59" rx="7.8" ry="7.8"/>
  </g>
  <g id="ICONS">
    <g>
      <path class="cls-2" d="M10.52,7.37c-.1-.09-.25-.09-.36,0l-2.3,1.88c-.12.1-.05.29.1.29h.39v2.67c0,.05.04.1.1.1h.96c.05,0,.1-.04.1-.1v-1.59c0-.05.04-.1.1-.1h1.37c.05,0,.1.04.1.1v1.59c0,.05.04.1.1.1h.96c.05,0,.1-.04.1-.1v-2.67h.49c.16,0,.22-.19.1-.29l-2.3-1.88Z"/>
      <path class="cls-2" d="M4.9,7.37c-.1-.09-.25-.09-.36,0l-2.3,1.88c-.12.1-.05.29.1.29h.39v2.67c0,.05.04.1.1.1h.96c.05,0,.1-.04.1-.1v-1.59c0-.05.04-.1.1-.1h1.37c.05,0,.1.04.1.1v1.59c0,.05.04.1.1.1h.96c.05,0,.1-.04.1-.1v-2.67h.49c.16,0,.22-.19.1-.29l-2.3-1.88Z"/>
      <path class="cls-2" d="M5.13,4.28h.39v2.67c0,.05.04.1.1.1h.96c.05,0,.1-.04.1-.1v-1.59c0-.05.04-.1.1-.1h1.37c.05,0,.1.04.1.1v1.59c0,.05.04.1.1.1h.96c.05,0,.1-.04.1-.1v-2.67h.49c.16,0,.22-.19.1-.29l-2.3-1.88c-.1-.09-.25-.09-.36,0l-2.3,1.88c-.12.1-.05.29.1.29Z"/>
      <path class="cls-2" d="M12.47,4.32s0-.04.02-.04h.29c.07,0,.12-.08.08-.14l-.87-1.51c-.04-.06-.13-.06-.17,0l-.87,1.51c-.04.06,0,.14.08.14,0,0,.27,0,.29,0,.02,0,.03.03.02.04s-.76,1.31-.76,1.31c-.04.06,0,.14.08.14h.95c.05,0,.09.04.09.09v1c0,.1.08.18.18.18s.18-.08.18-.18v-1c0-.05.04-.1.1-.1h.95c.07,0,.12-.08.08-.14,0,0-.75-1.29-.75-1.31Z"/>
    </g>
  </g>
</svg>