<?xml version="1.0" encoding="UTF-8"?>
<svg xmlns="http://www.w3.org/2000/svg" viewBox="0 0 15.59 15.59">
  <defs>
    <style>
      .cls-1 {
        fill: #071f39;
      }

      .cls-1, .cls-2 {
        stroke-width: 0px;
      }

      .cls-2 {
        fill: #fff;
      }
    </style>
  </defs>
  <g id="Cirkel">
    <rect class="cls-1" x="0" y="0" width="15.59" height="15.59" rx="7.8" ry="7.8"/>
  </g>
  <g id="ICONS">
    <g>
      <path class="cls-2" d="M13.42,5.32l-5.38-3.22c-.15-.09-.34-.09-.49,0l-5.38,3.22c-.23.14-.3.43-.16.66.14.23.43.3.66.16l5.14-3.08,5.13,3.08c.08.05.16.07.25.07.16,0,.32-.08.41-.23.14-.23.06-.52-.16-.66Z"/>
      <path class="cls-2" d="M11,8.41c-.05-.12-.11-.24-.17-.35-.15-.28-.35-.53-.57-.75-.32-.32-.69-.57-1.1-.74-.14-.06-.29-.11-.44-.15-.3-.08-.6-.12-.91-.12s-.62.04-.92.12c-.15.04-.29.09-.43.15-.41.18-.79.43-1.1.74-.23.23-.42.48-.58.76-.06.11-.12.22-.17.34-.15.36-.24.74-.27,1.14,0,.07,0,.14,0,.21,0,.47.09.92.27,1.35.15.36.36.68.62.97.04.05.08.09.13.13.31.31.67.56,1.07.73.01,0,.02,0,.03.01.43.18.88.27,1.35.27s.92-.09,1.35-.27c.01,0,.02,0,.03-.01.4-.17.76-.42,1.07-.73.04-.04.09-.09.13-.13.26-.29.47-.61.62-.97.18-.43.27-.88.27-1.35,0-.07,0-.14,0-.21-.02-.39-.11-.78-.27-1.14ZM4.89,9.93c-.07-.04-.11-.12-.1-.2.02-.47.17-1.06.41-1.48.04-.06.1-.1.18-.11l.82-.08c.08,0,.16.03.21.09l.4.55c.04.06.05.14.03.2l-.32.99c-.02.07-.08.13-.15.15l-.8.24c-.06.02-.14,0-.19-.03l-.48-.32ZM7.62,11.94c0,.07-.04.14-.09.18l-.59.43c-.06.05-.15.06-.22.03-.51-.2-.95-.52-1.28-.94-.05-.06-.06-.14-.04-.21l.19-.67c.02-.08.08-.14.15-.16l.74-.22c.07-.02.14,0,.2.03l.86.62c.06.04.09.11.09.18v.71ZM7.3,8.59c-.07,0-.14-.04-.18-.09l-.47-.65c-.04-.05-.05-.12-.04-.18l.13-.59c.02-.08.08-.15.16-.17.29-.09.59-.14.91-.14s.61.05.9.14c.08.02.14.09.16.17l.14.62c.01.06,0,.13-.04.18l-.45.63c-.04.06-.11.1-.19.1h-1.01ZM10.16,11.64c-.33.42-.77.75-1.28.94-.07.03-.16.01-.22-.03l-.57-.42c-.06-.04-.09-.11-.09-.18v-.74c0-.07.04-.14.09-.18l.84-.61c.06-.04.13-.05.2-.03l.73.22c.08.02.13.08.15.16l.19.68c.02.07,0,.15-.04.21ZM10.71,9.92l-.48.32c-.06.04-.13.05-.19.03l-.81-.24c-.07-.02-.13-.08-.15-.15l-.31-.96c-.02-.07-.01-.14.03-.2l.4-.57c.05-.07.13-.1.21-.1l.82.08c.07,0,.14.05.18.11.25.43.42.99.42,1.49,0,.08-.04.15-.11.19Z"/>
    </g>
  </g>
</svg>