<?xml version="1.0" encoding="UTF-8"?>
<svg xmlns="http://www.w3.org/2000/svg" viewBox="0 0 15.59 15.59">
  <defs>
    <style>
      .cls-1 {
        fill: #071f39;
      }

      .cls-1, .cls-2 {
        stroke-width: 0px;
      }

      .cls-2 {
        fill: #fff;
      }
    </style>
  </defs>
  <g id="Cirkel">
    <rect class="cls-1" x="0" y="0" width="15.59" height="15.59" rx="7.8" ry="7.8"/>
  </g>
  <g id="ICONS">
    <path class="cls-2" d="M13.61,7.11c-.56-.27-1.35-.5-2.32-.67v-.85l1.17-.55c.11-.05.18-.15.18-.26s-.06-.22-.16-.27l-1.07-.6c-.11-.06-.24-.06-.35,0-.11.05-.18.16-.18.27v2.22c-.91-.13-1.95-.21-3.05-.22v-.94l1.34-.63c.12-.06.2-.17.21-.3s-.07-.25-.19-.31l-1.23-.68c-.12-.07-.27-.07-.4,0s-.2.18-.2.31v2.57c-1.13.02-2.19.11-3.11.26v-.83l1.17-.55c.11-.05.18-.15.18-.26s-.06-.22-.16-.27l-1.07-.6c-.11-.06-.24-.06-.35,0-.11.05-.18.16-.18.27v2.33c-.84.16-1.54.37-2.05.62-.23.1-.21.32-.2.38h0s0,0,0,.02l.25,2.02c.02.15.09.28.21.37l.15.12c.11.08.18.21.2.34l.19,1.1c.01.07.04.14.07.19.16.26.72.88,2.47,1.2.25.05.47-.15.47-.4v-1.22c0-.23.18-.41.41-.41h3.32c.23,0,.41.18.41.41v1.22c0,.25.23.45.48.4,2.24-.41,2.52-1.32,2.52-1.32h0l.2-1.17c.02-.13.1-.26.2-.34l.15-.12c.11-.09.19-.22.21-.37l.25-2.04c.03-.27-.2-.38-.2-.38ZM7.71,9c-2.53,0-4.01-.32-4.89-.66-.48-.42.55-.69.55-.69,1.1-.35,2.63-.56,4.34-.56s3.24.22,4.34.56c.67.17.61.53.55.68-.87.35-2.36.66-4.89.66Z"/>
  </g>
</svg>