<?xml version="1.0" encoding="UTF-8"?>
<svg xmlns="http://www.w3.org/2000/svg" viewBox="0 0 15.59 15.59">
  <defs>
    <style>
      .cls-1 {
        fill: #071f39;
      }

      .cls-1, .cls-2 {
        stroke-width: 0px;
      }

      .cls-2 {
        fill: #fff;
      }
    </style>
  </defs>
  <g id="Cirkel">
    <rect class="cls-1" x="0" y="0" width="15.59" height="15.59" rx="7.79" ry="7.79"/>
  </g>
  <g id="ICONS">
    <g>
      <path class="cls-2" d="M6.39,11.16c-.37,0-.66.3-.66.66s.3.66.66.66.66-.3.66-.66-.3-.66-.66-.66Z"/>
      <path class="cls-2" d="M9.66,11.16c-.37,0-.66.3-.66.66s.3.66.66.66.66-.3.66-.66-.3-.66-.66-.66Z"/>
      <path class="cls-2" d="M8.37,9.21h2.41c.16,0,.29-.11.33-.26l.84-3.23c.03-.1,0-.21-.06-.3-.07-.08-.16-.13-.27-.13h-6.92l-.32-1.22c-.04-.15-.18-.26-.33-.26h-1.37c-.19,0-.34.15-.34.34s.15.34.34.34h1.1l.31,1.22s0,0,0,0c0,0,0,0,0,0l.87,3.19v1.46c0,.19.15.34.34.34h5.46c.19,0,.34-.15.34-.34s-.15-.34-.34-.34h-5.12v-.82h2.72ZM5.32,7.59h1.31l.16.93h-1.22l-.25-.93ZM7.49,8.53l-.16-.93h1.41l-.16.93h-1.08ZM7.21,6.91l-.16-.93h1.97l-.16.93h-1.65ZM9.27,8.53l.16-.93h1.33l-.24.93h-1.25ZM10.94,6.91h-1.39l.16-.93h1.47l-.24.93ZM6.35,5.98l.16.93h-1.37l-.25-.93h1.46Z"/>
    </g>
  </g>
</svg>