<?xml version="1.0" encoding="UTF-8"?>
<svg xmlns="http://www.w3.org/2000/svg" viewBox="0 0 15.59 15.59">
  <defs>
    <style>
      .cls-1 {
        fill: #071f39;
      }

      .cls-1, .cls-2 {
        stroke-width: 0px;
      }

      .cls-2 {
        fill: #fff;
      }
    </style>
  </defs>
  <g id="Cirkel">
    <rect class="cls-1" x="0" y="0" width="15.59" height="15.59" rx="7.79" ry="7.79"/>
  </g>
  <g id="ICONS">
    <g>
      <path class="cls-2" d="M3.86,11.87c0,.31.25.57.57.57h6.74c.31,0,.57-.25.57-.57v-2.37H3.86v2.37Z"/>
      <path class="cls-2" d="M12.13,8.23H3.46c-.19,0-.35.16-.35.35s.16.35.35.35h8.68c.19,0,.35-.16.35-.35s-.16-.35-.35-.35Z"/>
      <path class="cls-2" d="M3.86,7.72h.48v-2.05c-.14.09-.3.15-.48.16v1.89Z"/>
      <path class="cls-2" d="M11.26,7.72h.48v-1.89c-.18-.01-.33-.07-.48-.16v2.05Z"/>
      <path class="cls-2" d="M11.89,3.48c-.09-.2-.29-.33-.51-.33h-7.16c-.22,0-.42.13-.51.33l-.11.23h8.4l-.11-.23Z"/>
      <path class="cls-2" d="M3.78,5.45c.18,0,.31-.08.4-.15.06-.05.1-.1.15-.16.07-.1.11-.21.12-.34,0,0,0-.01,0-.02,0,0,0,.01,0,.02,0,.2.1.37.25.49,0,0,0,0,.01,0,.11.09.25.15.4.15s.29-.06.4-.15c.15-.12.26-.29.26-.5,0,0,0-.01,0-.02,0,0,0,.01,0,.02,0,.21.11.38.26.5.11.09.25.15.4.15s.29-.06.4-.15c.15-.12.26-.29.26-.5,0,0,0-.01,0-.02,0,0,0,.01,0,.02,0,.21.11.38.26.5.11.09.25.15.4.15s.29-.06.4-.15c.15-.12.26-.29.26-.5,0,0,0-.01,0-.02,0,0,0,.01,0,.02,0,.21.11.38.26.5.11.09.25.15.4.15s.29-.06.4-.15c.15-.12.26-.29.26-.5,0,0,0-.01,0-.02,0,0,0,.01,0,.02,0,.21.11.38.26.5.11.09.25.15.4.15s.29-.06.4-.15c0,0,0,0,.01,0,.15-.12.24-.29.25-.49,0,0,0-.01,0-.02,0,0,0,.01,0,.02,0,.13.05.24.12.34.04.06.09.11.15.16.07.07.16.15.4.15.37,0,.67-.3.67-.67h0l-.26-.56H3.37l-.26.56h0c0,.37.3.69.67.67Z"/>
    </g>
  </g>
</svg>