<?xml version="1.0" encoding="UTF-8"?>
<svg xmlns="http://www.w3.org/2000/svg" viewBox="0 0 15.59 15.59">
  <defs>
    <style>
      .cls-1 {
        fill: #071f39;
      }

      .cls-1, .cls-2 {
        stroke-width: 0px;
      }

      .cls-2 {
        fill: #fff;
      }
    </style>
  </defs>
  <g id="Cirkel">
    <rect class="cls-1" x="0" y="0" width="15.59" height="15.59" rx="7.8" ry="7.8"/>
  </g>
  <g id="ICONS">
    <g>
      <path class="cls-2" d="M10.35,11.99h-1.13v-5.41s.01-.04.01-.07-.01-.05-.01-.07v-.08h-.02c-.06-.22-.26-.39-.51-.39h-3.06c-.3,0-.54.24-.54.54s.24.54.54.54h.71v4.95h-1.13c-.3,0-.54.24-.54.54s.24.54.54.54h5.12c.3,0,.54-.24.54-.54s-.24-.54-.54-.54Z"/>
      <path class="cls-2" d="M7.79,4.81c.79,0,1.43-.64,1.43-1.43s-.64-1.43-1.43-1.43-1.43.64-1.43,1.43.64,1.43,1.43,1.43Z"/>
    </g>
  </g>
</svg>