<?xml version="1.0" encoding="UTF-8"?>
<svg xmlns="http://www.w3.org/2000/svg" viewBox="0 0 15.59 15.59">
  <defs>
    <style>
      .cls-1 {
        fill: #071f39;
      }

      .cls-1, .cls-2 {
        stroke-width: 0px;
      }

      .cls-2 {
        fill: #fff;
      }
    </style>
  </defs>
  <g id="Cirkel">
    <rect class="cls-1" x="0" y="0" width="15.59" height="15.59" rx="7.8" ry="7.8"/>
  </g>
  <g id="ICONS">
    <path class="cls-2" d="M12.17,7c-.27,0-.48.22-.48.48s.22.48.48.48c.32,0,.57.26.57.57s-.26.57-.57.57h-3.41l-.5-1.14h1.78c.26,0,.47-.21.48-.46,0-.26-.19-.48-.45-.5l-3.52-.25c-.43-.54-1.66-.96-3.68-1.24-.14-.02-.28.02-.38.11-.11.09-.17.22-.17.36v1.49c0,.27.22.48.48.48h.82v1.14h-1.26c-.27,0-.48.22-.48.48s.22.48.48.48h9.8c.85,0,1.54-.69,1.54-1.54s-.69-1.54-1.54-1.54ZM4.35,7.96h3.11l.5,1.14h-3.61v-1.14Z"/>
  </g>
</svg>