<?xml version="1.0" encoding="UTF-8"?>
<svg xmlns="http://www.w3.org/2000/svg" viewBox="0 0 15.59 15.59">
  <defs>
    <style>
      .cls-1 {
        fill: #071f39;
      }

      .cls-1, .cls-2 {
        stroke-width: 0px;
      }

      .cls-2 {
        fill: #fff;
      }
    </style>
  </defs>
  <g id="Cirkel">
    <rect class="cls-1" x="0" y="0" width="15.59" height="15.59" rx="7.8" ry="7.8"/>
  </g>
  <g id="ICONS">
    <g>
      <path class="cls-2" d="M5.4,8.98c.48.22,3.45.33,4.46,0,.92.27,3.02.25,4,.22.18,0,.27.22.13.33-.7.6-2.16,1.74-3.1,1.74h-6.34c-.94,0-2.38-1.12-3.07-1.7-.15-.12-.07-.36.13-.38l3.79-.22Z"/>
      <path class="cls-2" d="M6.52,5.5c.53,0,.95-.43.95-.95s-.43-.95-.95-.95-.95.43-.95.95.43.95.95.95Z"/>
      <path class="cls-2" d="M4.28,4.77c.53,0,.95-.43.95-.95s-.43-.95-.95-.95-.95.43-.95.95.43.95.95.95Z"/>
      <path class="cls-2" d="M10.97,4.6l-3.49,1.36-3.12-.04.15-.71c-.08.02-.15.05-.24.05-.33,0-.62-.13-.85-.33l-.52,1.31c-.06.14-.06.29,0,.43.06.14.18.25.31.29l2.36,1.26.13.25c1.08.18,2.44.2,3.54.04-.42-.77-.68-1.27-.68-1.27l2.79-1.85h.01c.14-.08.23-.23.23-.39,0-.31-.34-.54-.63-.39Z"/>
      <g>
        <path class="cls-2" d="M13.75,7.39h-1.07c-.26,0-.46.18-.54.41h-2.74c.06.13.13.26.21.42h2.53c.03.07.06.13.11.19.11.13.27.21.45.21h1.07c.33,0,.58-.28.57-.62,0-.34-.28-.62-.61-.62Z"/>
        <path class="cls-2" d="M4.06,7.81h-.72c-.09-.24-.31-.41-.56-.41h-1.07c-.33,0-.58.28-.57.62,0,.15.06.29.15.4.11.13.27.21.45.21h1.07c.26,0,.46-.17.54-.41h1.45s0,0,0,0l-.73-.41Z"/>
      </g>
    </g>
  </g>
</svg>