<?xml version="1.0" encoding="UTF-8"?>
<svg xmlns="http://www.w3.org/2000/svg" viewBox="0 0 15.59 15.59">
  <defs>
    <style>
      .cls-1 {
        fill: #071f39;
      }

      .cls-1, .cls-2 {
        stroke-width: 0px;
      }

      .cls-2 {
        fill: #fff;
      }
    </style>
  </defs>
  <g id="Cirkel">
    <rect class="cls-1" x="0" y="0" width="15.59" height="15.59" rx="7.8" ry="7.8"/>
  </g>
  <g id="ICONS">
    <g>
      <path class="cls-2" d="M13.69,5.76c-.2,0-.36.16-.36.36v.32c-.06-.05-.14-.08-.23-.08-.2,0-.36.16-.36.36,0,.11.05.21.13.27-.01.77-.3,1.11-.97,1.11h-.03c-.09-.36-.33-.66-.66-.83-.03-.02-.07-.02-.11,0-.03.01-.06.04-.07.08-.11.39-.46.66-.85.66h-1.89l.1-.17h.06c.19,0,.34-.16.34-.35,0-.08-.03-.15-.08-.21l.2-.34.09.05c.05.03.11.05.16.05.05,0,.11-.01.16-.04.17-.1.32-.25.43-.45.26-.46.22-.96-.09-1.15-.12-.07-.26-.09-.41-.05-.24.06-.47.26-.63.53-.11.19-.17.41-.17.6,0,.11.06.22.15.28l.09.06-.2.34s-.03-.01-.05-.01h-.71l-.42-.38v-.35c0-.07-.06-.12-.12-.12h-.38c-.24,0-.44.2-.44.44v1.28h-2.35c-.39,0-.74-.27-.85-.66-.01-.04-.04-.06-.07-.08-.03-.01-.07-.01-.11,0-.44.22-.71.67-.71,1.17,0,.28.09.55.25.78.03.04.06.06.1.09.24-.2.57-.41,1.11-.41.64,0,.99.3,1.24.52.21.18.33.29.61.29s.4-.1.61-.29c.25-.22.6-.52,1.24-.52s.98.3,1.24.52c.21.18.33.29.61.29s.4-.1.61-.29c.25-.22.6-.52,1.24-.52.25,0,.45.05.62.13.09-.18.15-.37.15-.58,0-.04-.01-.07-.01-.11.76,0,1.14-.42,1.19-1.26,0,0,0,0,0,0,.09,0,.16-.03.23-.09v2.04c0,.2.16.36.36.36s.36-.16.36-.36v-2.92c0-.2-.16-.36-.36-.36ZM8.01,8.01h-.68v-.31l.06.06c.06.06.14.09.23.09h.49l-.1.17Z"/>
      <path class="cls-2" d="M6.91,6.18c.35,0,.63-.29.63-.65s-.28-.65-.63-.65-.63.29-.63.65.28.65.63.65Z"/>
      <path class="cls-2" d="M13,10.34c-.33,0-.47-.13-.69-.32-.25-.22-.56-.49-1.16-.49s-.91.27-1.16.49c-.22.19-.36.32-.69.32s-.47-.13-.69-.32c-.25-.22-.56-.49-1.16-.49s-.91.27-1.16.49c-.22.19-.36.32-.69.32s-.47-.13-.69-.32c-.25-.22-.56-.49-1.16-.49s-.91.27-1.16.49c-.22.19-.36.32-.69.32-.2,0-.36.16-.36.36s.16.36.36.36c.6,0,.91-.27,1.16-.49.22-.19.36-.32.69-.32s.47.13.69.32c.25.22.56.49,1.16.49s.91-.27,1.16-.49c.22-.19.36-.32.69-.32s.47.13.69.32c.25.22.56.49,1.16.49s.91-.27,1.16-.49c.22-.19.36-.32.69-.32s.47.13.69.32c.25.22.56.49,1.16.49.2,0,.36-.16.36-.36s-.16-.36-.36-.36Z"/>
    </g>
  </g>
</svg>