<?xml version="1.0" encoding="UTF-8"?>
<svg xmlns="http://www.w3.org/2000/svg" viewBox="0 0 15.59 15.59">
  <defs>
    <style>
      .cls-1 {
        fill: #021e3a;
      }

      .cls-1, .cls-2 {
        stroke-width: 0px;
      }

      .cls-2 {
        fill: #fff;
      }
    </style>
  </defs>
  <g id="Cirkel">
    <rect class="cls-1" x="0" y="0" width="15.59" height="15.59" rx="7.8" ry="7.8"/>
  </g>
  <g id="ICONS">
    <g>
      <path class="cls-2" d="M12.03,11.67c-.27,0-.38-.1-.56-.26-.2-.18-.46-.4-.94-.4s-.74.22-.94.4c-.18.15-.29.26-.56.26s-.38-.1-.56-.26c-.2-.18-.46-.4-.94-.4s-.74.22-.94.4c-.18.15-.29.26-.56.26s-.39-.1-.56-.26c-.2-.18-.46-.4-.94-.4s-.74.22-.94.4c-.18.15-.29.26-.56.26-.16,0-.29.13-.29.29s.13.29.29.29c.48,0,.74-.22.94-.4.18-.15.3-.26.56-.26s.39.1.56.26c.2.18.46.4.94.4s.74-.22.94-.4c.18-.15.29-.26.56-.26s.38.1.56.26c.2.18.46.4.94.4s.74-.22.94-.4c.18-.15.29-.26.56-.26s.38.1.56.26c.2.18.46.4.94.4.16,0,.29-.13.29-.29s-.13-.29-.29-.29Z"/>
      <circle class="cls-2" cx="6.31" cy="6.13" r=".6"/>
      <path class="cls-2" d="M5.42,7.2c0,.16.13.29.29.29h1.55s.04,0,.06-.01h3.1c.09,0,.17-.08.17-.17v-.19c0-.58-.47-1.05-1.05-1.05h-1.9c-.31,0-.56.25-.56.56v.28h-1.36c-.16,0-.29.13-.29.29Z"/>
      <path class="cls-2" d="M3.48,7.74c-.21,0-.39.17-.39.39s.17.39.39.39h7.11c.21,0,.39-.17.39-.39s-.17-.39-.39-.39h-5.99v-2.56l5.62-2.07c.2-.07.3-.3.23-.5s-.3-.3-.5-.23l-6.61,2.43c-.2.07-.3.3-.23.5.06.16.21.25.36.25.04,0,.09,0,.13-.02l.21-.08v2.27h-.34Z"/>
      <path class="cls-2" d="M12.59,7.95c-.16,0-.29.13-.29.29v.26c-.05-.04-.11-.07-.18-.07-.16,0-.3.13-.3.3,0,.09.04.17.11.22-.01.63-.25.9-.79.9h-.02c-.08-.29-.27-.54-.54-.67-.03-.01-.06-.01-.09,0-.03.01-.05.04-.06.06-.09.32-.38.54-.7.54h-5.01c-.32,0-.61-.22-.7-.54,0-.03-.03-.05-.06-.06-.03-.01-.06-.01-.09,0-.36.18-.58.55-.58.95,0,.23.07.45.21.63.03.04.06.06.09.08.2-.16.46-.32.89-.32.52,0,.8.24,1.01.42.17.15.27.23.5.23s.33-.08.5-.23c.21-.18.49-.42,1.01-.42s.8.24,1.01.42c.17.15.27.23.5.23s.33-.08.5-.23c.21-.18.49-.42,1.01-.42.2,0,.36.04.5.1.08-.15.13-.31.13-.49,0-.03,0-.06-.01-.09.62,0,.93-.34.97-1.02,0,0,0,0,0,0,.07,0,.13-.03.18-.07v1.66c0,.16.13.29.29.29s.29-.13.29-.29v-2.38c0-.16-.13-.29-.29-.29Z"/>
    </g>
  </g>
</svg>