<?xml version="1.0" encoding="UTF-8"?>
<svg xmlns="http://www.w3.org/2000/svg" viewBox="0 0 15.59 15.59">
  <defs>
    <style>
      .cls-1 {
        fill: #071f39;
      }

      .cls-1, .cls-2 {
        stroke-width: 0px;
      }

      .cls-2 {
        fill: #fff;
      }
    </style>
  </defs>
  <g id="Cirkel">
    <rect class="cls-1" x="0" y="0" width="15.59" height="15.59" rx="7.8" ry="7.8"/>
  </g>
  <g id="ICONS">
    <path class="cls-2" d="M12.21,3.15c-.54-.54-1.31-.79-2.17-.69-.82.1-1.63.5-2.27,1.15-1.25,1.25-1.51,3.04-.67,4.17l-2.64,2.64-.09-.09-1.67,1.67.69.69,1.67-1.67-.09-.09,2.64-2.64c.43.3.95.46,1.5.46.9,0,1.88-.4,2.64-1.17,1.35-1.35,1.56-3.34.46-4.44ZM8.37,5.49l.59.56-.49.5-.59-.56.49-.5ZM7.51,5.65l-.08-.08c.07-.23.16-.47.29-.69l.28.27-.49.5ZM11.83,3.85c.18.24.29.52.33.83l-.06.06-.59-.56.32-.32ZM10.56,3.26l.07-.07c.32.03.6.14.84.31l-.32.33-.59-.56ZM10.8,4.18l-.57.58-.59-.56.57-.58.59.56ZM9.85,3.27l-.57.58-.28-.27c.27-.16.55-.27.83-.33l.02.02ZM9.29,4.55l.59.56-.57.58-.59-.56.57-.58ZM9.32,6.4l.59.56-.49.5-.59-.56.49-.5ZM8.47,7.25l.59.56-.19.2c-.31-.03-.59-.14-.84-.31l.44-.45ZM9.77,7.81l.49-.5.3.28c-.22.13-.45.25-.68.32l-.11-.1ZM10.26,6.61l-.59-.56.57-.58.59.56-.57.58ZM10.59,5.11l.57-.58.59.56-.57.58-.59-.56ZM12.11,5.43h.01c-.06.29-.16.58-.31.85l-.28-.27.57-.58ZM8.58,3.87l.35.34-.57.58-.35-.34c.09-.11.18-.22.28-.33.09-.09.19-.17.29-.25ZM7.35,6.52l.17-.17.59.56-.43.44c-.18-.24-.29-.52-.33-.83ZM10.98,7.3l-.36-.34.57-.58.36.34c-.1.13-.2.25-.31.37-.08.08-.17.15-.26.22Z"/>
  </g>
</svg>