<?xml version="1.0" encoding="UTF-8"?>
<svg xmlns="http://www.w3.org/2000/svg" viewBox="0 0 15.59 15.59">
  <defs>
    <style>
      .cls-1 {
        fill: #071f39;
      }

      .cls-1, .cls-2 {
        stroke-width: 0px;
      }

      .cls-2 {
        fill: #fff;
      }
    </style>
  </defs>
  <g id="Cirkel">
    <rect class="cls-1" x="0" y="0" width="15.59" height="15.59" rx="7.8" ry="7.8"/>
  </g>
  <g id="ICONS">
    <g>
      <path class="cls-2" d="M4.38,9.93c.29-.04.49-.3.45-.6-.04-.29-.3-.5-.59-.47s-.49.3-.45.6c.04.29.3.5.59.47Z"/>
      <path class="cls-2" d="M13.11,5.21c0-.88-.34-1.71-.97-2.33-1.29-1.29-3.38-1.29-4.67,0-.31.31-.55.67-.72,1.07,0,0,0,.01,0,.02,0,.01-.01.02-.02.04l-1.19,6.58-.38.05-.39-.27-.04-.29c0-.06-.06-.1-.11-.09l-.31.04c-.2.02-.34.21-.31.41l.12.99c-.16-.17-.39-.28-.65-.28-.5,0-.9.41-.9.9s.41.9.9.9c.4,0,.72-.26.85-.61h2.86c.12.35.45.61.85.61.5,0,.9-.41.9-.9s-.41-.9-.9-.9c-.4,0-.72.26-.85.61h-.19l-1.25-.31-.84-.08-.03-.23.06.04c.06.04.13.06.2.05l.69-.09c.05,0,.1-.03.13-.06l5.14-2.83s0,0,0,0c.39-.17.74-.4,1.04-.7.62-.62.97-1.45.97-2.33ZM7.29,4.29c.98-.34,2.07-.1,2.81.64h0c.75.75.99,1.87.62,2.86l-4.51,2.48,1.08-5.98Z"/>
    </g>
  </g>
</svg>