<?xml version="1.0" encoding="UTF-8"?>
<svg xmlns="http://www.w3.org/2000/svg" viewBox="0 0 15.59 15.59">
  <defs>
    <style>
      .cls-1 {
        fill: #071f39;
      }

      .cls-1, .cls-2 {
        stroke-width: 0px;
      }

      .cls-2 {
        fill: #fff;
      }
    </style>
  </defs>
  <g id="Cirkel">
    <rect class="cls-1" x="0" y="0" width="15.59" height="15.59" rx="7.8" ry="7.8"/>
  </g>
  <g id="ICONS">
    <g>
      <path class="cls-2" d="M12.23,12.08c-.28,0-.41-.11-.6-.27-.22-.19-.49-.42-1-.42s-.78.24-1,.42c-.19.16-.31.27-.6.27s-.41-.11-.6-.27c-.22-.19-.49-.42-1-.42s-.78.24-1,.42c-.19.16-.31.27-.6.27s-.41-.11-.6-.27c-.22-.19-.49-.42-1-.42s-.79.24-1,.42c-.19.16-.31.27-.6.27-.17,0-.31.14-.31.31s.14.31.31.31c.51,0,.78-.24,1-.42.19-.16.31-.27.6-.27s.41.11.6.27c.22.19.49.42,1,.42s.78-.24,1-.42c.19-.16.31-.27.6-.27s.41.11.6.27c.22.19.49.42,1,.42s.78-.24,1-.42c.19-.16.31-.27.6-.27s.41.11.59.27c.22.19.49.42,1,.42.17,0,.31-.14.31-.31s-.14-.31-.31-.31Z"/>
      <path class="cls-2" d="M4.61,10.63s.02,0,.03,0l3.98-.52c.11-.01.19-.12.18-.23-.02-.11-.12-.19-.23-.18l-.78.1s.02-.09,0-.13l-.31-.73s-.03-.06-.06-.08l-.52-.44.07-.5.53-.35c.05-.03.09-.08.11-.14l.12-.55,2.96-.14s0,0,0,0c.02,0,.04,0,.06-.01.31-.13.59-.32.83-.56,1-1,1-2.63,0-3.63-1-1-2.63-1-3.63,0-.24.24-.43.52-.56.83,0,.01,0,.03,0,.05,0,.01-.01.02-.01.03l-.04,3.21-.13.59-.37.19s-.03-.02-.04-.02l-.14-.02c.09-.02.17-.07.22-.15.06-.09.08-.19.06-.3s-.08-.19-.16-.26c-.09-.06-.19-.08-.3-.06-.1.02-.19.08-.26.16-.06.09-.08.19-.06.3.02.1.08.2.16.26.02.01.05.01.07.02l-.16-.02s-.03.01-.05.02l-.29-.23-.05-.56c-.01-.11-.11-.19-.22-.18-.11.01-.19.11-.18.22l.06.65c0,.06.03.11.08.14l.39.39-.06.64s0,.02,0,.02c0,0,0,.01,0,.02l.07.72-.5.73c-.04.06-.04.12-.02.18l-.88.11c-.11.01-.19.12-.18.23.01.1.1.18.2.18ZM7.8,3.6c.78-.27,1.63-.08,2.22.51s.78,1.45.51,2.23l-2.76.13.03-2.87ZM6.35,9.37s.04-.09.03-.13l.02-.54.18.04.53.41.29.69s.01.01.02.02l-1.53.2.46-.68Z"/>
    </g>
  </g>
</svg>