<?xml version="1.0" encoding="UTF-8"?>
<svg xmlns="http://www.w3.org/2000/svg" viewBox="0 0 15.59 15.59">
  <defs>
    <style>
      .cls-1 {
        fill: #071f39;
      }

      .cls-1, .cls-2 {
        stroke-width: 0px;
      }

      .cls-2 {
        fill: #fff;
      }
    </style>
  </defs>
  <g id="Cirkel">
    <rect class="cls-1" x="0" y="0" width="15.59" height="15.59" rx="7.8" ry="7.8"/>
  </g>
  <g id="ICONS">
    <g>
      <path class="cls-2" d="M12.61,2.5c-.17,0-.45.15-.64.33l-1.47,1.45c-.18.18-.36.54-.4.8l-.05.38c-.03.26-.24.59-.46.73l-.14.09c-.22.14-.43.47-.47.73l-.17.97c-.05.26-.24.6-.44.77l-1.44,1.23c-.2.17-.56.37-.81.44l-1.84.53c-.25.07-.56.32-.68.54l-.66,1.17c-.13.23-.02.41.24.41h9.26c.26,0,.47-.21.47-.47V2.97c0-.26-.14-.47-.3-.47Z"/>
      <path class="cls-2" d="M7.27,4.13c.38,0,.69-.29.69-.67,0-.38-.29-.69-.67-.69-.38,0-.69.29-.69.67s.29.69.67.69Z"/>
      <path class="cls-2" d="M4.79,10.26c.1,0,.2-.04.25-.13l.99-1.39c.06-.07.08-.17.05-.25l-.03-1.4.24.05.43.1-.02.81c-.05.16.04.33.2.37.04.01.06.01.08.01.13,0,.26-.08.3-.21l.31-1.07c.03-.07.02-.17-.03-.23l-.66-.64.46-.93,1.23.25s.05.01.08.01c.13,0,.26-.09.3-.22.04-.16-.05-.33-.21-.37l-.52-.16,1.4-1.06c.12-.11.15-.3.06-.42-.11-.14-.3-.16-.44-.06l-1.43.9-.92.13c-.1.01-.19.03-.26.12l-1.52,1.77s-.22.27-.24.33c-.01.02-.01.05-.01.07,0,.05,0,.08.02.12l.39,1.58-.76,1.46c-.1.13-.07.31.08.41.05.04.11.06.17.06Z"/>
    </g>
  </g>
</svg>