<?xml version="1.0" encoding="UTF-8"?>
<svg xmlns="http://www.w3.org/2000/svg" viewBox="0 0 15.59 15.59">
  <defs>
    <style>
      .cls-1 {
        fill: #071f39;
      }

      .cls-1, .cls-2 {
        stroke-width: 0px;
      }

      .cls-2 {
        fill: #fff;
      }
    </style>
  </defs>
  <g id="Cirkel">
    <rect class="cls-1" x="0" y="0" width="15.59" height="15.59" rx="7.79" ry="7.79"/>
  </g>
  <g id="ICONS">
    <g id="oabVyY.tif">
      <path class="cls-2" d="M2.32,7.24c0-.27,0-.54,0-.81.01-.05.04-.09.04-.14.09-.54.3-1.02.63-1.45.73-.94,1.85-1.33,2.98-1.01.75.21,1.27.73,1.68,1.37.04.07.08.13.13.21.13-.19.23-.37.35-.52.69-.89,1.58-1.34,2.72-1.12,1.36.26,2.36,1.51,2.4,2.91.03.93-.29,1.75-.79,2.5-1.18,1.79-2.84,3.07-4.64,4.17h-.09c-.07-.04-.15-.08-.22-.12-1.32-.84-2.56-1.78-3.6-2.96-.6-.67-1.11-1.41-1.4-2.27-.08-.25-.14-.5-.2-.76Z"/>
    </g>
    <path class="cls-1" d="M9.16,8.18c.56,0,1.01-.45,1.01-1.01s-.45-1.01-1.01-1.01-1.01.45-1.01,1.01v.17h-.7v-.17c0-.56-.45-1.01-1.01-1.01s-1.01.45-1.01,1.01.45,1.01,1.01,1.01h.17v.7h-.17c-.56,0-1.01.45-1.01,1.01s.45,1.01,1.01,1.01,1.01-.45,1.01-1.01v-.17h.7v.17c0,.56.45,1.01,1.01,1.01s1.01-.45,1.01-1.01-.45-1.01-1.01-1.01h-.17v-.7h.17ZM6.43,7.55c-.2,0-.37-.16-.37-.36h0c0-.2.16-.37.37-.37s.37.16.37.36v.37h-.37ZM6.82,9.9c0,.2-.16.37-.37.37s-.37-.16-.37-.37.16-.37.37-.37h.37v.37ZM8.3,9.04h-1.01v-1.01h1.01v1.01ZM9.16,9.51c.2,0,.37.16.37.37s-.16.37-.37.37-.37-.16-.37-.37v-.37h.37ZM8.79,7.54v-.37c0-.2.16-.37.37-.37s.37.16.37.37-.16.37-.37.37h-.37Z"/>
  </g>
</svg>