<?xml version="1.0" encoding="UTF-8"?>
<svg xmlns="http://www.w3.org/2000/svg" viewBox="0 0 15.59 15.59">
  <defs>
    <style>
      .cls-1 {
        fill: #071f39;
      }

      .cls-1, .cls-2 {
        stroke-width: 0px;
      }

      .cls-2 {
        fill: #fff;
      }
    </style>
  </defs>
  <g id="Cirkel">
    <rect class="cls-1" x="0" y="0" width="15.59" height="15.59" rx="7.8" ry="7.8"/>
  </g>
  <g id="ICONS">
    <path class="cls-2" d="M11.85,5.6c.21-.3.26-.9.11-1.32h0c-.07-.19-.14-.37-.21-.54-.12-.29-.23-.54-.27-.84l-.02-.16c0-.08-.02-.15-.02-.15-.03-.2-.38-.2-.41,0,0,0-.01.07-.01.14l-.02.16c-.04.3-.15.55-.28.84-.07.17-.15.34-.21.54-.15.42-.1,1.01.11,1.32.09.13.18.18.26.21-.05.07-.08.15-.08.24v.73c-.09.08-.16.19-.16.33v5.49c0,.24.19.43.43.43h.31c.24,0,.43-.19.43-.43v-5.49c0-.13-.06-.25-.16-.33v-.73c0-.09-.03-.17-.08-.24.08-.02.18-.08.27-.21Z"/>
    <path class="cls-2" d="M9.38,8.48c-.28-.53-.76-.93-1.33-1.13-.05-.02-.09-.03-.11-.04-.31-.11-.52-.4-.51-.72,0-.23.11-.44.28-.57.41-.33.61-.87.46-1.38-.15-.49-.53-.95-1.45-.95-2.54,0-4.6,2.06-4.6,4.6s2.06,4.6,4.6,4.6c.04,0,.08,0,.12,0,2.31-.08,3.48-2.57,2.53-4.4ZM3.04,8.11c0-.26.21-.46.46-.46s.46.21.46.46-.21.46-.46.46-.46-.21-.46-.46ZM4.03,10.47c-.26,0-.46-.21-.46-.46s.21-.46.46-.46.46.21.46.46-.21.46-.46.46ZM4.36,6.63c-.26,0-.46-.21-.46-.46s.21-.46.46-.46.46.21.46.46-.21.46-.46.46ZM5.68,11.65c-.26,0-.46-.21-.46-.46s.21-.46.46-.46.46.21.46.46-.21.46-.46.46ZM6.79,8.99c-.34,0-.61-.27-.61-.61s.27-.61.61-.61.61.27.61.61-.27.61-.61.61ZM7.6,11.44c-.26,0-.46-.21-.46-.46s.21-.46.46-.46.46.21.46.46-.21.46-.46.46Z"/>
  </g>
</svg>