<?xml version="1.0" encoding="UTF-8"?>
<svg xmlns="http://www.w3.org/2000/svg" viewBox="0 0 15.59 15.59">
  <defs>
    <style>
      .cls-1 {
        fill: #071f39;
      }

      .cls-1, .cls-2 {
        stroke-width: 0px;
      }

      .cls-2 {
        fill: #fff;
      }
    </style>
  </defs>
  <g id="Cirkel">
    <rect class="cls-1" x="0" y="0" width="15.59" height="15.59" rx="7.8" ry="7.8"/>
  </g>
  <g id="ICONS">
    <path class="cls-2" d="M13.1,11.57l-1.61-7.58c-.2-.96-1.06-1.65-2.04-1.65h-3.54c-1.01,0-1.87.72-2.05,1.71l-1.37,7.54c-.05.25.12.49.37.54.25.05.49-.12.54-.37l1.37-7.54c.1-.55.58-.95,1.14-.95h.37v6.81h-.23c-.26,0-.46.21-.46.46s.21.46.46.46h3.22c.26,0,.46-.21.46-.46s-.21-.46-.46-.46h-.23V3.26h.41c.54,0,1.02.39,1.13.92l1.61,7.58c.05.22.24.37.45.37.03,0,.06,0,.1,0,.25-.05.41-.3.36-.55ZM8.58,10.07h-1.84V3.26h1.84v6.81Z"/>
  </g>
</svg>