<?xml version="1.0" encoding="UTF-8"?>
<svg xmlns="http://www.w3.org/2000/svg" viewBox="0 0 15.59 15.59">
  <defs>
    <style>
      .cls-1 {
        fill: #071f39;
      }

      .cls-1, .cls-2 {
        stroke-width: 0px;
      }

      .cls-2 {
        fill: #fff;
      }
    </style>
  </defs>
  <g id="Cirkel">
    <rect class="cls-1" x="0" y="0" width="15.59" height="15.59" rx="7.8" ry="7.8"/>
  </g>
  <g id="ICONS">
    <g>
      <path class="cls-2" d="M9.71,4.81c-.02-.19-.18-.33-.37-.33h-1.36v-1.57c.08,0,.17-.01.25,0,.13.02.27.04.4.03.13-.01.26-.05.4-.07.13-.01.26,0,.39.03.03,0,.08.01.08.01.01,0,.02,0,.02-.02v-1.04s-.01-.02-.03-.02c0,0-.04-.01-.07-.02-.13-.02-.27-.05-.4-.04-.13,0-.26.05-.4.06-.13,0-.26-.02-.4-.04-.08-.01-.16,0-.24,0v-.06c0-.07-.05-.12-.12-.12s-.12.05-.12.12v2.73h-1.33c-.19,0-.35.14-.37.33l-.17,1.8h4l-.17-1.8Z"/>
      <polygon class="cls-2" points="10 7.83 5.77 7.83 5.57 9.99 10.21 9.99 10 7.83"/>
      <path class="cls-2" d="M10.32,11.21h-4.86l-.19,2.01c-.02.22.15.4.37.4h4.51c.22,0,.39-.19.37-.4l-.19-2.01Z"/>
    </g>
  </g>
</svg>