<?xml version="1.0" encoding="UTF-8"?>
<svg xmlns="http://www.w3.org/2000/svg" viewBox="0 0 15.59 15.59">
  <defs>
    <style>
      .cls-1 {
        fill: #071f39;
      }

      .cls-1, .cls-2 {
        stroke-width: 0px;
      }

      .cls-2 {
        fill: #fff;
      }
    </style>
  </defs>
  <g id="Cirkel">
    <rect class="cls-1" x="0" y="0" width="15.59" height="15.59" rx="7.8" ry="7.8"/>
  </g>
  <g id="ICONS">
    <g>
      <path class="cls-2" d="M10.43,9.57l1.83,1.83c1.68-2.07,1.7-5.09.02-7.18l-1.85,1.85c.71,1.07.7,2.45,0,3.5Z"/>
      <path class="cls-2" d="M5.1,6.15s.04-.06.06-.09l-1.84-1.84s-.07.08-.1.12c-1.59,2.08-1.54,5.04.1,7.08l1.85-1.85c-.69-1.02-.72-2.38-.06-3.42Z"/>
      <path class="cls-2" d="M9.55,10.46s-.06.05-.09.07c-1.06.66-2.39.63-3.42-.07l-1.85,1.85c1.04.84,2.31,1.27,3.6,1.27s2.46-.39,3.48-1.17c.04-.03.08-.07.12-.1l-1.84-1.84Z"/>
      <path class="cls-2" d="M6.05,5.19c.53-.35,1.14-.54,1.75-.54s1.22.18,1.76.54l1.85-1.85c-2.1-1.69-5.13-1.67-7.19.01l1.83,1.83Z"/>
    </g>
  </g>
</svg>