<?xml version="1.0" encoding="UTF-8"?>
<svg xmlns="http://www.w3.org/2000/svg" viewBox="0 0 15.59 15.59">
  <defs>
    <style>
      .cls-1 {
        fill: #071f39;
      }

      .cls-1, .cls-2 {
        stroke-width: 0px;
      }

      .cls-2 {
        fill: #fff;
      }
    </style>
  </defs>
  <g id="Cirkel">
    <rect class="cls-1" x="0" y="0" width="15.59" height="15.59" rx="7.8" ry="7.8"/>
  </g>
  <g id="ICONS">
    <g>
      <path class="cls-2" d="M6.38,3.36l-2.24-.46c-.12-.03-.24.05-.27.18l-1.79,8.74c-.03.12.05.24.18.27l2.24.46c.12.03.24-.05.27-.18l1.79-8.74c.03-.12-.05-.24-.18-.27ZM4.37,10.89c-.08.37-.44.61-.81.53-.37-.08-.61-.44-.53-.81.08-.37.44-.61.81-.53.37.08.61.44.53.81ZM5.88,4.66l-.73,3.58c-.03.12-.15.2-.27.18l-1.34-.28c-.12-.03-.2-.15-.18-.27l.73-3.58c.03-.12.15-.2.27-.18l1.34.28c.12.03.2.15.18.27Z"/>
      <rect class="cls-2" x="4.67" y="4.24" width=".46" height="1.37" rx=".18" ry=".18" transform="translate(-.91 8.73) rotate(-78.42)"/>
      <rect class="cls-2" x="4.53" y="4.91" width=".46" height="1.37" rx=".18" ry=".18" transform="translate(-1.68 9.13) rotate(-78.43)"/>
      <rect class="cls-2" x="4.39" y="5.58" width=".46" height="1.37" rx=".18" ry=".18" transform="translate(-2.45 9.53) rotate(-78.42)"/>
      <path class="cls-2" d="M9.46,3.18h-2.29c-.13,0-.23.1-.23.23v8.92c0,.13.1.23.23.23h2.29c.13,0,.23-.1.23-.23V3.4c0-.13-.1-.23-.23-.23ZM8.32,11.64c-.38,0-.69-.31-.69-.69s.31-.69.69-.69.69.31.69.69-.31.69-.69.69ZM9.23,8.21c0,.13-.1.23-.23.23h-1.37c-.13,0-.23-.1-.23-.23v-3.66c0-.13.1-.23.23-.23h1.37c.13,0,.23.1.23.23v3.66Z"/>
      <rect class="cls-2" x="7.63" y="4.78" width="1.37" height=".46" rx=".18" ry=".18"/>
      <rect class="cls-2" x="7.63" y="5.46" width="1.37" height=".46" rx=".18" ry=".18"/>
      <rect class="cls-2" x="7.63" y="6.15" width="1.37" height=".46" rx=".18" ry=".18"/>
      <path class="cls-2" d="M12.66,3.18h-2.29c-.13,0-.23.1-.23.23v8.92c0,.13.1.23.23.23h2.29c.13,0,.23-.1.23-.23V3.4c0-.13-.1-.23-.23-.23ZM11.52,11.64c-.38,0-.69-.31-.69-.69s.31-.69.69-.69.69.31.69.69-.31.69-.69.69ZM12.43,8.21c0,.13-.1.23-.23.23h-1.37c-.13,0-.23-.1-.23-.23v-3.66c0-.13.1-.23.23-.23h1.37c.13,0,.23.1.23.23v3.66Z"/>
      <rect class="cls-2" x="10.84" y="4.78" width="1.37" height=".46" rx=".18" ry=".18"/>
      <rect class="cls-2" x="10.84" y="5.46" width="1.37" height=".46" rx=".18" ry=".18"/>
      <rect class="cls-2" x="10.83" y="6.15" width="1.37" height=".46" rx=".18" ry=".18"/>
    </g>
  </g>
</svg>