<?xml version="1.0" encoding="UTF-8"?>
<svg xmlns="http://www.w3.org/2000/svg" viewBox="0 0 15.59 15.59">
  <defs>
    <style>
      .cls-1 {
        fill: #071f39;
      }

      .cls-1, .cls-2 {
        stroke-width: 0px;
      }

      .cls-3 {
        fill: none;
        stroke: #fff;
        stroke-linecap: round;
        stroke-miterlimit: 10;
        stroke-width: .25px;
      }

      .cls-2 {
        fill: #fff;
      }
    </style>
  </defs>
  <g id="Cirkel">
    <rect class="cls-1" x="0" y="0" width="15.59" height="15.59" rx="7.79" ry="7.79"/>
  </g>
  <g id="ICONS">
    <g>
      <path class="cls-2" d="M3.62,5.26l.3-.07c.11-.03.19.09.14.18l-.09.18c-.27.52-.43,1.08-.49,1.65l-.02.15c-.01.12-.18.16-.24.05l-.05-.08c-.21-.37-.63-.57-1.05-.5l-.26.05c-.12.02-.2-.12-.12-.21l.58-.63c.35-.38.8-.65,1.29-.77Z"/>
      <path class="cls-2" d="M8.38,6.99l-.14-.21c-.25-.31-.34-.06-.37.03v.04c-.14.54-.38,1.02-.53,1.52h0c-.04.12.02.19.12.16l.07-.03c.33-.12.7-.01.92.26l.14.17c.06.08.19.03.19-.07v-.7c-.02-.42-.16-.83-.4-1.18Z"/>
      <path class="cls-2" d="M7.63,3.47c-.45-.26-1.25.05-1.98.68-.08.07-.1.18-.05.27.12.24.31.44.54.61.42.29,1,.43,1.59.4.1,0,.19-.08.21-.18.17-.9.1-1.54-.31-1.78ZM6.86,4.32c-.12,0-.21-.09-.21-.21s.09-.21.21-.21.21.09.21.21-.09.21-.21.21Z"/>
      <path class="cls-2" d="M8.34,12.76c-.42.63.52,1.7-.01,1.4-.66-.37-1.19-1.3-.77-1.93s1.5-.35,2.07.16c.6.53-.87-.26-1.29.37Z"/>
      <path class="cls-2" d="M7.18,11.96c.12-.17.28-.28.48-.32-.42-.8-1.26-2.18-.68-3.62.28-.71.51-1.36.66-1.94.02-.08-.04-.16-.12-.16-.02,0-.05,0-.07,0-.59,0-1.17-.15-1.59-.44-.2-.14-.42-.34-.58-.62-.04-.08-.15-.09-.2-.02-.63.69-1.12,1.62-1.12,2.57,0,2.55,1.94,4.4,3.12,4.86.02-.11.06-.21.13-.31Z"/>
      <path class="cls-3" d="M7.52,3.86c.32-.45,3.07-4.4,3.24-.15s2.91,1.54,2.91,1.54"/>
    </g>
  </g>
</svg>