<?xml version="1.0" encoding="UTF-8"?>
<svg xmlns="http://www.w3.org/2000/svg" viewBox="0 0 15.59 15.59">
  <defs>
    <style>
      .cls-1 {
        fill: #071f39;
      }

      .cls-1, .cls-2 {
        stroke-width: 0px;
      }

      .cls-2 {
        fill: #fff;
      }
    </style>
  </defs>
  <g id="Cirkel">
    <rect class="cls-1" x="0" y="0" width="15.59" height="15.59" rx="7.8" ry="7.8"/>
  </g>
  <g id="ICONS">
    <path class="cls-2" d="M11.79,12.63l-1.76-4.35c-.14-.33-.43-.55-.76-.55h-.96V2.17s0,0,0,0v-.42c0-.19-.19-.31-.37-.24l-2.06.94c-.21.09-.22.38-.02.48l2,.96v3.83h-1.41c-.37,0-.7.28-.8.69l-1.07,4.35c-.15.6.25,1.19.8,1.19h5.66c.61,0,1.01-.71.76-1.33ZM7.96,10.03c-.64,0-1.16-.28-1.16-.63,0-.31.41-.57.95-.62h.11v.45c0,.12.1.22.22.22s.22-.1.22-.22v-.45h0c.54.05.82.31.82.62,0,.35-.52.63-1.16.63Z"/>
  </g>
</svg>