<?xml version="1.0" encoding="UTF-8"?>
<svg xmlns="http://www.w3.org/2000/svg" viewBox="0 0 15.59 15.59">
  <defs>
    <style>
      .cls-1 {
        fill: #071f39;
      }

      .cls-1, .cls-2 {
        stroke-width: 0px;
      }

      .cls-2 {
        fill: #fff;
      }
    </style>
  </defs>
  <g id="Cirkel">
    <rect class="cls-1" x="0" y="0" width="15.59" height="15.59" rx="7.8" ry="7.8"/>
  </g>
  <g id="ICONS">
    <path class="cls-2" d="M12.19,7.28h-.24c-.64-1.65-1.33-2.45-1.7-2.79.14-.16.24-.36.24-.59,0-.49-.4-.89-.89-.89s-.89.4-.89.89.4.89.89.89c.07,0,.13-.02.19-.04.12.09.44.37.82.95l.09.14c.23.36.48.84.72,1.44h-1.83c-.44-.31-2.52-1.75-4.29-2.63-.12-.06-.26-.05-.37.03s-.17.21-.16.34l.17,1.96c-.46-.16-.91-.37-1.32-.64l-1.4-.95c-.11-.08-.26-.09-.38-.02-.12.06-.2.19-.2.33v2.68c0,1.19.97,2.16,2.16,2.16h.16l-.75,1.19c-.08.13-.07.3.02.42.07.09.18.14.29.14.04,0,.07,0,.11-.02.1-.03,1.9-.61,4.12-1.74h5.34c.65,0,1.18-.53,1.18-1.18,0-1.15-.93-2.08-2.08-2.08ZM9.21,3.9c0-.22.18-.39.39-.39s.39.18.39.39-.18.39-.39.39-.39-.18-.39-.39ZM5.56,5.63c.97.53,1.98,1.17,2.7,1.65h-1.58c-.34,0-.66-.04-.99-.1l-.14-1.55ZM4.41,11.22l.42-.67.47-.74.26-.41h2.77c-.26.15-.52.28-.77.41-.54.28-1.06.53-1.53.74-.62.28-1.18.51-1.61.67ZM13.09,9.8h-3.98c.26-.15.51-.3.77-.46.14-.09.21-.26.16-.42-.05-.16-.19-.27-.36-.27h-4.34c-.13,0-.25.07-.31.17l-.61.98h-.63c-.78,0-1.42-.64-1.42-1.42v-1.98l.82.56c.57.39,1.2.66,1.85.84.53.14,1.08.23,1.64.23h5.5c.32,0,.62.12.85.31h-.74c-.25,0-.46.21-.46.46s.21.46.46.46h1.15s.05-.01.07-.01c0,.04.01.08.01.13,0,.24-.2.44-.44.44Z"/>
  </g>
</svg>