<?xml version="1.0" encoding="UTF-8"?>
<svg xmlns="http://www.w3.org/2000/svg" viewBox="0 0 15.59 15.59">
  <defs>
    <style>
      .cls-1 {
        fill: #071f39;
      }

      .cls-1, .cls-2 {
        stroke-width: 0px;
      }

      .cls-2 {
        fill: #fff;
      }
    </style>
  </defs>
  <g id="Cirkel">
    <rect class="cls-1" x="0" y="0" width="15.59" height="15.59" rx="7.8" ry="7.8"/>
  </g>
  <g id="ICONS">
    <path class="cls-2" d="M7.99,2.07c-2.71,0-4.9,2.19-4.9,4.9,0,3.87,4.86,7.51,4.86,7.51,0,0,4.94-3.64,4.94-7.51,0-2.71-2.19-4.9-4.9-4.9ZM11.47,7.65h-.6l-.37.65c-.06.11-.19.19-.32.17-.13,0-.25-.09-.3-.21l-.44-1.04-.16.34c-.06.12-.18.2-.31.2h-.82l-.7,1.29c-.06.11-.18.18-.3.18-.02,0-.03,0-.05,0-.14-.02-.26-.13-.29-.27l-.48-2.31-.4.98c-.05.13-.18.22-.32.22h-1.16c-.19,0-.35-.16-.35-.35s.16-.35.35-.35h.93l.74-1.82c.06-.14.2-.23.35-.21.15.01.28.13.31.28l.52,2.5.35-.64c.06-.11.18-.18.3-.18h.8l.4-.84c.06-.12.18-.21.32-.2.14,0,.26.08.31.21l.47,1.11.13-.22c.06-.11.18-.17.3-.17h.8c.19,0,.35.16.35.35s-.16.35-.35.35Z"/>
  </g>
</svg>