<?xml version="1.0" encoding="UTF-8"?>
<svg xmlns="http://www.w3.org/2000/svg" viewBox="0 0 15.59 15.59">
  <defs>
    <style>
      .cls-1 {
        fill: #021e3a;
      }

      .cls-1, .cls-2 {
        stroke-width: 0px;
      }

      .cls-2 {
        fill: #fff;
      }
    </style>
  </defs>
  <g id="Cirkel">
    <rect class="cls-1" x="0" y="0" width="15.59" height="15.59" rx="7.8" ry="7.8"/>
  </g>
  <g id="ICONS">
    <path class="cls-2" d="M13.63,5.68c-1.5-1.93-4.39-1.47-5.96-3.29l.11-.2c.06-.11.03-.26-.09-.32-.11-.06-.26-.03-.32.09L1.96,11.35c-.06.11-.03.26.09.32.04.02.08.03.12.03.08,0,.16-.04.2-.12l2.96-5.13c1.57,1.83,4.45,1.36,5.96,3.29.03.04.07.04.09,0,.76-1.31,1.51-2.62,2.27-3.93.02-.04.02-.1-.01-.14M11.83,8.65c-.24-.3-.52-.54-.82-.74-.17.3-.34.6-.52.89-.32-.21-.67-.38-1.04-.52.17-.3.34-.6.52-.89-.36-.14-.74-.26-1.12-.38-.17.3-.34.6-.52.89-.38-.12-.75-.24-1.12-.38.17-.3.34-.6.52-.89-.36-.14-.71-.31-1.04-.52-.17.3-.34.6-.52.89-.28-.18-.54-.4-.77-.67l.52-.89c.23.27.49.49.77.67.18-.32.37-.64.55-.96.32.21.67.38,1.04.52-.18.32-.37.64-.55.96.36.14.74.26,1.12.38.18-.32.37-.64.55-.96.38.12.75.24,1.12.38-.18.32-.37.64-.55.96.36.14.71.31,1.04.52.18-.32.37-.64.55-.96.3.2.58.44.82.74-.18.32-.37.64-.55.96ZM12.96,6.69c-.24-.3-.52-.54-.82-.74-.18.32-.37.64-.55.96-.32-.21-.67-.38-1.04-.52.18-.32.37-.64.55-.96-.36-.14-.74-.26-1.12-.38-.18.32-.37.64-.55.96-.38-.12-.75-.24-1.12-.38.18-.32.37-.64.55-.96-.36-.14-.71-.31-1.04-.52-.18.32-.37.64-.55.96-.28-.18-.54-.4-.77-.67l.55-.96c.23.27.49.49.77.67.18-.31.36-.62.54-.94.32.21.67.38,1.04.52-.18.31-.36.62-.54.94.36.14.74.26,1.12.38.18-.31.36-.62.54-.94.38.12.75.24,1.12.38-.18.31-.36.62-.54.94.36.14.71.31,1.04.52.18-.31.36-.62.54-.94.3.2.58.44.82.74-.18.31-.36.62-.54.94Z"/>
  </g>
</svg>