<?xml version="1.0" encoding="UTF-8"?>
<svg xmlns="http://www.w3.org/2000/svg" viewBox="0 0 15.59 15.59">
  <defs>
    <style>
      .cls-1 {
        fill: #071f39;
      }

      .cls-1, .cls-2 {
        stroke-width: 0px;
      }

      .cls-2 {
        fill: #fff;
      }
    </style>
  </defs>
  <g id="Cirkel">
    <rect class="cls-1" x="0" y="0" width="15.59" height="15.59" rx="7.8" ry="7.8"/>
  </g>
  <g id="ICONS">
    <g>
      <path class="cls-2" d="M4.97,9.01v-3.76c0-.24-.2-.44-.44-.44s-.44.2-.44.44v3.76c0,.24.2.44.44.44s.44-.2.44-.44Z"/>
      <path class="cls-2" d="M3.48,4.52s.07,0,.11-.01l4.19-1.06,4.22,1.06c.23.05.47-.08.53-.32.06-.23-.08-.47-.32-.53l-4.33-1.08c-.07-.02-.14-.02-.21,0l-4.3,1.08c-.23.06-.38.3-.32.53.05.2.23.33.43.33Z"/>
      <path class="cls-2" d="M3.28,10.14c0,.24.2.44.44.44h8.15c.24,0,.44-.2.44-.44s-.2-.44-.44-.44H3.72c-.24,0-.44.2-.44.44Z"/>
      <path class="cls-2" d="M12.87,11.19H2.72c-.24,0-.44.2-.44.44s.2.44.44.44h10.15c.24,0,.44-.2.44-.44s-.2-.44-.44-.44Z"/>
      <path class="cls-2" d="M6.6,9.01v-3.76c0-.24-.2-.44-.44-.44s-.44.2-.44.44v3.76c0,.24.2.44.44.44s.44-.2.44-.44Z"/>
      <path class="cls-2" d="M8.23,9.01v-3.76c0-.24-.2-.44-.44-.44s-.44.2-.44.44v3.76c0,.24.2.44.44.44s.44-.2.44-.44Z"/>
      <path class="cls-2" d="M9.86,9.01v-3.76c0-.24-.2-.44-.44-.44s-.44.2-.44.44v3.76c0,.24.2.44.44.44s.44-.2.44-.44Z"/>
      <path class="cls-2" d="M11.49,9.01v-3.76c0-.24-.2-.44-.44-.44s-.44.2-.44.44v3.76c0,.24.2.44.44.44s.44-.2.44-.44Z"/>
    </g>
  </g>
</svg>