<?xml version="1.0" encoding="UTF-8"?>
<svg xmlns="http://www.w3.org/2000/svg" viewBox="0 0 15.59 15.59">
  <defs>
    <style>
      .cls-1 {
        fill: #071f39;
      }

      .cls-1, .cls-2 {
        stroke-width: 0px;
      }

      .cls-2 {
        fill: #fff;
      }
    </style>
  </defs>
  <g id="Cirkel">
    <rect class="cls-1" x="0" y="0" width="15.59" height="15.59" rx="7.8" ry="7.8"/>
  </g>
  <g id="ICONS">
    <path class="cls-2" d="M12.44,7.88s0-.07.03-.07h.47c.12,0,.19-.13.13-.23l-1.39-2.4c-.06-.1-.21-.1-.26,0l-1.39,2.4c-.06.1.01.23.13.23,0,0,.43,0,.47,0,.03,0,.05.04.04.06,0,0-.14.24-.32.55-.49-.86-1.37-2.38-1.39-2.4-.02-.03,0-.09.05-.09h.67c.17,0,.27-.18.19-.33l-1.98-3.43c-.08-.15-.29-.15-.38,0l-1.98,3.43c-.08.15.02.33.19.33,0,0,.62,0,.67,0,.05,0,.07.06.05.08-.01.02-.96,1.66-1.44,2.5-.2-.35-.36-.62-.36-.63-.01-.02,0-.07.03-.07h.47c.12,0,.19-.13.13-.23l-1.39-2.4c-.06-.1-.21-.1-.26,0l-1.39,2.4c-.06.1.01.23.13.23,0,0,.43,0,.47,0,.03,0,.05.04.04.06s-1.21,2.09-1.21,2.09c-.06.1.01.23.13.23h1.52c.08,0,.15.07.15.15v1.59c0,.16.13.29.29.29s.29-.13.29-.29v-1.59c0-.08.07-.15.15-.15h1.51c.12,0,.19-.13.13-.23,0,0-.16-.28-.37-.64h1.61c.12,0,.21.09.21.21v2.27c0,.23.18.41.41.41s.41-.18.41-.41v-2.27c0-.12.1-.22.22-.22h1.5c-.21.36-.37.64-.37.64-.06.1.01.23.13.23h1.52c.08,0,.15.07.15.15v1.59c0,.16.13.29.29.29s.29-.13.29-.29v-1.59c0-.08.07-.15.15-.15h1.51c.12,0,.19-.13.13-.23,0,0-1.19-2.06-1.2-2.08Z"/>
  </g>
</svg>