<?xml version="1.0" encoding="UTF-8"?>
<svg xmlns="http://www.w3.org/2000/svg" viewBox="0 0 15.59 15.59">
  <defs>
    <style>
      .cls-1 {
        fill: #071f39;
      }

      .cls-1, .cls-2 {
        stroke-width: 0px;
      }

      .cls-2 {
        fill: #fff;
      }
    </style>
  </defs>
  <g id="Cirkel">
    <rect class="cls-1" x="0" y="0" width="15.59" height="15.59" rx="7.8" ry="7.8"/>
  </g>
  <g id="ICONS">
    <path class="cls-2" d="M11.98,4.21h-7.36c-.44,0-.8-.36-.8-.8s.36-.8.8-.8h7.36c.11,0,.2-.09.2-.2s-.09-.2-.2-.2h-7.36c-.66,0-1.19.54-1.19,1.19v8.76c0,.66.53,1.19,1.19,1.19h7.37c.11,0,.2-.09.2-.2V4.41c0-.11-.09-.2-.2-.2ZM9.75,10.05c-.36.21-.81.13-1.07-.18l-.42.24v1.23c0,.05-.04.1-.1.1h-.15c-.05,0-.1-.04-.1-.1v-1.23l-.42-.24c-.26.3-.71.38-1.07.18-.43-.25-.85-1.14-1.08-1.61.52-.04,1.5-.13,1.93.13.36.21.51.64.38,1.02l.25.14v-1.28c-.39-.08-.69-.43-.69-.84,0-.5.56-1.3.86-1.74.3.43.86,1.23.86,1.74,0,.42-.3.76-.69.84v1.28l.25-.14c-.13-.38.02-.81.38-1.02.43-.25,1.41-.17,1.93-.13-.22.48-.64,1.36-1.08,1.61Z"/>
  </g>
</svg>