<?xml version="1.0" encoding="UTF-8"?>
<svg xmlns="http://www.w3.org/2000/svg" viewBox="0 0 15.59 15.59">
  <defs>
    <style>
      .cls-1 {
        fill: #071f39;
      }

      .cls-1, .cls-2 {
        stroke-width: 0px;
      }

      .cls-2 {
        fill: #fff;
      }
    </style>
  </defs>
  <g id="Cirkel">
    <rect class="cls-1" x="0" y="0" width="15.59" height="15.59" rx="7.8" ry="7.8"/>
  </g>
  <g id="ICONS">
    <g>
      <path class="cls-2" d="M10.55,5.24h0c.16,0,.28-.14.27-.3,0-.16-.14-.28-.3-.27h0l-1.09.05-1.28-.37-1.08-.02-1.04.27-.51-.79c-.09-.13-.26-.17-.39-.08-.13.09-.17.26-.08.39l.62.95c.06.09.18.15.29.12h.9s-.64,2.7-.64,2.7h0s.03.06.06.06h.45v.33l-.5,1.08c-.09.18,0,.4.18.49.19.09.4,0,.49-.18l.53-1.13h0c.02-.06.04-.11.04-.17v-.41h.11v1.66c0,.21.17.37.37.37s.37-.17.37-.37v-1.66h.46s.06-.03.06-.06h0s0,0,0,0l-.56-2.66,1.04.05h0s.06.01.09.01l1.13-.05Z"/>
      <rect class="cls-2" x="4.7" y="11.05" width="1.76" height="2.38" rx=".27" ry=".27"/>
      <rect class="cls-2" x="7.03" y="10.18" width="1.76" height="3.25" rx=".27" ry=".27"/>
      <rect class="cls-2" x="9.38" y="11.67" width="1.76" height="1.76" rx=".27" ry=".27"/>
      <path class="cls-2" d="M6.38,3.19c.35-.35.57-.5.7-.47-.2.15-.34.38-.34.65,0,.46.37.83.83.83s.83-.37.83-.83c0-.19-.08-.37-.19-.51.13-.04.33.14.63.59.32.49.93.03.93.03-.46.04-.21-.64-.74-1.05-.47-.36-.88.15-.97.28-.14-.1-.3-.18-.49-.18-.1,0-.2.02-.29.06-.08-.16-.38-.7-.89-.44-.6.3-.48,1.01-.93.88,0,0,.51.56.92.15Z"/>
    </g>
  </g>
</svg>