<?xml version="1.0" encoding="UTF-8"?>
<svg xmlns="http://www.w3.org/2000/svg" viewBox="0 0 15.59 15.59">
  <defs>
    <style>
      .cls-1 {
        fill: #071f39;
      }

      .cls-1, .cls-2 {
        stroke-width: 0px;
      }

      .cls-2 {
        fill: #fff;
      }
    </style>
  </defs>
  <g id="Cirkel">
    <rect class="cls-1" x="0" y="0" width="15.59" height="15.59" rx="7.8" ry="7.8"/>
  </g>
  <g id="ICONS">
    <path class="cls-2" d="M13.01,6.5L7.67,2.15c-.11-.09-.27-.09-.37,0L1.97,6.53c-.13.1-.05.31.11.31h1.39s.01,5.54.01,5.54c0,.11.09.2.2.2h.89s2.57,0,2.57,0h.72s2.57,0,2.57,0h.89c.11,0,.2-.09.2-.2v-5.54s1.38,0,1.38,0c.16,0,.23-.2.11-.31ZM9.27,9.5c-.38.22-.86.14-1.15-.18l-.45.26v1.31c0,.06-.04.1-.1.1h-.16c-.06,0-.1-.05-.1-.1v-1.31s-.45-.26-.45-.26c-.28.32-.76.41-1.15.19-.47-.27-.91-1.21-1.15-1.72.56-.05,1.6-.14,2.07.13.39.22.55.68.41,1.09l.27.15v-1.37c-.42-.08-.74-.45-.74-.9,0-.54.59-1.4.91-1.86.32.46.92,1.32.92,1.86,0,.44-.31.82-.73.9v1.37s.27-.15.27-.15c-.14-.41.02-.87.41-1.09.46-.27,1.51-.18,2.07-.14-.24.51-.68,1.46-1.15,1.73Z"/>
  </g>
</svg>