<?xml version="1.0" encoding="UTF-8"?>
<svg xmlns="http://www.w3.org/2000/svg" viewBox="0 0 15.59 15.59">
  <defs>
    <style>
      .cls-1 {
        fill: #071f39;
      }

      .cls-1, .cls-2 {
        stroke-width: 0px;
      }

      .cls-2 {
        fill: #fff;
      }
    </style>
  </defs>
  <g id="Cirkel">
    <rect class="cls-1" x="0" y="0" width="15.59" height="15.59" rx="7.8" ry="7.8"/>
  </g>
  <g id="ICONS">
    <g>
      <path class="cls-2" d="M6.29,7.2c.35.2.79.12,1.05-.17l.41.24v1.2c0,.05.04.09.09.09h.15c.05,0,.09-.04.09-.09v-1.2l.41-.24c.26.29.7.37,1.05.17.42-.25.83-1.11,1.05-1.57-.51-.04-1.46-.12-1.89.12-.35.2-.5.62-.38.99l-.24.14v-1.25c.38-.08.67-.42.67-.82,0-.49-.54-1.27-.84-1.7-.29.42-.84,1.21-.84,1.7,0,.41.29.74.67.82v1.25l-.24-.14c.12-.37-.02-.79-.38-.99-.42-.25-1.37-.16-1.89-.12.22.46.62,1.33,1.05,1.57Z"/>
      <path class="cls-2" d="M14.41,9.47c-.08-.25-.35-.4-.6-.32l-.07.02c-.04-.06-.1-.12-.18-.12-.11,0-1.79-.07-3.31.55,1.32-.67,2.84-.79,2.86-.79.13,0,.23-.13.22-.26,0-.13-.11-.25-.26-.22-.11,0-2,.16-3.49,1.09,1.18-.92,2.68-1.34,2.7-1.34.13-.03.21-.17.17-.29-.03-.13-.17-.21-.29-.17-.14.04-3.28.9-4.22,3.08h-.07c-.94-2.18-4.08-3.04-4.22-3.08-.13-.03-.26.04-.29.17-.03.13.04.26.17.29.02,0,1.53.42,2.72,1.35-1.49-.94-3.39-1.09-3.5-1.1-.16-.02-.25.09-.26.22-.01.13.09.25.22.26.02,0,1.53.13,2.86.79-1.52-.61-3.2-.55-3.31-.55-.08,0-.14.05-.18.12l-.06-.02c-.26-.08-.52.06-.6.32-.08.25.06.52.32.6l5.05,1.56h.87s.02.02.04.02h1.28l5.12-1.58c.25-.08.4-.35.32-.6ZM3.43,9.6c.79.09,1.84.3,2.68.83l-2.68-.83ZM9.69,10.43c.84-.53,1.9-.75,2.7-.83l-2.7.83Z"/>
    </g>
  </g>
</svg>