<?xml version="1.0" encoding="UTF-8"?>
<svg xmlns="http://www.w3.org/2000/svg" viewBox="0 0 15.59 15.59">
  <defs>
    <style>
      .cls-1 {
        fill: #071f39;
      }

      .cls-1, .cls-2 {
        stroke-width: 0px;
      }

      .cls-2 {
        fill: #fff;
      }
    </style>
  </defs>
  <g id="Cirkel">
    <rect class="cls-1" x="0" y="0" width="15.59" height="15.59" rx="7.8" ry="7.8"/>
  </g>
  <g id="ICONS">
    <path class="cls-2" d="M13.83,5.76l-4.25-3.48c-.1-.08-.25-.08-.35,0l-2.79,2.28-.84-.68c-.1-.08-.25-.08-.35,0l-3.51,2.87c-.12.1-.05.29.1.29h.41v4.57c0,.1.08.18.18.18h10.67c.09,0,.16-.09.16-.2v-5.54s0,0,0,0h.47c.15,0,.22-.19.1-.29ZM9.34,9.53c-.34.19-.75.12-1-.16l-.39.23v1.15s-.04.09-.09.09h-.14s-.09-.04-.09-.09v-1.15l-.39-.23c-.25.28-.66.36-1,.16-.41-.23-.79-1.06-1-1.5.49-.04,1.4-.12,1.8.12.34.19.48.59.36.95l.23.13v-1.2c-.37-.07-.64-.4-.64-.78,0-.47.52-1.22.8-1.62.28.4.8,1.15.8,1.62,0,.39-.28.71-.64.78v1.2l.23-.13c-.12-.35.02-.75.36-.95.41-.23,1.31-.16,1.8-.12-.21.44-.6,1.27-1,1.5Z"/>
  </g>
</svg>