<?xml version="1.0" encoding="UTF-8"?>
<svg xmlns="http://www.w3.org/2000/svg" viewBox="0 0 15.59 15.59">
  <defs>
    <style>
      .cls-1 {
        fill: #071f39;
      }

      .cls-1, .cls-2 {
        stroke-width: 0px;
      }

      .cls-2 {
        fill: #fff;
      }
    </style>
  </defs>
  <g id="Cirkel">
    <rect class="cls-1" x="0" y="0" width="15.59" height="15.59" rx="7.8" ry="7.8"/>
  </g>
  <g id="ICONS">
    <path class="cls-2" d="M12.48,11.61h-.88v-1.28h.88c.19,0,.35-.16.35-.35s-.16-.35-.35-.35h-2.46c-.19,0-.35.16-.35.35s.16.35.35.35h.88v1.28h-5.28v-2.11c0-.12.09-.21.21-.21h2.09c.16,0,.26-.18.18-.32,0,0-1.64-2.85-1.66-2.88-.02-.03,0-.09.05-.09h.65c.16,0,.26-.18.18-.32l-1.92-3.32c-.08-.14-.28-.14-.36,0l-1.92,3.32c-.08.14.02.32.18.32,0,0,.6,0,.65,0,.04,0,.07.06.05.08-.01.03-1.67,2.89-1.67,2.89-.08.14.02.32.18.32h2.1c.11,0,.2.09.2.2v2.12h-1.45c-.19,0-.35.16-.35.35s.16.35.35.35h9.1c.19,0,.35-.16.35-.35s-.16-.35-.35-.35Z"/>
  </g>
</svg>