<?xml version="1.0" encoding="UTF-8"?>
<svg xmlns="http://www.w3.org/2000/svg" viewBox="0 0 15.59 15.59">
  <defs>
    <style>
      .cls-1 {
        fill: #071f39;
      }

      .cls-1, .cls-2 {
        stroke-width: 0px;
      }

      .cls-2 {
        fill: #fff;
      }
    </style>
  </defs>
  <g id="Cirkel">
    <rect class="cls-1" x="0" y="0" width="15.59" height="15.59" rx="7.8" ry="7.8"/>
  </g>
  <g id="ICONS">
    <g>
      <path class="cls-2" d="M12.43,6.4s0-.04.02-.04h.32c.08,0,.13-.09.09-.16l-.94-1.63c-.04-.07-.14-.07-.18,0l-.94,1.63c-.04.07,0,.16.09.16,0,0,.29,0,.32,0,.02,0,.03.03.02.04s-.82,1.42-.82,1.42c-.04.07,0,.16.09.16h1.03c.06,0,.1.04.1.1v1.36s0,0,0,0c-.55-.02-1.25,0-2.09.1v-.78s.04-.08.08-.08h.8c.06,0,.1-.07.07-.12,0,0-.62-1.08-.63-1.09,0-.01,0-.03.02-.03h.25c.06,0,.1-.07.07-.12l-.73-1.26c-.03-.05-.11-.05-.14,0l-.73,1.26c-.03.05,0,.12.07.12,0,0,.23,0,.25,0,.02,0,.02.02.02.03s-.63,1.1-.63,1.1c-.03.05,0,.12.07.12h.8s.08.03.08.08v.83c-.79.12-1.67.32-2.62.64-.55-.38-1.34-.57-2.11-.67v-.73c0-.1.08-.17.17-.17h1.73c.13,0,.22-.15.15-.26,0,0-1.36-2.36-1.37-2.38-.02-.02,0-.07.04-.07h.54c.13,0,.22-.15.15-.26l-1.59-2.75c-.07-.12-.23-.12-.3,0l-1.59,2.75c-.07.12.02.26.15.26,0,0,.49,0,.54,0,.04,0,.05.05.04.07-.01.02-1.38,2.39-1.38,2.39-.07.12.02.26.15.26h1.74c.09,0,.17.08.17.17v.67c-.9-.06-1.64,0-1.71,0-.11,0-.19.1-.18.21,0,.1.1.18.2.18,0,0,0,0,.02,0,.01,0,.77-.06,1.67,0v.78c0,.18.15.22.33.22s.33-.04.33-.22v-.71c.74.1,1.48.28,1.96.64,0,0,0,0,0,0,0,0,0,0,0,0,1.08.81,2.88,1,4.28,1,1.12,0,1.99-.12,2.07-.13.11-.02.19-.12.17-.23s-.12-.18-.23-.17c-.04,0-3.78.5-5.72-.58,3.27-1.04,5.68-.56,5.71-.55.11.02.21-.05.24-.15.02-.11-.05-.21-.15-.24-.03,0-.33-.07-.82-.1,0,0,0-.01,0-.02v-1.36c0-.06.05-.1.1-.1h1.03c.08,0,.13-.09.09-.16,0,0-.81-1.4-.82-1.41Z"/>
      <path class="cls-2" d="M12.07,12.79c-.19,0-.28-.07-.41-.19-.15-.13-.33-.29-.68-.29s-.54.16-.68.29c-.13.11-.21.19-.41.19s-.28-.07-.41-.19c-.15-.13-.33-.29-.68-.29s-.54.16-.68.29c-.13.11-.21.19-.41.19s-.28-.07-.41-.19c-.15-.13-.33-.29-.68-.29s-.54.16-.68.29c-.13.11-.21.19-.41.19-.12,0-.21.09-.21.21s.09.21.21.21c.35,0,.54-.16.68-.29.13-.11.21-.19.41-.19s.28.07.41.19c.15.13.33.29.69.29s.54-.16.68-.29c.13-.11.21-.19.41-.19s.28.07.41.19c.15.13.33.29.68.29s.54-.16.68-.29c.13-.11.21-.19.41-.19s.28.07.41.19c.15.13.33.29.68.29.12,0,.21-.09.21-.21s-.09-.21-.21-.21Z"/>
      <path class="cls-2" d="M9.29,4.57c.6,0,1.09-.49,1.09-1.09s-.49-1.09-1.09-1.09-1.09.49-1.09,1.09.49,1.09,1.09,1.09Z"/>
    </g>
  </g>
</svg>