<?xml version="1.0" encoding="UTF-8"?>
<svg xmlns="http://www.w3.org/2000/svg" viewBox="0 0 15.59 15.59">
  <defs>
    <style>
      .cls-1 {
        fill: #071f39;
      }

      .cls-1, .cls-2 {
        stroke-width: 0px;
      }

      .cls-2 {
        fill: #fff;
      }
    </style>
  </defs>
  <g id="Cirkel">
    <rect class="cls-1" x="0" y="0" width="15.59" height="15.59" rx="7.8" ry="7.8"/>
  </g>
  <g id="ICONS">
    <path class="cls-2" d="M6.43,6.58s-1.86,3.23-1.86,3.23c-.09.16.02.35.2.35h2.35c.13,0,.23.1.23.23v2.46c0,.25.2.45.45.45s.45-.2.45-.45v-2.45c0-.13.11-.24.24-.24h2.34c.18,0,.29-.2.2-.35,0,0-1.84-3.19-1.86-3.22-.02-.03,0-.1.05-.1h.72c.18,0,.29-.2.2-.35l-2.15-3.72c-.09-.16-.32-.16-.41,0l-2.15,3.72c-.09.16.02.35.2.35,0,0,.67,0,.73,0,.05,0,.07.06.06.09Z"/>
  </g>
</svg>