<?xml version="1.0" encoding="UTF-8"?>
<svg xmlns="http://www.w3.org/2000/svg" viewBox="0 0 15.59 15.59">
  <defs>
    <style>
      .cls-1 {
        fill: #071f39;
      }

      .cls-1, .cls-2 {
        stroke-width: 0px;
      }

      .cls-2 {
        fill: #fff;
      }
    </style>
  </defs>
  <g id="Cirkel">
    <rect class="cls-1" x="0" y="0" width="15.59" height="15.59" rx="7.8" ry="7.8"/>
  </g>
  <g id="ICONS">
    <g>
      <path class="cls-2" d="M9.88,6.07c.05,0,.11.02.16,0,.19-.03.31-.13.32-.3.02-.19-.08-.36-.32-.39l-1.49-.21c-.2-.03-.39.12-.41.33l-.56,2.21-2.3,1.59c.12.1.22.17.34.21h.47c.15-.04.25-.13.41-.26.26-.23.62-.55,1.29-.55s1.03.32,1.29.55c.15.13.26.22.41.26h.23l-.73-3.4.88-.03Z"/>
      <path class="cls-2" d="M13.61,10.17c-.34,0-.49-.13-.72-.33-.26-.23-.59-.51-1.21-.51s-.95.29-1.21.51c-.23.2-.38.33-.72.33s-.49-.13-.72-.33c-.26-.23-.59-.51-1.21-.51s-.95.29-1.21.51c-.23.2-.38.33-.72.33s-.5-.13-.73-.33c-.26-.23-.59-.51-1.21-.51s-.95.29-1.21.51c-.23.2-.38.33-.73.33-.21,0-.37.17-.37.37s.17.37.37.37c.62,0,.95-.29,1.21-.51.23-.2.38-.33.73-.33s.5.13.73.33c.26.23.59.51,1.21.51s.95-.29,1.21-.51c.23-.2.38-.33.72-.33s.5.13.72.33c.26.23.59.51,1.21.51s.95-.29,1.21-.51c.23-.2.38-.33.72-.33s.49.13.72.33c.26.23.59.51,1.21.51.21,0,.37-.17.37-.37s-.17-.37-.37-.37Z"/>
      <path class="cls-2" d="M10.74,8.26c.44-.11.72-.56.61-1-.11-.44-.56-.72-1-.61-.44.11-.72.56-.61,1,.11.44.56.72,1,.61Z"/>
      <path class="cls-2" d="M2.43,9.39c.1-.06.18-.13.29-.22.26-.23.59-.51,1.21-.51.25,0,.44.05.61.12.06-.15.09-.32.09-.49,0-.76-.62-1.38-1.38-1.38s-1.38.62-1.38,1.38c0,.45.22.85.56,1.1Z"/>
    </g>
  </g>
</svg>