<?xml version="1.0" encoding="UTF-8"?>
<svg xmlns="http://www.w3.org/2000/svg" viewBox="0 0 15.59 15.59">
  <defs>
    <style>
      .cls-1 {
        fill: #021e3a;
      }

      .cls-1, .cls-2 {
        stroke-width: 0px;
      }

      .cls-2 {
        fill: #fff;
      }
    </style>
  </defs>
  <g id="Cirkel">
    <rect class="cls-1" x="0" y="0" width="15.59" height="15.59" rx="7.8" ry="7.8"/>
  </g>
  <g id="ICONS">
    <g>
      <path class="cls-2" d="M5.52,9.28c.22.19.35.3.65.3s.42-.11.65-.3c.27-.23.63-.55,1.3-.55s1.04.32,1.3.55c.22.19.35.3.65.3s.42-.11.65-.3c.27-.23.63-.55,1.3-.55s1.04.32,1.3.55c.19.17.32.27.54.29.06-.03.12-.08.12-.16v-2.67c0-.1-.08-.19-.19-.19h-2.66c-.17,0-4.48,1.9-5.86,2.51.09.07.18.14.25.21Z"/>
      <path class="cls-2" d="M13.96,10.25c-.35,0-.5-.13-.73-.33-.26-.23-.59-.52-1.22-.52s-.96.29-1.22.52c-.23.2-.38.33-.73.33s-.5-.13-.73-.33c-.26-.23-.59-.52-1.22-.52s-.96.29-1.22.52c-.23.2-.38.33-.73.33s-.5-.13-.73-.33c-.26-.23-.59-.52-1.22-.52s-.96.29-1.22.52c-.23.2-.38.33-.73.33-.21,0-.38.17-.38.38s.17.38.38.38c.63,0,.96-.29,1.22-.52.23-.2.38-.33.73-.33s.5.13.73.33c.26.23.59.52,1.22.52s.96-.29,1.22-.52c.23-.2.38-.33.73-.33s.5.13.73.33c.26.23.59.52,1.22.52s.96-.29,1.22-.52c.23-.2.38-.33.73-.33s.5.13.73.33c.26.23.59.52,1.22.52.21,0,.38-.17.38-.38s-.17-.38-.38-.38Z"/>
      <path class="cls-2" d="M2.27,9.63h.21s8.01-3.51,8.01-3.51c.08-.06.15-.12.2-.19.01-.01.02-.03.02-.04.12-.34.11-.71-.03-1.04-.21-.48-.66-.8-1.18-.83-.04,0-.08.01-.1.04-.03.03-.04.07-.03.11.06.42-.17.83-.55,1l-5.94,2.59c-.38.17-.83.05-1.1-.28-.02-.03-.06-.05-.1-.05-.04,0-.08.02-.1.05-.33.4-.4.95-.19,1.43.12.27.32.5.57.65.14.08.28.08.31.07Z"/>
    </g>
  </g>
</svg>