<?xml version="1.0" encoding="UTF-8"?>
<svg xmlns="http://www.w3.org/2000/svg" viewBox="0 0 15.59 15.59">
  <defs>
    <style>
      .cls-1 {
        fill: #071f39;
      }

      .cls-1, .cls-2 {
        stroke-width: 0px;
      }

      .cls-2 {
        fill: #fff;
      }
    </style>
  </defs>
  <g id="Cirkel">
    <rect class="cls-1" x="0" y="0" width="15.59" height="15.59" rx="7.8" ry="7.8"/>
  </g>
  <g id="ICONS">
    <path class="cls-2" d="M12.17,6.28l-2.82-1.06v-.49c0-.11-.07-.21-.17-.24l-3.18-1c-.04-.24-.23-.43-.49-.43-.28,0-.5.22-.5.5v8.61c0,.28.22.5.5.5s.5-.22.5-.5v-4.12l2.73-.85v.49c0,.08.04.16.11.21.04.03.09.04.14.04.03,0,.06,0,.09-.02l3.1-1.17c.1-.04.16-.13.16-.23s-.06-.2-.16-.23Z"/>
  </g>
</svg>