<?xml version="1.0" encoding="UTF-8"?>
<svg xmlns="http://www.w3.org/2000/svg" viewBox="0 0 15.59 15.59">
  <defs>
    <style>
      .cls-1 {
        fill: #071f39;
      }

      .cls-1, .cls-2 {
        stroke-width: 0px;
      }

      .cls-2 {
        fill: #fff;
      }
    </style>
  </defs>
  <g id="Cirkel">
    <rect class="cls-1" x="0" y="0" width="15.59" height="15.59" rx="7.8" ry="7.8"/>
  </g>
  <g id="ICONS">
    <g>
      <path class="cls-2" d="M7.8,1.88C4.5,1.88,1.82,4.56,1.82,7.86s2.68,5.98,5.98,5.98,5.98-2.68,5.98-5.98S11.09,1.88,7.8,1.88ZM7.8,13.09c-2.88,0-5.23-2.35-5.23-5.23S4.91,2.63,7.8,2.63s5.23,2.35,5.23,5.23-2.35,5.23-5.23,5.23Z"/>
      <path class="cls-2" d="M7.8,3.48c-2.42,0-4.38,1.97-4.38,4.38s1.97,4.38,4.38,4.38,4.38-1.97,4.38-4.38-1.97-4.38-4.38-4.38ZM7.8,11.5c-2,0-3.63-1.63-3.63-3.63s1.63-3.63,3.63-3.63,3.63,1.63,3.63,3.63-1.63,3.63-3.63,3.63Z"/>
    </g>
  </g>
</svg>