<?xml version="1.0" encoding="UTF-8"?>
<svg xmlns="http://www.w3.org/2000/svg" viewBox="0 0 15.59 15.59">
  <defs>
    <style>
      .cls-1 {
        fill: #021e3a;
      }

      .cls-1, .cls-2 {
        stroke-width: 0px;
      }

      .cls-2 {
        fill: #fff;
      }
    </style>
  </defs>
  <g id="Cirkel">
    <rect class="cls-1" x="0" y="0" width="15.59" height="15.59" rx="7.79" ry="7.79"/>
  </g>
  <g id="ICONS">
    <g>
      <polygon class="cls-2" points="11.95 7.58 11.84 7.8 12.37 8.08 4.57 10.4 4.87 9.88 4.65 9.75 4.14 10.66 5.06 11.14 5.17 10.92 4.64 10.64 12.44 8.32 12.15 8.84 12.36 8.97 12.87 8.06 11.95 7.58"/>
      <path class="cls-2" d="M3.78,9.34l8.72-2.59c.09-.05.19-.09.26-.21.2-.32.21-.72.1-1.08-.16-.53-.58-.91-1.11-1.01-.04,0-.08,0-.11.03-.03.03-.05.06-.05.11,0,.44-.28.84-.69.96l-6.46,1.92c-.41.12-.87-.05-1.1-.43-.02-.03-.06-.06-.1-.06-.04,0-.08,0-.11.04-.39.37-.54.93-.38,1.45.09.3.26.56.51.74.23.17.53.13.53.13Z"/>
    </g>
  </g>
</svg>