<?xml version="1.0" encoding="UTF-8"?>
<svg xmlns="http://www.w3.org/2000/svg" viewBox="0 0 15.59 15.59">
  <defs>
    <style>
      .cls-1 {
        fill: #021e3a;
      }

      .cls-1, .cls-2 {
        stroke-width: 0px;
      }

      .cls-2 {
        fill: #fff;
      }
    </style>
  </defs>
  <g id="Cirkel">
    <rect class="cls-1" x="0" y="0" width="15.59" height="15.59" rx="7.79" ry="7.79"/>
  </g>
  <g id="ICONS">
    <g>
      <path class="cls-2" d="M6.74,7.54h4.51c0-1.07-.87-1.94-1.94-1.94h-2.56c-.09,0-.16.07-.16.16v1.62c0,.09.07.16.16.16Z"/>
      <path class="cls-2" d="M12.47,6.24c-.21,0-.38.17-.38.38v1.5H3.5v-3.13c0-.21-.17-.38-.38-.38s-.38.17-.38.38v5.63c0,.21.17.38.38.38s.38-.17.38-.38v-1.13h8.6v1.13c0,.21.17.38.38.38s.38-.17.38-.38v-3.99c0-.21-.17-.38-.38-.38Z"/>
      <path class="cls-2" d="M5.01,7.54c.5,0,.91-.41.91-.91s-.41-.91-.91-.91-.91.41-.91.91.41.91.91.91Z"/>
    </g>
  </g>
</svg>