<?xml version="1.0" encoding="UTF-8"?>
<svg xmlns="http://www.w3.org/2000/svg" viewBox="0 0 15.59 15.59">
  <defs>
    <style>
      .cls-1 {
        fill: #071f39;
      }

      .cls-1, .cls-2 {
        stroke-width: 0px;
      }

      .cls-2 {
        fill: #fff;
      }
    </style>
  </defs>
  <g id="Cirkel">
    <rect class="cls-1" x="0" y="0" width="15.59" height="15.59" rx="7.8" ry="7.8"/>
  </g>
  <g id="ICONS">
    <g>
      <path class="cls-2" d="M3.59,5.02c.36-.17.51-.6.34-.95s-.6-.51-.95-.34c-.36.17-.51.6-.34.95.17.36.6.51.95.34Z"/>
      <rect class="cls-2" x="6.21" y="2.12" width="2.97" height="10.4" rx=".5" ry=".5"/>
      <rect class="cls-2" x="10.19" y="5.45" width="2.97" height="7.07" rx=".5" ry=".5"/>
      <path class="cls-2" d="M5.42,5.14l-.56.1.83-1.66c.07-.16,0-.35-.14-.43-.16-.08-.36-.01-.44.15l-.93,1.52-.8.55c-.09.06-.17.12-.19.23l-.6,2.39c-.03.06-.09.36-.07.42,0,.03.01.05.02.07.02.05.04.08.08.1l1.11,1.31-.03,1.73c-.03.17.08.33.27.35.06.01.13,0,.19-.02.09-.04.16-.13.17-.24l.28-1.77c.03-.1,0-.19-.07-.26l-.69-1.31.25-.07.46-.11.36.77c.02.17.19.29.36.25.04,0,.06-.02.09-.03.13-.06.2-.2.18-.34l-.21-1.16c0-.08-.06-.17-.14-.2l-.92-.3v-1.09s1.28-.34,1.28-.34c.02-.01.05-.01.09-.03.13-.06.2-.21.17-.35-.04-.17-.2-.28-.37-.25Z"/>
    </g>
  </g>
</svg>