<?xml version="1.0" encoding="UTF-8"?>
<svg xmlns="http://www.w3.org/2000/svg" viewBox="0 0 15.59 15.59">
  <defs>
    <style>
      .cls-1 {
        fill: #071f39;
      }

      .cls-1, .cls-2 {
        stroke-width: 0px;
      }

      .cls-2 {
        fill: #fff;
      }
    </style>
  </defs>
  <g id="Cirkel">
    <rect class="cls-1" x="0" y="0" width="15.59" height="15.59" rx="7.8" ry="7.8"/>
  </g>
  <g id="ICONS">
    <g>
      <path class="cls-2" d="M5.41,3.91c.49,0,.89-.4.89-.89s-.4-.89-.89-.89-.89.4-.89.89.4.89.89.89Z"/>
      <path class="cls-2" d="M9.35,6.49l-3.19-2.18c-.07-.05-.16-.08-.25-.08l-1.32-.08c-.09,0-.19.02-.27.06l-2.04,1.15c-.2.11-.3.34-.24.57l.26,1.04c.06.22.17.36.39.36.04,0,.08,0,.13-.02.26-.07.35-.34.29-.6l-.04-.67.83-.35.04-.02-.03.77v1.36l-.14.92.34,1.56s-.8,2.05-.8,2.09c0,.03,0,.17.07.3s.2.2.23.21c.17.09.33.04.37.03.17-.05.26-.16.29-.2.2-.26.88-1.48.88-1.48l.14-1.49.51,1.16s.07,1.69.08,1.73c.02.05.05.17.16.27.03.03.18.16.39.14.2-.02.3-.14.34-.18.04-.04.17-2.47.17-2.47l-.75-1.95.03-.48.02-.16.04-.68.06-.8.05-.43,2.4,1.34c.23.15.53.09.69-.14.15-.23.09-.47-.14-.62Z"/>
      <path class="cls-2" d="M11.59,11.33c-.48,0-.86.39-.86.86s.39.86.86.86.86-.39.86-.86-.39-.86-.86-.86Z"/>
    </g>
  </g>
</svg>