<?xml version="1.0" encoding="UTF-8"?>
<svg xmlns="http://www.w3.org/2000/svg" viewBox="0 0 15.59 15.59">
  <defs>
    <style>
      .cls-1 {
        fill: #071f39;
      }

      .cls-1, .cls-2 {
        stroke-width: 0px;
      }

      .cls-2 {
        fill: #fff;
      }
    </style>
  </defs>
  <g id="Cirkel">
    <rect class="cls-1" x="0" y="0" width="15.59" height="15.59" rx="7.8" ry="7.8"/>
  </g>
  <g id="ICONS">
    <g>
      <path class="cls-2" d="M4.64,7.55v-.08c0-.4,0-.8,0-1.19,0-.03,0-.07.02-.09.08-.12.16-.24.24-.36,0-.01.02-.02.04-.04,0,.02,0,.03,0,.04,0,.5,0,1,0,1.51,0,.03-.01.06-.03.08-.08.13-.16.25-.24.38-.02.03-.03.07-.03.1,0,.45,0,.89,0,1.34,0,.23,0,.46,0,.68,0,.22.22.37.43.33.18-.04.29-.19.29-.39,0-.56,0-1.11,0-1.67,0-.04.01-.09.04-.13.09-.15.19-.3.28-.44,0-.02.02-.03.04-.06,0,.19,0,.37,0,.54,0,.03,0,.06.02.09.26.61.52,1.22.78,1.84.08.19.29.28.48.19.19-.08.27-.29.19-.48-.23-.55-.46-1.09-.69-1.64-.02-.04-.01-.07,0-.1.09-.15.18-.3.27-.46.03-.05.05-.06.1-.06.57,0,1.15,0,1.72,0,.02,0,.04,0,.07,0v.06c0,.4,0,.79,0,1.19,0,.38,0,.76,0,1.14,0,.27.23.44.47.37.17-.05.26-.19.26-.39,0-.75,0-1.5,0-2.25,0-.04.01-.09.03-.13.26-.53.52-1.06.78-1.6.02-.05.05-.06.11-.05.39.07.71-.04.96-.35.09-.11.14-.24.22-.37,0,0,.03,0,.05,0,.25.04.47-.14.46-.39,0-.14-.08-.24-.19-.32-.34-.23-.68-.46-1.03-.68-.07-.04-.08-.09-.07-.16.02-.16,0-.45-.01-.43-.71.74-1.43,1.48-2.14,2.21-.02.03-.07.05-.1.05-.23,0-.47,0-.7,0-.02,0-.04,0-.06,0v-.47s.03,0,.05,0c.21.05.41.1.62.14.15.03.27-.02.33-.14.07-.15,0-.32-.17-.37-.22-.06-.44-.11-.66-.17-.05-.01-.13-.01-.15-.05-.03-.03-.01-.1-.01-.16,0-.3-.18-.51-.44-.57-.35-.07-.66.19-.66.55,0,.36,0,.71,0,1.07v.15s-.04,0-.06,0c-.43,0-.86,0-1.29,0-.16,0-.33-.01-.49.01-.41.06-.69.4-.69.81,0,.42,0,.85,0,1.27,0,.02,0,.04,0,.06h.58ZM10.64,5.06c.06-.11.06-.11.18-.09.15.03.3.06.45.09-.06.36-.48.67-.92.57.1-.19.19-.38.28-.57Z"/>
      <path class="cls-2" d="M7.16,3.46c.31,0,.55-.25.55-.55,0-.3-.25-.55-.55-.55-.3,0-.55.25-.55.55,0,.31.25.55.55.55Z"/>
      <path class="cls-2" d="M11.32,7.97c-.19-.06-.4.04-.46.23-.06.19.04.4.23.46,1.08.35,1.75.86,1.75,1.33,0,.86-2.2,1.81-5.14,1.81s-5.14-.96-5.14-1.81c0-.2-.16-.37-.37-.37s-.37.16-.37.37c0,1.45,2.53,2.54,5.88,2.54s5.88-1.09,5.88-2.54c0-.83-.8-1.55-2.25-2.03Z"/>
    </g>
  </g>
</svg>