<?xml version="1.0" encoding="UTF-8"?>
<svg xmlns="http://www.w3.org/2000/svg" viewBox="0 0 15.59 15.59">
  <defs>
    <style>
      .cls-1 {
        fill: #071f39;
      }

      .cls-1, .cls-2 {
        stroke-width: 0px;
      }

      .cls-2 {
        fill: #fff;
      }
    </style>
  </defs>
  <g id="Cirkel">
    <rect class="cls-1" x="0" y="0" width="15.59" height="15.59" rx="7.8" ry="7.8"/>
  </g>
  <g id="ICONS">
    <g>
      <path class="cls-2" d="M5.96,9.12c.25,0,.46-.21.46-.46s-.21-.46-.46-.46-.46.21-.46.46.21.46.46.46Z"/>
      <path class="cls-2" d="M8.74,9.12c.25,0,.46-.21.46-.46s-.21-.46-.46-.46-.46.21-.46.46.21.46.46.46Z"/>
      <path class="cls-2" d="M10.58,10.98s-.02-.02-.03-.03l-.55-.43s-.08-.04-.11-.06l.37-.83h0c.12-.02.2-.13.19-.24-.02-.12-.13-.2-.24-.19l-.19.03-.9.12c-.07-.07-.17-.12-.28-.12h-.16c-.22,0-.4.18-.4.4v1.18c0,.06.01.11.03.17h-.5s-.02-.02-.03-.03l-.55-.43s-.08-.04-.12-.06l.37-.83h0c.12-.02.2-.13.19-.24-.02-.12-.12-.2-.24-.19l-.19.03-.91.12c-.07-.07-.17-.12-.28-.12h-.16c-.22,0-.4.18-.4.4v1.18c0,.06.01.11.03.17h-2.79c0,.7.57,1.27,1.27,1.27h1.83l-.37.81c-.03.06-.03.16.02.22.12.14.28.19.4.2.07,0,.17-.03.21-.09.15-.21.31-.69.37-.91.02-.06.02-.15.02-.22h2.14l-.37.81c-.03.06-.03.16.02.22.12.14.28.19.4.2.07,0,.17-.03.21-.09.15-.21.31-.69.37-.91.02-.06.02-.15.02-.22h2.44c.7,0,1.27-.57,1.27-1.27h-2.38ZM6.43,9.77c.68-.09.53-.07.73-.1l-.33.74c-.09,0-.15.03-.15.03l-.26.09v-.76ZM9.22,9.77c.68-.09.53-.07.73-.1l-.32.71c-.1,0-.17.05-.17.05l-.25.09v-.76Z"/>
    </g>
    <path class="cls-2" d="M13.12,4.49l-1.59-1.1c-.16-.11-.34-.17-.53-.17-.55,0-1.78-.01-2.97-.01-1.18,0-2.42,0-2.97.01-.19,0-.37.06-.53.17l-1.59,1.1c-.15.07-.1.34.05.34h.58v2.08c0,.16.13.28.28.28h8.22c.16,0,.28-.13.28-.28v-2.08h.71c.16,0,.2-.27.05-.34Z"/>
  </g>
</svg>