<?xml version="1.0" encoding="UTF-8"?>
<svg xmlns="http://www.w3.org/2000/svg" viewBox="0 0 15.59 15.59">
  <defs>
    <style>
      .cls-1 {
        fill: #071f39;
      }

      .cls-1, .cls-2 {
        stroke-width: 0px;
      }

      .cls-2 {
        fill: #fff;
      }
    </style>
  </defs>
  <g id="Cirkel">
    <rect class="cls-1" x="0" y="0" width="15.59" height="15.59" rx="7.8" ry="7.8"/>
  </g>
  <g id="ICONS">
    <path class="cls-2" d="M12.12,10.17l-.35-.66c.6-.38.44-1.2-.04-1.56-.03-.02-2.52-1.51-2.55-1.53.03-.05.05-.11.05-.17,0-.19-.16-.35-.35-.35h-.9c-.08,0-.15-.06-.15-.15s.07-.15.15-.15h.5c.07-.06.12-.16.12-.26,0-.17-.12-.32-.29-.35h-.97c-.08,0-.15-.07-.15-.15s.07-.15.15-.15h.75c-.27-1.01-.05-2.31-.49-2.45-.22-.07-.55.06-.81.41-.22-.1-.45-.15-.68-.15-.93,0-1.35.25-1.53.86-.2.02-.36.18-.36.39,0,.15.09.28.22.35-.18,1.08-.49,3.1-.64,4.12-.06.41,0,.79.15,1.08-.46.14-.74.39-.93.69h-.02c-.14-.07-.3,0-.36.13-.06.14,0,.3.14.36l.85.37c-.04.11-.06.23-.06.35,0,.58.47,1.05,1.05,1.05.52,0,.96-.38,1.04-.88l.38.1c.12.45.53.79,1.02.79.53,0,.96-.39,1.04-.9l.37.1c.11.46.53.8,1.02.8.53,0,.97-.4,1.04-.91l.37.09c.11.47.52.81,1.02.81.58,0,1.05-.47,1.05-1.05,0-.51-.36-.93-.84-1.03ZM4.63,11.51c-.17,0-.32-.14-.32-.32s.14-.31.32-.31.32.14.32.31-.14.32-.32.32ZM7.06,11.51c-.17,0-.31-.14-.31-.32s.14-.31.31-.31.32.14.32.31-.14.32-.32.32ZM8.94,9.65h-2.3c-.11,0-.2-.09-.2-.2s.09-.2.2-.2h2.3c.11,0,.2.09.2.2s-.09.2-.2.2ZM9.49,11.51c-.17,0-.31-.14-.31-.32s.14-.31.31-.31.32.14.32.31-.14.32-.32.32ZM11.92,11.51c-.17,0-.31-.14-.31-.32s.14-.31.31-.31.31.14.31.31-.14.32-.31.32Z"/>
  </g>
</svg>