<?xml version="1.0" encoding="UTF-8"?>
<svg xmlns="http://www.w3.org/2000/svg" viewBox="0 0 15.59 15.59">
  <defs>
    <style>
      .cls-1 {
        fill: #071f39;
      }

      .cls-1, .cls-2 {
        stroke-width: 0px;
      }

      .cls-2 {
        fill: #fff;
      }
    </style>
  </defs>
  <g id="Cirkel">
    <rect class="cls-1" x="0" y="0" width="15.59" height="15.59" rx="7.8" ry="7.8"/>
  </g>
  <g id="ICONS">
    <g>
      <path class="cls-2" d="M5.33,8.58c0,.27.22.48.48.48s.48-.22.48-.48-.22-.48-.48-.48-.48.22-.48.48Z"/>
      <path class="cls-2" d="M8.26,8.58c0,.27.22.48.48.48s.48-.22.48-.48-.22-.48-.48-.48-.48.22-.48.48Z"/>
      <path class="cls-2" d="M10.67,11.02s-.02-.02-.04-.03l-.58-.45s-.08-.04-.12-.06l.38-.87h0c.12-.02.21-.13.2-.26-.02-.12-.13-.21-.26-.2l-.2.03-.95.13c-.08-.08-.18-.12-.29-.12h-.17c-.23,0-.42.19-.42.42v1.24c0,.06.01.12.04.18h-.53s-.02-.02-.04-.03l-.58-.45s-.08-.04-.12-.06l.39-.87h0c.12-.02.21-.13.2-.26-.02-.12-.13-.21-.26-.2l-.2.03-.95.13c-.08-.08-.18-.12-.29-.12h-.17c-.23,0-.42.19-.42.42v1.24c0,.06.01.12.04.18h-2.93c0,.73.6,1.34,1.34,1.34h1.92l-.39.85c-.03.07-.03.17.02.23.13.15.3.2.42.21.07,0,.18-.04.22-.09.16-.22.32-.72.39-.96.02-.06.02-.16.02-.23h2.25l-.39.85c-.03.07-.03.17.02.23.13.15.3.2.42.21.07,0,.18-.04.22-.09.16-.22.32-.72.39-.96.02-.06.02-.16.02-.23h2.57c.73,0,1.34-.6,1.34-1.34h-2.5ZM6.58,10.45l-.27.1v-.8c.72-.1.57-.08.77-.1l-.35.77c-.09,0-.16.03-.16.03ZM9.5,10.45l-.27.1v-.8c.72-.1.57-.08.77-.1l-.33.75c-.11,0-.17.06-.17.06Z"/>
      <path class="cls-2" d="M6.72,5.21h2.56c.09,0,.15-.07.14-.16-.07-.58-.42-2.67-1.91-3.84-.08-.07-.21-.01-.23.09l-.7,3.74c-.02.09.05.17.14.17Z"/>
      <path class="cls-2" d="M5.35,6.96c.06.1.17.16.29.16h4.64c.11,0,.22-.06.28-.15l.72-.76c.13-.2-.02-.46-.28-.46h-6c-.25,0-.41.25-.29.45l.64.76Z"/>
    </g>
  </g>
</svg>