<?xml version="1.0" encoding="UTF-8"?>
<svg xmlns="http://www.w3.org/2000/svg" viewBox="0 0 15.59 15.59">
  <defs>
    <style>
      .cls-1 {
        fill: #071f39;
      }

      .cls-1, .cls-2 {
        stroke-width: 0px;
      }

      .cls-2 {
        fill: #fff;
      }
    </style>
  </defs>
  <g id="Cirkel">
    <rect class="cls-1" x="0" y="0" width="15.59" height="15.59" rx="7.8" ry="7.8"/>
  </g>
  <g id="ICONS">
    <g>
      <path class="cls-2" d="M5.28,6.47c.28.33.62.51.95.51.05,0,.1,0,.16-.01.38-.06.7-.36.88-.83.17-.44.21-.98.12-1.54-.09-.55-.31-1.06-.62-1.41-.33-.38-.72-.56-1.11-.5-.38.06-.7.36-.88.83-.17.44-.21.98-.12,1.54.09.55.31,1.06.62,1.41Z"/>
      <path class="cls-2" d="M9.21,6.97c.05,0,.1.01.16.01.33,0,.66-.18.95-.51.31-.36.53-.86.62-1.41.09-.55.05-1.1-.12-1.54-.18-.47-.5-.77-.88-.83-.38-.06-.78.11-1.11.5-.31.36-.53.86-.62,1.41-.09.55-.05,1.1.12,1.54.18.47.5.77.88.83Z"/>
      <path class="cls-2" d="M4.93,8.97c.18-.41.23-.91.14-1.42-.09-.51-.3-.97-.6-1.29-.32-.35-.71-.5-1.09-.44-.38.06-.69.34-.89.77-.18.41-.23.91-.14,1.42.09.51.3.97.6,1.29.28.3.6.45.92.45.06,0,.11,0,.17-.01.38-.06.69-.34.89-.77Z"/>
      <path class="cls-2" d="M13.1,6.6c-.19-.43-.51-.71-.89-.77-.38-.06-.77.09-1.09.44-.3.32-.52.78-.6,1.29-.09.51-.04,1.01.14,1.42.19.43.51.71.89.77.06,0,.11.01.17.01.32,0,.65-.16.92-.45.3-.32.52-.78.6-1.29.09-.51.04-1.01-.14-1.42Z"/>
      <path class="cls-2" d="M9.77,9.39v-.02c0-.62-.2-1.2-.55-1.64-.34-.43-.97-.5-1.42-.18-.22-.15-.48-.21-.75-.18-.29.04-.56.2-.73.43-.32.43-.5.99-.5,1.57v.02c-.83-.16-1.58.69-1.58,1.76,0,.98.62,1.78,1.38,1.78s1.22-.36,1.35-1.01c.51.28,1.14.28,1.65,0,.13.64.6,1.01,1.34,1.01s1.38-.8,1.38-1.78c0-1.06-.75-1.92-1.58-1.76Z"/>
    </g>
  </g>
</svg>