<?xml version="1.0" encoding="UTF-8"?>
<svg xmlns="http://www.w3.org/2000/svg" viewBox="0 0 15.59 15.59">
  <defs>
    <style>
      .cls-1 {
        fill: #071f39;
      }

      .cls-1, .cls-2 {
        stroke-width: 0px;
      }

      .cls-2 {
        fill: #fff;
      }
    </style>
  </defs>
  <g id="Cirkel">
    <rect class="cls-1" x="0" y="0" width="15.59" height="15.59" rx="7.8" ry="7.8"/>
  </g>
  <g id="ICONS">
    <g>
      <path class="cls-2" d="M12.6,7.65c-.85.1-3.33,1.84-4.27,3.44l-.07-2.65c-.15.02-.31.03-.47.03s-.31,0-.47-.03l-.07,2.65c-.93-1.6-3.41-3.34-4.27-3.44.04,1.07,2.47,4.86,4.23,4.95v.28c0,.57,1.15.57,1.15,0v-.28c1.75-.09,4.18-3.88,4.22-4.95Z"/>
      <path class="cls-2" d="M7.8,8.03c2.01,0,3.64-1.78,3.73-4-.7-.1-1.61.33-2.05.95-.09-1.08-.63-2.02-1.68-2.71-1.05.69-1.59,1.64-1.68,2.71-.44-.62-1.34-1.05-2.05-.95.09,2.23,1.72,4,3.73,4Z"/>
    </g>
  </g>
</svg>