<?xml version="1.0" encoding="UTF-8"?>
<svg xmlns="http://www.w3.org/2000/svg" viewBox="0 0 15.59 15.59">
  <defs>
    <style>
      .cls-1 {
        fill: #071f39;
      }

      .cls-1, .cls-2 {
        stroke-width: 0px;
      }

      .cls-2 {
        fill: #fff;
      }
    </style>
  </defs>
  <g id="Cirkel">
    <rect class="cls-1" x="0" y="0" width="15.59" height="15.59" rx="7.8" ry="7.8"/>
  </g>
  <g id="ICONS">
    <g>
      <path class="cls-2" d="M9.08,1.51c-2.26,0-4.1,1.84-4.1,4.1,0,1.06.42,2.02,1.08,2.75l-.94.94c-.28-.12-.61-.07-.84.16l-1.77,1.77c-.3.3-.3.79,0,1.09.15.15.35.23.54.23s.39-.08.54-.23l1.77-1.77c.23-.23.28-.56.16-.84l.95-.95c.71.58,1.6.95,2.59.95,2.26,0,4.1-1.84,4.1-4.1s-1.84-4.1-4.1-4.1ZM9.08,9.12c-1.94,0-3.52-1.58-3.52-3.52s1.58-3.52,3.52-3.52,3.52,1.58,3.52,3.52-1.58,3.52-3.52,3.52Z"/>
      <path class="cls-2" d="M10.49,5.25c.56,0,1.01-.45,1.01-1.01s-.45-1.01-1.01-1.01-1.01.45-1.01,1.01v.17h-.7v-.17c0-.56-.45-1.01-1.01-1.01s-1.01.45-1.01,1.01.45,1.01,1.01,1.01h.17v.7h-.17c-.56,0-1.01.45-1.01,1.01s.45,1.01,1.01,1.01,1.01-.45,1.01-1.01v-.17h.7v.17c0,.56.45,1.01,1.01,1.01s1.01-.45,1.01-1.01-.45-1.01-1.01-1.01h-.17v-.7h.17ZM7.77,4.62c-.2,0-.37-.16-.37-.36h0c0-.2.16-.37.37-.37s.37.16.37.36v.37h-.37ZM8.15,6.96c0,.2-.16.37-.37.37s-.37-.16-.37-.37.16-.37.37-.37h.37v.37ZM9.63,6.11h-1.01v-1.01h1.01v1.01ZM10.49,6.58c.2,0,.37.16.37.37s-.16.37-.37.37-.37-.16-.37-.37v-.37h.37ZM10.13,4.61v-.37c0-.2.16-.37.37-.37s.37.16.37.37-.16.37-.37.37h-.37Z"/>
    </g>
  </g>
</svg>