<?xml version="1.0" encoding="UTF-8"?>
<svg xmlns="http://www.w3.org/2000/svg" viewBox="0 0 15.59 15.59">
  <defs>
    <style>
      .cls-1 {
        fill: #021e3a;
      }

      .cls-1, .cls-2 {
        stroke-width: 0px;
      }

      .cls-2 {
        fill: #fff;
      }
    </style>
  </defs>
  <g id="Cirkel">
    <rect class="cls-1" x="0" y="0" width="15.59" height="15.59" rx="7.8" ry="7.8"/>
  </g>
  <g id="ICONS">
    <g>
      <circle class="cls-2" cx="5.99" cy="8.99" r=".77"/>
      <path class="cls-2" d="M4.87,10.37c0,.19.15.34.34.34h1.93s.02.01.03.01h4.12c.11,0,.2-.09.2-.2v-.36c0-.69-.56-1.25-1.25-1.25h-2.6c-.37,0-.67.3-.67.67v.44h-1.75c-.19,0-.34.15-.34.34Z"/>
      <path class="cls-2" d="M12.51,11.09H3.75v-3.35l8.92-3.29c.24-.09.36-.35.27-.59-.09-.24-.35-.36-.59-.27L2.19,7.34c-.24.09-.36.35-.27.59.07.19.24.3.43.3.05,0,.11,0,.16-.03l.32-.12v3.01h-.48c-.25,0-.46.21-.46.46s.21.46.46.46h10.16c.25,0,.46-.21.46-.46s-.21-.46-.46-.46Z"/>
    </g>
  </g>
</svg>