<?xml version="1.0" encoding="UTF-8"?>
<svg xmlns="http://www.w3.org/2000/svg" viewBox="0 0 15.59 15.59">
  <defs>
    <style>
      .cls-1 {
        fill: #071f39;
      }

      .cls-1, .cls-2 {
        stroke-width: 0px;
      }

      .cls-2 {
        fill: #fff;
      }
    </style>
  </defs>
  <g id="Cirkel">
    <rect class="cls-1" x="0" y="0" width="15.59" height="15.59" rx="7.8" ry="7.8"/>
  </g>
  <g id="ICONS">
    <g>
      <path class="cls-2" d="M7.42,3.37c.47-.06.8-.49.74-.97-.06-.47-.49-.8-.97-.74-.47.06-.8.49-.74.97.06.47.49.8.97.74Z"/>
      <path class="cls-2" d="M4.83,6.7c.08.2.21.33.42.3.04,0,.07-.02.12-.03.24-.1.3-.37.2-.61l-.12-.64.75-.44.04-.02.07.74.07,1.54-.28,1.42s.07,2.27.08,2.3c0,.03.01.16.1.28.09.12.21.16.24.17.17.06.33,0,.36-.02.15-.07.23-.18.25-.22.16-.27.08-1.73.08-1.73l.37-1.35.38-.06.64,1.05s.28,1.61.3,1.65c.03.04.07.15.18.23.03.02.19.13.39.08.19-.04.28-.17.31-.21.03-.04-.15-2.39-.15-2.39l-.97-1.77.05.05-.09-1.43v-.42s2.46.98,2.46.98c.24.11.52.02.64-.22.11-.24.03-.46-.21-.58l-3.33-1.69c-.07-.04-.16-.06-.25-.04l-1.27.09c-.09,0-.18.04-.25.09l-1.81,1.36c-.18.13-.24.37-.15.58l.38.97Z"/>
      <path class="cls-2" d="M11.97,10.87c-.2,0-.35.14-.35.33,0,.01-.06.07-.22.1-.5.1-5.73.76-6.1.79-.21.02-.31-.06-.33-.07-.14-.13-.36-.13-.5,0-.14.14-.14.37,0,.51.03.03.29.27.76.27.04,0,.08,0,.12,0,.4-.03,5.64-.69,6.18-.8.62-.12.78-.53.78-.75,0-.2-.16-.38-.35-.38Z"/>
      <path class="cls-2" d="M6.2,12.92c-.25,0-.45.2-.45.45s.2.45.45.45.45-.2.45-.45-.2-.45-.45-.45Z"/>
      <circle class="cls-2" cx="11.17" cy="12.78" r=".45"/>
    </g>
  </g>
</svg>