<?xml version="1.0" encoding="UTF-8"?>
<svg xmlns="http://www.w3.org/2000/svg" viewBox="0 0 15.59 15.59">
  <defs>
    <style>
      .cls-1 {
        fill: #071f39;
      }

      .cls-1, .cls-2 {
        stroke-width: 0px;
      }

      .cls-2 {
        fill: #fff;
      }
    </style>
  </defs>
  <g id="Cirkel">
    <rect class="cls-1" x="0" y="0" width="15.59" height="15.59" rx="7.8" ry="7.8"/>
  </g>
  <g id="ICONS">
    <g>
      <path class="cls-2" d="M12.93,5.16c0,.64-.52,1.16-1.16,1.16s-1.15-.52-1.15-1.16.52-1.15,1.15-1.15,1.16.52,1.16,1.15h0ZM12.93,5.16"/>
      <path class="cls-2" d="M12.21,10.8c-.28-.08-.57.08-.66.36-.13.44-.59.69-1.02.56l-2.11-.62.85-1.75c.22-.69-.17-1.44-.86-1.66l-.05-.02.66-.26,2.54.84c.06.02.11.03.17.03.22,0,.43-.14.5-.36.09-.28-.06-.58-.34-.67l-1.75-.58c.12-.26.15-.56.04-.85-.1-.26-.3-.47-.56-.58-.26-.11-.55-.12-.81-.01l-1.07.42-3.48-2.12.21-.34c.11-.19.05-.43-.13-.55-.19-.11-.43-.05-.55.13l-.21.34-.45-.28c-.19-.11-.43-.05-.55.13-.11.19-.05.43.13.55l.45.27-.21.34c-.11.19-.05.43.13.55.06.04.14.06.21.06.13,0,.26-.07.34-.19l.21-.34,2.96,1.8-1.33.52c-.52.2-.85.72-.84,1.27.02.56.39,1.04.92,1.21l1.44.46-.09,1.19-3.6-1.05c-.28-.08-.57.08-.66.36-.08.28.08.58.36.66l7.21,2.11c.18.05.35.08.53.08.81,0,1.57-.53,1.81-1.35.08-.28-.08-.57-.36-.66h0ZM12.21,10.8"/>
    </g>
  </g>
</svg>