<?xml version="1.0" encoding="UTF-8"?>
<svg xmlns="http://www.w3.org/2000/svg" viewBox="0 0 15.59 15.59">
  <defs>
    <style>
      .cls-1 {
        fill: #071f39;
      }

      .cls-1, .cls-2 {
        stroke-width: 0px;
      }

      .cls-2 {
        fill: #fff;
      }
    </style>
  </defs>
  <g id="Cirkel">
    <rect class="cls-1" x="0" y="0" width="15.59" height="15.59" rx="7.8" ry="7.8"/>
  </g>
  <g id="ICONS">
    <path class="cls-2" d="M13.11,9.66s0-.05,0-.07c-.05-.2-.15-.39-.31-.53-.15-.14-.34-.23-.55-.27-.5-.08-1.63-.43-2.7-1.24-1.31-.99-2.07-2.3-2.27-3.89-.03-.25-.25-.45-.52-.46h0s-2.75.14-2.75.14c-.14,0-.28.05-.38.15-.1.1-.16.24-.16.38h0s.25,4.53.25,4.53c0,.07,0,.14,0,.2l-.13,2h0c0,.31.24.55.54.55h.54l-.36.78h-1.07c-.15,0-.26.12-.26.26s.12.27.26.27h8.18c.97,0,1.77-.79,1.77-1.76l.04-.85c0-.08-.04-.14-.09-.19ZM4.86,11.94l.36-.78h.8c.29,0,.53-.23.54-.52v-.29s.62.65.62.65c.1.11.24.17.39.17h1.36l.36.78h-4.43ZM11.4,11.94h-1.54l-.36-.78h2.27c.21,0,.41-.06.58-.18.11-.07.19-.15.27-.23-.03.65-.56,1.18-1.23,1.18Z"/>
  </g>
</svg>