<?xml version="1.0" encoding="UTF-8"?>
<svg xmlns="http://www.w3.org/2000/svg" viewBox="0 0 15.59 15.59">
  <defs>
    <style>
      .cls-1 {
        fill: #fff;
        fill-rule: evenodd;
      }

      .cls-1, .cls-2 {
        stroke-width: 0px;
      }

      .cls-2 {
        fill: #071f39;
      }
    </style>
  </defs>
  <g id="Cirkel">
    <rect class="cls-2" x="0" y="0" width="15.59" height="15.59" rx="7.8" ry="7.8"/>
  </g>
  <g id="ICONS">
    <path class="cls-1" d="M2.2,7.82l.17,3.81c.02.37.32.65.68.65h2.11c.37,0,.67-.3.68-.67l.05-2.4,1.13.49.11.04.23.02.11-.06,2.52-2.13.06-.55,1.14-.06c.09,0,.17-.05.22-.12l.2-.27,2.54-.04c.08,0,.15-.03.21-.09.06-.06.08-.13.08-.21v-.3s-.05,0-.05,0c-.1-.02-.2,0-.27.08l-.06.06-.04.06-.02.06h-5.56v-.32h1.48c.16,0,.29-.13.29-.29v-.06c0-.16-.13-.29-.29-.29h-3.51c-.16,0-.29.13-.29.29v.06c0,.16.13.29.29.29h.71v.32h-1.28l-.06.06-.41.45c-.7.01-1.42,0-2.09.04-.89.05-1.07.58-1.07,1.09h0ZM4.04,3.52c.77,0,1.4.63,1.4,1.4s-.63,1.4-1.4,1.4-1.4-.63-1.4-1.4.63-1.4,1.4-1.4h0ZM7.28,8.15l-1.09-.45.09-.06.09-.06.04-.09.02-.06.04-.09.02-.06,2.05-.17-1.26,1.04Z"/>
  </g>
</svg>