<?xml version="1.0" encoding="UTF-8"?>
<svg xmlns="http://www.w3.org/2000/svg" viewBox="0 0 15.59 15.59">
  <defs>
    <style>
      .cls-1 {
        fill: #071f39;
      }

      .cls-1, .cls-2 {
        stroke-width: 0px;
      }

      .cls-2 {
        fill: #fff;
      }
    </style>
  </defs>
  <g id="Cirkel">
    <rect class="cls-1" x="0" y="0" width="15.59" height="15.59" rx="7.8" ry="7.8"/>
  </g>
  <g id="ICONS">
    <g>
      <path class="cls-2" d="M4.62,7.67h3.06c.1,0,.18-.09.17-.19-.08-.69-.5-3.18-2.27-4.58-.1-.08-.25-.02-.28.11l-.84,4.46c-.02.11.06.2.17.2Z"/>
      <path class="cls-2" d="M2.71,10.05c.22-.19.53-.46,1.1-.46s.88.27,1.1.46c.19.16.29.26.55.26s.36-.09.55-.25c.22-.2.53-.46,1.1-.46s.88.27,1.1.46c.01.01.02.02.04.03l.8-1.22c.16-.24-.03-.55-.33-.55H2.35c-.3,0-.49.3-.34.54l.71,1.19Z"/>
      <path class="cls-2" d="M8,10.56c-.2-.16-.47-.33-.91-.33-.53,0-.81.24-1.03.44-.19.17-.32.28-.61.28s-.42-.11-.62-.28c-.22-.19-.5-.44-1.03-.44s-.81.24-1.03.44c-.19.17-.32.28-.62.28-.17,0-.32.14-.32.32s.14.32.32.32c.53,0,.81-.24,1.03-.44.19-.17.32-.28.62-.28s.42.11.62.28c.22.19.5.44,1.03.44s.81-.24,1.03-.44c.19-.17.32-.28.61-.28.23,0,.36.07.51.19.14.11.33.09.45-.05.11-.14.09-.33-.05-.45Z"/>
      <path class="cls-2" d="M13.46,9.05h-2.24c-.17,0-.34.06-.48.17l-2.65,2.12c-.12.09-.05.28.1.28h5.27c.09,0,.16-.07.16-.16v-2.25c0-.09-.07-.16-.16-.16Z"/>
    </g>
  </g>
</svg>