<?xml version="1.0" encoding="UTF-8"?>
<svg xmlns="http://www.w3.org/2000/svg" viewBox="0 0 15.59 15.59">
  <defs>
    <style>
      .cls-1 {
        fill: #071f39;
      }

      .cls-1, .cls-2 {
        stroke-width: 0px;
      }

      .cls-2 {
        fill: #fff;
      }
    </style>
  </defs>
  <g id="Cirkel">
    <rect class="cls-1" x="0" y="0" width="15.59" height="15.59" rx="7.8" ry="7.8"/>
  </g>
  <g id="ICONS">
    <g>
      <path class="cls-2" d="M10.62,11.02c0,.55-.44.99-.99.99h-.35s.01-.07.01-.11v-1h-.32c-.73,0-1.35-.48-1.55-1.15-.17.54-.61.96-1.16,1.1l.47.32c.21.14.45.21.69.21.14,0,.27-.02.4-.07v.58c0,.05,0,.1.02.15-.23.09-.4.3-.4.56,0,.35.27.64.62.64h1.57c1.23,0,2.23-1,2.23-2.23v-1.28c-.32.41-.75.74-1.24.94v.34Z"/>
      <path class="cls-2" d="M11.4,2.34h-.32c-.25,0-.46.21-.46.46v.44h1.24v-.44c0-.25-.21-.46-.46-.46Z"/>
      <path class="cls-2" d="M10.62,5.16c.49.2.92.53,1.24.94v-2.22h-1.24v1.28Z"/>
      <path class="cls-2" d="M6.85,9.27c0-.19.16-.35.35-.35h.44c.19,0,.35.16.35.35,0,.54.44.99.99.99h.53c1.29,0,2.34-1.05,2.34-2.34s-1.05-2.34-2.34-2.34h-4.17c-1.29,0-2.34,1.05-2.34,2.34s1.05,2.34,2.34,2.34h.53c.54,0,.99-.44.99-.99Z"/>
    </g>
  </g>
</svg>