<?xml version="1.0" encoding="UTF-8"?>
<svg xmlns="http://www.w3.org/2000/svg" viewBox="0 0 15.59 15.59">
  <defs>
    <style>
      .cls-1 {
        fill: #071f39;
      }

      .cls-1, .cls-2 {
        stroke-width: 0px;
      }

      .cls-2 {
        fill: #fff;
      }
    </style>
  </defs>
  <g id="Cirkel">
    <rect class="cls-1" x="0" y="0" width="15.59" height="15.59" rx="7.79" ry="7.79"/>
  </g>
  <g id="ICONS">
    <rect class="cls-2" x="4.33" y="8.11" width="7.18" height=".71" rx=".22" ry=".22"/>
    <path class="cls-2" d="M12.78,11.08s-.09-.05-.13-.07c-.09-.06-.16-.13-.24-.2-.37-.34-.85-.52-1.35-.39-.23.06-.44.17-.63.31s-.35.28-.56.37c-.15.06-.31.09-.44.06-.2-.04-.36-.16-.51-.3-.38-.35-.84-.55-1.36-.47-.21.03-.41.12-.59.24-.19.12-.34.29-.54.4-.31.17-.64.15-.94-.06-.18-.12-.32-.28-.51-.39-.21-.11-.42-.17-.65-.19-.5-.05-.94.17-1.28.52-.15.15-.3.22-.37.24-.06.02-.16.02-.2.02-.2-.01-.39.05-.45.25-.05.17.06.42.25.45h0c.28.05.56,0,.81-.12.21-.1.38-.25.54-.41.11-.11.22-.17.38-.21.14-.03.3-.03.45.02.17.05.31.17.45.3.38.32.84.47,1.33.4.21-.03.42-.11.6-.23.19-.12.34-.28.53-.4.16-.09.29-.14.47-.13.05,0,.13.02.2.05.09.04.19.1.27.16.2.16.38.35.63.45.21.09.44.15.68.13s.47-.09.69-.2.37-.27.57-.39.37-.2.57-.19c.06,0,.16.03.24.08.11.06.19.14.28.22.29.27.66.45,1.05.49.2.02.37-.18.37-.37,0-.21-.15-.35-.35-.36-.1,0-.22-.06-.26-.08Z"/>
    <path class="cls-2" d="M10.94,9.94c.15-.04.3-.06.45-.06.49,0,.96.19,1.36.56.02.02.04.03.05.05.05.04.08.08.11.1.03.02.07.04.1.05.02.01.06.03.08.03.11,0,.22.04.31.08v-1.45c0-.28-.23-.5-.51-.49-.09,0-.19.01-.29.02-1.56.1-2.17.61-2.42,1.47.25-.18.51-.3.77-.37Z"/>
    <path class="cls-2" d="M2.42,10.67s.05,0,.07,0c.01,0,.03,0,.04,0,.03-.01.09-.05.16-.11.43-.44.95-.67,1.49-.67.06,0,.12,0,.18,0,.3.03.57.11.83.25.17.09.29.19.4.29.06.05.11.09.16.13,0,0,.01,0,.02.01-.22-1.02-.81-1.62-2.6-1.73-.23-.01-.45-.02-.66-.03-.27,0-.5.21-.5.49v1.46c.12-.05.26-.08.41-.08Z"/>
    <circle class="cls-2" cx="8.3" cy="2.6" r=".53"/>
    <path class="cls-2" d="M9.52,4.9h0s-.01,0-.01,0c0,0,0,0,0,0l-.64-.31s-.04-.03-.04-.05l-.46-1.07c-.08-.19-.31-.27-.49-.18-.33.17-.81.41-1,.5-.31.15-.26.23-.31.34-.04.1-.26.61-.33.76,0,.01-.01.03-.02.04,0,0,0,0,0,0h0s0,.04,0,.06c0,.13.11.24.24.24.09,0,.16-.05.2-.12h0s0,0,0,0c0-.01.01-.03.02-.04l.36-.83s.03-.04.05-.04l.18-.03s.02,0,.02.02l-.43,2.16s-.01.05-.03.07l-.79,1.05h0c-.05.05-.08.12-.08.2,0,.16.13.29.29.29.08,0,.16-.03.21-.09h0s1.31-1.44,1.31-1.44c.02-.02.05-.03.08-.01l.35.21s.04.04.04.07l.16.98c0,.16.13.29.29.29s.29-.13.29-.29c0-.02,0-.04,0-.06l-.14-1.34s-.01-.05-.03-.07l-.59-.71s-.04-.08-.03-.12l.14-.71s.02-.02.03,0l.16.24s.03.03.05.04l.77.36h0s.07.03.11.03c.13,0,.24-.11.24-.24,0-.09-.05-.17-.13-.21Z"/>
  </g>
</svg>