<?xml version="1.0" encoding="UTF-8"?>
<svg xmlns="http://www.w3.org/2000/svg" viewBox="0 0 15.59 15.59">
  <defs>
    <style>
      .cls-1 {
        fill: #071f39;
      }

      .cls-1, .cls-2 {
        stroke-width: 0px;
      }

      .cls-2 {
        fill: #fff;
      }
    </style>
  </defs>
  <g id="Cirkel">
    <rect class="cls-1" x="0" y="0" width="15.59" height="15.59" rx="7.8" ry="7.8"/>
  </g>
  <g id="ICONS">
    <path class="cls-2" d="M13.66,6.23l-5.62-3.37c-.16-.1-.36-.1-.51,0L1.92,6.23c-.24.14-.31.45-.17.69.09.16.26.24.43.24.09,0,.18-.02.26-.07l.28-.17c-.03.07-.05.15-.05.23,0,.38.3.68.68.68-.38,0-.68.3-.68.68s.3.68.68.68c-.38,0-.68.3-.68.68s.3.68.68.68c-.38,0-.68.3-.68.68s.3.68.68.68h8.84c.38,0,.68-.3.68-.68s-.3-.68-.68-.68c.38,0,.68-.3.68-.68s-.3-.68-.68-.68c.38,0,.68-.3.68-.68s-.3-.68-.68-.68c.38,0,.68-.3.68-.68,0-.1-.02-.19-.06-.27l.35.21c.23.14.54.06.69-.17s.07-.54-.17-.69ZM6.23,7.14s.08,0,.12,0c.33,0,.68.15,1.01.44l.46.41-.53.37-.38-.34c-.27-.25-.33-.26-.69-.26h-.96c.29-.36.63-.58.98-.62ZM4.55,8.64c-.14,0-.25-.05-.3-.14-.04-.07-.04-.16,0-.24.06-.1.18-.17.33-.17l1.84-.02c.11,0,.14.03.22.09.01.01.03.02.05.04l.38.3c-.19.08-.35.13-.5.15h-2s0,0-.01,0ZM8.06,8.95c-1,.58-2.11,1.04-2.78.05l1.42-.06c.18-.01.59-.22,1.02-.45.42-.22.85-.45,1.04-.47.31-.02.48.12.51.25,0,.06-.01.12-.05.17-.07.09-.2.15-.36.17,0,0,0,0,0,0-.29.05-.52.18-.77.33h-.02ZM10.04,8.9c-.16.3-.4.48-.77.56-.41.09-.69.01-1.13-.2.19-.12.35-.23.57-.29.29-.03.56-.07.71-.23.15-.16.21-.39.15-.6s-.21-.38-.43-.46c-.36-.12-.7.03-1.03.22l-.46-.46c.64-.37,1.05-.45,1.6-.31.38.11.69.37.84.71.15.34.13.72-.06,1.07ZM11.45,8.5c-.06.1-.18.17-.33.17h-.69c.03-.18.04-.37,0-.55h.71c.14,0,.25.05.3.14.04.07.04.17,0,.24Z"/>
  </g>
</svg>