<?xml version="1.0" encoding="UTF-8"?>
<svg xmlns="http://www.w3.org/2000/svg" viewBox="0 0 15.59 15.59">
  <defs>
    <style>
      .cls-1 {
        fill: #071f39;
      }

      .cls-1, .cls-2 {
        stroke-width: 0px;
      }

      .cls-2 {
        fill: #fff;
      }
    </style>
  </defs>
  <g id="Cirkel">
    <rect class="cls-1" x="0" y="0" width="15.59" height="15.59" rx="7.79" ry="7.79"/>
  </g>
  <g id="ICONS">
    <g>
      <path class="cls-2" d="M7.75,4.73c-1.8,0-3.25,1.46-3.25,3.25s1.46,3.25,3.25,3.25,3.25-1.46,3.25-3.25-1.46-3.25-3.25-3.25ZM7.75,10.55c-1.41,0-2.57-1.15-2.57-2.57s1.15-2.57,2.57-2.57,2.57,1.15,2.57,2.57-1.15,2.57-2.57,2.57Z"/>
      <path class="cls-2" d="M7.75,6.19c-.99,0-1.8.81-1.8,1.8s.81,1.8,1.8,1.8,1.8-.81,1.8-1.8-.81-1.8-1.8-1.8Z"/>
      <path class="cls-2" d="M12.85,7.56v-3.63s-1.11.05-1.11,1.61v2.44h.61l-.15,3.45c0,.35.18.64.41.64s.41-.29.41-.64l-.17-3.87Z"/>
      <path class="cls-2" d="M3.99,5.85v-1.79c0-.07-.05-.12-.12-.12s-.12.05-.12.12v1.79h-.34v-1.79c0-.07-.05-.12-.12-.12s-.12.05-.12.12v1.79h-.34v-1.79c0-.07-.05-.12-.12-.12s-.12.05-.12.12v1.79h0c0,.49,0,.93,0,1.04.02.26.34.65.34.65l.12.09-.17,3.82c0,.35.18.63.4.63s.4-.28.4-.63l-.17-3.82.12-.1s.32-.38.34-.65c0-.1,0-.54,0-1.04h0Z"/>
    </g>
  </g>
</svg>