<?xml version="1.0" encoding="UTF-8"?>
<svg xmlns="http://www.w3.org/2000/svg" viewBox="0 0 15.59 15.59">
  <defs>
    <style>
      .cls-1 {
        fill: #071f39;
      }

      .cls-1, .cls-2 {
        stroke-width: 0px;
      }

      .cls-2 {
        fill: #fff;
      }
    </style>
  </defs>
  <g id="Cirkel">
    <rect class="cls-1" x="0" y="0" width="15.59" height="15.59" rx="7.8" ry="7.8"/>
  </g>
  <g id="ICONS">
    <path class="cls-2" d="M10.81,8.8c.91-.91,1.28-2.1,1.39-2.57.02-.1-.06-.19-.16-.16-.47.12-1.66.48-2.57,1.39-.77.77-1.15,1.73-1.32,2.3v-.79c.3-.13.51-.43.51-.77s-.21-.64-.51-.77v-.1c.41-.09,1.67-.44,2.63-1.41.91-.91,1.28-2.1,1.39-2.57.02-.1-.06-.19-.16-.16-.47.12-1.66.48-2.57,1.39-.42.42-.72.9-.94,1.34.15-.45.26-.98.26-1.55,0-1.29-.58-2.39-.83-2.8-.05-.09-.17-.09-.23,0-.25.42-.83,1.51-.83,2.8,0,.57.12,1.09.26,1.55-.22-.44-.52-.92-.94-1.34-.91-.91-2.1-1.28-2.57-1.39-.1-.02-.19.06-.16.16.12.47.48,1.66,1.39,2.57.96.96,2.22,1.31,2.63,1.41v.1c-.3.13-.51.43-.51.77s.21.64.51.77v.79c-.17-.57-.54-1.52-1.31-2.3-.91-.91-2.1-1.28-2.57-1.39-.1-.02-.19.06-.16.16.12.47.48,1.66,1.39,2.57.98.98,2.27,1.33,2.66,1.41v.63c-.15-.25-.41-.43-.72-.43-.47,0-.84.38-.84.84s.38.84.84.84c.31,0,.57-.18.72-.43v2.13c0,.19.15.34.34.34s.34-.15.34-.34v-2.13c.15.25.41.43.72.43.47,0,.84-.38.84-.84s-.38-.84-.84-.84c-.31,0-.58.18-.72.43v-.63c.38-.08,1.67-.43,2.66-1.41Z"/>
  </g>
</svg>