<?xml version="1.0" encoding="UTF-8"?>
<svg xmlns="http://www.w3.org/2000/svg" viewBox="0 0 15.59 15.59">
  <defs>
    <style>
      .cls-1 {
        fill: #071f39;
      }

      .cls-1, .cls-2 {
        stroke-width: 0px;
      }

      .cls-2 {
        fill: #fff;
      }
    </style>
  </defs>
  <g id="Cirkel">
    <rect class="cls-1" x=".02" y="0" width="15.55" height="15.55" rx="7.78" ry="7.78"/>
  </g>
  <g id="ICONS">
    <path class="cls-2" d="M11.95,10.8c-.31-.67-.62-1.34-.93-2-.06-.14-.13-.28-.19-.42,0-.02-.01-.04-.03-.06-.42-.91-.84-1.81-1.26-2.72-.11-.24-.23-.49-.34-.73-.1-.22-.47-.24-.6-.04h-2.13c-.14-.19-.5-.18-.6.04-.3.67-.6,1.33-.9,2,0,0,0,0,0,0h.79c.13-.3.27-.6.4-.9,0-.02.01-.03.02-.05.2.44.41.88.61,1.31l1.48,3.19c.11.24.23.49.34.73.08.18.34.22.5.13.18-.11.21-.32.13-.5-.05-.11-.1-.22-.15-.32h1.91c.11.23.21.46.32.69.08.18.34.22.5.13.18-.11.21-.32.13-.5ZM8.89,5.92c.11.24.22.48.33.72h-.66c.11-.24.22-.48.32-.72ZM6.84,5.6c-.05-.11-.1-.21-.15-.32h1.7c-.19.42-.38.85-.57,1.27-.01.03-.02.06-.03.09h-.47c-.16-.35-.32-.69-.48-1.04ZM8.05,8.23c-.17-.38-.35-.75-.52-1.13h1.91s.04.09.07.14c.15.33.31.66.46.99h-1.91ZM9.04,10.02h-.16c-.19-.41-.38-.82-.57-1.22-.02-.04-.03-.07-.05-.11h1.91c.21.45.41.89.62,1.34h-1.75Z"/>
    <g>
      <path class="cls-2" d="M7.2,8.99l-.05-.11H3.03c-.51,0-1.02-.02-1.53,0,0,0-.01,0-.02,0-.2,0-.2.3,0,.3h5.82l-.09-.19Z"/>
      <path class="cls-2" d="M14.11,8.87h-2.65l.14.3h.96c.51,0,1.02.02,1.53,0,0,0,.01,0,.02,0,.2,0,.2-.3,0-.3Z"/>
    </g>
    <g>
      <path class="cls-2" d="M14.11,7.86h-3.12l.13.29s0,0,0,.01h1.42c.51,0,1.02.02,1.53,0,0,0,.01,0,.02,0,.2,0,.2-.3,0-.3Z"/>
      <path class="cls-2" d="M6.68,7.86h-3.65c-.51,0-1.02-.02-1.53,0,0,0-.01,0-.02,0-.2,0-.2.3,0,.3h5.35l-.14-.3Z"/>
    </g>
    <path class="cls-2" d="M3.05,6.5v3.75c0,.39.61.39.61,0v-3.75c0-.39-.61-.39-.61,0h0Z"/>
    <path class="cls-2" d="M12.98,6.5v3.75c0,.39.61.39.61,0v-3.75c0-.39-.61-.39-.61,0h0Z"/>
    <g>
      <path class="cls-2" d="M14.11,6.85h-3.59l.11.24.03.06h1.89c.51,0,1.02.02,1.53,0,0,0,.01,0,.02,0,.2,0,.2-.3,0-.3Z"/>
      <path class="cls-2" d="M6.19,6.85h-3.16c-.51,0-1.02-.02-1.53,0,0,0-.01,0-.02,0-.2,0-.2.3,0,.3h4.88l-.14-.3h-.03Z"/>
    </g>
  </g>
</svg>