<?xml version="1.0" encoding="UTF-8"?>
<svg xmlns="http://www.w3.org/2000/svg" viewBox="0 0 15.59 15.59">
  <defs>
    <style>
      .cls-1 {
        fill: #071f39;
      }

      .cls-1, .cls-2 {
        stroke-width: 0px;
      }

      .cls-2 {
        fill: #fff;
      }
    </style>
  </defs>
  <g id="Cirkel">
    <rect class="cls-1" x="0" y="0" width="15.59" height="15.59" rx="7.8" ry="7.8"/>
  </g>
  <g id="ICONS">
    <g>
      <path class="cls-2" d="M4.42,10.91c.12.09.24.08.28.07.13-.01.24-.11.24-.11l2.25-1.74c.33.29.57.49.57.49,0,0-.05,1.57-.04,1.64,0,.04.01.13.08.22.02.03.11.14.27.16.15.01.25-.06.28-.08.03-.02.11-.09.15-.2,0-.03.01-.06.01-.08l.17-1.86s0-.07,0-.11c0-.06-.03-.11-.04-.14-.27-.51-.56-1.3-.56-1.3l.32-.73s.16.38.19.43c.03.06.07.09.09.11.34.25.69.49,1.03.74.03.02.11.06.22.04.09-.02.15-.06.16-.08.02-.01.07-.06.1-.14.03-.09.01-.17,0-.19-.02-.08-.07-.13-.09-.15-.31-.23-.62-.45-.92-.68-.12-.54-.23-1.08-.35-1.63,0-.05-.03-.13-.08-.21,0,0-.62-.34-.89-.36,0,0,0,0,0,0l-.51-.87s.29-.86.44-1.29c0-.03.02-.1,0-.18,0-.03-.03-.12-.11-.18-.08-.06-.16-.07-.2-.07-.03,0-.12,0-.21.06-.05.04-.08.09-.09.11-.02.04-.04.08-.04.1-.27.84-.37,1.15-.4,1.21-.02.04-.03.08-.05.16,0,.03-.02.06-.02.09,0,.05.01.08.02.11.02.06.05.13.08.2.13.33.37.98.52,1.35-.21.44-.39.89-.39.89-.25.63-.69,1.39-1.06,2.26-.54.48-.92.87-1.46,1.35-.03.03-.08.09-.1.18,0,.02-.03.12.01.24.04.11.12.18.14.19Z"/>
      <path class="cls-2" d="M8.2,4.1c-.08.42.2.82.61.9s.82-.2.9-.61c.08-.42-.2-.82-.61-.9-.42-.08-.82.2-.9.61Z"/>
      <path class="cls-2" d="M8.62,3c.32,0,.58-.26.58-.58s-.26-.58-.58-.58-.58.26-.58.58.26.58.58.58Z"/>
      <path class="cls-2" d="M11.6,12.16c-.46-.1-1.13-.25-1.13-.25l-.57.02-.96.04c-.07,0-.14.01-.2.04l-.75.24c-.16.05-.33.05-.48,0l-.8-.53c-.06-.02-.11-.03-.17-.04l-1.16-.11c-.06,0-.11,0-.17,0l-2.04.53s.03,0,.06-.01c-.02,0-.04,0-.06.01-.36.08-.34.69.01.69.35,0,8.01.06,8.44.06s.45-.59-.01-.69ZM3.28,12.08s.05-.01,0,0h0Z"/>
    </g>
  </g>
</svg>