<?xml version="1.0" encoding="UTF-8"?>
<svg xmlns="http://www.w3.org/2000/svg" viewBox="0 0 15.59 15.59">
  <defs>
    <style>
      .cls-1 {
        fill: #071f39;
      }

      .cls-1, .cls-2 {
        stroke-width: 0px;
      }

      .cls-2 {
        fill: #fff;
      }
    </style>
  </defs>
  <g id="Cirkel">
    <rect class="cls-1" x="0" y="0" width="15.59" height="15.59" rx="7.8" ry="7.8"/>
  </g>
  <g id="ICONS">
    <g>
      <path class="cls-2" d="M4.75,7.49h2.61c.09,0,.16-.07.15-.16-.07-.59-.43-2.72-1.94-3.92-.09-.07-.22-.02-.24.09l-.72,3.81c-.02.09.05.17.14.17Z"/>
      <path class="cls-2" d="M3.18,9.06c.23-.2.54-.42,1.08-.42.61,0,.94.29,1.18.49.2.18.31.27.58.27s.38-.1.58-.27c.24-.21.57-.49,1.18-.49.54,0,.86.23,1.09.42l.53-.56c.14-.21-.02-.47-.29-.47H2.99c-.25,0-.42.25-.29.46l.48.57Z"/>
      <path class="cls-2" d="M13.38,10.32c0-.19-.15-.34-.34-.34-.31,0-.45-.12-.66-.3-.24-.21-.53-.47-1.1-.47s-.86.26-1.1.47c-.21.18-.34.3-.66.3s-.45-.12-.66-.3c-.24-.21-.53-.47-1.1-.47s-.86.26-1.1.47c-.21.18-.34.3-.66.3s-.45-.12-.66-.3c-.24-.21-.54-.47-1.1-.47s-.86.26-1.1.47c-.21.18-.34.3-.66.3-.19,0-.34.15-.34.34s.15.34.34.34c.57,0,.86-.26,1.1-.47.21-.18.35-.3.66-.3s.45.12.66.3c.24.21.54.47,1.1.47s.86-.26,1.1-.47c.21-.18.34-.3.66-.3s.45.12.66.3c.24.21.53.47,1.1.47s.86-.26,1.1-.47c.21-.18.34-.3.66-.3s.45.12.65.3c.24.21.53.47,1.1.47.19,0,.34-.15.34-.34Z"/>
      <path class="cls-2" d="M9.92,9.33c.13,0,.23-.1.23-.23s-.1-.23-.23-.23-.23.1-.23.23.1.23.23.23Z"/>
      <path class="cls-2" d="M11.24,10.39c-.13,0-.23.1-.23.23s.1.23.23.23.23-.1.23-.23-.1-.23-.23-.23Z"/>
      <path class="cls-2" d="M11.92,11.07c-.13,0-.23.1-.23.23s.1.23.23.23.23-.1.23-.23-.1-.23-.23-.23Z"/>
      <path class="cls-2" d="M12.6,11.75c-.13,0-.23.1-.23.23s.1.23.23.23.23-.1.23-.23-.1-.23-.23-.23Z"/>
    </g>
  </g>
</svg>