<?xml version="1.0" encoding="UTF-8"?>
<svg xmlns="http://www.w3.org/2000/svg" viewBox="0 0 15.59 15.59">
  <defs>
    <style>
      .cls-1 {
        fill: #071f39;
      }

      .cls-1, .cls-2 {
        stroke-width: 0px;
      }

      .cls-2 {
        fill: #fff;
      }
    </style>
  </defs>
  <g id="Cirkel">
    <rect class="cls-1" x="0" y="0" width="15.59" height="15.59" rx="7.8" ry="7.8"/>
  </g>
  <g id="ICONS">
    <g>
      <path class="cls-2" d="M9.61,7.99s.09.01.14,0c.16-.02.27-.11.28-.26.01-.16-.07-.31-.28-.34l-1.3-.18c-.18-.03-.34.1-.36.28l-.49,1.92-1.99,1.38c.1.09.19.15.3.18h.41c.13-.04.22-.12.35-.23.23-.2.54-.47,1.12-.47s.9.27,1.13.47c.13.11.23.19.35.23h.2l-.64-2.96.77-.03Z"/>
      <path class="cls-2" d="M12.84,11.55c-.3,0-.43-.11-.63-.29-.23-.2-.51-.45-1.05-.45s-.83.25-1.05.45c-.2.17-.33.29-.63.29s-.43-.11-.63-.29c-.23-.2-.51-.45-1.05-.45s-.83.25-1.05.45c-.2.17-.33.29-.63.29s-.43-.11-.63-.29c-.23-.2-.51-.45-1.06-.45s-.83.25-1.06.45c-.2.17-.33.29-.63.29-.18,0-.32.15-.32.32s.15.32.32.32c.54,0,.83-.25,1.06-.45.2-.17.33-.29.63-.29s.43.11.63.29c.23.2.51.45,1.06.45s.83-.25,1.05-.45c.2-.17.33-.29.63-.29s.43.11.63.29c.23.2.51.45,1.05.45s.83-.25,1.05-.45c.2-.17.33-.29.63-.29s.43.11.63.29c.23.2.51.45,1.05.45.18,0,.32-.15.32-.32s-.15-.32-.32-.32Z"/>
      <path class="cls-2" d="M2.95,5.86c.08,0,.15-.02.22-.06l4.63-2.77,4.63,2.77c.2.12.47.06.59-.15s.06-.47-.15-.59l-4.85-2.91c-.14-.08-.31-.08-.44,0l-4.85,2.91c-.2.12-.27.39-.15.59.08.13.22.21.37.21Z"/>
      <path class="cls-2" d="M10.36,9.89c.39-.09.62-.48.53-.87-.09-.39-.48-.62-.87-.53-.39.09-.62.48-.53.87.09.39.48.62.87.53Z"/>
    </g>
  </g>
</svg>