<?xml version="1.0" encoding="UTF-8"?>
<svg xmlns="http://www.w3.org/2000/svg" viewBox="0 0 15.59 15.59">
  <defs>
    <style>
      .cls-1 {
        fill: #021e3a;
      }

      .cls-1, .cls-2 {
        stroke-width: 0px;
      }

      .cls-2 {
        fill: #fff;
      }
    </style>
  </defs>
  <g id="Cirkel">
    <rect class="cls-1" x="0" y="0" width="15.59" height="15.59" rx="7.8" ry="7.8"/>
  </g>
  <g id="ICONS">
    <path class="cls-2" d="M12.81,11.94l-4.63-7.9.79-1.37c.09-.15.03-.34-.12-.43-.15-.09-.34-.03-.43.12l-.61,1.06h0s-.01.02-.01.02l-.62-1.08c-.09-.15-.28-.2-.43-.12-.15.09-.2.28-.12.43l.8,1.39-4.64,7.88c-.07.11.01.25.14.25h2.64c.06,0,.12-.03.15-.09l1.54-2.85c.23-.43.85-.43,1.08,0l1.53,2.84c.03.05.09.09.15.09h2.64c.13,0,.21-.14.14-.25Z"/>
  </g>
</svg>