<?xml version="1.0" encoding="UTF-8"?>
<svg xmlns="http://www.w3.org/2000/svg" viewBox="0 0 15.59 15.59">
  <defs>
    <style>
      .cls-1 {
        fill: #fff;
        fill-rule: evenodd;
      }

      .cls-1, .cls-2 {
        stroke-width: 0px;
      }

      .cls-2 {
        fill: #071f39;
      }
    </style>
  </defs>
  <g id="Cirkel">
    <rect class="cls-2" x="0" y="0" width="15.59" height="15.59" rx="7.8" ry="7.8"/>
  </g>
  <g id="ICONS">
    <path class="cls-1" d="M3.56,4.62c.75-.1,1.34.65,1.08,1.36-.75.1-1.34-.65-1.08-1.36M2.85,6.97c.3-.69,1.25-.81,1.72-.22-.3.69-1.25.81-1.72.22ZM6.08,4.49c.44.61.06,1.49-.68,1.59-.44-.61-.06-1.49.68-1.59ZM12.03,4.62c.27.7-.33,1.46-1.08,1.36-.27-.7.33-1.46,1.08-1.36ZM12.74,6.97c-.3-.69-1.25-.81-1.72-.22.3.69,1.25.81,1.72.22ZM9.51,4.49c.75.1,1.12.98.68,1.59-.75-.1-1.12-.98-.68-1.59ZM7.8,3.45c.65-.39.65-1.35,0-1.73-.65.39-.65,1.35,0,1.73ZM9.84,3.2c-.04.75-.89,1.2-1.53.81.04-.75.89-1.2,1.53-.81ZM5.75,3.2c.64-.39,1.49.06,1.53.81-.64.39-1.49-.06-1.53-.81ZM7.8,3.71c-.1,0-.2.07-.22.22l-.47,4.26-1.96-1.95c-.11-.1-.23-.1-.31-.03-.08.06-.11.18-.04.31l2.12,3.44-.4,3.58c-.02.17.05.32.24.33h2.09c.19-.01.26-.16.24-.33l-.4-3.58,2.12-3.44c.07-.13.04-.25-.04-.31-.08-.06-.2-.07-.31.03l-1.96,1.95-.47-4.26c-.02-.15-.12-.22-.22-.22Z"/>
  </g>
</svg>