<?xml version="1.0" encoding="UTF-8"?>
<svg xmlns="http://www.w3.org/2000/svg" viewBox="0 0 15.59 15.59">
  <defs>
    <style>
      .cls-1 {
        fill: #071f39;
      }

      .cls-1, .cls-2 {
        stroke-width: 0px;
      }

      .cls-2 {
        fill: #fff;
      }
    </style>
  </defs>
  <g id="Cirkel">
    <rect class="cls-1" x="0" y="0" width="15.59" height="15.59" rx="7.8" ry="7.8"/>
  </g>
  <g id="ICONS">
    <g>
      <path class="cls-2" d="M12.47,10.73c.2,0,.36-.16.36-.36s-.16-.36-.36-.36h-2.54c-.2,0-.36.16-.36.36s.16.36.36.36h.91v1.32h-2.6v-3.1h1.78c.25,0,.45-.2.45-.45s-.2-.45-.45-.45h-4.47c-.25,0-.45.2-.45.45s.2.45.45.45h1.78v3.1h-2.69v-1.32h.91c.2,0,.36-.16.36-.36s-.16-.36-.36-.36h-2.54c-.2,0-.36.16-.36.36s.16.36.36.36h.91v1.32h-.86c-.2,0-.36.16-.36.36s.16.36.36.36h9.4c.2,0,.36-.16.36-.36s-.16-.36-.36-.36h-.91v-1.32h.91Z"/>
      <path class="cls-2" d="M13.09,5.32l-5.07-3.04c-.14-.09-.32-.09-.46,0l-5.07,3.04c-.21.13-.28.41-.16.62.13.21.41.28.62.16l4.83-2.9,4.83,2.9c.07.04.15.06.23.06.15,0,.3-.08.39-.22.13-.21.06-.49-.16-.62Z"/>
    </g>
  </g>
</svg>