<?xml version="1.0" encoding="UTF-8"?>
<svg xmlns="http://www.w3.org/2000/svg" viewBox="0 0 15.59 15.59">
  <defs>
    <style>
      .cls-1 {
        fill: #071f39;
      }

      .cls-1, .cls-2 {
        stroke-width: 0px;
      }

      .cls-2 {
        fill: #fff;
      }
    </style>
  </defs>
  <g id="Cirkel">
    <rect class="cls-1" x="0" y="0" width="15.59" height="15.59" rx="7.8" ry="7.8"/>
  </g>
  <g id="ICONS">
    <g>
      <path class="cls-2" d="M4.98,4.34c.56,0,1.02-.45,1.02-1.02s-.45-1.02-1.02-1.02-1.02.45-1.02,1.02.45,1.02,1.02,1.02"/>
      <path class="cls-2" d="M10.35,4.34c.56,0,1.02-.45,1.02-1.02s-.45-1.02-1.02-1.02-1.02.45-1.02,1.02.45,1.02,1.02,1.02"/>
      <path class="cls-2" d="M5.99,4.7h-1.96c-.62,0-1.12.48-1.12,1.08l.19,3.26c0,.48.32.88.77,1.02.07.02.13.09.13.16l.28,2.41c.03.37.35.66.73.66h0c.39,0,.71-.29.73-.66l.28-2.41c0-.07.06-.14.13-.16.45-.14.77-.55.77-1.02l.19-3.26c0-.6-.5-1.08-1.12-1.08"/>
      <path class="cls-2" d="M12.66,9.81l-.91-3.88c-.08-.6-.7-1.03-1.39-1.03s-1.31.43-1.39,1.03l-.9,3.88c-.16.76.37,1.39.82,1.39h.56l.16,1.43c.03.37.35.66.73.66s.7-.28.73-.66l.16-1.43h.57c.46,0,.95-.66.82-1.39Z"/>
    </g>
  </g>
</svg>