<?xml version="1.0" encoding="UTF-8"?>
<svg xmlns="http://www.w3.org/2000/svg" viewBox="0 0 15.59 15.59">
  <defs>
    <style>
      .cls-1 {
        fill: #071f39;
      }

      .cls-1, .cls-2 {
        stroke-width: 0px;
      }

      .cls-2 {
        fill: #fff;
      }
    </style>
  </defs>
  <g id="Cirkel">
    <rect class="cls-1" x="0" y="0" width="15.59" height="15.59" rx="7.8" ry="7.8"/>
  </g>
  <g id="ICONS">
    <g>
      <path class="cls-2" d="M12.82,11.63c-.3,0-.43-.11-.62-.29-.23-.2-.51-.44-1.05-.44s-.82.25-1.05.44c-.2.17-.33.29-.63.29s-.43-.11-.63-.29c-.23-.2-.51-.44-1.05-.44s-.82.25-1.05.44c-.2.17-.33.29-.63.29s-.43-.11-.63-.29c-.23-.2-.51-.44-1.05-.44s-.82.25-1.05.44c-.2.17-.33.29-.63.29-.18,0-.32.14-.32.32s.14.32.32.32c.54,0,.82-.25,1.05-.44.2-.17.33-.29.63-.29s.43.11.63.29c.23.2.51.44,1.05.44s.82-.25,1.05-.44c.2-.17.33-.29.63-.29s.43.11.63.29c.23.2.51.44,1.05.44s.82-.25,1.05-.44c.2-.17.33-.29.63-.29s.43.11.62.29c.23.2.51.44,1.05.44.18,0,.32-.14.32-.32s-.14-.32-.32-.32Z"/>
      <path class="cls-2" d="M13.89,7.43l-5.52-.02v-.06s.15-1.52.15-1.52l2.1,1.17c.2.13.46.08.6-.12.13-.2.08-.42-.12-.55l-2.78-1.9c-.06-.04-.14-.07-.21-.07l-1.16-.06c-.08,0-.16.01-.23.05l-1.78,1.01c-.18.09-.26.3-.21.49l.22.91c.05.19.15.32.34.32.04,0,.07,0,.11-.02.23-.06.32-.3.25-.53l-.04-.58.75-.32-.07,1.54-.04.24-4.56-.02h0c-.18,0-.32.14-.32.32,0,.18.14.32.32.32h2.65v2.24s.06-.01.09-.01c.58,0,.89.27,1.12.47.19.17.3.26.56.26s.36-.09.55-.26c.23-.2.54-.47,1.12-.47s.89.27,1.12.47c.19.17.3.26.55.26s.36-.09.55-.26c.23-.2.54-.47,1.12-.47.03,0,.05,0,.08,0v-2.19h2.65s0,.01,0,.01c.18,0,.32-.14.32-.32,0-.18-.14-.32-.32-.32Z"/>
      <path class="cls-2" d="M7.66,4.08c.43,0,.78-.35.78-.78s-.35-.78-.78-.78-.78.35-.78.78.35.78.78.78Z"/>
    </g>
  </g>
</svg>