<?xml version="1.0" encoding="UTF-8"?>
<svg xmlns="http://www.w3.org/2000/svg" viewBox="0 0 15.59 15.59">
  <defs>
    <style>
      .cls-1 {
        fill: #071f39;
      }

      .cls-1, .cls-2 {
        stroke-width: 0px;
      }

      .cls-2 {
        fill: #fff;
      }
    </style>
  </defs>
  <g id="Cirkel">
    <rect class="cls-1" x="0" y="0" width="15.59" height="15.59" rx="7.8" ry="7.8"/>
  </g>
  <g id="ICONS">
    <g>
      <path class="cls-2" d="M9.58,12.51h-.79v-3.78s0-.03,0-.05,0-.03,0-.05v-.05h-.01c-.05-.16-.18-.27-.35-.27h-2.13c-.21,0-.38.17-.38.38s.17.38.38.38h.5v3.45h-.79c-.21,0-.38.17-.38.38s.17.38.38.38h3.57c.21,0,.38-.17.38-.38s-.17-.38-.38-.38Z"/>
      <path class="cls-2" d="M8.79,6.5c0-.55-.45-.99-.99-.99s-1,.45-1,.99.45,1,1,1,.99-.45.99-1Z"/>
      <path class="cls-2" d="M13.67,5.27l-5.62-3.37c-.16-.1-.36-.1-.51,0L1.92,5.27c-.24.14-.31.45-.17.69.09.16.26.24.43.24.09,0,.18-.02.26-.07l5.36-3.21,5.36,3.21c.24.14.54.06.69-.17s.07-.54-.17-.69Z"/>
    </g>
  </g>
</svg>