<?xml version="1.0" encoding="UTF-8"?>
<svg xmlns="http://www.w3.org/2000/svg" viewBox="0 0 15.59 15.59">
  <defs>
    <style>
      .cls-1 {
        fill: #071f39;
      }

      .cls-1, .cls-2 {
        stroke-width: 0px;
      }

      .cls-2 {
        fill: #fff;
      }
    </style>
  </defs>
  <g id="Cirkel">
    <rect class="cls-1" x="0" y="0" width="15.59" height="15.59" rx="7.8" ry="7.8"/>
  </g>
  <g id="ICONS">
    <path class="cls-2" d="M12.51,3.09c-.28,0-.5.22-.5.5v.7h-3.37v-.7c0-.28-.22-.5-.5-.5s-.5.22-.5.5v2.12H3.47v-.26c0-.28-.22-.5-.5-.5s-.5.22-.5.5v6.56c0,.28.22.5.5.5s.5-.22.5-.5v-5.55h4.16v5.55c0,.28.22.5.5.5s.5-.22.5-.5v-1.3h3.37v1.3c0,.28.22.5.5.5s.5-.22.5-.5V3.59c0-.28-.22-.5-.5-.5ZM8.64,5.04h3.37v.67h-3.37v-.67ZM8.64,7.87h3.37v.67h-3.37v-.67ZM12.01,6.45v.67h-3.37v-.67h3.37ZM8.64,9.29h3.37v.67h-3.37v-.67Z"/>
  </g>
</svg>