<?xml version="1.0" encoding="UTF-8"?>
<svg xmlns="http://www.w3.org/2000/svg" viewBox="0 0 15.59 15.59">
  <defs>
    <style>
      .cls-1 {
        stroke-width: .75px;
      }

      .cls-1, .cls-2 {
        stroke-linejoin: round;
      }

      .cls-1, .cls-2, .cls-3 {
        fill: none;
        stroke: #fff;
      }

      .cls-4 {
        fill: #021e3a;
      }

      .cls-4, .cls-5 {
        stroke-width: 0px;
      }

      .cls-2, .cls-3 {
        stroke-linecap: round;
        stroke-width: .5px;
      }

      .cls-3 {
        stroke-miterlimit: 10;
      }

      .cls-5 {
        fill: #fff;
      }
    </style>
  </defs>
  <g id="Cirkel">
    <rect class="cls-4" x="0" y="0" width="15.59" height="15.59" rx="7.8" ry="7.8"/>
  </g>
  <g id="ICONS">
    <polyline class="cls-1" points="7.03 7.74 7.03 6.72 3.39 6.72 3.39 13.27"/>
    <path class="cls-5" d="M6.03,8.04h2.01c.34,0,.62.28.62.62v.26h-3.24v-.26c0-.34.28-.62.62-.62Z"/>
    <rect class="cls-5" x="4.85" y="9.25" width="4.36" height=".9" rx=".31" ry=".31"/>
    <line class="cls-2" x1="5.31" y1="10.79" x2="5.31" y2="10.79"/>
    <line class="cls-2" x1="6.46" y1="10.79" x2="6.46" y2="10.79"/>
    <line class="cls-2" x1="7.6" y1="10.79" x2="7.6" y2="10.79"/>
    <line class="cls-2" x1="8.75" y1="10.79" x2="8.75" y2="10.79"/>
    <line class="cls-2" x1="5.31" y1="11.85" x2="5.31" y2="11.85"/>
    <line class="cls-2" x1="6.46" y1="11.85" x2="6.46" y2="11.85"/>
    <line class="cls-2" x1="7.6" y1="11.85" x2="7.6" y2="11.85"/>
    <line class="cls-2" x1="8.75" y1="11.85" x2="8.75" y2="11.85"/>
    <line class="cls-2" x1="5.31" y1="12.91" x2="5.31" y2="12.91"/>
    <line class="cls-2" x1="6.46" y1="12.91" x2="6.46" y2="12.91"/>
    <line class="cls-2" x1="7.6" y1="12.91" x2="7.6" y2="12.91"/>
    <line class="cls-2" x1="8.75" y1="12.91" x2="8.75" y2="12.91"/>
    <circle class="cls-5" cx="10.68" cy="4.88" r="1"/>
    <line class="cls-3" x1="8.22" y1="4.88" x2="8.82" y2="4.88"/>
    <line class="cls-3" x1="12.54" y1="4.88" x2="13.14" y2="4.88"/>
    <line class="cls-3" x1="8.94" y1="6.62" x2="9.37" y2="6.2"/>
    <line class="cls-3" x1="12" y1="3.57" x2="12.42" y2="3.14"/>
    <line class="cls-3" x1="10.68" y1="7.34" x2="10.68" y2="6.74"/>
    <line class="cls-3" x1="10.68" y1="3.02" x2="10.68" y2="2.42"/>
    <line class="cls-3" x1="12.42" y1="6.62" x2="12" y2="6.2"/>
    <line class="cls-3" x1="9.37" y1="3.57" x2="8.94" y2="3.14"/>
  </g>
</svg>