<?xml version="1.0" encoding="UTF-8"?>
<svg xmlns="http://www.w3.org/2000/svg" viewBox="0 0 15.59 15.59">
  <defs>
    <style>
      .cls-1 {
        fill: #071f39;
      }

      .cls-1, .cls-2 {
        stroke-width: 0px;
      }

      .cls-2 {
        fill: #fff;
      }
    </style>
  </defs>
  <g id="Cirkel">
    <rect class="cls-1" x="0" y="0" width="15.59" height="15.59" rx="7.8" ry="7.8"/>
  </g>
  <g id="ICONS">
    <path class="cls-2" d="M12.85,7.89h0s-.03-.07-.03-.07l-.73-1.67h0c-.3-.69-.94-1.2-1.71-1.32l-.16-.28c-.22-.38-.71-.55-1.18-.37-.46.17-.71.61-.65,1.03l.05.27c-.08.09-.16.18-.23.28-.03-.02-.06-.04-.1-.06-.24-.08-.48-.04-.68.08-.07-.11-.16-.21-.25-.3l.05-.27c.07-.42-.18-.86-.65-1.03-.47-.18-.96,0-1.18.37l-.16.28c-.77.12-1.41.62-1.71,1.32h0s-.73,1.67-.73,1.67l-.03.07h0c-.15.32-.25.67-.25,1.05,0,1.41,1.14,2.55,2.55,2.55,1.29,0,2.34-.97,2.51-2.22h0s.02-.14.02-.14l.07-.65c.1.02.2.02.29,0l.07.63.02.16h0c.16,1.25,1.21,2.22,2.51,2.22,1.41,0,2.55-1.15,2.55-2.55,0-.38-.1-.73-.25-1.05ZM5.04,10.49c-.85,0-1.55-.7-1.55-1.55s.69-1.55,1.55-1.55,1.55.69,1.55,1.55-.7,1.55-1.55,1.55ZM10.55,10.49c-.85,0-1.55-.7-1.55-1.55s.7-1.55,1.55-1.55,1.55.69,1.55,1.55-.69,1.55-1.55,1.55Z"/>
  </g>
</svg>