<?xml version="1.0" encoding="UTF-8"?>
<svg xmlns="http://www.w3.org/2000/svg" viewBox="0 0 15.59 15.59">
  <defs>
    <style>
      .cls-1 {
        fill: #021e3a;
      }

      .cls-1, .cls-2 {
        stroke-width: 0px;
      }

      .cls-2 {
        fill: #fff;
      }
    </style>
  </defs>
  <g id="Cirkel">
    <rect class="cls-1" x="0" y="0" width="15.59" height="15.59" rx="7.8" ry="7.8"/>
  </g>
  <g id="ICONS">
    <g>
      <path class="cls-2" d="M13.04,9.39c0-.38-.31-.68-.68-.68s-.68.31-.68.68c0,.15.06.28.14.39-.22.3-.77.88-1.82.88-.85,0-1.42-.47-1.71-.8.12-.12.2-.29.2-.48,0-.38-.31-.68-.68-.68s-.68.31-.68.68c0,.18.07.34.19.46-.25.31-.79.81-1.77.81-.91,0-1.5-.55-1.77-.86.09-.12.15-.25.15-.41,0-.38-.31-.68-.68-.68s-.68.31-.68.68c0,.26.15.48.37.6,0,.03-.02.06-.02.09v2.52c0,.19.15.34.34.34s.34-.15.34-.34v-2.04c.42.38,1.07.78,1.97.78s1.52-.34,1.93-.69v1.94c0,.19.15.34.34.34s.34-.15.34-.34v-1.94c.42.35,1.04.69,1.86.69.99,0,1.64-.4,2.03-.79v2.04c0,.19.15.34.34.34s.34-.15.34-.34v-2.52s0-.06-.02-.09c.21-.12.37-.33.37-.6Z"/>
      <path class="cls-2" d="M4.35,7.98h7.16c.19,0,.34-.15.34-.34V2.99c0-.19-.15-.34-.34-.34h-7.16c-.19,0-.34.15-.34.34v4.65c0,.19.15.34.34.34ZM4.69,3.33h6.49v3.98h-6.49v-3.98Z"/>
    </g>
  </g>
</svg>