<?xml version="1.0" encoding="UTF-8"?>
<svg xmlns="http://www.w3.org/2000/svg" viewBox="0 0 15.59 15.59">
  <defs>
    <style>
      .cls-1 {
        fill: #071f39;
      }

      .cls-1, .cls-2 {
        stroke-width: 0px;
      }

      .cls-2 {
        fill: #fff;
      }
    </style>
  </defs>
  <g id="Cirkel">
    <rect class="cls-1" x="0" y="0" width="15.59" height="15.59" rx="7.8" ry="7.8"/>
  </g>
  <g id="ICONS">
    <g>
      <path class="cls-2" d="M5.8,8.03h3.74c.13,0,.22-.11.21-.23-.1-.85-.61-3.9-2.78-5.61-.12-.1-.31-.02-.34.13l-1.03,5.46c-.02.13.07.25.21.25Z"/>
      <path class="cls-2" d="M3.55,10.27c.22-.14.49-.27.89-.27.62,0,.96.29,1.2.51.21.18.32.28.6.28s.39-.1.6-.28c.24-.21.58-.51,1.2-.51s.96.29,1.2.51c.21.18.32.28.59.28s.39-.1.59-.28c.24-.21.58-.51,1.2-.51.11,0,.21.02.31.04l.53-.55c.2-.3-.03-.68-.41-.68H3.28c-.36,0-.6.36-.42.66l.69.81Z"/>
      <path class="cls-2" d="M13.42,11.37c-.32,0-.46-.12-.67-.31-.24-.21-.55-.48-1.12-.48s-.88.26-1.12.48c-.21.18-.35.31-.67.31s-.46-.12-.67-.31c-.24-.21-.55-.48-1.12-.48s-.88.26-1.12.48c-.21.18-.35.31-.67.31s-.46-.12-.67-.31c-.24-.21-.55-.48-1.13-.48s-.88.26-1.13.48c-.21.18-.35.31-.67.31-.19,0-.35.15-.35.35s.15.35.35.35c.58,0,.88-.26,1.13-.48.21-.18.35-.31.67-.31s.46.12.67.31c.24.21.55.48,1.13.48s.88-.26,1.12-.48c.21-.18.35-.31.67-.31s.46.12.67.31c.24.21.55.48,1.12.48s.88-.26,1.12-.48c.21-.18.35-.31.67-.31s.46.12.67.31c.24.21.55.48,1.12.48.19,0,.35-.15.35-.35s-.15-.35-.35-.35Z"/>
    </g>
  </g>
</svg>