<?xml version="1.0" encoding="UTF-8"?>
<svg xmlns="http://www.w3.org/2000/svg" viewBox="0 0 15.59 15.59">
  <defs>
    <style>
      .cls-1 {
        fill: #071f39;
      }

      .cls-1, .cls-2 {
        stroke-width: 0px;
      }

      .cls-2 {
        fill: #fff;
      }
    </style>
  </defs>
  <g id="Cirkel">
    <rect class="cls-1" x="0" y="0" width="15.59" height="15.59" rx="7.8" ry="7.8"/>
  </g>
  <g id="ICONS">
    <path class="cls-2" d="M12.99,6.49c-.31,0-.45-.12-.66-.3-.24-.21-.54-.47-1.11-.47s-.87.26-1.11.47c-.21.18-.35.3-.66.3s-.45-.12-.66-.3c-.24-.21-.54-.47-1.11-.47-.18,0-.33.03-.47.08l-2.28-2.28c-.25-.25-.65-.25-.9,0s-.25.65,0,.9l2.05,2.05c-.06.01-.11.02-.19.02-.32,0-.46-.12-.67-.3-.24-.21-.54-.47-1.11-.47s-.87.26-1.11.47c-.21.18-.35.3-.66.3-.19,0-.34.15-.34.34s.15.34.34.34c.57,0,.87-.26,1.11-.47.21-.18.35-.3.67-.3s.45.12.66.3c.24.21.54.47,1.11.47.3,0,.53-.08.71-.18l1.25,1.25c.12.12.29.19.45.19.04,0,.09-.02.13-.03l2.64,2.64c-.11.02-.21.1-.25.21-.07.17.01.37.19.45l1.28.53s.09.03.13.03c.11,0,.22-.06.28-.15.09-.14.07-.32-.04-.43l-3.75-3.75c.04-.2,0-.42-.16-.58l-.93-.93c.21.04.34.14.5.29.24.21.54.47,1.11.47s.87-.26,1.11-.47c.21-.18.35-.3.66-.3s.45.12.66.3c.24.21.54.47,1.11.47.19,0,.34-.15.34-.34s-.15-.34-.34-.34Z"/>
  </g>
</svg>