<?xml version="1.0" encoding="UTF-8"?>
<svg xmlns="http://www.w3.org/2000/svg" viewBox="0 0 15.59 15.59">
  <defs>
    <style>
      .cls-1 {
        fill: #071f39;
      }

      .cls-1, .cls-2 {
        stroke-width: 0px;
      }

      .cls-2 {
        fill: #fff;
      }
    </style>
  </defs>
  <g id="Cirkel">
    <rect class="cls-1" x="0" y="0" width="15.59" height="15.59" rx="7.8" ry="7.8"/>
  </g>
  <g id="ICONS">
    <g>
      <path class="cls-2" d="M8.9,7.51c.06.11.17.18.3.18l2.98.11h.01c.15,0,.29-.1.34-.24.05-.15,0-.32-.14-.4-.27-.19-2.59-1.75-3.71-1.94l-.88-1.14c-.11-.15-.32-.18-.48-.08-.15.1-.2.31-.11.47l1.7,3.04Z"/>
      <path class="cls-2" d="M13.03,8.32l-4.09-.21-.07.06c-1,.81-1.73,1.11-2.09,1.21v-.56h.11c.26,0,.47-.21.47-.47s-.21-.47-.47-.47h-3.91c-.26,0-.47.21-.47.47s.21.47.47.47h.09v.85c-.8.11-1.23.53-1.46.87-.09.14-.1.32-.02.46.08.14.23.23.39.23h0l9.05-.11c.06-.01,1.38-.32,2.49-.92.42-.23.51-.5.51-.7,0-.6-.84-1.1-1.01-1.19Z"/>
    </g>
  </g>
</svg>