<?xml version="1.0" encoding="UTF-8"?>
<svg xmlns="http://www.w3.org/2000/svg" viewBox="0 0 15.59 15.59">
  <defs>
    <style>
      .cls-1 {
        fill: #071f39;
      }

      .cls-1, .cls-2 {
        stroke-width: 0px;
      }

      .cls-2 {
        fill: #fff;
      }
    </style>
  </defs>
  <g id="Cirkel">
    <rect class="cls-1" x="0" y="0" width="15.59" height="15.59" rx="7.8" ry="7.8"/>
  </g>
  <g id="ICONS">
    <g>
      <path class="cls-2" d="M12.48,8.03h-.2v-1.76c0-.12-.09-.21-.21-.21h-2.55c-.12,0-.21.09-.21.21v1.76h-.13c-.12,0-.21.09-.21.21v1.05c0,.12.09.21.21.21h.22c-.1.74-.74,1.32-1.51,1.32s-1.41-.58-1.51-1.32h.28c.12,0,.21-.09.21-.21v-1.05c0-.12-.09-.21-.21-.21h-.27c-.1-2.06-1.66-3.8-3.73-4.11-.06,0-.12,0-.17.05-.05.04-.07.1-.07.16v2.49c0,.09.05.17.14.2.53.2.89.68.97,1.22h-.17c-.12,0-.21.09-.21.21v1.05c0,.12.09.21.21.21h.17c.11,2.32,2.02,4.17,4.36,4.17s4.25-1.85,4.36-4.17h.23c.12,0,.21-.09.21-.21v-1.05c0-.12-.09-.21-.21-.21ZM9.73,6.48h2.13v1.52h-2.13v-1.52ZM6.44,9.08h-.3s0,0,0,0h-2.43s0,0,0,0h-.15v-.63h2.88v.63ZM2.84,6.47v-2.1c1.74.37,3.05,1.88,3.14,3.65h-2.02c-.07-.67-.5-1.27-1.12-1.55ZM7.88,13.25c-2.11,0-3.85-1.66-3.96-3.75h2.02c.11.98.93,1.74,1.94,1.74s1.83-.76,1.94-1.74h2.02c-.11,2.09-1.84,3.75-3.96,3.75ZM12.27,9.08h-.21s0,0,0,0h-2.43s0,0,0,0h-.24v-.63h2.88v.63Z"/>
      <path class="cls-2" d="M10.73,4.29c.09-.16.2-.32.32-.47.21-.29.42-.56.42-.85,0-.44-.33-.8-.73-.8s-.73.36-.73.8c0,.28.2.56.42.85.11.15.23.31.32.47Z"/>
      <path class="cls-2" d="M9.74,5.24c.19.03.38.06.56.11-.05-.18-.08-.37-.11-.56-.05-.36-.1-.69-.3-.89-.31-.31-.8-.33-1.08-.05s-.27.77.05,1.08c.2.2.54.25.89.3Z"/>
      <path class="cls-2" d="M11.23,5.35c.18-.05.37-.08.56-.11.36-.05.69-.1.89-.3.31-.31.33-.8.05-1.08s-.77-.27-1.08.05c-.2.2-.25.54-.3.89-.03.19-.06.38-.11.56Z"/>
    </g>
  </g>
</svg>