<?xml version="1.0" encoding="UTF-8"?>
<svg xmlns="http://www.w3.org/2000/svg" viewBox="0 0 15.59 15.59">
  <defs>
    <style>
      .cls-1 {
        fill: #071f39;
      }

      .cls-1, .cls-2 {
        stroke-width: 0px;
      }

      .cls-2 {
        fill: #fff;
      }
    </style>
  </defs>
  <g id="Cirkel">
    <rect class="cls-1" x="0" y="0" width="15.59" height="15.59" rx="7.8" ry="7.8"/>
  </g>
  <g id="ICONS">
    <g>
      <path class="cls-2" d="M10.11,6.13l-1.58-.6v-.28c0-.06-.04-.12-.1-.13l-1.79-.56c-.02-.13-.13-.24-.27-.24-.16,0-.28.13-.28.28v4.83c0,.16.13.28.28.28s.28-.13.28-.28v-2.31l1.53-.48v.28s.02.09.06.12c.02.02.05.02.08.02.02,0,.03,0,.05,0l1.74-.66c.05-.02.09-.07.09-.13s-.04-.11-.09-.13Z"/>
      <path class="cls-2" d="M10.1,1.97h-4.36c-.62,0-1.13.51-1.13,1.13v9.39c0,.62.51,1.13,1.13,1.13h4.36c.62,0,1.13-.51,1.13-1.13V3.1c0-.62-.51-1.13-1.13-1.13ZM10.79,12.49c0,.38-.31.7-.7.7h-4.36c-.38,0-.7-.31-.7-.7v-1.11h5.75v1.11ZM10.79,10.95h-5.75V3.1c0-.38.31-.7.7-.7h4.36c.38,0,.7.31.7.7v7.85Z"/>
      <path class="cls-2" d="M7.3,12.49h1.24c.12,0,.22-.1.22-.22s-.1-.22-.22-.22h-1.24c-.12,0-.22.1-.22.22s.1.22.22.22Z"/>
    </g>
  </g>
</svg>