<?xml version="1.0" encoding="UTF-8"?>
<svg xmlns="http://www.w3.org/2000/svg" viewBox="0 0 15.59 15.59">
  <defs>
    <style>
      .cls-1 {
        fill: #071f39;
      }

      .cls-1, .cls-2 {
        stroke-width: 0px;
      }

      .cls-2 {
        fill: #fff;
      }
    </style>
  </defs>
  <g id="Cirkel">
    <rect class="cls-1" x="0" y="0" width="15.59" height="15.59" rx="7.8" ry="7.8"/>
  </g>
  <g id="ICONS">
    <g>
      <path class="cls-2" d="M7.8,9.63c.63,0,.97.3,1.22.51.21.18.33.28.61.28.2,0,.26-.02.39-.11.07-.06.14-.25.16-.3.38-1.31,1-4.34-.33-7-.08-.17-.33-.18-.44-.03l-3.9,5.39c-.09.13-.05.31.1.37,0,0,1.28.89,2.19.88Z"/>
      <path class="cls-2" d="M13.29,11.14c-.32,0-.47-.12-.68-.31-.25-.22-.56-.49-1.15-.49s-.9.27-1.15.49c-.22.19-.36.31-.68.31s-.47-.12-.68-.31c-.25-.22-.56-.49-1.15-.49s-.9.27-1.15.49c-.22.19-.36.31-.68.31s-.47-.12-.69-.31c-.25-.22-.56-.49-1.15-.49s-.9.27-1.15.49c-.22.19-.36.31-.69.31-.19,0-.35.16-.35.35s.16.35.35.35c.59,0,.9-.27,1.15-.49.22-.19.36-.31.69-.31s.47.12.69.31c.25.22.56.49,1.15.49s.9-.27,1.15-.49c.22-.19.36-.31.68-.31s.47.12.68.31c.25.22.56.49,1.15.49s.9-.27,1.15-.49c.22-.19.36-.31.68-.31s.47.12.68.31c.25.22.56.49,1.15.49.19,0,.35-.16.35-.35s-.16-.35-.35-.35Z"/>
    </g>
  </g>
</svg>