<?xml version="1.0" encoding="utf-8"?>
<!-- Generator: Adobe Illustrator 26.0.3, SVG Export Plug-In . SVG Version: 6.00 Build 0)  -->
<svg version="1.1" id="Lag_1" xmlns="http://www.w3.org/2000/svg" xmlns:xlink="http://www.w3.org/1999/xlink" x="0px" y="0px"
	 viewBox="0 0 42.5 42.3" style="enable-background:new 0 0 42.5 42.3;" xml:space="preserve">
<style type="text/css">
	.st0{fill:#274E6F;}
	.st1{fill:#FFFFFF;}
</style>
<g>
	<rect x="0" y="-0.1" class="st0" width="42.5" height="42.5"/>
	<path class="st1" d="M18.1,15.8L18.1,15.8L18.1,15.8l2.9-5c0.2-0.3,0.4-0.4,0.6-0.4c0.2,0,0.5,0.1,0.6,0.4l2,3.5L22.9,15l-0.7,0.4
		l0,0l0,0l8.6,5l0-6.6l0-3.3l0,0v0l-2.1,1.2l-2-3.5c-1-1.8-2.9-2.9-5-2.9c-2.1,0-4,1.1-5,2.9l-2.9,5L18.1,15.8L18.1,15.8z"/>
	<path class="st1" d="M29.6,23.3L29.6,23.3L29.6,23.3L29.6,23.3l2.9,5.1c0.2,0.3,0.1,0.6,0,0.7c-0.1,0.2-0.3,0.4-0.6,0.4h-4v-1.6
		l0-0.8l0,0v0l-5.7,3.3L19.2,32l0,0l0,0l8.6,5v-2.4h4c2.1,0,4-1.1,5-2.9c1-1.8,1-4,0-5.8l-2.9-5l0,0l0,0l0,0L29.6,23.3z"/>
	<path class="st1" d="M6.5,31.6c1,1.8,2.9,2.9,5,2.9h5.8v-5v0l0,0v0h-5.8c-0.4,0-0.5-0.2-0.6-0.4c-0.1-0.2-0.2-0.4,0-0.7l2-3.5
		l1.4,0.8l0.7,0.4v0l0,0l0-6.6l0-3.3l0,0v0l-5.7,3.3l-2.9,1.7l0,0l0,0l2.1,1.2l-2,3.5C5.5,27.6,5.5,29.8,6.5,31.6z"/>
</g>
</svg>
