<?xml version="1.0" encoding="utf-8"?>
<!-- Generator: Adobe Illustrator 26.0.3, SVG Export Plug-In . SVG Version: 6.00 Build 0)  -->
<svg version="1.1" id="Lag_1" xmlns="http://www.w3.org/2000/svg" xmlns:xlink="http://www.w3.org/1999/xlink" x="0px" y="0px"
	 viewBox="0 0 42.5 42.3" style="enable-background:new 0 0 42.5 42.3;" xml:space="preserve">
<style type="text/css">
	.st0{fill:#274E6F;}
	.st1{fill:#FFFFFF;}
</style>
<g>
	<rect x="0" y="-0.1" class="st0" width="42.5" height="42.5"/>
	<g>
		<path class="st1" d="M25.4,4.1L14.3,4.8l-2.4,1.9v29l4.3,1.9h1.9l12.4-5.1l1.2-0.5V18.4l-5.8-14C25.8,4.2,25.6,4.1,25.4,4.1z
			 M29.8,30.7L21.8,34l-3,1.2V22.1l11-2V30.7z M29.8,19.1l-9.3,1.7l-1.7,0.3v-1.6l-0.5-1.4l-3.8-9.7l-0.4-0.9L15,6.7l9.5-0.6
			l5.3,12.7L29.8,19.1L29.8,19.1z"/>
		<path class="st1" d="M24.1,7.6l-1.5,0.1l-1.2,3.8c0,0.1-0.1,0.1-0.2,0.1c-0.1,0-0.1-0.1-0.1-0.2l0.6-2.8l0.2-0.8l0,0l0,0l-1.3,0.1
			l-0.9,2.5c0,0.1-0.1,0.1-0.2,0.1c-0.1,0-0.1-0.1-0.1-0.2l0.3-1.8L19.9,8l0,0l0,0L17,8.2l-0.8,0.1l0,0l0,0l3,7.8l6.4-1l1.5-0.2l0,0
			l0,0L24.1,7.6z"/>
		<polygon class="st1" points="26.6,15.7 21.4,16.5 20.9,16.5 20.8,16.6 20.7,16.6 20.7,16.6 20.7,16.6 21.1,17.4 21.5,17.4 
			25.8,16.8 26.9,16.6 26.9,16.6 26.9,16.6 		"/>
	</g>
</g>
</svg>
