<?xml version="1.0" encoding="utf-8"?>
<!-- Generator: Adobe Illustrator 26.0.3, SVG Export Plug-In . SVG Version: 6.00 Build 0)  -->
<svg version="1.1" id="Lag_1" xmlns="http://www.w3.org/2000/svg" xmlns:xlink="http://www.w3.org/1999/xlink" x="0px" y="0px"
	 viewBox="0 0 42.5 42.3" style="enable-background:new 0 0 42.5 42.3;" xml:space="preserve">
<style type="text/css">
	.st0{fill:#264E6F;}
	.st1{fill:#FFFFFF;}
</style>
<g>
	<circle class="st0" cx="21.3" cy="21.2" r="21.3"/>
	<g>
		<path class="st1" d="M14.6,17.2c-3.2,0.1-5.7,2.4-6,5.4H8.2c-1.4,0-2.5,1.1-2.5,2.5l-0.4,2.5c0,0,0,0,0,0c0,0.8,0.6,1.4,1.4,1.4
			h2.6c0-1.7,1.4-3.1,3.1-3.1c1.7,0,3.1,1.4,3.1,3.1h2.2V17.2h-2.9C14.7,17.2,14.6,17.2,14.6,17.2z M10.7,22.1
			c0.3-1.7,1.8-2.9,3.6-3l0,0c0,0,0.1,0,0.1,0h1.1v3h-4.2L10.7,22.1z"/>
		<path class="st1" d="M36.2,25.6V14.4c0-0.6-0.5-1.1-1.1-1.1h-6.7V12c0-0.4-0.3-0.7-0.8-0.7H22c-0.9,0-2.6,0.6-2.6,1.4v0.6h-7.4
			c-1.3,0-2.4,1.1-2.4,2.4v0.8v0l0,0v0h8.8h0v11.5c0,0.6,0.5,1.1,1.1,1.1h3.9h2.7c0-1.7,1.4-3.1,3.1-3.1c1.7,0,3.1,1.4,3.1,3.1H34
			h1.1c0.5,0,0.9-0.3,1-0.7c0.6-0.4,1.1-0.9,1.1-1.5v-1.1L36.2,25.6L36.2,25.6z M29.9,19v-2.1c0-0.5,0.4-1,1-1h1.7c0.5,0,1,0.4,1,1
			V19c0,0.5-0.4,1-1,1h-1.7C30.3,20,29.9,19.5,29.9,19z"/>
		<path class="st1" d="M12.4,27c-1.1,0-2,0.9-2,2c0,1.1,0.9,2,2,2c1.1,0,2-0.9,2-2C14.4,27.9,13.5,27,12.4,27z"/>
		<path class="st1" d="M29.3,27c-1.1,0-2,0.9-2,2c0,1.1,0.9,2,2,2c1.1,0,2-0.9,2-2C31.4,27.9,30.5,27,29.3,27z"/>
	</g>
</g>
</svg>
