<?xml version="1.0" encoding="utf-8"?>
<!-- Generator: Adobe Illustrator 26.0.3, SVG Export Plug-In . SVG Version: 6.00 Build 0)  -->
<svg version="1.1" id="Lag_1" xmlns="http://www.w3.org/2000/svg" xmlns:xlink="http://www.w3.org/1999/xlink" x="0px" y="0px"
	 viewBox="0 0 42.5 42.3" style="enable-background:new 0 0 42.5 42.3;" xml:space="preserve">
<style type="text/css">
	.st0{fill:#284F6F;}
	.st1{fill:#FFFFFF;stroke:#FFFFFF;stroke-width:0.5;stroke-miterlimit:10;}
</style>
<g>
	<rect x="0" y="-0.1" class="st0" width="42.5" height="42.5"/>
	<g>
		<path class="st1" d="M14.4,27.8c-0.4-0.1-0.8,0.1-1,0.5c-0.1,0.4,0.1,0.8,0.5,1c0.1,0,0.2,0,0.2,0c0.3,0,0.6-0.2,0.7-0.5
			C15.1,28.4,14.8,27.9,14.4,27.8z"/>
		<path class="st1" d="M15.7,23.9c-0.4-0.1-0.8,0.1-1,0.5c-0.1,0.4,0.1,0.8,0.5,1c0.1,0,0.2,0,0.2,0c0.3,0,0.6-0.2,0.7-0.5
			C16.3,24.4,16.1,24,15.7,23.9z"/>
		<path class="st1" d="M11.9,35.7c-0.4-0.1-0.8,0.1-1,0.5c-0.1,0.4,0.1,0.8,0.5,1c0.1,0,0.2,0,0.2,0c0.3,0,0.6-0.2,0.7-0.5
			C12.5,36.2,12.3,35.8,11.9,35.7z"/>
		<path class="st1" d="M13.2,31.7c-0.4-0.1-0.8,0.1-1,0.5c-0.1,0.4,0.1,0.8,0.5,1c0.1,0,0.2,0,0.2,0c0.3,0,0.6-0.2,0.7-0.5
			C13.8,32.3,13.6,31.9,13.2,31.7z"/>
		<path class="st1" d="M20.4,23.8c-0.4,0-0.8,0.3-0.8,0.7c0,0.4,0.3,0.8,0.7,0.8c0,0,0.1,0,0.1,0c0.4,0,0.7-0.3,0.8-0.7
			C21.1,24.3,20.8,23.9,20.4,23.8z"/>
		<path class="st1" d="M19.5,32.1c-0.4,0-0.8,0.3-0.8,0.7c0,0.4,0.3,0.8,0.7,0.8c0,0,0.1,0,0.1,0c0.4,0,0.7-0.3,0.8-0.7
			C20.2,32.5,19.9,32.1,19.5,32.1z"/>
		<path class="st1" d="M20,28c-0.4,0-0.8,0.3-0.8,0.7c0,0.4,0.3,0.8,0.7,0.8c0,0,0.1,0,0.1,0c0.4,0,0.7-0.3,0.8-0.7
			C20.7,28.4,20.4,28,20,28z"/>
		<path class="st1" d="M19.1,36.2c-0.4,0-0.8,0.3-0.8,0.7c0,0.4,0.3,0.8,0.7,0.8c0,0,0.1,0,0.1,0c0.4,0,0.7-0.3,0.8-0.7
			C19.8,36.6,19.5,36.2,19.1,36.2z"/>
		<path class="st1" d="M26.4,36.2c-0.4,0-0.7,0.4-0.7,0.8c0,0.4,0.4,0.7,0.8,0.7c0,0,0.1,0,0.1,0c0.4,0,0.7-0.4,0.7-0.8
			C27.2,36.4,26.8,36.1,26.4,36.2z"/>
		<path class="st1" d="M26.1,33.6c0.4,0,0.7-0.4,0.7-0.8c0-0.4-0.4-0.7-0.8-0.7c-0.4,0-0.7,0.4-0.7,0.8
			C25.3,33.3,25.7,33.6,26.1,33.6C26.1,33.6,26.1,33.6,26.1,33.6z"/>
		<path class="st1" d="M25.2,25.4c0.4,0,0.7-0.4,0.7-0.8c0-0.4-0.4-0.7-0.8-0.7c-0.4,0-0.7,0.4-0.7,0.8
			C24.5,25.1,24.8,25.4,25.2,25.4C25.2,25.4,25.2,25.4,25.2,25.4z"/>
		<path class="st1" d="M25.7,29.5c0.4,0,0.7-0.4,0.7-0.8c0-0.4-0.4-0.7-0.8-0.7c-0.4,0-0.7,0.4-0.7,0.8
			C24.9,29.2,25.2,29.5,25.7,29.5C25.6,29.5,25.7,29.5,25.7,29.5z"/>
		<path class="st1" d="M33.3,32.2c-0.1-0.4-0.6-0.6-1-0.5c-0.4,0.1-0.6,0.6-0.5,1c0.1,0.3,0.4,0.5,0.7,0.5c0.1,0,0.2,0,0.2,0
			C33.2,33.1,33.4,32.6,33.3,32.2z"/>
		<path class="st1" d="M34.5,36.2c-0.1-0.4-0.6-0.6-1-0.5c-0.4,0.1-0.6,0.6-0.5,1c0.1,0.3,0.4,0.5,0.7,0.5c0.1,0,0.2,0,0.2,0
			C34.5,37,34.7,36.6,34.5,36.2z"/>
		<path class="st1" d="M30.7,24.4c-0.1-0.4-0.6-0.6-1-0.5c-0.4,0.1-0.6,0.6-0.5,1c0.1,0.3,0.4,0.5,0.7,0.5c0.1,0,0.2,0,0.2,0
			C30.6,25.2,30.9,24.8,30.7,24.4z"/>
		<path class="st1" d="M32,28.3c-0.1-0.4-0.6-0.6-1-0.5c-0.4,0.1-0.6,0.6-0.5,1c0.1,0.3,0.4,0.5,0.7,0.5c0.1,0,0.2,0,0.2,0
			C31.9,29.1,32.1,28.7,32,28.3z"/>
		<path class="st1" d="M21.7,11.1h-0.9v3.6c0,0.5-0.3,1-0.7,1.1c-2.7,0.7-4.4,2.4-4.4,4.4c0,0.4,0.3,0.7,0.6,0.7h13.1
			c0.3,0,0.6-0.3,0.6-0.7c0-2.1-2-3.9-5-4.5c-0.4-0.1-0.8-0.6-0.8-1.1v-3.5h-0.9V5.8H9.4v1.9h12.3V11.1z"/>
	</g>
</g>
</svg>
