<?xml version="1.0" encoding="utf-8"?>
<!-- Generator: Adobe Illustrator 26.0.3, SVG Export Plug-In . SVG Version: 6.00 Build 0)  -->
<svg version="1.1" id="Lag_1" xmlns="http://www.w3.org/2000/svg" xmlns:xlink="http://www.w3.org/1999/xlink" x="0px" y="0px"
	 viewBox="0 0 42.5 42.3" style="enable-background:new 0 0 42.5 42.3;" xml:space="preserve">
<style type="text/css">
	.st0{fill:#254E6F;}
	.st1{fill:#FFFFFF;}
</style>
<g>
	<circle class="st0" cx="21.4" cy="21.1" r="21.1"/>
	<g>
		<path class="st1" d="M36.1,16.6c-0.7-1.7-1.6-3.3-2.9-4.7c-1.8-2-4-3.6-6.7-4.6c0-0.5-0.3-1-0.8-1.1c-0.5-0.1-1,0.1-1.2,0.5
			c-8.1-1.8-16.3,2.7-19,10.5c0,0,0,0.1,0.1,0c1-1.2,3.3-1.6,5.8-0.9c2.1,0.6,3.7,1.9,4.2,3.2c0,0.1,0,0.1,0.1,0.2c0,0,0,0.1,0,0.1
			c0,0.1,0,0.1,0,0.2c0,0,0,0.1,0,0.1c0,0.2,0,0.3,0,0.5c0,0.1,0,0.1,0.1,0c0.1-0.3,0.3-0.5,0.5-0.7c0.9-0.8,2.6-1.1,4.4-0.8
			c0,0,0.1,0,0.1,0l-4.6,15.5c-0.2,0.6,0.2,1.2,0.7,1.3c0.6,0.2,1.2-0.2,1.3-0.7l4.1-14l0.5-1.5c1.7,0.7,3,1.9,3.3,3.1
			c0.1,0.3,0.1,0.6,0.1,0.9c0,0.1,0,0.1,0.1,0c0,0,0.1-0.1,0.1-0.1c0,0,0.1-0.1,0.1-0.1c0,0,0.1-0.1,0.1-0.1c0,0,0-0.1,0.1-0.1
			c0.1-0.1,0.2-0.2,0.4-0.3c1.1-0.9,3.2-1.1,5.3-0.4c2.5,0.7,4.2,2.4,4.4,3.9c0,0,0.1,0,0.1,0C37.6,23.1,37.3,19.7,36.1,16.6z
			 M26.7,20.9c0,0-0.1-0.1-0.1-0.1c-1-1.2-2.5-2.2-4.4-2.8c-1.9-0.6-3.7-0.5-5.2-0.1c0,0-0.1,0-0.1,0c0,0,0,0-0.1,0
			c0.1-0.3,0.3-0.6,0.4-0.9c2.4-4.9,4.7-7.8,6.3-8.8c0.1-0.1,0.2-0.1,0.3-0.2c0.5-0.2,0.9-0.3,1.3-0.2c0.4,0.1,0.7,0.4,1,0.8
			c0.1,0.1,0.1,0.2,0.2,0.3c0.8,1.7,1.1,5.4,0.5,10.8c0,0.2-0.1,0.5-0.1,0.7C26.8,20.7,26.7,20.8,26.7,20.9z"/>
	</g>
</g>
</svg>
