<?xml version="1.0" encoding="utf-8"?>
<!-- Generator: Adobe Illustrator 26.0.3, SVG Export Plug-In . SVG Version: 6.00 Build 0)  -->
<svg version="1.1" id="Lag_1" xmlns="http://www.w3.org/2000/svg" xmlns:xlink="http://www.w3.org/1999/xlink" x="0px" y="0px"
	 viewBox="0 0 42.5 42.3" style="enable-background:new 0 0 42.5 42.3;" xml:space="preserve">
<style type="text/css">
	.st0{fill:#274E6F;}
	.st1{fill:#FFFFFF;}
</style>
<g>
	<rect x="0.1" class="st0" width="42.4" height="42.3"/>
	<g>
		<path class="st1" d="M19.8,8.2L19.8,8.2l0.9-0.5l0.4-0.3l0,0l0,0l-0.4-0.1c-0.2-0.1-0.4-0.2-0.5-0.4c-0.1-0.2-0.2-0.5-0.1-0.8
			c0.1-0.3,0.2-0.5,0.4-0.6c0.1-0.1,0.3-0.1,0.5-0.1c0.3,0,0.6,0.2,0.8,0.5C21.9,6,22,6.3,21.9,6.5l0,0.3l0,0.2l0,0l0,0l1.3-0.8
			l0-0.1c0-0.3-0.1-0.6-0.3-0.9C22.5,4.5,21.8,4,21,4c-0.4,0-0.8,0.1-1.1,0.3c-0.5,0.3-0.8,0.8-1,1.4c-0.1,0.6-0.1,1.2,0.2,1.8
			C19.3,7.8,19.5,8.1,19.8,8.2z"/>
		<path class="st1" d="M30.9,7.8l-6.4-1.2l-0.9,0.6l-0.1,1.6l7.1,0.8c0.1,0,0.3-0.1,0.3-0.2L31.1,8C31.1,7.9,31.1,7.8,30.9,7.8z"/>
		<path class="st1" d="M23.7,9.1L23.7,9.1L23.7,9.1l0.1-1.8L24.3,7l4.9-3.2c0.1-0.1,0.1-0.2,0-0.3l-0.7-0.8c0,0-0.1-0.1-0.1-0.1
			c0,0-0.1,0-0.1,0l-8,4.7h0l0,0l-0.1,0.1L19.2,8l0.5,2.1L23.7,9.1z"/>
		<path class="st1" d="M25.9,14.5C25.9,14.5,25.9,14.5,25.9,14.5c-0.4-0.2-0.8-0.3-1.3-0.3v-1.4h0.9v-1.5c0-0.4-0.3-0.7-0.7-0.7
			h-4.2h-0.5c-0.2,0-0.4,0.1-0.5,0.2c-0.1,0.1-0.2,0.3-0.2,0.4v1.5h0.9v1.4c-0.5,0-0.9,0.1-1.3,0.3c0,0,0,0,0,0
			c-1.3,0.6-2.2,1.9-2.2,3.4v18.3c0,0,0,0,0,0c0,0.4,0.3,0.7,0.6,0.7c1.6,0.3,3.3,0.4,5.1,0.4c1.7,0,3.4-0.1,5.1-0.4
			c0.4-0.1,0.6-0.4,0.6-0.7c0,0,0,0,0,0V17.9C28.2,16.4,27.3,15.1,25.9,14.5z M19.6,18.9c-0.6-0.2-0.8-1-0.5-1.7
			c0.3-0.7,1.1-1.1,1.5-1c0.5,0.2,0.8,1,0.5,1.7c-0.2,0.6-0.8,1.1-1.3,1c0,0,0,0,0,0C19.7,18.9,19.7,18.9,19.6,18.9z M19.8,23.8
			c0.9,0.1,1.8,0.1,2.7,0.1c0.9,0,1.8,0,2.6-0.1c0,0,0.1,0,0.1,0v8.8c-0.9,0.1-1.8,0.1-2.7,0.1s-1.8,0-2.7-0.1L19.8,23.8L19.8,23.8z
			"/>
		<path class="st1" d="M16.7,10.5C16.7,10.4,16.8,10.4,16.7,10.5c0.1-0.1,0.2-0.1,0.2-0.1c0.1,0,0.1-0.1,0.2-0.1v0.3v0l0,0v0h1.5V9
			V7.9h-0.2h-1.2v0.7c-0.1,0-0.1,0.1-0.2,0.1c0,0-0.1,0-0.1,0c-0.2,0.1-0.3,0.1-0.5,0.2c0,0-0.1,0-0.1,0c-0.2,0.1-0.3,0.2-0.5,0.3
			c0,0,0,0,0,0c-1,0.8-1.9,2-2.4,3.6c-1.1,3.5-0.8,10.3-0.7,14l0,0.1c0,0,0,0.1,0,0.1h-0.9l-0.1,0.9l-0.1,1.4l0,0.2l-0.1,0.7l0,0.1
			h0v4.4v0l0,0v0h3.9v-4.5l-0.1-0.8l0-0.2l-0.1-1.4l-0.1-0.9h-0.9l-0.1,0c0-0.1,0-0.1,0-0.2l0-0.1c-0.1-3.6-0.4-10.2,0.6-13.5
			C15.2,12,16,11,16.7,10.5z"/>
	</g>
	<rect x="19" y="15.1" class="st1" width="2.3" height="4.2"/>
</g>
</svg>
