<svg id="svg" version="1.1" xmlns="http://www.w3.org/2000/svg" xmlns:xlink="http://www.w3.org/1999/xlink" width="400" height="400" viewBox="0, 0, 400,400"><g id="svgg"><path id="path0" d="M173.047 0.492 C 78.512 7.878,17.614 49.009,32.076 95.703 C 60.843 188.583,339.157 188.583,367.924 95.703 C 380.212 56.031,337.035 18.776,262.891 5.076 C 241.701 1.160,194.991 -1.223,173.047 0.492 M29.904 156.836 C 30.472 176.611,32.147 182.440,40.317 193.071 C 92.160 260.528,307.840 260.528,359.683 193.071 C 367.853 182.440,369.528 176.611,370.096 156.836 C 370.339 148.350,370.301 141.406,370.011 141.406 C 369.721 141.406,367.248 143.303,364.515 145.621 C 316.603 186.267,208.316 202.379,117.727 182.342 C 83.801 174.837,54.506 161.757,35.485 145.621 C 32.752 143.303,30.279 141.406,29.989 141.406 C 29.699 141.406,29.661 148.350,29.904 156.836 M29.906 235.352 C 30.771 264.462,40.292 278.653,70.033 295.159 C 134.287 330.820,265.713 330.820,329.967 295.159 C 359.708 278.653,369.229 264.462,370.094 235.352 C 370.563 219.570,370.192 217.864,367.103 221.587 C 365.565 223.440,355.120 231.205,349.172 234.919 C 276.131 280.514,123.869 280.514,50.828 234.919 C 44.880 231.205,34.435 223.440,32.897 221.587 C 29.808 217.864,29.437 219.570,29.906 235.352 M29.916 313.477 C 30.391 329.497,31.077 333.354,34.745 340.625 C 48.181 367.263,88.141 387.743,142.862 396.039 C 164.304 399.290,169.418 399.609,200.000 399.609 C 230.582 399.609,235.696 399.290,257.138 396.039 C 317.628 386.869,359.944 362.702,368.530 332.422 C 369.989 327.279,370.932 298.438,369.642 298.438 C 369.154 298.438,367.435 299.624,365.823 301.075 C 297.368 362.658,102.632 362.658,34.177 301.075 C 29.422 296.797,29.422 296.796,29.916 313.477 " stroke="none" fill="#000000" fill-rule="evenodd"></path></g></svg>