<?xml version="1.0" encoding="utf-8"?>
<!-- Generator: Adobe Illustrator 26.0.3, SVG Export Plug-In . SVG Version: 6.00 Build 0)  -->
<svg version="1.1" id="Lag_1" xmlns="http://www.w3.org/2000/svg" xmlns:xlink="http://www.w3.org/1999/xlink" x="0px" y="0px"
	 viewBox="0 0 42.5 42.3" style="enable-background:new 0 0 42.5 42.3;" xml:space="preserve">
<style type="text/css">
	.st0{fill:#274E6F;}
	.st1{fill:#FFFFFF;}
	.st2{fill:none;}
	.st3{fill:#254E6F;}
	.st4{font-family:'Arial-BoldMT';}
	.st5{font-size:13.5px;}
</style>
<g>
	<g>
		<rect x="0" y="-0.1" class="st0" width="42.5" height="42.5"/>
		<g>
			<path class="st1" d="M30.8,34H9.1c-0.2,0-0.3,0.1-0.3,0.3v2.6c0,0.2,0.1,0.3,0.3,0.3h21.7c0.2,0,0.3-0.1,0.3-0.3v-2.6
				C31.1,34.1,31,34,30.8,34z"/>
			<path class="st1" d="M32.7,16.9c-0.1,0-0.2-0.1-0.2-0.1v0c0,0,0,0,0,0v4.8c0,1.2-1,2.1-2.1,2.1h-2.2V10.4v0V7.7
				c0-1-0.8-1.9-1.9-1.9H13.5c-1,0-1.9,0.8-1.9,1.9c0,8.4-0.1,16.9-0.1,25.3c5.5,0,11.1,0,16.6,0c0-2.3,0-4.6,0-6.8h2.2
				c2.6,0,4.6-2.1,4.6-4.6v-4.3h-0.8C33.6,17.3,33.1,17.1,32.7,16.9z M15,16.3V9.1h9.9v7.2H15L15,16.3z"/>
			<path class="st1" d="M30.2,8.3L30.2,8.3L30.2,8.3L30.2,8.3L29.3,10l2.3,1.1l0.4,0.2v2.9c0,0.5,0.2,1,0.5,1.4
				c0.4,0.5,1,0.8,1.7,0.8H35h0.6v-5.6h0L30.2,8.3z"/>
		</g>
	</g>
	<rect x="11.6" y="19.7" class="st2" width="16.6" height="10"/>
	<text transform="matrix(1 0 0 1 14.9911 29.3399)" class="st3 st4 st5">D</text>
</g>
</svg>
