<svg id="svg" version="1.1" xmlns="http://www.w3.org/2000/svg" xmlns:xlink="http://www.w3.org/1999/xlink" width="400" height="400" viewBox="0, 0, 400,400"><g id="svgg"><path id="path0" d="M31.338 13.300 C 31.236 13.465,30.105 13.600,28.825 13.600 C 27.245 13.600,26.338 13.792,26.000 14.200 C 25.726 14.530,25.246 14.800,24.934 14.800 C 24.622 14.800,24.149 14.983,23.883 15.207 C 22.020 16.778,21.433 17.200,21.107 17.200 C 20.621 17.200,17.200 20.627,17.200 21.114 C 17.200 21.322,16.663 22.101,16.006 22.846 C 15.350 23.591,14.810 24.596,14.806 25.080 C 14.803 25.564,14.485 26.137,14.100 26.352 C 13.358 26.767,12.561 367.644,13.300 368.580 C 13.465 368.789,13.606 369.779,13.613 370.780 C 13.620 371.781,13.890 372.949,14.213 373.376 C 14.536 373.804,14.800 374.546,14.800 375.027 C 14.800 375.508,15.070 376.126,15.400 376.400 C 15.730 376.674,16.000 377.236,16.000 377.649 C 16.000 378.062,16.270 378.400,16.600 378.400 C 16.930 378.400,17.200 378.599,17.200 378.842 C 17.200 379.469,21.910 384.000,22.561 384.000 C 22.859 384.000,23.326 384.270,23.600 384.600 C 23.874 384.930,24.414 385.200,24.800 385.200 C 25.186 385.200,25.707 385.446,25.957 385.748 C 26.769 386.727,30.472 386.749,199.749 386.773 C 366.780 386.797,373.204 386.759,374.049 385.741 C 374.296 385.443,374.814 385.200,375.200 385.200 C 375.586 385.200,376.126 384.930,376.400 384.600 C 376.674 384.270,377.236 384.000,377.649 384.000 C 378.062 384.000,378.400 383.730,378.400 383.400 C 378.400 383.070,378.599 382.800,378.842 382.800 C 379.469 382.800,384.000 378.090,384.000 377.439 C 384.000 377.141,384.270 376.674,384.600 376.400 C 384.930 376.126,385.200 375.406,385.200 374.800 C 385.200 374.194,385.445 373.494,385.746 373.245 C 386.741 372.419,386.765 368.458,386.781 200.542 C 386.797 33.710,386.756 26.793,385.740 25.950 C 385.443 25.704,385.200 25.246,385.200 24.934 C 385.200 24.622,385.017 24.149,384.793 23.883 C 383.222 22.020,382.800 21.433,382.800 21.107 C 382.800 20.621,379.373 17.200,378.886 17.200 C 378.678 17.200,377.899 16.663,377.154 16.006 C 376.409 15.350,375.460 14.810,375.044 14.806 C 374.628 14.803,374.058 14.485,373.776 14.100 C 373.291 13.436,366.225 13.395,236.532 13.300 C 161.330 13.244,84.438 13.154,65.662 13.100 C 46.886 13.045,31.440 13.135,31.338 13.300 M279.600 98.024 L 279.600 142.000 252.000 142.000 L 224.400 142.000 224.400 249.939 C 224.400 354.746,224.378 357.903,223.653 358.739 L 222.906 359.600 200.185 359.600 C 179.603 359.600,177.394 359.538,176.731 358.938 C 176.026 358.300,176.000 354.431,176.000 251.388 C 176.000 192.600,175.888 143.938,175.750 143.250 L 175.500 142.000 147.948 142.000 L 120.396 142.000 120.498 98.100 L 120.600 54.200 199.800 54.000 C 243.360 53.890,279.135 53.856,279.300 53.924 C 279.465 53.992,279.600 73.837,279.600 98.024 " stroke="none" fill="#0474c4" fill-rule="evenodd"></path><path id="path1" d="M0.000 14.600 C 0.000 27.832,0.220 31.015,0.948 28.300 C 1.081 27.805,1.192 26.646,1.195 25.724 C 1.198 24.802,1.366 23.945,1.569 23.819 C 1.772 23.694,2.059 23.041,2.207 22.368 C 2.355 21.696,2.727 20.663,3.035 20.073 C 3.343 19.483,3.596 18.775,3.598 18.500 C 3.599 18.225,3.759 18.000,3.953 18.000 C 4.148 18.000,4.422 17.685,4.563 17.300 C 5.062 15.939,6.049 14.400,6.422 14.400 C 6.630 14.400,6.800 14.212,6.800 13.983 C 6.800 13.523,7.045 13.208,9.440 10.592 C 10.342 9.606,11.199 8.800,11.346 8.800 C 11.564 8.800,13.456 7.377,16.683 4.788 C 16.949 4.574,17.354 4.400,17.583 4.400 C 17.812 4.400,18.000 4.220,18.000 4.000 C 18.000 3.780,18.225 3.599,18.500 3.598 C 18.775 3.596,19.467 3.352,20.037 3.054 C 20.608 2.756,21.733 2.389,22.537 2.238 C 23.342 2.087,24.000 1.792,24.000 1.582 C 24.000 1.372,24.975 1.200,26.167 1.200 C 28.494 1.200,29.600 0.929,29.600 0.357 C 29.600 0.154,23.218 0.000,14.800 0.000 L 0.000 0.000 0.000 14.600 M370.800 0.353 C 370.800 0.816,372.237 1.188,374.054 1.195 C 374.854 1.198,376.024 1.469,376.654 1.798 C 377.284 2.126,378.205 2.396,378.700 2.398 C 379.195 2.399,379.600 2.566,379.600 2.768 C 379.600 2.971,380.140 3.255,380.800 3.400 C 381.460 3.545,382.000 3.829,382.000 4.032 C 382.000 4.234,382.270 4.400,382.600 4.400 C 382.930 4.400,383.200 4.562,383.200 4.761 C 383.200 4.959,383.740 5.310,384.400 5.540 C 385.060 5.770,385.600 6.148,385.600 6.379 C 385.600 6.611,385.870 6.800,386.200 6.800 C 386.530 6.800,386.800 6.977,386.800 7.192 C 386.800 7.408,387.250 7.698,387.800 7.836 C 388.350 7.974,388.800 8.303,388.800 8.568 C 388.800 8.833,389.340 9.449,390.000 9.937 C 390.660 10.425,391.200 11.018,391.200 11.256 C 391.200 11.647,391.584 12.138,393.661 14.401 C 394.024 14.797,394.441 15.499,394.587 15.961 C 394.734 16.422,395.022 16.800,395.227 16.800 C 395.432 16.800,395.600 17.070,395.600 17.400 C 395.600 17.730,395.766 18.000,395.968 18.000 C 396.171 18.000,396.455 18.540,396.600 19.200 C 396.745 19.860,397.009 20.400,397.186 20.400 C 397.364 20.400,397.631 21.210,397.779 22.200 C 397.928 23.190,398.218 24.000,398.425 24.000 C 398.631 24.000,398.802 24.585,398.804 25.300 C 398.811 27.298,399.265 29.600,399.652 29.600 C 399.844 29.600,400.000 22.940,400.000 14.800 L 400.000 0.000 385.400 0.000 C 377.218 0.000,370.800 0.155,370.800 0.353 M28.038 2.297 C 26.629 2.376,25.104 2.702,24.649 3.021 C 24.194 3.339,23.427 3.600,22.943 3.600 C 22.168 3.600,20.666 4.208,18.800 5.279 C 18.470 5.468,17.885 5.729,17.500 5.858 C 17.115 5.988,16.800 6.252,16.800 6.447 C 16.800 6.641,16.530 6.800,16.200 6.800 C 15.870 6.800,15.600 6.968,15.600 7.173 C 15.600 7.378,15.275 7.649,14.878 7.775 C 14.482 7.901,13.409 8.723,12.494 9.602 C 11.579 10.481,10.572 11.200,10.255 11.200 C 9.938 11.200,9.490 11.740,9.260 12.400 C 9.030 13.060,8.652 13.600,8.421 13.600 C 8.189 13.600,8.000 13.870,8.000 14.200 C 8.000 14.530,7.832 14.800,7.627 14.800 C 7.422 14.800,7.128 15.197,6.974 15.681 C 6.820 16.166,6.493 16.790,6.247 17.067 C 5.020 18.453,4.800 18.823,4.800 19.507 C 4.800 19.914,4.536 20.596,4.213 21.024 C 3.890 21.451,3.620 22.282,3.613 22.871 C 3.606 23.461,3.285 24.258,2.900 24.643 C 1.810 25.733,1.810 373.650,2.900 375.189 C 3.285 375.733,3.600 376.573,3.600 377.057 C 3.600 377.832,4.208 379.334,5.279 381.200 C 5.468 381.530,5.729 382.115,5.858 382.500 C 5.988 382.885,6.252 383.200,6.447 383.200 C 6.641 383.200,6.800 383.399,6.800 383.642 C 6.800 384.147,8.956 386.982,10.300 388.246 C 10.795 388.711,11.200 389.364,11.200 389.697 C 11.200 390.030,11.740 390.527,12.400 390.800 C 13.060 391.073,13.600 391.455,13.600 391.649 C 13.600 391.842,13.870 392.000,14.200 392.000 C 14.530 392.000,14.800 392.177,14.800 392.392 C 14.800 392.608,15.237 392.894,15.771 393.028 C 16.305 393.163,16.839 393.526,16.959 393.836 C 17.078 394.146,17.451 394.400,17.787 394.400 C 18.124 394.400,18.400 394.580,18.400 394.800 C 18.400 395.020,18.715 395.201,19.100 395.202 C 19.485 395.204,20.267 395.448,20.837 395.746 C 21.408 396.044,22.520 396.408,23.308 396.556 C 24.097 396.704,24.815 397.045,24.904 397.313 C 25.136 398.009,374.688 398.028,375.119 397.332 C 375.278 397.074,375.946 396.742,376.604 396.594 C 378.666 396.130,383.200 394.041,383.200 393.556 C 383.200 393.411,383.515 393.188,383.900 393.058 C 384.949 392.706,385.962 391.964,387.665 390.300 C 388.509 389.475,389.425 388.792,389.700 388.783 C 390.225 388.764,393.200 384.459,393.200 383.717 C 393.200 383.480,393.470 383.182,393.800 383.055 C 394.130 382.929,394.400 382.549,394.400 382.213 C 394.400 381.876,394.580 381.600,394.800 381.600 C 395.020 381.600,395.201 381.285,395.202 380.900 C 395.204 380.515,395.448 379.733,395.746 379.163 C 396.044 378.592,396.408 377.480,396.556 376.692 C 396.704 375.903,397.045 375.185,397.313 375.096 C 398.214 374.795,398.002 25.545,397.100 24.643 C 396.715 24.258,396.400 23.520,396.400 23.004 C 396.400 22.487,396.146 21.555,395.835 20.932 C 395.524 20.310,394.943 19.125,394.544 18.300 C 394.145 17.475,393.700 16.800,393.556 16.800 C 393.411 16.800,393.188 16.485,393.058 16.100 C 392.706 15.051,391.964 14.038,390.300 12.335 C 389.475 11.491,388.792 10.575,388.783 10.300 C 388.766 9.795,386.260 8.000,385.572 8.000 C 385.368 8.000,385.200 7.832,385.200 7.627 C 385.200 7.422,384.809 7.130,384.331 6.978 C 383.502 6.715,383.075 6.430,381.815 5.300 C 381.508 5.025,380.919 4.800,380.505 4.800 C 380.091 4.800,379.404 4.536,378.976 4.213 C 378.549 3.890,377.718 3.620,377.129 3.613 C 376.539 3.606,375.742 3.285,375.357 2.900 C 374.712 2.255,39.111 1.673,28.038 2.297 M372.000 12.800 C 372.000 13.020,372.405 13.201,372.900 13.202 C 373.395 13.204,374.316 13.474,374.946 13.802 C 375.576 14.131,376.347 14.400,376.658 14.400 C 376.970 14.400,377.322 14.654,377.441 14.964 C 377.561 15.274,378.095 15.637,378.629 15.772 C 379.163 15.906,379.600 16.192,379.600 16.408 C 379.600 16.623,379.870 16.800,380.200 16.800 C 380.530 16.800,380.808 17.025,380.817 17.300 C 380.826 17.575,381.366 18.242,382.017 18.781 C 382.668 19.321,383.200 19.966,383.200 20.215 C 383.200 20.463,383.735 21.192,384.389 21.833 C 385.043 22.475,385.583 23.328,385.589 23.729 C 385.595 24.129,385.870 24.727,386.200 25.057 C 386.530 25.387,386.800 26.169,386.800 26.795 C 386.800 27.421,386.979 27.993,387.198 28.067 C 387.755 28.253,387.762 371.746,387.205 371.932 C 386.982 372.006,386.799 372.457,386.798 372.933 C 386.796 373.410,386.526 374.316,386.198 374.946 C 385.869 375.576,385.600 376.347,385.600 376.658 C 385.600 376.970,385.330 377.329,385.000 377.455 C 384.670 377.582,384.400 378.032,384.400 378.455 C 384.400 378.879,384.130 379.329,383.800 379.455 C 383.470 379.582,383.200 379.936,383.200 380.243 C 383.200 380.549,383.020 380.800,382.800 380.800 C 382.281 380.800,380.800 382.281,380.800 382.800 C 380.800 383.020,380.459 383.200,380.043 383.200 C 379.626 383.200,379.182 383.470,379.055 383.800 C 378.929 384.130,378.569 384.400,378.255 384.400 C 377.942 384.400,377.582 384.670,377.455 385.000 C 377.329 385.330,376.847 385.600,376.384 385.600 C 375.921 385.600,375.273 385.870,374.943 386.200 C 374.613 386.530,373.831 386.800,373.205 386.800 C 372.579 386.800,372.007 386.979,371.933 387.198 C 371.747 387.755,28.254 387.762,28.068 387.205 C 27.994 386.982,27.443 386.800,26.843 386.800 C 26.244 386.800,25.404 386.536,24.976 386.213 C 24.549 385.890,23.879 385.620,23.487 385.613 C 23.096 385.606,22.678 385.346,22.559 385.036 C 22.439 384.726,21.905 384.363,21.371 384.228 C 20.837 384.094,20.400 383.808,20.400 383.592 C 20.400 383.377,20.130 383.200,19.800 383.200 C 19.470 383.200,19.192 382.975,19.183 382.700 C 19.174 382.425,18.634 381.758,17.983 381.219 C 17.332 380.679,16.800 380.086,16.800 379.902 C 16.800 379.717,16.617 379.349,16.393 379.083 C 14.731 377.112,14.400 376.591,14.400 375.939 C 14.400 375.532,14.236 375.200,14.035 375.200 C 13.834 375.200,13.549 374.480,13.400 373.600 C 13.251 372.720,12.966 372.000,12.765 372.000 C 12.546 372.000,12.400 303.350,12.400 200.000 C 12.400 85.600,12.534 28.000,12.800 28.000 C 13.020 28.000,13.201 27.595,13.202 27.100 C 13.204 26.605,13.474 25.684,13.802 25.054 C 14.131 24.424,14.400 23.653,14.400 23.342 C 14.400 23.030,14.663 22.674,14.985 22.550 C 15.306 22.427,15.689 21.950,15.835 21.489 C 16.149 20.500,19.698 16.800,20.333 16.800 C 20.575 16.800,21.325 16.260,22.000 15.600 C 22.675 14.940,23.581 14.400,24.014 14.400 C 24.446 14.400,24.800 14.222,24.800 14.005 C 24.800 13.787,25.520 13.494,26.400 13.354 C 27.280 13.213,28.000 12.941,28.000 12.749 C 28.000 12.551,102.403 12.400,200.000 12.400 C 314.400 12.400,372.000 12.534,372.000 12.800 M121.700 55.465 C 120.803 55.827,120.987 140.356,121.886 141.014 C 122.428 141.410,128.171 141.470,149.064 141.299 L 175.555 141.082 175.814 142.112 C 175.956 142.679,176.326 143.239,176.636 143.359 C 177.119 143.544,177.200 158.935,177.200 250.987 L 177.200 358.400 199.957 358.400 C 220.340 358.400,222.740 358.334,222.957 357.767 C 223.091 357.419,223.200 308.794,223.200 249.711 C 223.200 147.873,223.236 142.261,223.900 141.757 C 224.465 141.328,229.693 141.223,251.067 141.213 C 265.624 141.206,277.819 141.091,278.167 140.957 C 278.739 140.738,278.800 136.577,278.800 97.957 L 278.800 55.200 200.500 55.232 C 157.435 55.249,121.975 55.354,121.700 55.465 M271.600 98.200 L 271.600 134.400 200.900 134.405 C 162.015 134.408,129.795 134.519,129.300 134.652 L 128.400 134.893 128.400 99.047 C 128.400 75.416,128.264 63.200,128.000 63.200 C 127.780 63.200,127.600 62.930,127.600 62.600 C 127.600 62.069,135.867 62.000,199.600 62.000 L 271.600 62.000 271.600 98.200 M0.000 385.151 L 0.000 400.000 14.600 400.000 C 27.890 400.000,31.438 399.748,27.950 399.050 C 27.262 398.913,26.103 398.800,25.374 398.800 C 24.644 398.800,23.946 398.636,23.822 398.435 C 23.697 398.234,22.877 397.948,21.998 397.800 C 21.119 397.651,20.400 397.366,20.400 397.165 C 20.400 396.964,20.053 396.800,19.629 396.800 C 19.204 396.800,18.612 396.575,18.312 396.300 C 17.574 395.624,16.389 394.880,15.300 394.409 C 14.805 394.195,14.400 393.835,14.400 393.610 C 14.400 393.384,14.130 393.200,13.800 393.200 C 13.470 393.200,13.200 393.023,13.200 392.808 C 13.200 392.592,12.750 392.302,12.200 392.164 C 11.650 392.026,11.200 391.697,11.200 391.432 C 11.200 391.167,10.660 390.551,10.000 390.063 C 9.340 389.575,8.798 388.956,8.795 388.688 C 8.792 388.420,8.087 387.443,7.228 386.518 C 6.368 385.593,5.549 384.468,5.406 384.018 C 5.263 383.568,4.978 383.200,4.773 383.200 C 4.568 383.200,4.400 382.930,4.400 382.600 C 4.400 382.270,4.234 382.000,4.032 382.000 C 3.829 382.000,3.545 381.460,3.400 380.800 C 3.255 380.140,2.994 379.600,2.821 379.600 C 2.647 379.600,2.403 378.839,2.278 377.909 C 2.154 376.978,1.860 376.153,1.626 376.075 C 1.390 375.997,1.200 374.899,1.200 373.616 C 1.200 372.043,1.007 371.138,0.600 370.800 C 0.068 370.359,0.000 371.997,0.000 385.151 M399.050 372.050 C 398.913 372.738,398.800 373.897,398.800 374.626 C 398.800 375.356,398.636 376.054,398.435 376.178 C 398.234 376.303,397.948 377.123,397.800 378.002 C 397.651 378.881,397.366 379.600,397.165 379.600 C 396.964 379.600,396.800 379.947,396.800 380.371 C 396.800 380.796,396.575 381.388,396.300 381.688 C 395.624 382.426,394.880 383.611,394.409 384.700 C 394.195 385.195,393.835 385.600,393.610 385.600 C 393.384 385.600,393.200 385.870,393.200 386.200 C 393.200 386.530,393.023 386.800,392.808 386.800 C 392.592 386.800,392.302 387.250,392.164 387.800 C 392.026 388.350,391.697 388.800,391.432 388.800 C 391.167 388.800,390.551 389.340,390.063 390.000 C 389.575 390.660,388.982 391.200,388.744 391.200 C 388.353 391.200,387.862 391.584,385.599 393.661 C 385.203 394.024,384.501 394.441,384.039 394.587 C 383.578 394.734,383.200 395.022,383.200 395.227 C 383.200 395.432,382.930 395.600,382.600 395.600 C 382.270 395.600,382.000 395.766,382.000 395.968 C 382.000 396.171,381.460 396.455,380.800 396.600 C 380.140 396.745,379.600 397.009,379.600 397.186 C 379.600 397.364,378.790 397.631,377.800 397.779 C 376.810 397.928,376.000 398.193,376.000 398.369 C 376.000 398.545,374.899 398.789,373.554 398.911 C 372.208 399.033,370.912 399.328,370.674 399.566 C 370.362 399.878,374.428 400.000,385.120 400.000 L 400.000 400.000 400.000 385.400 C 400.000 372.110,399.748 368.562,399.050 372.050 " stroke="none" fill="#f3f6f9" fill-rule="evenodd"></path><path id="path2" d="M127.600 62.600 C 127.600 62.930,127.780 63.200,128.000 63.200 C 128.264 63.200,128.400 75.416,128.400 99.047 L 128.400 134.893 129.300 134.652 C 129.795 134.519,162.015 134.408,200.900 134.405 L 271.600 134.400 271.600 98.200 L 271.600 62.000 199.600 62.000 C 135.867 62.000,127.600 62.069,127.600 62.600 " stroke="none" fill="#ec142c" fill-rule="evenodd"></path><path id="path3" d="M31.600 0.600 C 31.600 0.930,31.780 1.200,32.000 1.200 C 32.220 1.200,32.400 0.930,32.400 0.600 C 32.400 0.270,32.220 0.000,32.000 0.000 C 31.780 0.000,31.600 0.270,31.600 0.600 M25.800 1.600 C 25.656 1.833,26.063 2.000,26.776 2.000 C 27.449 2.000,28.000 1.820,28.000 1.600 C 28.000 1.380,27.561 1.200,27.024 1.200 C 26.487 1.200,25.936 1.380,25.800 1.600 M372.000 1.600 C 372.000 1.820,372.551 2.000,373.224 2.000 C 373.937 2.000,374.344 1.833,374.200 1.600 C 373.878 1.079,372.000 1.079,372.000 1.600 M377.120 2.880 C 377.493 3.253,377.707 3.253,378.080 2.880 C 378.453 2.507,378.347 2.400,377.600 2.400 C 376.853 2.400,376.747 2.507,377.120 2.880 M31.071 12.662 C 30.927 12.806,30.132 13.056,29.304 13.216 L 27.800 13.508 29.433 13.554 C 30.332 13.579,31.158 13.509,31.269 13.397 C 31.523 13.144,365.428 13.134,369.345 13.387 L 372.200 13.572 369.600 13.005 C 366.853 12.405,31.667 12.066,31.071 12.662 M373.855 14.200 C 373.982 14.530,374.471 14.779,374.943 14.754 C 375.619 14.717,375.652 14.669,375.100 14.524 C 374.715 14.424,374.400 14.175,374.400 13.971 C 374.400 13.767,374.226 13.600,374.013 13.600 C 373.799 13.600,373.729 13.870,373.855 14.200 M377.154 16.006 C 377.899 16.663,378.754 17.200,379.054 17.200 C 379.354 17.200,379.600 17.361,379.600 17.557 C 379.600 17.754,379.861 18.014,380.180 18.137 C 380.562 18.284,380.685 18.167,380.543 17.795 C 380.424 17.484,379.951 17.111,379.492 16.966 C 379.034 16.820,378.197 16.273,377.633 15.751 C 377.070 15.228,376.426 14.803,376.204 14.806 C 375.982 14.810,376.409 15.350,377.154 16.006 M21.213 16.691 C 20.689 17.282,20.703 17.323,21.346 17.076 C 21.742 16.924,22.141 16.800,22.233 16.800 C 22.325 16.800,22.400 16.620,22.400 16.400 C 22.400 15.812,21.881 15.939,21.213 16.691 M17.429 19.829 C 17.083 20.174,16.800 20.632,16.800 20.846 C 16.800 21.060,16.350 21.720,15.800 22.313 C 15.250 22.907,14.803 23.574,14.806 23.796 C 14.810 24.018,15.350 23.591,16.006 22.846 C 16.663 22.101,17.200 21.246,17.200 20.946 C 17.200 20.646,17.361 20.400,17.557 20.400 C 17.754 20.400,18.018 20.130,18.145 19.800 C 18.440 19.031,18.218 19.040,17.429 19.829 M381.826 19.722 C 381.969 20.095,382.246 20.400,382.443 20.400 C 382.639 20.400,382.800 20.642,382.800 20.939 C 382.800 21.235,383.151 21.882,383.579 22.376 C 384.007 22.870,384.433 23.482,384.524 23.737 C 384.616 23.992,384.823 24.077,384.986 23.926 C 385.258 23.673,385.029 23.297,383.700 21.815 C 383.425 21.508,383.200 21.092,383.200 20.891 C 383.200 20.689,382.832 20.191,382.383 19.784 C 381.667 19.136,381.598 19.129,381.826 19.722 M2.400 22.376 C 2.400 22.829,2.580 23.200,2.800 23.200 C 3.020 23.200,3.200 22.941,3.200 22.624 C 3.200 22.307,3.020 21.936,2.800 21.800 C 2.580 21.664,2.400 21.923,2.400 22.376 M14.138 25.413 C 13.879 25.965,13.841 26.400,14.050 26.400 C 14.495 26.400,14.934 25.395,14.738 24.826 C 14.662 24.606,14.392 24.870,14.138 25.413 M385.246 24.851 C 385.221 25.209,385.470 25.726,385.800 26.000 C 386.215 26.344,386.400 26.359,386.400 26.049 C 386.400 25.802,386.233 25.600,386.029 25.600 C 385.825 25.600,385.576 25.285,385.476 24.900 C 385.321 24.309,385.286 24.302,385.246 24.851 M1.467 25.867 C 1.048 26.285,1.155 28.000,1.600 28.000 C 1.820 28.000,2.000 27.460,2.000 26.800 C 2.000 25.557,1.919 25.415,1.467 25.867 M398.000 26.776 C 398.000 27.423,398.180 28.064,398.400 28.200 C 398.638 28.347,398.800 27.871,398.800 27.024 C 398.800 26.241,398.620 25.600,398.400 25.600 C 398.180 25.600,398.000 26.129,398.000 26.776 M386.611 30.345 C 386.858 33.724,386.840 366.711,386.592 369.800 L 386.399 372.200 387.001 369.853 C 387.793 366.765,387.683 32.133,386.889 29.400 C 386.441 27.857,386.431 27.891,386.611 30.345 M12.831 31.074 C 12.206 34.856,12.447 368.265,13.077 370.600 L 13.508 372.200 13.554 370.580 C 13.579 369.689,13.465 368.789,13.300 368.580 C 13.135 368.371,13.090 291.790,13.200 198.400 C 13.310 105.010,13.373 28.543,13.341 28.474 C 13.308 28.405,13.078 29.575,12.831 31.074 M199.805 54.000 C 121.005 54.199,120.610 54.204,120.467 55.000 C 120.350 55.647,120.422 55.704,120.841 55.300 C 121.252 54.904,137.591 54.792,199.580 54.760 C 269.933 54.724,280.772 54.619,279.396 53.983 C 279.178 53.882,243.362 53.890,199.805 54.000 M279.200 140.967 C 279.200 141.278,278.975 141.624,278.700 141.735 C 278.401 141.856,278.482 141.950,278.900 141.968 C 279.344 141.988,279.600 141.707,279.600 141.200 C 279.600 140.760,279.510 140.400,279.400 140.400 C 279.290 140.400,279.200 140.655,279.200 140.967 M223.700 142.265 C 223.302 142.426,223.200 164.475,223.200 250.637 L 223.200 358.806 200.100 358.703 L 177.000 358.600 176.899 250.943 C 176.819 165.344,176.696 143.246,176.299 143.093 C 175.423 142.757,175.787 357.902,176.664 358.871 C 177.288 359.560,178.571 359.600,200.115 359.600 L 222.906 359.600 223.653 358.739 C 224.305 357.987,224.950 141.826,224.300 142.032 C 224.245 142.049,223.975 142.154,223.700 142.265 M398.800 366.800 C 398.800 367.020,399.070 367.200,399.400 367.200 C 399.730 367.200,400.000 367.020,400.000 366.800 C 400.000 366.580,399.730 366.400,399.400 366.400 C 399.070 366.400,398.800 366.580,398.800 366.800 M0.000 368.000 C 0.000 368.220,0.270 368.400,0.600 368.400 C 0.930 368.400,1.200 368.220,1.200 368.000 C 1.200 367.780,0.930 367.600,0.600 367.600 C 0.270 367.600,0.000 367.780,0.000 368.000 M1.200 372.976 C 1.200 373.513,1.380 374.064,1.600 374.200 C 1.833 374.344,2.000 373.937,2.000 373.224 C 2.000 372.551,1.820 372.000,1.600 372.000 C 1.380 372.000,1.200 372.439,1.200 372.976 M398.000 373.200 C 398.000 373.860,398.180 374.400,398.400 374.400 C 398.620 374.400,398.800 373.860,398.800 373.200 C 398.800 372.540,398.620 372.000,398.400 372.000 C 398.180 372.000,398.000 372.540,398.000 373.200 M13.625 373.200 C 13.625 373.530,13.890 374.149,14.213 374.576 C 14.656 375.163,14.800 375.206,14.800 374.753 C 14.800 374.423,14.536 373.804,14.213 373.376 C 13.769 372.790,13.625 372.747,13.625 373.200 M385.673 373.287 C 385.413 373.547,385.200 374.242,385.200 374.831 C 385.200 375.420,384.930 376.126,384.600 376.400 C 384.270 376.674,384.000 377.159,384.000 377.478 C 384.000 378.553,385.189 376.964,385.462 375.523 C 385.600 374.795,385.893 373.971,386.113 373.690 C 386.644 373.016,386.279 372.681,385.673 373.287 M382.764 379.117 C 381.684 380.378,381.508 380.810,382.179 380.553 C 382.521 380.422,382.800 380.167,382.800 379.986 C 382.800 379.805,383.083 379.374,383.429 379.029 C 383.774 378.683,383.904 378.400,383.717 378.400 C 383.531 378.400,383.101 378.723,382.764 379.117 M19.447 382.179 C 19.578 382.521,19.833 382.800,20.014 382.800 C 20.195 382.800,20.626 383.083,20.971 383.429 C 21.317 383.774,21.600 383.904,21.600 383.717 C 21.600 383.383,20.625 382.434,19.687 381.854 C 19.368 381.657,19.288 381.765,19.447 382.179 M379.857 382.200 C 379.527 382.530,379.034 382.800,378.762 382.800 C 378.490 382.800,378.373 382.906,378.503 383.037 C 378.882 383.416,380.305 382.824,380.550 382.185 C 380.837 381.438,380.614 381.443,379.857 382.200 M22.624 384.587 C 23.639 385.356,24.234 385.363,23.600 384.600 C 23.326 384.270,22.820 384.000,22.475 384.000 C 21.972 384.000,22.002 384.117,22.624 384.587 M376.400 384.600 C 376.056 385.015,376.041 385.200,376.351 385.200 C 376.598 385.200,376.800 385.033,376.800 384.829 C 376.800 384.625,377.115 384.376,377.500 384.276 C 378.091 384.121,378.098 384.086,377.549 384.046 C 377.191 384.021,376.674 384.270,376.400 384.600 M374.000 385.800 C 373.656 386.215,373.641 386.400,373.951 386.400 C 374.198 386.400,374.400 386.233,374.400 386.029 C 374.400 385.825,374.715 385.576,375.100 385.476 C 375.691 385.321,375.698 385.286,375.149 385.246 C 374.791 385.221,374.274 385.470,374.000 385.800 M30.000 386.983 C 33.327 387.865,366.676 387.864,370.000 386.983 L 372.200 386.400 370.000 386.596 C 367.155 386.849,33.372 386.846,30.200 386.593 L 27.800 386.401 30.000 386.983 M25.600 398.400 C 25.600 398.620,26.140 398.800,26.800 398.800 C 27.460 398.800,28.000 398.620,28.000 398.400 C 28.000 398.180,27.460 398.000,26.800 398.000 C 26.140 398.000,25.600 398.180,25.600 398.400 M371.800 398.400 C 371.653 398.638,372.129 398.800,372.976 398.800 C 373.759 398.800,374.400 398.620,374.400 398.400 C 374.400 398.180,373.871 398.000,373.224 398.000 C 372.577 398.000,371.936 398.180,371.800 398.400 M32.800 399.400 C 32.800 399.730,32.980 400.000,33.200 400.000 C 33.420 400.000,33.600 399.730,33.600 399.400 C 33.600 399.070,33.420 398.800,33.200 398.800 C 32.980 398.800,32.800 399.070,32.800 399.400 " stroke="none" fill="#499bd6" fill-rule="evenodd"></path><path id="path4" d="M29.319 0.515 C 28.171 1.673,27.570 2.000,26.593 2.000 C 26.001 2.000,25.659 1.828,25.800 1.600 C 25.940 1.373,25.604 1.200,25.024 1.200 C 24.461 1.200,24.000 1.380,24.000 1.600 C 24.000 1.820,23.685 2.014,23.300 2.032 C 22.878 2.051,22.799 2.144,23.102 2.266 C 23.379 2.377,23.506 2.629,23.384 2.826 C 23.260 3.026,22.839 2.981,22.428 2.724 C 21.852 2.365,21.386 2.411,20.286 2.933 C 19.512 3.300,18.681 3.600,18.440 3.600 C 18.198 3.600,18.000 3.780,18.000 4.000 C 18.000 4.220,17.812 4.400,17.583 4.400 C 17.354 4.400,16.949 4.574,16.683 4.788 C 13.456 7.377,11.564 8.800,11.346 8.800 C 11.199 8.800,10.342 9.606,9.440 10.592 C 7.045 13.208,6.800 13.523,6.800 13.983 C 6.800 14.212,6.630 14.400,6.422 14.400 C 6.049 14.400,5.062 15.939,4.563 17.300 C 4.422 17.685,4.148 18.000,3.953 18.000 C 3.759 18.000,3.599 18.225,3.598 18.500 C 3.596 18.775,3.331 19.506,3.009 20.124 C 2.547 21.010,2.523 21.408,2.896 22.006 C 3.157 22.422,3.217 22.907,3.030 23.082 C 2.843 23.257,2.606 23.162,2.502 22.872 C 2.382 22.534,2.114 22.730,1.757 23.417 C 1.112 24.660,1.013 26.163,1.600 25.800 C 1.833 25.656,2.000 26.063,2.000 26.776 C 2.000 27.597,1.803 28.000,1.400 28.000 C 1.070 28.000,0.800 28.270,0.800 28.600 C 0.800 28.930,0.620 29.200,0.400 29.200 C 0.134 29.200,0.000 85.867,0.000 198.400 C 0.000 348.533,0.068 367.600,0.600 367.600 C 0.930 367.600,1.200 367.780,1.200 368.000 C 1.200 368.220,0.930 368.400,0.600 368.400 C -0.346 368.400,-0.113 370.087,1.000 371.287 C 1.952 372.314,2.449 374.725,1.600 374.200 C 1.373 374.060,1.200 374.396,1.200 374.976 C 1.200 375.539,1.380 376.000,1.600 376.000 C 1.820 376.000,2.014 376.315,2.032 376.700 C 2.051 377.122,2.144 377.201,2.266 376.898 C 2.708 375.800,3.099 376.884,2.670 378.020 C 2.324 378.938,2.324 379.306,2.674 379.522 C 2.928 379.679,3.260 380.301,3.412 380.904 C 3.563 381.507,3.847 382.000,4.043 382.000 C 4.240 382.000,4.400 382.270,4.400 382.600 C 4.400 382.930,4.568 383.200,4.773 383.200 C 4.978 383.200,5.263 383.568,5.406 384.018 C 5.549 384.468,6.368 385.593,7.228 386.518 C 8.087 387.443,8.792 388.420,8.795 388.688 C 8.798 388.956,9.340 389.575,10.000 390.063 C 10.660 390.551,11.200 391.167,11.200 391.432 C 11.200 391.697,11.650 392.026,12.200 392.164 C 12.750 392.302,13.200 392.592,13.200 392.808 C 13.200 393.023,13.470 393.200,13.800 393.200 C 14.130 393.200,14.400 393.384,14.400 393.610 C 14.400 393.835,14.805 394.195,15.300 394.409 C 16.389 394.880,17.574 395.624,18.312 396.300 C 18.612 396.575,19.204 396.800,19.629 396.800 C 20.053 396.800,20.400 396.982,20.400 397.205 C 20.400 397.445,21.089 397.529,22.100 397.411 C 23.405 397.259,23.567 397.295,22.800 397.566 C 21.861 397.899,21.853 397.923,22.676 397.960 C 23.158 397.982,23.664 398.180,23.800 398.400 C 24.122 398.920,25.600 398.920,25.600 398.400 C 25.600 398.180,26.159 398.000,26.843 398.000 C 27.783 398.000,28.030 398.146,27.855 398.600 C 27.699 399.008,27.877 399.200,28.413 399.200 C 28.846 399.200,29.200 399.380,29.200 399.600 C 29.200 399.820,30.010 400.000,31.000 400.000 C 32.333 400.000,32.800 399.844,32.800 399.400 C 32.800 399.070,32.980 398.800,33.200 398.800 C 33.420 398.800,33.600 399.070,33.600 399.400 C 33.600 400.135,370.146 400.334,370.600 399.600 C 370.736 399.380,371.242 399.186,371.724 399.168 C 372.206 399.151,372.374 399.046,372.098 398.934 C 371.821 398.823,371.697 398.567,371.821 398.366 C 372.128 397.869,374.400 397.899,374.400 398.400 C 374.400 398.620,374.760 398.800,375.200 398.800 C 375.640 398.800,376.000 398.620,376.000 398.400 C 376.000 398.180,376.405 397.979,376.900 397.954 C 377.585 397.918,377.632 397.863,377.095 397.723 C 376.707 397.622,376.483 397.389,376.597 397.205 C 376.710 397.021,377.351 397.077,378.020 397.330 C 378.938 397.676,379.306 397.676,379.522 397.326 C 379.679 397.072,380.301 396.740,380.904 396.588 C 381.507 396.437,382.000 396.153,382.000 395.957 C 382.000 395.760,382.270 395.600,382.600 395.600 C 382.930 395.600,383.200 395.432,383.200 395.227 C 383.200 395.022,383.578 394.734,384.039 394.587 C 384.501 394.441,385.203 394.024,385.599 393.661 C 387.862 391.584,388.353 391.200,388.744 391.200 C 388.982 391.200,389.575 390.660,390.063 390.000 C 390.551 389.340,391.167 388.800,391.432 388.800 C 391.697 388.800,392.026 388.350,392.164 387.800 C 392.302 387.250,392.592 386.800,392.808 386.800 C 393.023 386.800,393.200 386.530,393.200 386.200 C 393.200 385.870,393.384 385.600,393.610 385.600 C 393.835 385.600,394.195 385.195,394.409 384.700 C 394.880 383.611,395.624 382.426,396.300 381.688 C 396.575 381.388,396.800 380.796,396.800 380.371 C 396.800 379.947,396.982 379.600,397.205 379.600 C 397.445 379.600,397.529 378.911,397.411 377.900 C 397.259 376.595,397.295 376.433,397.566 377.200 C 397.899 378.139,397.923 378.147,397.960 377.324 C 397.982 376.842,398.180 376.336,398.400 376.200 C 398.920 375.878,398.920 374.400,398.400 374.400 C 398.180 374.400,398.000 373.841,398.000 373.157 C 398.000 372.217,398.146 371.970,398.600 372.145 C 399.008 372.301,399.200 372.123,399.200 371.587 C 399.200 371.154,399.380 370.800,399.600 370.800 C 399.820 370.800,400.000 369.990,400.000 369.000 C 400.000 367.667,399.844 367.200,399.400 367.200 C 399.070 367.200,398.800 367.020,398.800 366.800 C 398.800 366.580,399.070 366.400,399.400 366.400 C 399.932 366.400,400.000 347.422,400.000 198.000 C 400.000 86.000,399.866 29.600,399.600 29.600 C 399.380 29.600,399.186 29.105,399.168 28.500 C 399.151 27.895,399.046 27.626,398.934 27.902 C 398.823 28.179,398.567 28.303,398.366 28.179 C 397.869 27.872,397.899 25.600,398.400 25.600 C 398.620 25.600,398.800 25.240,398.800 24.800 C 398.800 24.360,398.620 24.000,398.400 24.000 C 398.180 24.000,397.979 23.595,397.954 23.100 C 397.918 22.415,397.863 22.368,397.723 22.905 C 397.622 23.293,397.389 23.517,397.205 23.403 C 397.021 23.290,397.077 22.649,397.330 21.980 C 397.676 21.062,397.676 20.694,397.326 20.478 C 397.072 20.321,396.740 19.699,396.588 19.096 C 396.437 18.493,396.153 18.000,395.957 18.000 C 395.760 18.000,395.600 17.730,395.600 17.400 C 395.600 17.070,395.432 16.800,395.227 16.800 C 395.022 16.800,394.734 16.422,394.587 15.961 C 394.441 15.499,394.024 14.797,393.661 14.401 C 391.584 12.138,391.200 11.647,391.200 11.256 C 391.200 11.018,390.660 10.425,390.000 9.937 C 389.340 9.449,388.800 8.833,388.800 8.568 C 388.800 8.303,388.350 7.974,387.800 7.836 C 387.250 7.698,386.800 7.408,386.800 7.192 C 386.800 6.977,386.530 6.800,386.200 6.800 C 385.870 6.800,385.600 6.611,385.600 6.379 C 385.600 6.148,385.060 5.770,384.400 5.540 C 383.740 5.310,383.200 4.959,383.200 4.761 C 383.200 4.562,382.930 4.400,382.600 4.400 C 382.270 4.400,382.000 4.240,382.000 4.043 C 382.000 3.847,381.507 3.563,380.904 3.412 C 380.301 3.260,379.677 2.926,379.516 2.668 C 379.297 2.316,379.012 2.332,378.365 2.733 C 377.749 3.115,377.383 3.143,377.073 2.833 C 376.762 2.522,376.804 2.399,377.220 2.398 C 377.539 2.396,377.284 2.126,376.654 1.798 C 375.355 1.120,373.827 0.997,374.200 1.600 C 374.344 1.833,373.937 2.000,373.224 2.000 C 372.403 2.000,372.000 1.803,372.000 1.400 C 372.000 1.070,371.730 0.800,371.400 0.800 C 371.070 0.800,370.800 0.620,370.800 0.400 C 370.800 0.134,314.133 0.000,201.600 0.000 C 51.467 0.000,32.400 0.068,32.400 0.600 C 32.400 0.930,32.220 1.200,32.000 1.200 C 31.780 1.200,31.600 0.930,31.600 0.600 C 31.600 -0.124,30.012 -0.183,29.319 0.515 M375.357 2.900 C 375.742 3.285,376.539 3.606,377.129 3.613 C 377.718 3.620,378.549 3.890,378.976 4.213 C 379.404 4.536,380.091 4.800,380.505 4.800 C 380.919 4.800,381.508 5.025,381.815 5.300 C 383.075 6.430,383.502 6.715,384.331 6.978 C 384.809 7.130,385.200 7.422,385.200 7.627 C 385.200 7.832,385.368 8.000,385.572 8.000 C 386.260 8.000,388.766 9.795,388.783 10.300 C 388.792 10.575,389.475 11.491,390.300 12.335 C 391.964 14.038,392.706 15.051,393.058 16.100 C 393.188 16.485,393.411 16.800,393.556 16.800 C 393.700 16.800,394.145 17.475,394.544 18.300 C 394.943 19.125,395.524 20.310,395.835 20.932 C 396.146 21.555,396.400 22.487,396.400 23.004 C 396.400 23.520,396.715 24.258,397.100 24.643 C 398.002 25.545,398.214 374.795,397.313 375.096 C 397.045 375.185,396.704 375.903,396.556 376.692 C 396.408 377.480,396.044 378.592,395.746 379.163 C 395.448 379.733,395.204 380.515,395.202 380.900 C 395.201 381.285,395.020 381.600,394.800 381.600 C 394.580 381.600,394.400 381.876,394.400 382.213 C 394.400 382.549,394.130 382.929,393.800 383.055 C 393.470 383.182,393.200 383.480,393.200 383.717 C 393.200 384.459,390.225 388.764,389.700 388.783 C 389.425 388.792,388.509 389.475,387.665 390.300 C 385.962 391.964,384.949 392.706,383.900 393.058 C 383.515 393.188,383.200 393.411,383.200 393.556 C 383.200 394.041,378.666 396.130,376.604 396.594 C 375.946 396.742,375.278 397.074,375.119 397.332 C 374.688 398.028,25.136 398.009,24.904 397.313 C 24.815 397.045,24.097 396.704,23.308 396.556 C 22.520 396.408,21.408 396.044,20.837 395.746 C 20.267 395.448,19.485 395.204,19.100 395.202 C 18.715 395.201,18.400 395.020,18.400 394.800 C 18.400 394.580,18.124 394.400,17.787 394.400 C 17.451 394.400,17.078 394.146,16.959 393.836 C 16.839 393.526,16.305 393.163,15.771 393.028 C 15.237 392.894,14.800 392.608,14.800 392.392 C 14.800 392.177,14.530 392.000,14.200 392.000 C 13.870 392.000,13.600 391.842,13.600 391.649 C 13.600 391.455,13.060 391.073,12.400 390.800 C 11.740 390.527,11.200 390.041,11.200 389.721 C 11.200 389.051,9.023 386.744,8.649 387.018 C 8.512 387.118,8.489 387.081,8.598 386.935 C 8.707 386.790,8.347 386.082,7.798 385.362 C 7.249 384.642,6.800 383.861,6.800 383.627 C 6.800 383.392,6.641 383.200,6.447 383.200 C 6.252 383.200,5.988 382.885,5.858 382.500 C 5.729 382.115,5.468 381.530,5.279 381.200 C 4.208 379.334,3.600 377.832,3.600 377.057 C 3.600 376.573,3.285 375.733,2.900 375.189 C 1.810 373.650,1.810 25.733,2.900 24.643 C 3.285 24.258,3.606 23.461,3.613 22.871 C 3.620 22.282,3.890 21.451,4.213 21.024 C 4.536 20.596,4.800 19.914,4.800 19.507 C 4.800 18.823,5.020 18.453,6.247 17.067 C 6.493 16.790,6.820 16.166,6.974 15.681 C 7.128 15.197,7.422 14.800,7.627 14.800 C 7.832 14.800,8.000 14.530,8.000 14.200 C 8.000 13.870,8.189 13.600,8.421 13.600 C 8.652 13.600,9.030 13.060,9.260 12.400 C 9.490 11.740,9.944 11.200,10.270 11.200 C 11.024 11.200,13.257 8.991,12.882 8.615 C 12.727 8.460,12.780 8.380,13.000 8.436 C 13.548 8.578,15.600 7.551,15.600 7.136 C 15.600 6.951,15.870 6.800,16.200 6.800 C 16.530 6.800,16.800 6.641,16.800 6.447 C 16.800 6.252,17.115 5.988,17.500 5.858 C 17.885 5.729,18.470 5.468,18.800 5.279 C 20.666 4.208,22.168 3.600,22.943 3.600 C 23.427 3.600,24.194 3.339,24.649 3.021 C 25.926 2.126,20.680 2.151,202.629 2.176 C 365.914 2.199,374.693 2.236,375.357 2.900 M28.000 12.773 C 28.000 12.979,27.595 13.223,27.100 13.315 C 26.605 13.408,27.100 13.399,28.200 13.297 C 30.900 13.045,31.947 12.428,29.700 12.412 C 28.765 12.405,28.000 12.568,28.000 12.773 M370.200 13.039 C 371.740 13.349,373.270 13.533,373.600 13.448 C 373.930 13.363,373.705 13.272,373.100 13.246 C 372.495 13.221,372.000 13.020,372.000 12.800 C 372.000 12.575,370.992 12.416,369.700 12.438 L 367.400 12.475 370.200 13.039 M24.800 14.000 C 24.800 14.220,24.468 14.400,24.062 14.400 C 23.174 14.400,20.917 16.250,21.317 16.651 C 21.473 16.806,21.600 16.723,21.600 16.467 C 21.600 16.210,21.876 16.000,22.213 16.000 C 22.549 16.000,22.921 15.750,23.038 15.445 C 23.155 15.140,23.780 14.784,24.426 14.655 C 25.506 14.439,26.122 13.600,25.200 13.600 C 24.980 13.600,24.800 13.780,24.800 14.000 M374.400 13.968 C 374.400 14.171,374.904 14.447,375.519 14.582 C 376.135 14.717,377.093 15.250,377.648 15.765 C 378.204 16.280,379.041 16.823,379.509 16.971 C 379.976 17.119,380.460 17.559,380.584 17.948 C 380.823 18.702,383.200 20.651,383.200 20.093 C 383.200 19.911,382.668 19.321,382.017 18.781 C 381.366 18.242,380.826 17.575,380.817 17.300 C 380.808 17.025,380.530 16.800,380.200 16.800 C 379.870 16.800,379.600 16.623,379.600 16.408 C 379.600 16.192,379.163 15.906,378.629 15.772 C 378.095 15.637,377.561 15.274,377.441 14.964 C 377.322 14.654,376.870 14.400,376.436 14.400 C 376.002 14.400,375.536 14.220,375.400 14.000 C 375.090 13.498,374.400 13.476,374.400 13.968 M17.948 18.746 C 16.929 19.803,15.977 21.041,15.833 21.497 C 15.688 21.953,15.306 22.427,14.985 22.550 C 14.663 22.674,14.400 23.030,14.400 23.342 C 14.400 23.653,14.131 24.424,13.802 25.054 C 13.474 25.684,13.204 26.605,13.202 27.100 C 13.201 27.595,13.020 28.000,12.800 28.000 C 12.575 28.000,12.417 29.007,12.439 30.300 L 12.478 32.600 13.164 29.400 C 13.541 27.640,14.064 25.693,14.325 25.074 C 14.586 24.455,14.800 23.823,14.800 23.670 C 14.800 23.517,15.228 22.930,15.751 22.367 C 16.273 21.803,16.826 20.950,16.978 20.471 C 17.130 19.992,17.416 19.600,17.614 19.600 C 17.811 19.600,18.603 18.970,19.373 18.200 C 20.143 17.430,20.554 16.805,20.287 16.812 C 20.019 16.818,18.967 17.689,17.948 18.746 M383.200 20.950 C 383.200 21.214,383.541 21.682,384.636 22.921 C 384.875 23.192,385.176 23.681,385.304 24.007 C 385.470 24.431,385.543 24.371,385.557 23.800 C 385.569 23.360,385.043 22.475,384.389 21.833 C 383.735 21.192,383.200 20.794,383.200 20.950 M385.600 25.200 C 385.600 25.420,385.759 25.600,385.954 25.600 C 386.149 25.600,386.435 26.619,386.591 27.865 C 387.006 31.185,387.543 32.296,387.575 29.900 C 387.589 28.855,387.420 28.000,387.200 28.000 C 386.980 28.000,386.800 27.565,386.800 27.033 C 386.800 26.501,386.691 25.781,386.557 25.433 C 386.289 24.735,385.600 24.567,385.600 25.200 M199.840 54.700 C 142.728 54.774,121.333 54.923,120.940 55.250 C 120.271 55.805,120.125 139.226,120.790 140.974 L 121.180 142.000 148.390 142.000 C 168.855 142.000,175.600 142.116,175.600 142.467 C 175.600 142.723,175.694 142.839,175.809 142.724 C 175.925 142.609,175.895 142.192,175.744 141.799 C 175.483 141.118,174.177 141.093,149.021 141.299 C 128.163 141.470,122.428 141.410,121.886 141.014 C 120.870 140.271,120.817 55.833,121.833 55.443 C 122.181 55.309,157.641 55.200,200.633 55.200 L 278.800 55.200 278.800 97.957 C 278.800 136.577,278.739 140.738,278.167 140.957 C 277.819 141.091,265.624 141.206,251.067 141.213 C 230.895 141.222,224.448 141.341,223.960 141.713 C 223.318 142.202,276.181 142.296,278.252 141.809 C 279.602 141.492,279.589 141.929,279.595 97.100 C 279.600 56.661,279.563 54.405,278.900 54.499 C 278.515 54.553,242.938 54.644,199.840 54.700 M176.999 251.000 L 177.000 358.600 200.100 358.703 C 221.923 358.801,223.198 358.768,223.168 358.103 C 223.150 357.685,223.055 357.603,222.935 357.900 C 222.777 358.292,217.806 358.400,199.967 358.400 L 177.201 358.400 177.100 250.900 L 176.998 143.400 176.999 251.000 M386.854 370.905 C 386.553 372.393,386.148 373.708,385.954 373.829 C 385.759 373.949,385.600 374.407,385.600 374.847 C 385.600 376.135,386.344 375.306,386.642 373.686 C 386.792 372.869,387.081 372.092,387.284 371.960 C 387.486 371.829,387.595 370.929,387.526 369.960 L 387.400 368.200 386.854 370.905 M12.412 370.300 C 12.405 371.235,12.567 372.000,12.772 372.000 C 12.977 372.000,13.218 372.315,13.309 372.700 C 13.399 373.085,13.389 372.590,13.287 371.600 C 13.022 369.043,12.427 368.159,12.412 370.300 M13.613 374.500 C 13.606 374.885,13.780 375.200,14.000 375.200 C 14.220 375.200,14.400 375.532,14.400 375.939 C 14.400 376.591,14.731 377.112,16.393 379.083 C 16.617 379.349,16.800 379.717,16.800 379.902 C 16.800 380.086,17.332 380.679,17.983 381.219 C 18.634 381.758,19.174 382.425,19.183 382.700 C 19.192 382.975,19.393 383.200,19.629 383.200 C 19.864 383.200,20.327 383.470,20.657 383.800 C 20.987 384.130,21.452 384.400,21.690 384.400 C 21.928 384.400,21.707 384.040,21.200 383.600 C 20.693 383.160,20.154 382.800,20.003 382.800 C 19.852 382.800,19.530 382.366,19.289 381.835 C 19.047 381.304,18.478 380.752,18.024 380.608 C 17.571 380.464,17.200 380.116,17.200 379.834 C 17.200 379.383,16.827 378.838,15.207 376.917 C 14.983 376.651,14.800 376.191,14.800 375.893 C 14.800 374.992,13.629 373.618,13.613 374.500 M383.596 378.843 C 383.268 379.318,382.762 379.908,382.471 380.154 C 380.419 381.886,379.433 383.200,380.184 383.200 C 380.523 383.200,380.800 383.020,380.800 382.800 C 380.800 382.580,381.160 382.040,381.600 381.600 C 382.040 381.160,382.580 380.800,382.800 380.800 C 383.020 380.800,383.200 380.595,383.200 380.344 C 383.200 380.093,383.495 379.673,383.855 379.409 C 384.215 379.146,384.439 378.716,384.351 378.454 C 384.255 378.164,383.960 378.316,383.596 378.843 M378.243 383.833 C 378.093 384.223,378.182 384.406,378.475 384.308 C 379.073 384.109,379.402 383.200,378.876 383.200 C 378.661 383.200,378.376 383.485,378.243 383.833 M22.400 384.809 C 22.400 385.038,22.715 385.324,23.100 385.444 C 23.485 385.564,24.278 385.919,24.862 386.231 C 25.446 386.544,26.391 386.800,26.962 386.800 C 27.533 386.800,28.000 386.980,28.000 387.200 C 28.000 387.420,28.855 387.579,29.900 387.553 L 31.800 387.506 29.200 386.922 C 26.744 386.370,24.681 385.645,23.100 384.777 C 22.636 384.523,22.400 384.533,22.400 384.809 M376.800 384.771 C 376.800 384.975,376.485 385.233,376.100 385.345 C 375.679 385.467,375.786 385.518,376.369 385.474 C 377.304 385.403,378.112 384.400,377.233 384.400 C 376.995 384.400,376.800 384.567,376.800 384.771 M374.400 385.922 C 374.400 386.099,373.005 386.501,371.300 386.814 C 368.323 387.361,368.271 387.389,369.991 387.519 C 371.024 387.598,371.842 387.474,371.924 387.227 C 372.003 386.992,372.487 386.800,373.001 386.800 C 373.514 386.800,374.219 386.691,374.567 386.557 C 375.265 386.289,375.433 385.600,374.800 385.600 C 374.580 385.600,374.400 385.745,374.400 385.922 " stroke="none" fill="#7cbce4" fill-rule="evenodd"></path></g></svg>