<?xml version="1.0" encoding="utf-8"?>
<!-- Generator: Adobe Illustrator 26.0.3, SVG Export Plug-In . SVG Version: 6.00 Build 0)  -->
<svg version="1.1" id="Lag_1" xmlns="http://www.w3.org/2000/svg" xmlns:xlink="http://www.w3.org/1999/xlink" x="0px" y="0px"
	 viewBox="0 0 42.5 42.3" style="enable-background:new 0 0 42.5 42.3;" xml:space="preserve">
<style type="text/css">
	.st0{fill:#274E6F;}
	.st1{fill:#FFFFFF;}
</style>
<g>
	<rect x="0" y="-0.1" class="st0" width="42.5" height="42.5"/>
	<g>
		<path class="st1" d="M35.8,31.1l-1.1-1.9L33.2,30l0,0l-4.1-7.5H18.8l-0.6-3.4l-0.1-0.5h8.3c0.4,0,0.7-0.3,0.7-0.7v-2
			c0-0.4-0.3-0.7-0.7-0.7h-8.9l-0.3-1.8c1.7-0.6,2.9-2.4,2.6-4.3c-0.2-1.8-1.7-3.2-3.5-3.5C14,5.3,12,7.2,12,9.5
			c0,1.3,0.6,2.5,1.7,3.3l2,12.1c0.1,0.6,0.7,1.1,1.3,1.1h10l4.1,7.4c0.4,0.7,1.3,1,2.1,0.6l2.2-1.2C36,32.4,36.2,31.7,35.8,31.1z"
			/>
		<path class="st1" d="M18.4,37.4c3.5,0,6.8-1.7,8.8-4.6l0.3-0.4L26,29.5l-0.9-1.6l0,0l0,0l-0.7,1.5c-1.1,2.3-3.4,3.8-5.9,3.8
			c-3.6,0-6.6-2.9-6.6-6.6c0-1.4,0.4-2.7,1.2-3.8l-0.6-3.8l-0.2-1.1l0,0l0,0l-0.2,0.1l0,0c-2.8,2-4.4,5.3-4.4,8.7
			C7.6,32.5,12.5,37.4,18.4,37.4z"/>
	</g>
</g>
</svg>
