<?xml version="1.0" encoding="utf-8"?>
<!-- Generator: Adobe Illustrator 26.3.1, SVG Export Plug-In . SVG Version: 6.00 Build 0)  -->
<svg version="1.1" id="Lag_1" xmlns:odm="http://product.corel.com/CGS/11/cddns/"
	 xmlns="http://www.w3.org/2000/svg" xmlns:xlink="http://www.w3.org/1999/xlink" x="0px" y="0px" viewBox="0 0 600 600"
	 style="enable-background:new 0 0 600 600;" xml:space="preserve">
<style type="text/css">
	.st0{fill-rule:evenodd;clip-rule:evenodd;fill:#FFFFFF;}
	.st1{fill-rule:evenodd;clip-rule:evenodd;fill:#009A3B;}
</style>
<g id="Ebene_1">
	<rect y="0" class="st0" width="600" height="600"/>
	<path class="st1" d="M0,0h300h300v300v300H300H0V0z M259,553c21-11,49-30,77-55c30-25,53-49,74-75c27-32,46-65,51-90
		c2-13,2-36,0-50c-5-27-16-52-33-72c-20-25-48-40-75-41c-19-1-37,3-55,12c-15,7-26,14-38,26c-4,5-8,8-8,8s-4-3-8-7
		c-19-19-41-32-65-37c-32-7-60,0-86,20c-27,23-47,60-52,98c-2,16-1,35,3,48c9,35,38,79,85,125c38,38,83,73,115,90c4,1,7,3,8,3
		C252,556,255,555,259,553z M512,160v-28l29-1h30v-24V83h-29c-22,0-29-1-30-1c0-1,0-8,0-29V24h-27h-26v28c0,25,0,29-1,30
		c0,1-4,1-30,1h-29v24v24h30c26,0,29,0,30,1c0,1,0,8,0,29v27h26h26L512,160z"/>
	<path class="st1" d="M201,479c-1-1,10-26,24-57c13-31,24-57,24-58l1-1h-35c-31-1-34-1-34-2c0,0,21-26,56-68c31-37,57-68,58-69
		c2-2,3-2,3-1s-10,25-22,54c-12,30-22,54-22,54c0,1,6,1,33,1c23,0,32,1,32,1c0,1-116,145-117,146C201,479,201,479,201,479z"/>
</g>
</svg>
