<?xml version="1.0" encoding="utf-8"?>
<!-- Generator: Adobe Illustrator 26.0.3, SVG Export Plug-In . SVG Version: 6.00 Build 0)  -->
<svg version="1.1" id="Lag_1" xmlns="http://www.w3.org/2000/svg" xmlns:xlink="http://www.w3.org/1999/xlink" x="0px" y="0px"
	 viewBox="0 0 42.5 42.3" style="enable-background:new 0 0 42.5 42.3;" xml:space="preserve">
<style type="text/css">
	.st0{fill:#284F6F;}
	.st1{fill:#FFFFFF;}
</style>
<g>
	<rect x="0" y="-0.1" class="st0" width="42.5" height="42.5"/>
	<g>
		<path class="st1" d="M37.1,18.1h-2.2c0,0.6-0.3,1.1-0.7,1.4c-0.1,0.1-0.2,0.1-0.2,0.2l0-0.2c0-0.9-0.7-1.7-1.6-1.7H11.8
			c-0.9,0-1.6,0.8-1.6,1.7l0,0.2l0,0.1c-0.5-0.3-0.9-0.9-0.9-1.5H7c-0.6,0-1,0.5-0.9,1.1c0.5,2,2.1,3.6,4.1,3.9l0.2,12.5
			c0,1.6,1.3,2.9,2.9,2.9h17.5c1.6,0,2.9-1.3,2.9-2.9l0.2-12.5c2-0.3,3.6-1.9,4.1-3.9C38.1,18.6,37.6,18.1,37.1,18.1z M12.8,36
			c-0.1-0.1-0.1-0.1-0.1-0.2c0-0.1,0-0.1,0-0.2l-0.2-15.4h4.8L17.3,36l0,0.1h-4.1c-0.1,0-0.2,0-0.2,0C12.9,36.1,12.9,36,12.8,36z"/>
		<path class="st1" d="M10.3,15.5h23.5c0.2,0,0.3-0.2,0.2-0.2c-1.2-1.3-3.5-2.2-9.4-2.4c-1,0-2-0.1-3.2-0.1c-0.7,0-1.3,0-1.9,0
			c-6.6,0.2-7.9,1.3-9.4,2.4C9.9,15.3,10,15.5,10.3,15.5z"/>
		<path class="st1" d="M19.2,13.2L19.2,13.2L19.2,13.2c0,0,0.1,0,0.1,0c0.6,0,1.3-0.1,2-0.1c1.2,0,2.3,0,3.3,0.1c0,0,0.1,0,0.1,0
			l0.2-1.7c0-0.2-0.1-0.4-0.3-0.4h-5.3c-0.2,0-0.4,0.2-0.3,0.4L19.2,13.2L19.2,13.2z"/>
	</g>
	<path class="st1" d="M8.5,15.7c-1-0.6-2.1-1.4-2.4-2.8c-0.3-1.3,0.3-2.2,0.5-3.7C6.7,8,6.6,6.2,5,3.7c0.4-0.1,1.8-0.2,3,0.6
		c1.3,0.9,1.9,2.6,1.7,4c-0.2,1.6-1.5,1.9-1.9,3.6C7.4,13.3,7.9,14.7,8.5,15.7z"/>
	<path class="st1" d="M10.5,5c0.3,0.3,0.8,1.1,0.9,2.2c0.2,1.7-0.8,2.9-1,3.1c1.9-0.3,3-2.1,2.6-3.5C12.7,5.9,11.7,5.1,10.5,5z"/>
</g>
</svg>
