<?xml version="1.0" encoding="utf-8"?>
<!-- Generator: Adobe Illustrator 26.0.3, SVG Export Plug-In . SVG Version: 6.00 Build 0)  -->
<svg version="1.1" id="Lag_1" xmlns="http://www.w3.org/2000/svg" xmlns:xlink="http://www.w3.org/1999/xlink" x="0px" y="0px"
	 viewBox="0 0 42.5 42.3" style="enable-background:new 0 0 42.5 42.3;" xml:space="preserve">
<style type="text/css">
	.st0{fill:#254E6F;}
	.st1{fill:#FFFFFF;}
</style>
<g>
	<g>
		<circle class="st0" cx="21.2" cy="21.1" r="21.1"/>
	</g>
	<g>
		<path class="st1" d="M21.6,25.1l0.2-2l-2.1-4.8l-7.2-1.6c-0.8-0.2-1.3-0.8-1.4-1.6c0-0.3,0-0.7,0.1-1c0.1-0.6,0.4-1.2,0.8-1.7
			c0.1-0.1,0.1-0.2,0.2-0.2c0,0,0,0,0,0c0,0,0,0,0,0c-0.2-0.1-0.4-0.1-0.5-0.1c-3.4-0.7-6.8,1.5-7.4,5c-0.2,1.3,0,2.7,0.6,3.8
			c0,0.1,0.1,0.1,0.1,0.2c0,0,0.1,0.1,0.1,0.1c0.3,0.5,0.6,0.9,1,1.3c0,0,0.1,0.1,0.1,0.1c0.1,0.1,0.2,0.2,0.3,0.3
			c0.8,0.6,1.7,1.1,2.7,1.3l12.9,2.8l-0.4-1C21.6,25.7,21.6,25.4,21.6,25.1z M7,17.9c0,0-0.1-0.1-0.1-0.1c0,0,0,0-0.1-0.1
			c0,0-0.1-0.1-0.1-0.1c0-0.1,0-0.1-0.1-0.2c0,0,0,0,0,0c0-0.1,0-0.1,0-0.2c0,0,0,0,0,0c0-0.4,0.4-0.9,0.9-1.2
			c0.5-0.3,1.1-0.4,1.5-0.2c0,0,0,0,0.1,0c0,0,0.1,0.1,0.1,0.1c0,0,0,0,0.1,0.1c0,0,0.1,0.1,0.1,0.1c0,0.1,0,0.1,0.1,0.2
			c0,0,0,0,0,0c0,0.1,0,0.1,0,0.2c0,0,0,0,0,0c0,0.4-0.4,0.9-0.9,1.2C8,18.1,7.5,18.1,7,17.9C7.1,17.9,7.1,17.9,7,17.9z"/>
		<path class="st1" d="M34.5,28.6c0.5-0.2,1-0.4,1.4-0.7c0,0,0.1-0.1,0.1-0.1c0.1,0,0.1-0.1,0.2-0.1c1-0.8,1.8-1.9,2.2-3.2
			c0.9-3.4-1.2-6.8-4.6-7.6c-0.1,0-0.2,0-0.4-0.1c-0.1,0-0.1,0-0.2,0c0,0,0,0,0,0c0,0,0,0,0,0c0.2,0.7,0.3,1.4,0.1,2.1
			c-0.1,0.4-0.2,0.7-0.4,1c-0.4,0.7-1.1,1-1.9,0.9L27.4,20l-2.2-0.5l0,0l0,0l0.8,1.8l1.6,1.2c0.2,0.2,0.4,0.4,0.5,0.7l2.2,4.9
			c0.1,0.2,0.2,0.4,0.2,0.6l0.6,0.1c1,0.2,2,0.2,3-0.1c0.1,0,0.3-0.1,0.4-0.1C34.4,28.7,34.4,28.7,34.5,28.6z"/>
		<path class="st1" d="M28.4,28.3l-1.9-4.4l-1.9-1.5l-1.5-3.3l-2.8-6.3c-0.1-0.2-0.2-0.3-0.4-0.3c-0.1,0-0.2,0-0.3,0
			c-0.3,0.1-0.4,0.4-0.3,0.7l2.5,5.6l1.8,4.1l-0.3,2.4l0.9,2.1l1.2,2.8c0.1,0.3,0.3,0.4,0.6,0.5c0.2,0,0.4,0,0.5-0.1l1.5-0.7
			c0.4-0.2,0.6-0.7,0.4-1.1L28.4,28.3z"/>
	</g>
</g>
</svg>
