<?xml version="1.0" standalone="no"?>
<!DOCTYPE svg PUBLIC "-//W3C//DTD SVG 20010904//EN"
 "http://www.w3.org/TR/2001/REC-SVG-20010904/DTD/svg10.dtd">
<svg version="1.0" xmlns="http://www.w3.org/2000/svg"
 width="1095.000000pt" height="1280.000000pt" viewBox="0 0 1095.000000 1280.000000"
 preserveAspectRatio="xMidYMid meet">
<metadata>
Created by potrace 1.15, written by Peter Selinger 2001-2017
</metadata>
<g transform="translate(0.000000,1280.000000) scale(0.100000,-0.100000)"
fill="#000000" stroke="none">
<path d="M10837 12754 c-122 -62 -223 -125 -511 -323 -250 -172 -338 -227
-476 -298 -58 -29 -74 -43 -72 -57 9 -51 -24 -204 -88 -402 -72 -222 -103
-373 -84 -414 8 -19 30 0 230 202 258 262 382 401 631 713 146 182 194 249
229 322 25 53 55 100 69 109 24 16 105 32 105 21 0 -10 -107 -183 -196 -319
-177 -268 -388 -537 -779 -993 -385 -448 -465 -544 -465 -554 0 -6 19 -20 43
-32 81 -42 248 -33 418 22 35 12 143 59 240 105 231 109 308 135 429 141 l95
4 -60 -28 c-33 -16 -157 -79 -276 -140 -236 -123 -354 -173 -487 -204 -78 -19
-104 -21 -253 -14 -113 4 -180 3 -208 -5 -58 -15 -107 -68 -164 -178 -53 -102
-93 -154 -246 -322 -208 -229 -294 -372 -325 -539 l-6 -34 113 6 c250 13 546
112 967 322 340 170 499 211 672 174 l53 -12 -125 -42 c-145 -49 -308 -114
-540 -215 -327 -143 -579 -237 -750 -280 -46 -12 -161 -32 -255 -46 -280 -40
-336 -70 -420 -223 -59 -109 -113 -182 -325 -436 -362 -434 -460 -580 -460
-685 0 -34 4 -50 13 -50 7 0 53 9 102 19 99 22 322 60 665 116 759 123 1078
224 1438 457 221 143 321 181 458 176 l78 -3 -135 -91 c-606 -410 -1218 -608
-1974 -640 -106 -4 -165 -11 -175 -19 -53 -44 -125 -65 -320 -90 -213 -27
-296 -60 -381 -153 -27 -29 -112 -147 -188 -260 -172 -255 -448 -649 -592
-842 l-107 -145 81 -7 c132 -10 608 -9 787 2 291 19 450 41 775 109 334 70
437 111 790 316 211 122 365 196 481 230 119 36 315 45 418 21 65 -15 136 -49
136 -64 0 -4 -40 -6 -89 -4 -184 7 -338 -36 -697 -194 -571 -251 -860 -366
-1089 -430 l-99 -28 50 -23 c80 -36 130 -42 439 -53 322 -12 428 -21 532 -46
l70 -16 84 30 c165 61 226 73 377 79 87 4 142 2 142 -4 0 -11 -148 -62 -265
-92 -161 -41 -266 -53 -502 -58 -357 -8 -615 24 -1046 133 -176 44 -179 44
-235 30 -102 -26 -222 -35 -562 -40 -448 -7 -591 -30 -760 -123 -101 -55 -298
-262 -557 -583 -122 -151 -260 -318 -306 -370 l-85 -95 107 -7 c58 -4 180 -12
271 -18 91 -6 332 -26 535 -45 776 -73 1084 -87 1370 -66 233 18 356 42 596
117 282 88 405 120 516 133 105 13 213 2 269 -27 l36 -18 -64 -18 c-458 -128
-753 -191 -1113 -235 -501 -63 -902 -53 -1435 33 -267 44 -435 50 -845 31
-198 -9 -360 -18 -361 -19 -1 0 -57 -64 -124 -141 -150 -169 -325 -380 -447
-536 -183 -236 -399 -544 -385 -552 21 -13 339 -62 657 -102 198 -24 410 -54
470 -65 61 -12 138 -26 171 -32 84 -16 949 5 1121 26 373 47 572 121 993 371
380 225 584 294 803 271 65 -7 85 -26 28 -26 -73 0 -267 -69 -499 -179 -81
-38 -184 -79 -229 -91 -101 -27 -154 -58 -307 -183 -168 -136 -260 -180 -459
-221 -299 -62 -793 -82 -1222 -51 -215 16 -220 16 -760 75 -407 44 -548 57
-721 68 l-122 7 -273 -284 c-151 -156 -316 -331 -368 -390 -116 -132 -223
-269 -213 -275 29 -17 189 -38 357 -46 218 -10 229 -12 493 -96 253 -81 285
-85 572 -82 229 2 256 1 415 -26 147 -24 188 -27 300 -23 241 10 379 57 865
292 382 184 545 242 750 265 78 9 258 5 248 -5 -2 -2 -47 -8 -100 -15 -251
-29 -417 -98 -963 -395 -386 -211 -377 -207 -660 -209 -283 -1 -996 33 -1150
55 -173 25 -320 67 -455 131 l-85 40 -165 -7 c-127 -5 -200 -3 -315 10 -233
27 -278 8 -395 -164 -62 -91 -166 -198 -395 -403 -77 -70 -162 -148 -188 -176
l-48 -49 208 -41 c572 -114 884 -154 1218 -156 213 -1 236 1 310 22 114 33
227 38 375 17 149 -21 238 -16 345 19 93 31 185 42 235 29 l35 -9 -30 -28
c-44 -42 -88 -57 -209 -72 -61 -7 -126 -22 -150 -33 -38 -18 -52 -19 -211 -11
-93 5 -358 9 -587 10 -567 0 -723 15 -1098 102 -225 52 -347 60 -447 30 -169
-52 -312 -199 -462 -474 l-42 -77 72 -41 c318 -186 636 -279 954 -280 264 0
488 45 1018 206 97 29 331 92 519 140 410 103 549 147 784 249 323 139 537
253 881 468 109 68 281 175 382 236 365 223 543 354 696 512 112 117 166 184
351 441 262 362 344 452 659 715 333 278 432 395 719 845 457 719 829 1488
1070 2211 207 620 303 1071 401 1892 41 339 63 487 140 935 70 408 96 581 140
940 73 602 90 706 188 1140 82 360 103 522 94 736 -9 200 -3 192 -110 138z"/>
<path d="M9670 12127 c-179 -62 -245 -87 -430 -160 -221 -87 -626 -285 -805
-392 -60 -36 -177 -119 -258 -184 -81 -65 -174 -132 -205 -149 -32 -17 -115
-45 -185 -62 -131 -33 -226 -69 -552 -210 -215 -93 -341 -143 -432 -171 -60
-19 -75 -31 -54 -43 5 -3 14 -28 21 -56 16 -66 -1 -151 -79 -393 -63 -194 -80
-270 -106 -467 -9 -69 -25 -179 -36 -245 -79 -482 -64 -846 60 -1402 12 -51
21 -114 21 -140 0 -68 17 -119 47 -143 14 -11 29 -20 33 -20 3 0 17 19 30 42
57 101 190 257 419 491 135 139 268 282 294 319 62 88 113 190 126 256 16 75
13 226 -5 377 -24 191 -22 381 4 475 11 41 37 138 58 215 l38 140 -2 240 c-1
132 3 277 9 323 17 143 66 241 151 302 41 30 42 31 50 10 12 -32 -9 -106 -46
-165 -86 -134 -88 -147 -91 -550 -1 -323 -2 -332 -29 -440 -43 -177 -56 -263
-56 -385 1 -173 26 -323 63 -373 11 -17 20 -9 88 80 42 54 146 177 230 273
315 359 378 461 434 695 31 127 41 209 60 475 29 404 69 572 171 725 37 56
132 161 138 154 2 -2 -25 -90 -60 -196 -125 -374 -165 -569 -171 -843 -2 -107
-1 -212 4 -232 l8 -37 95 83 c428 374 702 789 884 1338 51 152 133 456 125
462 -2 1 -29 -6 -59 -17z"/>
<path d="M6405 10678 c-617 -218 -1122 -422 -1381 -557 -244 -128 -434 -253
-787 -518 -271 -204 -313 -231 -512 -331 -88 -44 -192 -102 -231 -128 -253
-173 -554 -483 -862 -889 -233 -307 -335 -427 -665 -778 -489 -520 -653 -732
-813 -1048 -101 -200 -160 -424 -189 -719 -8 -85 -22 -319 -30 -520 -8 -201
-22 -444 -31 -540 -10 -107 -19 -358 -23 -650 -6 -399 -10 -486 -25 -547 -17
-70 -17 -75 3 -175 11 -57 34 -204 51 -328 17 -124 37 -263 46 -310 37 -206
110 -424 189 -566 l36 -64 36 15 c138 58 313 231 313 309 0 59 -42 158 -110
260 l-67 101 -51 210 c-83 342 -118 530 -142 770 -6 61 -18 136 -26 169 -9 32
-16 81 -16 109 -1 41 3 53 21 68 13 11 27 19 31 19 5 0 11 -44 14 -97 23 -364
66 -601 162 -895 69 -212 162 -422 271 -611 l45 -77 47 39 c56 47 166 147 395
361 l167 155 -7 40 c-30 185 -141 560 -300 1016 -311 893 -384 1137 -443 1481
-47 271 -52 567 -12 720 18 71 48 145 55 136 2 -1 -1 -37 -6 -78 -13 -99 -3
-456 17 -600 21 -155 69 -396 111 -560 104 -396 272 -899 397 -1180 16 -37 23
-67 20 -92 -4 -30 10 -67 86 -225 81 -168 92 -199 110 -298 23 -131 32 -157
74 -211 l32 -42 65 61 c36 34 129 117 206 184 78 68 174 161 214 208 l73 86
-6 207 c-11 388 -60 683 -238 1437 -209 883 -255 1136 -280 1541 -22 344 17
688 110 979 l19 60 1 -106 c1 -58 -11 -218 -25 -355 -41 -397 -30 -903 27
-1274 32 -214 111 -540 224 -925 207 -706 274 -1004 294 -1304 5 -72 10 -134
13 -136 2 -2 47 48 99 113 53 64 205 240 338 391 134 150 294 333 356 407
l114 133 -19 49 c-73 191 -112 465 -125 872 -9 269 -21 458 -60 890 -19 212
-40 453 -47 535 -16 201 -16 739 0 880 14 115 110 695 137 825 24 116 72 257
118 348 40 79 134 211 150 212 4 0 0 -17 -8 -37 -91 -218 -229 -895 -277
-1363 -21 -207 -16 -982 10 -1405 12 -192 26 -478 32 -635 14 -394 27 -545 56
-689 32 -162 114 -386 133 -365 5 5 170 198 367 429 390 458 568 656 723 810
56 55 101 107 101 116 0 53 -115 331 -197 474 -42 75 -56 137 -85 370 -20 164
-14 641 12 1005 19 263 22 372 19 660 -6 626 -4 786 16 895 30 171 100 337
177 419 l29 31 -6 -55 c-4 -30 -31 -176 -60 -325 -56 -280 -68 -391 -81 -715
-5 -131 -2 -187 11 -270 34 -208 33 -242 -20 -809 -55 -593 -25 -917 116
-1242 39 -90 128 -248 167 -297 l18 -23 115 113 c152 149 260 271 558 626 137
164 299 352 360 420 l111 123 0 128 c0 170 -23 297 -115 651 -106 407 -109
424 -110 745 0 164 5 311 13 375 37 298 93 605 183 1000 48 213 49 224 29 226
-8 1 -78 -21 -155 -48z"/>
<path d="M7668 8968 c-13 -18 -51 -80 -83 -138 -457 -824 -961 -1571 -1483
-2199 -228 -273 -411 -458 -957 -967 -581 -541 -723 -697 -1040 -1144 -489
-689 -858 -1135 -1281 -1550 -229 -225 -340 -311 -773 -597 -355 -236 -474
-319 -631 -443 -95 -75 -142 -101 -279 -154 -149 -58 -204 -92 -284 -175 -84
-88 -127 -153 -262 -388 -190 -334 -315 -459 -525 -529 -42 -14 -64 -26 -62
-35 2 -7 8 -49 13 -94 30 -249 41 -275 176 -416 88 -91 100 -101 160 -119 77
-24 112 -25 157 -6 45 19 69 53 105 146 56 147 239 439 424 679 277 357 572
652 1297 1296 869 772 1083 1006 1916 2100 696 913 776 1005 1194 1375 215
190 440 413 527 520 33 41 157 219 275 395 117 176 335 496 483 710 470 681
741 1102 957 1484 l98 175 -18 29 c-9 16 -31 40 -48 54 l-31 23 -25 -32z"/>
</g>
</svg>
