<svg id="svg" version="1.1" xmlns="http://www.w3.org/2000/svg" xmlns:xlink="http://www.w3.org/1999/xlink" width="400" height="400" viewBox="0, 0, 400,400"><g id="svgg"><path id="path0" d="M58.200 156.000 C 58.036 156.265,64.996 156.400,78.776 156.400 C 92.392 156.400,99.600 156.262,99.600 156.000 C 99.600 155.739,92.475 155.600,79.024 155.600 C 65.737 155.600,58.360 155.742,58.200 156.000 M157.800 156.000 C 157.636 156.265,164.537 156.400,178.200 156.400 C 191.863 156.400,198.764 156.265,198.600 156.000 C 198.440 155.742,191.204 155.600,178.200 155.600 C 165.196 155.600,157.960 155.742,157.800 156.000 M257.400 156.000 C 257.236 156.265,264.196 156.400,277.976 156.400 C 291.592 156.400,298.800 156.262,298.800 156.000 C 298.800 155.739,291.675 155.600,278.224 155.600 C 264.937 155.600,257.560 155.742,257.400 156.000 M357.000 156.000 C 356.836 156.265,363.831 156.402,377.676 156.406 C 389.184 156.409,398.826 156.556,399.102 156.731 C 399.500 156.984,399.583 165.949,399.502 200.225 L 399.400 243.400 378.279 243.504 C 364.229 243.572,357.241 243.742,357.406 244.010 C 357.568 244.272,365.027 244.406,378.827 244.393 L 400.000 244.373 400.000 199.987 L 400.000 155.600 378.624 155.600 C 364.804 155.600,357.160 155.741,357.000 156.000 M58.584 157.700 C 58.480 157.975,58.440 177.190,58.497 200.400 L 58.600 242.600 79.100 242.704 L 99.600 242.807 99.600 200.004 L 99.600 157.200 79.187 157.200 C 63.226 157.200,58.733 157.309,58.584 157.700 M158.184 157.700 C 158.080 157.975,158.040 177.190,158.097 200.400 L 158.200 242.600 178.800 242.600 L 199.400 242.600 199.502 200.225 C 199.583 166.589,199.500 157.784,199.102 157.531 C 198.203 156.960,158.404 157.125,158.184 157.700 M257.786 157.696 C 257.680 157.973,257.640 177.190,257.697 200.400 L 257.800 242.600 278.400 242.600 L 299.000 242.600 299.000 200.000 L 299.000 157.400 278.489 157.296 C 262.293 157.215,257.937 157.299,257.786 157.696 M357.386 157.696 C 357.280 157.973,357.240 177.190,357.297 200.400 L 357.400 242.600 378.000 242.600 L 398.600 242.600 398.600 200.000 L 398.600 157.400 378.089 157.296 C 361.893 157.215,357.537 157.299,357.386 157.696 M58.400 244.000 C 58.400 244.261,65.459 244.400,78.776 244.400 C 91.929 244.400,99.240 244.258,99.400 244.000 C 99.564 243.735,92.671 243.600,79.024 243.600 C 65.541 243.600,58.400 243.739,58.400 244.000 M158.200 244.000 C 158.360 244.258,165.671 244.400,178.824 244.400 C 192.141 244.400,199.200 244.261,199.200 244.000 C 199.200 243.739,192.059 243.600,178.576 243.600 C 164.929 243.600,158.036 243.735,158.200 244.000 M257.400 244.000 C 257.560 244.258,264.937 244.400,278.224 244.400 C 291.675 244.400,298.800 244.261,298.800 244.000 C 298.800 243.738,291.592 243.600,277.976 243.600 C 264.196 243.600,257.236 243.735,257.400 244.000 " stroke="none" fill="#fbf2f3" fill-rule="evenodd"></path><path id="path1" d="M-0.000 156.100 C -0.000 156.496,5.703 156.575,27.500 156.481 C 42.625 156.415,55.720 156.465,56.600 156.590 L 58.200 156.819 58.200 199.910 C 58.200 228.174,58.062 243.101,57.800 243.294 C 57.580 243.456,44.755 243.591,29.300 243.594 C 10.837 243.598,1.200 243.737,1.200 244.000 C 1.200 244.263,11.000 244.400,29.800 244.400 C 48.600 244.400,58.400 244.263,58.400 244.000 C 58.400 243.739,65.541 243.600,79.024 243.600 C 92.671 243.600,99.564 243.735,99.400 244.000 C 99.236 244.265,109.137 244.400,128.800 244.400 C 148.463 244.400,158.364 244.265,158.200 244.000 C 158.036 243.735,164.918 243.600,178.543 243.600 C 194.653 243.600,199.172 243.709,199.312 244.100 C 199.410 244.375,199.631 244.469,199.802 244.310 C 199.974 244.150,199.900 243.761,199.638 243.445 C 199.313 243.054,199.295 242.789,199.581 242.612 C 200.217 242.219,200.164 157.748,199.527 157.355 C 198.180 156.522,252.258 155.832,256.250 156.630 L 257.400 156.860 257.400 199.930 C 257.400 228.181,257.262 243.101,257.000 243.294 C 256.780 243.456,243.955 243.591,228.500 243.594 C 210.037 243.598,200.400 243.737,200.400 244.000 C 200.400 244.263,210.208 244.400,229.024 244.400 C 248.004 244.400,257.564 244.265,257.400 244.000 C 257.236 243.735,264.196 243.600,277.976 243.600 C 291.239 243.600,298.800 243.742,298.800 243.990 C 298.800 244.240,309.385 244.385,328.227 244.395 C 347.807 244.405,357.570 244.275,357.405 244.008 C 357.241 243.742,364.282 243.572,378.279 243.504 L 399.400 243.400 399.502 200.225 C 399.583 165.949,399.500 156.984,399.102 156.731 C 398.826 156.556,389.184 156.409,377.676 156.406 C 363.831 156.402,356.836 156.265,357.000 156.000 C 357.164 155.735,347.404 155.600,328.024 155.600 C 308.808 155.600,298.800 155.737,298.800 156.000 C 298.800 156.262,291.592 156.400,277.976 156.400 C 264.196 156.400,257.236 156.265,257.400 156.000 C 257.564 155.735,247.663 155.600,228.000 155.600 C 208.337 155.600,198.436 155.735,198.600 156.000 C 198.764 156.265,191.863 156.400,178.200 156.400 C 164.537 156.400,157.636 156.265,157.800 156.000 C 157.964 155.735,148.204 155.600,128.824 155.600 C 109.608 155.600,99.600 155.737,99.600 156.000 C 99.600 156.262,92.392 156.400,78.776 156.400 C 64.996 156.400,58.036 156.265,58.200 156.000 C 58.364 155.735,48.604 155.600,29.224 155.600 C 6.111 155.600,-0.000 155.705,-0.000 156.100 M157.000 156.740 C 157.909 157.036,158.305 242.629,157.400 243.294 C 156.770 243.757,100.228 243.668,99.764 243.204 C 99.515 242.955,91.769 242.769,78.984 242.704 L 58.600 242.600 58.600 200.000 L 58.600 157.400 79.100 157.296 L 99.600 157.193 99.600 200.076 C 99.600 229.045,99.732 242.828,100.005 242.555 C 100.275 242.285,100.376 227.912,100.305 199.485 C 100.212 161.840,100.271 156.801,100.800 156.656 C 101.809 156.381,156.145 156.462,157.000 156.740 M356.200 156.740 C 357.109 157.036,357.505 242.629,356.600 243.294 C 356.380 243.456,343.420 243.591,327.800 243.594 L 299.400 243.600 299.400 200.300 C 299.400 171.896,299.538 156.899,299.800 156.706 C 300.292 156.345,355.085 156.377,356.200 156.740 M0.093 200.700 C 0.042 224.735,0.135 244.400,0.300 244.400 C 0.569 244.400,0.563 192.589,0.292 167.000 C 0.233 161.500,0.144 176.665,0.093 200.700 M199.102 157.531 C 199.500 157.784,199.583 166.589,199.502 200.225 L 199.400 242.600 178.800 242.600 L 158.200 242.600 158.097 200.400 C 158.040 177.190,158.080 157.975,158.184 157.700 C 158.404 157.125,198.203 156.960,199.102 157.531 M299.000 200.000 L 299.000 242.600 278.400 242.600 L 257.800 242.600 257.697 200.400 C 257.640 177.190,257.680 157.973,257.786 157.696 C 257.937 157.299,262.293 157.215,278.489 157.296 L 299.000 157.400 299.000 200.000 M398.600 200.000 L 398.600 242.600 378.000 242.600 L 357.400 242.600 357.297 200.400 C 357.240 177.190,357.280 157.973,357.386 157.696 C 357.537 157.299,361.893 157.215,378.089 157.296 L 398.600 157.400 398.600 200.000 " stroke="none" fill="#f4949c" fill-rule="evenodd"></path><path id="path2" d="M0.800 200.100 L 0.800 243.400 29.200 243.295 L 57.600 243.189 57.600 199.995 L 57.600 156.800 29.200 156.800 L 0.800 156.800 0.800 200.100 M100.799 156.900 C 100.799 156.955,100.754 176.395,100.699 200.100 L 100.600 243.200 128.900 243.200 L 157.200 243.200 157.200 200.000 L 157.200 156.800 129.000 156.800 C 113.490 156.800,100.800 156.845,100.799 156.900 M200.200 200.000 L 200.200 243.200 228.500 243.200 L 256.800 243.200 256.800 200.000 L 256.800 156.800 228.500 156.800 L 200.200 156.800 200.200 200.000 M299.998 156.900 C 299.997 156.955,299.952 176.395,299.898 200.100 L 299.800 243.200 328.100 243.200 L 356.400 243.200 356.400 200.000 L 356.400 156.800 328.200 156.800 C 312.690 156.800,299.999 156.845,299.998 156.900 " stroke="none" fill="#ec142c" fill-rule="evenodd"></path><path id="path3" d="M14.700 156.700 C 22.455 156.761,35.145 156.761,42.900 156.700 C 50.655 156.639,44.310 156.589,28.800 156.589 C 13.290 156.589,6.945 156.639,14.700 156.700 M114.900 156.700 C 122.545 156.761,135.055 156.761,142.700 156.700 C 150.345 156.639,144.090 156.589,128.800 156.589 C 113.510 156.589,107.255 156.639,114.900 156.700 M214.329 156.700 C 222.100 156.761,234.700 156.761,242.329 156.700 C 249.958 156.639,243.600 156.589,228.200 156.589 C 212.800 156.589,206.558 156.639,214.329 156.700 M313.929 156.700 C 321.700 156.761,334.300 156.761,341.929 156.700 C 349.558 156.639,343.200 156.589,327.800 156.589 C 312.400 156.589,306.158 156.639,313.929 156.700 M0.593 200.400 C 0.593 224.050,0.641 233.725,0.700 221.900 C 0.759 210.075,0.759 190.725,0.700 178.900 C 0.641 167.075,0.593 176.750,0.593 200.400 M57.793 200.000 C 57.793 223.430,57.841 233.015,57.900 221.300 C 57.959 209.585,57.959 190.415,57.900 178.700 C 57.841 166.985,57.793 176.570,57.793 200.000 M157.393 200.000 C 157.393 223.430,157.441 233.015,157.500 221.300 C 157.559 209.585,157.559 190.415,157.500 178.700 C 157.441 166.985,157.393 176.570,157.393 200.000 M99.798 242.803 C 99.323 243.572,100.753 243.606,129.000 243.501 L 157.400 243.395 128.676 243.297 C 109.654 243.233,100.036 243.065,100.200 242.800 C 100.336 242.580,100.357 242.400,100.247 242.400 C 100.137 242.400,99.935 242.581,99.798 242.803 M199.459 242.704 C 199.356 242.872,199.525 243.356,199.835 243.781 C 200.146 244.205,200.400 244.340,200.400 244.079 C 200.400 243.720,207.222 243.580,228.700 243.500 L 257.000 243.395 228.276 243.297 C 209.254 243.233,199.636 243.065,199.800 242.800 C 199.936 242.580,199.957 242.400,199.847 242.400 C 199.737 242.400,199.563 242.537,199.459 242.704 M299.200 243.300 C 299.200 243.465,312.115 243.558,327.900 243.507 C 343.685 243.456,352.010 243.366,346.400 243.308 C 319.886 243.031,299.200 243.028,299.200 243.300 M15.329 243.500 C 23.211 243.561,35.991 243.561,43.729 243.500 C 51.468 243.439,45.020 243.389,29.400 243.390 C 13.780 243.390,7.448 243.439,15.329 243.500 " stroke="none" fill="#ec546c" fill-rule="evenodd"></path><path id="path4" d="M256.993 200.000 C 256.993 223.870,257.041 233.635,257.100 221.700 C 257.159 209.765,257.159 190.235,257.100 178.300 C 257.041 166.365,256.993 176.130,256.993 200.000 M356.593 200.000 C 356.593 223.870,356.641 233.635,356.700 221.700 C 356.759 209.765,356.759 190.235,356.700 178.300 C 356.641 166.365,356.593 176.130,356.593 200.000 M100.593 200.000 C 100.593 223.430,100.641 233.015,100.700 221.300 C 100.759 209.585,100.759 190.415,100.700 178.700 C 100.641 166.985,100.593 176.570,100.593 200.000 M200.193 200.000 C 200.193 223.430,200.241 233.015,200.300 221.300 C 200.359 209.585,200.359 190.415,200.300 178.700 C 200.241 166.985,200.193 176.570,200.193 200.000 M299.793 200.200 C 299.793 223.740,299.841 233.311,299.900 221.469 C 299.959 209.627,299.959 190.367,299.900 178.669 C 299.841 166.971,299.793 176.660,299.793 200.200 " stroke="none" fill="#ec4c64" fill-rule="evenodd"></path></g></svg>