<svg id="svg" version="1.1" xmlns="http://www.w3.org/2000/svg" xmlns:xlink="http://www.w3.org/1999/xlink" width="400" height="400" viewBox="0, 0, 400,400"><g id="svgg"><path id="path0" d="M132.673 69.461 C 132.523 69.611,132.400 70.233,132.400 70.843 C 132.400 71.453,132.220 72.064,132.000 72.200 C 131.780 72.336,131.600 72.977,131.600 73.624 C 131.600 74.271,131.420 74.800,131.200 74.800 C 130.980 74.800,130.800 75.239,130.800 75.776 C 130.800 76.313,130.620 76.864,130.400 77.000 C 130.180 77.136,130.000 77.676,130.000 78.200 C 130.000 78.724,129.820 79.264,129.600 79.400 C 129.380 79.536,129.200 79.999,129.200 80.429 C 129.200 80.859,129.042 81.523,128.849 81.905 C 128.260 83.072,127.600 85.408,127.600 86.328 C 127.600 86.808,127.420 87.200,127.200 87.200 C 126.980 87.200,126.800 87.740,126.800 88.400 C 126.800 89.060,126.620 89.600,126.400 89.600 C 126.180 89.600,126.000 90.028,126.000 90.551 C 126.000 91.074,125.730 92.149,125.400 92.938 C 125.070 93.728,124.800 94.830,124.800 95.387 C 124.800 95.944,124.620 96.400,124.400 96.400 C 124.180 96.400,124.000 96.929,124.000 97.576 C 124.000 98.223,123.820 98.864,123.600 99.000 C 123.380 99.136,123.200 99.766,123.200 100.400 C 123.200 101.034,123.020 101.664,122.800 101.800 C 122.580 101.936,122.400 102.577,122.400 103.224 C 122.400 103.871,122.220 104.400,122.000 104.400 C 121.780 104.400,121.600 104.940,121.600 105.600 C 121.600 106.260,121.420 106.800,121.200 106.800 C 120.980 106.800,120.800 107.340,120.800 108.000 C 120.800 108.660,120.620 109.200,120.400 109.200 C 120.180 109.200,120.000 109.639,120.000 110.176 C 120.000 110.713,119.820 111.264,119.600 111.400 C 119.380 111.536,119.200 112.076,119.200 112.600 C 119.200 113.124,119.020 113.664,118.800 113.800 C 118.580 113.936,118.400 114.566,118.400 115.200 C 118.400 115.834,118.220 116.464,118.000 116.600 C 117.780 116.736,117.600 117.377,117.600 118.024 C 117.600 118.671,117.420 119.200,117.200 119.200 C 116.980 119.200,116.800 119.740,116.800 120.400 C 116.800 121.060,116.620 121.600,116.400 121.600 C 116.180 121.600,116.000 122.140,116.000 122.800 C 116.000 123.460,115.820 124.000,115.600 124.000 C 115.380 124.000,115.200 124.540,115.200 125.200 C 115.200 125.860,115.020 126.400,114.800 126.400 C 114.580 126.400,114.400 126.839,114.400 127.376 C 114.400 127.913,114.220 128.464,114.000 128.600 C 113.780 128.736,113.600 129.366,113.600 130.000 C 113.600 130.634,113.420 131.264,113.200 131.400 C 112.980 131.536,112.800 132.177,112.800 132.824 C 112.800 133.471,112.620 134.000,112.400 134.000 C 112.180 134.000,112.000 134.540,112.000 135.200 C 112.000 135.860,111.820 136.400,111.600 136.400 C 111.380 136.400,111.200 136.925,111.200 137.567 C 111.200 138.208,110.975 138.814,110.700 138.912 C 108.536 139.685,120.108 139.800,200.000 139.800 C 279.892 139.800,291.464 139.685,289.300 138.912 C 289.025 138.814,288.800 138.208,288.800 137.567 C 288.800 136.925,288.620 136.400,288.400 136.400 C 288.180 136.400,288.000 135.961,288.000 135.424 C 288.000 134.887,287.820 134.336,287.600 134.200 C 287.380 134.064,287.200 133.459,287.200 132.856 C 287.200 132.253,287.031 131.589,286.825 131.380 C 286.618 131.171,286.385 130.512,286.306 129.915 C 286.228 129.318,286.037 128.703,285.882 128.548 C 285.727 128.393,285.600 127.847,285.600 127.333 C 285.600 126.820,285.420 126.400,285.200 126.400 C 284.980 126.400,284.800 125.860,284.800 125.200 C 284.800 124.540,284.620 124.000,284.400 124.000 C 284.180 124.000,284.000 123.460,284.000 122.800 C 284.000 122.140,283.820 121.600,283.600 121.600 C 283.380 121.600,283.200 121.060,283.200 120.400 C 283.200 119.740,283.020 119.200,282.800 119.200 C 282.580 119.200,282.400 118.748,282.400 118.195 C 282.400 117.642,282.238 116.877,282.039 116.495 C 281.840 116.113,281.463 114.990,281.200 114.000 C 280.937 113.010,280.560 111.887,280.361 111.505 C 280.162 111.123,280.000 110.448,280.000 110.005 C 280.000 109.562,279.820 109.200,279.600 109.200 C 279.380 109.200,279.200 108.660,279.200 108.000 C 279.200 107.340,279.020 106.800,278.800 106.800 C 278.580 106.800,278.400 106.260,278.400 105.600 C 278.400 104.940,278.220 104.400,278.000 104.400 C 277.780 104.400,277.600 103.871,277.600 103.224 C 277.600 102.577,277.420 101.936,277.200 101.800 C 276.980 101.664,276.800 101.023,276.800 100.376 C 276.800 99.729,276.620 99.200,276.400 99.200 C 276.180 99.200,276.000 98.559,276.000 97.776 C 276.000 96.993,275.845 96.449,275.655 96.566 C 275.465 96.684,275.199 95.853,275.065 94.721 C 274.931 93.588,274.636 92.476,274.411 92.251 C 274.185 92.025,274.000 91.437,274.000 90.944 C 274.000 90.451,273.820 89.936,273.600 89.800 C 273.380 89.664,273.200 89.124,273.200 88.600 C 273.200 88.076,273.020 87.536,272.800 87.400 C 272.580 87.264,272.400 86.771,272.400 86.305 C 272.400 85.404,271.735 83.061,271.151 81.905 C 270.958 81.523,270.800 80.859,270.800 80.429 C 270.800 79.999,270.620 79.536,270.400 79.400 C 270.180 79.264,270.000 78.724,270.000 78.200 C 270.000 77.676,269.820 77.136,269.600 77.000 C 269.380 76.864,269.200 76.313,269.200 75.776 C 269.200 75.239,269.020 74.800,268.800 74.800 C 268.580 74.800,268.400 74.271,268.400 73.624 C 268.400 72.977,268.220 72.336,268.000 72.200 C 267.780 72.064,267.600 71.453,267.600 70.843 C 267.600 69.393,267.252 69.091,266.476 69.867 C 265.757 70.586,133.631 70.268,133.173 69.546 C 133.048 69.349,132.823 69.311,132.673 69.461 M88.500 210.240 C 88.225 210.365,88.000 210.992,88.000 211.633 C 88.000 212.275,87.820 212.800,87.600 212.800 C 87.380 212.800,87.200 213.340,87.200 214.000 C 87.200 214.660,87.020 215.200,86.800 215.200 C 86.580 215.200,86.400 215.740,86.400 216.400 C 86.400 217.060,86.220 217.600,86.000 217.600 C 85.780 217.600,85.600 218.140,85.600 218.800 C 85.600 219.460,85.420 220.000,85.200 220.000 C 84.980 220.000,84.800 220.529,84.800 221.176 C 84.800 221.823,84.620 222.464,84.400 222.600 C 84.180 222.736,84.000 223.467,84.000 224.224 C 84.000 224.981,83.820 225.600,83.600 225.600 C 83.380 225.600,83.200 226.050,83.200 226.600 C 83.200 227.150,83.020 227.600,82.800 227.600 C 82.580 227.600,82.400 228.241,82.400 229.024 C 82.400 229.871,82.238 230.347,82.000 230.200 C 81.767 230.056,81.600 230.463,81.600 231.176 C 81.600 231.849,81.420 232.400,81.200 232.400 C 80.980 232.400,80.800 232.852,80.800 233.405 C 80.800 233.958,80.638 234.723,80.439 235.105 C 80.240 235.487,79.863 236.610,79.600 237.600 C 79.337 238.590,78.960 239.713,78.761 240.095 C 78.562 240.477,78.400 241.141,78.400 241.571 C 78.400 242.001,78.220 242.464,78.000 242.600 C 77.780 242.736,77.600 243.377,77.600 244.024 C 77.600 244.671,77.420 245.200,77.200 245.200 C 76.980 245.200,76.795 245.515,76.790 245.900 C 76.784 246.285,76.334 247.944,75.790 249.586 C 75.245 251.228,74.800 253.063,74.800 253.662 C 74.800 254.262,74.620 254.864,74.400 255.000 C 74.180 255.136,74.000 255.777,74.000 256.424 C 74.000 257.071,73.820 257.600,73.600 257.600 C 73.380 257.600,73.200 258.039,73.200 258.576 C 73.200 259.113,73.020 259.664,72.800 259.800 C 72.580 259.936,72.400 260.487,72.400 261.024 C 72.400 261.561,72.220 262.000,72.000 262.000 C 71.780 262.000,71.600 262.540,71.600 263.200 C 71.600 263.860,71.420 264.400,71.200 264.400 C 70.980 264.400,70.800 264.929,70.800 265.576 C 70.800 266.223,70.620 266.864,70.400 267.000 C 70.180 267.136,70.000 267.676,70.000 268.200 C 70.000 268.724,69.820 269.264,69.600 269.400 C 69.380 269.536,69.200 270.267,69.200 271.024 C 69.200 271.781,69.020 272.400,68.800 272.400 C 68.580 272.400,68.400 272.940,68.400 273.600 C 68.400 274.260,68.220 274.800,68.000 274.800 C 67.780 274.800,67.600 275.239,67.600 275.776 C 67.600 276.313,67.420 276.864,67.200 277.000 C 66.147 277.651,66.767 279.929,68.076 280.217 C 68.777 280.371,128.717 280.362,201.276 280.197 L 333.200 279.898 333.200 278.573 C 333.200 277.844,333.020 277.136,332.800 277.000 C 332.580 276.864,332.400 276.313,332.400 275.776 C 332.400 275.239,332.220 274.800,332.000 274.800 C 331.780 274.800,331.600 274.260,331.600 273.600 C 331.600 272.940,331.420 272.400,331.200 272.400 C 330.980 272.400,330.800 271.781,330.800 271.024 C 330.800 270.267,330.620 269.536,330.400 269.400 C 330.180 269.264,330.000 268.724,330.000 268.200 C 330.000 267.676,329.820 267.136,329.600 267.000 C 329.380 266.864,329.200 266.223,329.200 265.576 C 329.200 264.929,329.020 264.400,328.800 264.400 C 328.580 264.400,328.400 263.860,328.400 263.200 C 328.400 262.540,328.220 262.000,328.000 262.000 C 327.780 262.000,327.600 261.561,327.600 261.024 C 327.600 260.487,327.420 259.936,327.200 259.800 C 326.980 259.664,326.800 259.113,326.800 258.576 C 326.800 258.039,326.620 257.600,326.400 257.600 C 326.180 257.600,326.000 257.071,326.000 256.424 C 326.000 255.777,325.846 255.152,325.657 255.035 C 325.469 254.919,325.209 253.932,325.080 252.842 C 324.951 251.753,324.677 250.532,324.472 250.131 C 323.919 249.050,323.200 246.641,323.200 245.872 C 323.200 245.502,323.020 245.200,322.800 245.200 C 322.580 245.200,322.400 244.671,322.400 244.024 C 322.400 243.377,322.220 242.736,322.000 242.600 C 321.780 242.464,321.600 242.001,321.600 241.571 C 321.600 241.141,321.438 240.477,321.239 240.095 C 321.040 239.713,320.663 238.590,320.400 237.600 C 320.137 236.610,319.760 235.487,319.561 235.105 C 319.362 234.723,319.200 233.958,319.200 233.405 C 319.200 232.852,319.020 232.400,318.800 232.400 C 318.580 232.400,318.400 231.860,318.400 231.200 C 318.400 230.540,318.220 230.000,318.000 230.000 C 317.780 230.000,317.600 229.460,317.600 228.800 C 317.600 228.140,317.420 227.600,317.200 227.600 C 316.980 227.600,316.800 227.161,316.800 226.624 C 316.800 226.087,316.620 225.536,316.400 225.400 C 316.180 225.264,316.000 224.634,316.000 224.000 C 316.000 223.366,315.820 222.736,315.600 222.600 C 315.380 222.464,315.200 221.823,315.200 221.176 C 315.200 220.529,315.020 220.000,314.800 220.000 C 314.580 220.000,314.400 219.460,314.400 218.800 C 314.400 218.140,314.220 217.600,314.000 217.600 C 313.780 217.600,313.600 217.060,313.600 216.400 C 313.600 215.740,313.420 215.200,313.200 215.200 C 312.980 215.200,312.800 214.660,312.800 214.000 C 312.800 213.340,312.620 212.800,312.400 212.800 C 312.180 212.800,312.000 212.260,312.000 211.600 C 312.000 210.895,311.794 210.409,311.500 210.422 C 311.225 210.435,261.050 210.348,200.000 210.229 C 138.950 210.111,88.775 210.116,88.500 210.240 " stroke="none" fill="#f3f3ef" fill-rule="evenodd"></path><path id="path1" d="M200.000 34.557 C 200.000 65.700,200.063 69.138,200.633 69.357 C 201.471 69.679,263.940 69.672,265.550 69.350 C 266.725 69.115,267.461 67.600,266.400 67.600 C 266.180 67.600,266.000 67.071,266.000 66.424 C 266.000 65.777,265.820 65.136,265.600 65.000 C 265.380 64.864,265.200 64.324,265.200 63.800 C 265.200 63.276,265.020 62.736,264.800 62.600 C 264.580 62.464,264.400 61.823,264.400 61.176 C 264.400 60.529,264.220 60.000,264.000 60.000 C 263.780 60.000,263.600 59.460,263.600 58.800 C 263.600 58.140,263.420 57.600,263.200 57.600 C 262.980 57.600,262.800 57.060,262.800 56.400 C 262.800 55.740,262.620 55.200,262.400 55.200 C 262.180 55.200,262.000 54.671,262.000 54.024 C 262.000 53.377,261.820 52.736,261.600 52.600 C 261.380 52.464,261.200 51.924,261.200 51.400 C 261.200 50.876,261.020 50.336,260.800 50.200 C 260.580 50.064,260.400 49.423,260.400 48.776 C 260.400 48.129,260.220 47.600,260.000 47.600 C 259.780 47.600,259.600 47.060,259.600 46.400 C 259.600 45.740,259.444 45.200,259.254 45.200 C 259.064 45.200,258.797 44.383,258.660 43.384 C 258.523 42.385,258.192 41.170,257.925 40.684 C 257.657 40.198,257.402 39.583,257.357 39.318 C 257.313 39.052,256.982 37.882,256.622 36.718 C 256.263 35.553,255.597 33.340,255.143 31.800 C 254.689 30.260,254.156 28.687,253.959 28.305 C 253.762 27.923,253.600 27.259,253.600 26.829 C 253.600 26.399,253.420 25.936,253.200 25.800 C 252.980 25.664,252.800 25.124,252.800 24.600 C 252.800 24.076,252.620 23.536,252.400 23.400 C 252.180 23.264,252.000 22.634,252.000 22.000 C 252.000 21.366,251.820 20.736,251.600 20.600 C 251.380 20.464,251.200 19.924,251.200 19.400 C 251.200 18.876,251.020 18.336,250.800 18.200 C 250.580 18.064,250.400 17.524,250.400 17.000 C 250.400 16.476,250.220 15.936,250.000 15.800 C 249.780 15.664,249.600 15.034,249.600 14.400 C 249.600 13.766,249.420 13.136,249.200 13.000 C 248.980 12.864,248.800 12.313,248.800 11.776 C 248.800 11.239,248.620 10.800,248.400 10.800 C 248.180 10.800,248.000 10.260,248.000 9.600 C 248.000 8.940,247.820 8.400,247.600 8.400 C 247.380 8.400,247.200 7.871,247.200 7.224 C 247.200 6.577,247.020 5.936,246.800 5.800 C 246.580 5.664,246.400 5.124,246.400 4.600 C 246.400 4.076,246.220 3.536,246.000 3.400 C 245.780 3.264,245.600 2.659,245.600 2.056 C 245.600 -0.057,246.250 0.000,222.320 0.000 L 200.000 0.000 200.000 34.557 M244.298 140.700 L 199.996 140.803 200.098 175.302 L 200.200 209.800 255.700 209.901 C 310.999 210.002,311.200 210.000,311.200 209.201 C 311.200 208.761,311.020 208.400,310.800 208.400 C 310.580 208.400,310.400 207.860,310.400 207.200 C 310.400 206.540,310.220 206.000,310.000 206.000 C 309.780 206.000,309.600 205.471,309.600 204.824 C 309.600 204.177,309.420 203.536,309.200 203.400 C 308.980 203.264,308.800 202.705,308.800 202.159 C 308.800 201.612,308.170 199.330,307.400 197.088 C 306.630 194.846,306.000 192.604,306.000 192.106 C 306.000 191.608,305.820 191.200,305.600 191.200 C 305.380 191.200,305.200 190.696,305.200 190.080 C 305.200 189.464,305.051 188.789,304.870 188.580 C 304.688 188.371,304.310 187.390,304.031 186.400 C 303.751 185.410,303.360 184.287,303.161 183.905 C 302.962 183.523,302.800 182.859,302.800 182.429 C 302.800 181.999,302.620 181.536,302.400 181.400 C 302.180 181.264,302.000 180.623,302.000 179.976 C 302.000 179.329,301.820 178.800,301.600 178.800 C 301.380 178.800,301.200 178.260,301.200 177.600 C 301.200 176.940,301.020 176.400,300.800 176.400 C 300.580 176.400,300.397 175.995,300.394 175.500 C 300.387 174.524,299.518 171.785,299.074 171.341 C 298.923 171.190,298.800 170.567,298.800 169.957 C 298.800 169.347,298.620 168.736,298.400 168.600 C 298.180 168.464,298.000 167.924,298.000 167.400 C 298.000 166.876,297.820 166.336,297.600 166.200 C 297.380 166.064,297.200 165.524,297.200 165.000 C 297.200 164.476,297.020 163.936,296.800 163.800 C 296.580 163.664,296.400 163.124,296.400 162.600 C 296.400 162.076,296.220 161.536,296.000 161.400 C 295.780 161.264,295.600 160.713,295.600 160.176 C 295.600 159.639,295.420 159.200,295.200 159.200 C 294.980 159.200,294.800 158.581,294.800 157.824 C 294.800 157.067,294.620 156.336,294.400 156.200 C 294.180 156.064,294.000 155.513,294.000 154.976 C 294.000 154.439,293.820 154.000,293.600 154.000 C 293.380 154.000,293.200 153.471,293.200 152.824 C 293.200 152.177,293.020 151.536,292.800 151.400 C 292.580 151.264,292.400 150.724,292.400 150.200 C 292.400 149.676,292.240 149.148,292.044 149.027 C 291.849 148.906,291.595 148.221,291.480 147.504 C 291.228 145.929,291.148 145.629,290.199 142.700 C 289.789 141.435,289.262 140.444,289.027 140.498 C 288.792 140.552,268.664 140.643,244.298 140.700 M333.200 280.176 C 333.200 280.739,326.654 280.800,266.600 280.800 L 200.000 280.800 200.000 315.459 L 200.000 350.119 100.000 349.910 L 0.000 349.702 0.000 374.851 L 0.000 400.000 99.997 400.000 L 199.994 400.000 200.097 375.100 L 200.200 350.200 277.800 350.000 L 355.400 349.800 355.266 348.600 C 355.192 347.940,354.967 347.229,354.766 347.020 C 354.565 346.811,354.400 346.237,354.400 345.744 C 354.400 345.251,354.220 344.736,354.000 344.600 C 353.780 344.464,353.600 343.834,353.600 343.200 C 353.600 342.566,353.420 341.936,353.200 341.800 C 352.980 341.664,352.800 341.201,352.800 340.771 C 352.800 340.341,352.638 339.677,352.439 339.295 C 352.240 338.913,351.863 337.790,351.600 336.800 C 351.337 335.810,350.960 334.687,350.761 334.305 C 350.562 333.923,350.400 333.248,350.400 332.805 C 350.400 332.362,350.220 332.000,350.000 332.000 C 349.780 332.000,349.600 331.471,349.600 330.824 C 349.600 330.177,349.420 329.536,349.200 329.400 C 348.980 329.264,348.800 328.713,348.800 328.176 C 348.800 327.639,348.620 327.200,348.400 327.200 C 348.180 327.200,348.000 326.808,348.000 326.328 C 348.000 325.408,347.340 323.072,346.751 321.905 C 346.558 321.523,346.400 320.859,346.400 320.429 C 346.400 319.999,346.220 319.536,346.000 319.400 C 345.780 319.264,345.600 318.724,345.600 318.200 C 345.600 317.676,345.420 317.136,345.200 317.000 C 344.980 316.864,344.800 316.223,344.800 315.576 C 344.800 314.929,344.620 314.400,344.400 314.400 C 344.180 314.400,344.000 313.860,344.000 313.200 C 344.000 312.540,343.820 312.000,343.600 312.000 C 343.380 312.000,343.200 311.471,343.200 310.824 C 343.200 310.177,343.020 309.536,342.800 309.400 C 342.580 309.264,342.400 308.724,342.400 308.200 C 342.400 307.676,342.240 307.148,342.044 307.027 C 341.849 306.906,341.595 306.221,341.480 305.504 C 341.201 303.759,341.062 303.215,340.531 301.800 C 340.095 300.635,338.877 296.738,337.157 291.000 C 336.696 289.460,336.156 287.887,335.959 287.505 C 335.762 287.123,335.600 286.459,335.600 286.029 C 335.600 285.599,335.420 285.136,335.200 285.000 C 334.980 284.864,334.800 284.223,334.800 283.576 C 334.800 282.929,334.620 282.400,334.400 282.400 C 334.180 282.400,334.000 281.871,334.000 281.224 C 334.000 280.577,333.820 279.936,333.600 279.800 C 333.380 279.664,333.200 279.833,333.200 280.176 " stroke="none" fill="#fc3c5c" fill-rule="evenodd"></path><path id="path2" d="M154.880 0.480 C 154.616 0.744,154.400 1.453,154.400 2.056 C 154.400 2.659,154.220 3.264,154.000 3.400 C 153.780 3.536,153.600 4.177,153.600 4.824 C 153.600 5.471,153.420 6.000,153.200 6.000 C 152.980 6.000,152.800 6.439,152.800 6.976 C 152.800 7.513,152.620 8.064,152.400 8.200 C 152.180 8.336,152.000 8.977,152.000 9.624 C 152.000 10.271,151.820 10.800,151.600 10.800 C 151.380 10.800,151.200 11.329,151.200 11.976 C 151.200 12.623,151.020 13.264,150.800 13.400 C 150.580 13.536,150.400 14.076,150.400 14.600 C 150.400 15.124,150.220 15.664,150.000 15.800 C 149.780 15.936,149.600 16.476,149.600 17.000 C 149.600 17.524,149.420 18.064,149.200 18.200 C 148.980 18.336,148.800 18.966,148.800 19.600 C 148.800 20.234,148.620 20.864,148.400 21.000 C 148.180 21.136,148.000 21.676,148.000 22.200 C 148.000 22.724,147.820 23.264,147.600 23.400 C 147.380 23.536,147.200 24.076,147.200 24.600 C 147.200 25.124,147.020 25.664,146.800 25.800 C 146.580 25.936,146.400 26.399,146.400 26.829 C 146.400 27.259,146.241 27.923,146.046 28.305 C 145.489 29.399,144.000 34.236,144.000 34.953 C 144.000 35.309,143.821 35.600,143.603 35.600 C 143.384 35.600,143.272 36.005,143.354 36.500 C 143.436 36.995,143.267 37.670,142.980 38.000 C 142.692 38.330,142.454 38.690,142.449 38.800 C 142.403 39.981,141.819 42.465,141.547 42.632 C 141.356 42.751,141.200 43.387,141.200 44.047 C 141.200 44.745,141.033 45.144,140.800 45.000 C 140.562 44.853,140.400 45.321,140.400 46.153 C 140.400 46.923,140.220 47.664,140.000 47.800 C 139.780 47.936,139.600 48.476,139.600 49.000 C 139.600 49.524,139.420 50.064,139.200 50.200 C 138.980 50.336,138.800 50.876,138.800 51.400 C 138.800 51.924,138.620 52.464,138.400 52.600 C 138.180 52.736,138.000 53.377,138.000 54.024 C 138.000 54.671,137.820 55.200,137.600 55.200 C 137.380 55.200,137.200 55.740,137.200 56.400 C 137.200 57.060,137.020 57.600,136.800 57.600 C 136.580 57.600,136.400 58.140,136.400 58.800 C 136.400 59.460,136.220 60.000,136.000 60.000 C 135.780 60.000,135.600 60.529,135.600 61.176 C 135.600 61.823,135.420 62.464,135.200 62.600 C 134.980 62.736,134.800 63.276,134.800 63.800 C 134.800 64.324,134.620 64.864,134.400 65.000 C 134.180 65.136,134.000 65.766,134.000 66.400 C 134.000 67.034,133.820 67.664,133.600 67.800 C 133.380 67.936,133.200 68.463,133.200 68.972 L 133.200 69.897 199.136 70.196 C 260.368 70.473,266.800 70.424,266.800 69.673 C 266.800 69.523,252.175 69.452,234.300 69.515 C 216.425 69.578,201.395 69.529,200.900 69.407 L 200.000 69.185 200.000 34.592 L 200.000 0.000 177.680 0.000 C 160.853 0.000,155.242 0.118,154.880 0.480 M110.400 140.676 C 110.400 141.158,110.223 141.662,110.006 141.797 C 109.789 141.931,109.671 142.432,109.744 142.910 C 109.817 143.389,109.620 144.037,109.307 144.350 C 108.994 144.663,108.825 145.252,108.931 145.659 C 109.038 146.066,108.962 146.500,108.762 146.623 C 108.563 146.746,108.400 147.276,108.400 147.800 C 108.400 148.324,108.220 148.864,108.000 149.000 C 107.780 149.136,107.600 149.676,107.600 150.200 C 107.600 150.724,107.420 151.264,107.200 151.400 C 106.980 151.536,106.800 152.187,106.800 152.847 C 106.800 153.545,106.633 153.944,106.400 153.800 C 106.167 153.656,106.000 154.055,106.000 154.753 C 106.000 155.413,105.820 156.064,105.600 156.200 C 105.380 156.336,105.200 156.966,105.200 157.600 C 105.200 158.234,105.020 158.864,104.800 159.000 C 104.580 159.136,104.400 159.777,104.400 160.424 C 104.400 161.071,104.220 161.600,104.000 161.600 C 103.780 161.600,103.600 162.140,103.600 162.800 C 103.600 163.460,103.420 164.000,103.200 164.000 C 102.980 164.000,102.800 164.439,102.800 164.976 C 102.800 165.513,102.620 166.064,102.400 166.200 C 102.180 166.336,102.000 166.876,102.000 167.400 C 102.000 167.924,101.820 168.464,101.600 168.600 C 101.380 168.736,101.200 169.366,101.200 170.000 C 101.200 170.634,101.020 171.264,100.800 171.400 C 100.580 171.536,100.400 172.177,100.400 172.824 C 100.400 173.471,100.220 174.000,100.000 174.000 C 99.780 174.000,99.600 174.551,99.600 175.224 C 99.600 175.937,99.433 176.344,99.200 176.200 C 98.962 176.053,98.800 176.529,98.800 177.376 C 98.800 178.159,98.620 178.800,98.400 178.800 C 98.180 178.800,98.000 179.252,98.000 179.805 C 98.000 180.358,97.832 181.123,97.627 181.505 C 97.421 181.887,97.022 183.055,96.739 184.100 C 96.457 185.145,96.124 186.000,96.000 186.000 C 95.876 186.000,95.736 186.470,95.688 187.045 C 95.599 188.126,93.973 193.246,93.607 193.600 C 93.493 193.710,93.346 194.160,93.281 194.600 C 93.216 195.040,93.053 195.670,92.921 196.000 C 92.578 196.851,92.403 197.584,92.131 199.310 C 91.999 200.140,91.736 200.916,91.546 201.033 C 91.356 201.151,91.200 201.777,91.200 202.424 C 91.200 203.071,91.020 203.600,90.800 203.600 C 90.580 203.600,90.400 204.140,90.400 204.800 C 90.400 205.460,90.220 206.000,90.000 206.000 C 89.780 206.000,89.600 206.540,89.600 207.200 C 89.600 207.860,89.420 208.400,89.200 208.400 C 88.980 208.400,88.800 208.760,88.800 209.200 C 88.800 209.992,89.067 210.000,116.734 210.000 C 132.097 210.000,181.912 210.061,227.434 210.135 C 286.656 210.232,294.555 210.203,255.200 210.035 L 200.200 209.800 200.098 175.300 L 199.996 140.800 243.898 140.795 C 284.935 140.789,289.600 140.714,289.600 140.053 C 289.600 139.914,249.280 139.800,200.000 139.800 L 110.400 139.800 110.400 140.676 M66.241 279.892 C 66.109 280.025,66.000 280.633,66.000 281.243 C 66.000 281.853,65.820 282.464,65.600 282.600 C 65.380 282.736,65.200 283.276,65.200 283.800 C 65.200 284.324,65.020 284.864,64.800 285.000 C 64.580 285.136,64.400 285.599,64.400 286.029 C 64.400 286.459,64.238 287.123,64.039 287.505 C 63.840 287.887,63.455 289.010,63.182 290.000 C 62.515 292.423,60.444 298.805,60.002 299.800 C 59.806 300.240,59.511 301.230,59.346 302.000 C 59.180 302.770,59.020 303.490,58.990 303.600 C 58.960 303.710,58.804 304.340,58.643 305.000 C 58.483 305.660,58.183 306.513,57.976 306.895 C 57.769 307.277,57.600 308.031,57.600 308.571 C 57.600 309.111,57.420 309.664,57.200 309.800 C 56.980 309.936,56.800 310.476,56.800 311.000 C 56.800 311.524,56.620 312.064,56.400 312.200 C 56.180 312.336,56.000 312.876,56.000 313.400 C 56.000 313.924,55.820 314.464,55.600 314.600 C 55.380 314.736,55.200 315.276,55.200 315.800 C 55.200 316.324,55.020 316.864,54.800 317.000 C 54.580 317.136,54.400 317.676,54.400 318.200 C 54.400 318.724,54.220 319.264,54.000 319.400 C 53.780 319.536,53.600 320.076,53.600 320.600 C 53.600 321.124,53.420 321.664,53.200 321.800 C 52.980 321.936,52.800 322.476,52.800 323.000 C 52.800 323.524,52.620 324.064,52.400 324.200 C 52.180 324.336,52.000 324.977,52.000 325.624 C 52.000 326.271,51.820 326.800,51.600 326.800 C 51.380 326.800,51.200 327.252,51.200 327.805 C 51.200 328.358,51.042 329.123,50.849 329.505 C 50.313 330.567,49.600 332.976,49.600 333.728 C 49.600 334.098,49.420 334.400,49.200 334.400 C 48.980 334.400,48.800 334.702,48.800 335.072 C 48.800 335.824,48.087 338.233,47.551 339.295 C 47.358 339.677,47.200 340.442,47.200 340.995 C 47.200 341.548,47.020 342.000,46.800 342.000 C 46.580 342.000,46.400 342.315,46.400 342.700 C 46.400 343.085,45.971 344.750,45.446 346.400 C 44.922 348.050,44.573 349.535,44.670 349.700 C 44.767 349.865,79.757 350.000,122.424 350.000 L 200.000 350.000 200.000 315.400 L 200.000 280.800 266.600 280.800 C 315.725 280.800,333.200 280.682,333.200 280.349 C 333.200 280.015,298.921 279.974,200.900 280.188 C 110.097 280.387,68.268 280.348,67.541 280.065 C 66.959 279.837,66.374 279.760,66.241 279.892 " stroke="none" fill="#fc6c6c" fill-rule="evenodd"></path><path id="path3" d="M256.028 35.076 C 256.118 36.115,256.744 36.996,256.772 36.124 C 256.787 35.642,256.620 35.136,256.400 35.000 C 256.180 34.864,256.013 34.898,256.028 35.076 M355.300 349.300 C 355.380 349.698,339.581 349.841,277.800 350.000 L 200.200 350.200 200.097 375.100 L 199.994 400.000 299.997 400.000 L 400.000 400.000 400.000 374.800 L 400.000 349.600 378.000 349.600 C 363.600 349.600,356.000 349.462,356.000 349.200 C 356.000 348.980,355.820 348.800,355.600 348.800 C 355.380 348.800,355.245 349.025,355.300 349.300 " stroke="none" fill="#f40454" fill-rule="evenodd"></path></g></svg>