<?xml version="1.0" encoding="utf-8"?>
<!-- Generator: Adobe Illustrator 26.0.3, SVG Export Plug-In . SVG Version: 6.00 Build 0)  -->
<svg version="1.1" id="Lag_1" xmlns="http://www.w3.org/2000/svg" xmlns:xlink="http://www.w3.org/1999/xlink" x="0px" y="0px"
	 viewBox="0 0 42.5 42.3" style="enable-background:new 0 0 42.5 42.3;" xml:space="preserve">
<style type="text/css">
	.st0{fill:#274E6F;}
	.st1{fill:#A6191A;}
	.st2{fill:#FFFFFF;}
</style>
<rect x="0.1" class="st0" width="42.4" height="42.3"/>
<circle class="st1" cx="21.4" cy="20.6" r="17.4"/>
<circle class="st0" cx="21.4" cy="20.6" r="6.4"/>
<g>
	<path class="st2" d="M38.7,17.7c-0.5-3.2-2-6.2-4-8.6c-0.6-0.7-1.2-1.3-1.9-1.9c-2.4-2.1-5.3-3.5-8.6-4c-1-0.2-1.9-0.2-2.9-0.2
		s-2,0.1-2.9,0.2C10.9,4.4,5.1,10.3,3.8,17.7c-0.2,1-0.2,1.9-0.2,2.9c0,1,0.1,2,0.2,2.9c0.5,3.2,2,6.2,4,8.6
		c0.6,0.7,1.2,1.3,1.9,1.9c2.4,2,5.3,3.5,8.6,4c1,0.2,1.9,0.2,2.9,0.2s2-0.1,2.9-0.2c2.8-0.5,5.3-1.6,7.5-3.2
		c1.5-1.1,2.8-2.4,3.9-3.9c1.6-2.2,2.7-4.7,3.1-7.4c0.2-1,0.2-1.9,0.2-2.9C38.9,19.6,38.8,18.6,38.7,17.7z M24.2,6.7
		c0-0.7,0.7-1.2,1.4-1c5.1,1.5,9.2,5.5,10.6,10.6c0.2,0.7-0.3,1.4-1,1.4h-5.6c-0.4,0-0.8-0.2-1-0.6c-0.8-1.6-2.1-3-3.7-3.7
		c-0.4-0.2-0.6-0.6-0.6-1L24.2,6.7L24.2,6.7z M6.3,16.3C7.8,11.2,11.8,7.2,17,5.7c0.7-0.2,1.4,0.3,1.4,1v5.6c0,0.4-0.2,0.8-0.6,1
		c-1.6,0.8-3,2.1-3.7,3.7c-0.2,0.4-0.6,0.6-1,0.6H7.4C6.7,17.7,6.1,17,6.3,16.3z M18.3,34.5c0,0.7-0.7,1.2-1.4,1
		C11.8,34,7.8,30,6.3,24.9c-0.2-0.7,0.3-1.4,1-1.4H13c0.4,0,0.8,0.2,1,0.6c0.8,1.6,2.1,3,3.7,3.7c0.4,0.2,0.6,0.6,0.6,1V34.5z
		 M21.2,26.5c-1.1,0-2.1-0.3-2.9-0.8c-0.9-0.5-1.7-1.3-2.2-2.2c-0.5-0.9-0.8-1.9-0.8-2.9c0-1.1,0.3-2.1,0.8-2.9
		c0.5-0.9,1.3-1.7,2.2-2.2c0.9-0.5,1.9-0.8,2.9-0.8c1.1,0,2.1,0.3,2.9,0.8c0.9,0.5,1.7,1.3,2.2,2.2c0.5,0.9,0.8,1.9,0.8,2.9
		c0,1.1-0.3,2.1-0.8,2.9c-0.5,0.9-1.3,1.7-2.2,2.2C23.3,26.3,22.3,26.5,21.2,26.5z M36.2,24.9c-1.5,5.1-5.5,9.2-10.6,10.6
		c-0.7,0.2-1.4-0.3-1.4-1v-5.6c0-0.4,0.2-0.8,0.6-1c1.6-0.8,3-2.1,3.7-3.7c0.2-0.4,0.5-0.6,1-0.6h5.6C35.8,23.5,36.4,24.2,36.2,24.9
		z"/>
</g>
</svg>
