<?xml version="1.0" encoding="utf-8"?>
<!-- Generator: Adobe Illustrator 26.1.0, SVG Export Plug-In . SVG Version: 6.00 Build 0)  -->
<svg version="1.1" id="Lag_1" xmlns="http://www.w3.org/2000/svg" xmlns:xlink="http://www.w3.org/1999/xlink" x="0px" y="0px"
	 viewBox="0 0 42.5 42.3" style="enable-background:new 0 0 42.5 42.3;" xml:space="preserve">
<style type="text/css">
	.st0{fill:#254E6F;}
	.st1{fill:#FFFFFF;}
</style>
<g>
	<circle class="st0" cx="21.2" cy="21.1" r="21.1"/>
	<g>
		<path class="st1" d="M37.1,18.1L37.1,18.1L37.1,18.1L37.1,18.1l-13.3-3.4l-6-1.5l2.9-3.3c0.6-0.6,0.5-1.6-0.1-2.2l-0.1-0.1l0,0
			l0,0l0,0l-4.5,5.1l-5.5-1.4l-3.2-0.8l0,0l0,0L7.5,11c1.5,4,4.9,7,9,8.1l17.7,4.5l1.5-3.7l0.9,0.2l0,0l0,0l0,0L37.1,18.1z
			 M15.7,17.5c-2.6-0.9-4.8-2.6-6.2-4.9l3.1,0.8c0.1,0.1,0.2,0.2,0.2,0.4c0.7,1.4,1.6,2.6,2.8,3.6C15.5,17.4,15.6,17.5,15.7,17.5z"
			/>
		<path class="st1" d="M24.4,27.1c-2-0.5-4.1,0.7-4.6,2.8c-0.5,2,0.7,4.1,2.8,4.6c2,0.5,4.1-0.7,4.6-2.8
			C27.7,29.7,26.5,27.7,24.4,27.1z M23.2,32c-0.6-0.2-1-0.8-0.8-1.4c0.2-0.6,0.8-1,1.4-0.8c0.6,0.2,1,0.8,0.8,1.4
			C24.4,31.7,23.8,32.1,23.2,32z"/>
		<path class="st1" d="M7.6,19.4l-0.2,0l-1.1-0.3l-1,3.8l0,0l0,0l0,0l1.3,0.3L7,21.8l3.7,0.9l1.3,2l8.3,2.1c1.2-0.9,2.8-1.3,4.4-0.9
			c1.6,0.4,2.8,1.5,3.4,2.9l5.4,1.4l1-3.8l-23.3-5.9L7.6,19.4z"/>
	</g>
</g>
</svg>
