<svg id="Lag_1" data-name="Lag 1" xmlns="http://www.w3.org/2000/svg" viewBox="0 0 42.52 42.52"><defs><style>.cls-1{fill:#264e6f;}.cls-2{fill:#fff;}</style></defs><circle class="cls-1" cx="21.26" cy="21.26" r="21.26"/><path class="cls-2" d="M37.2,18.13h0L23.79,14.7l-6.05-1.54,2.94-3.33a1.54,1.54,0,0,0-.14-2.18l-.06-.06h0L16,12.71l-5.49-1.4-3.21-.83h0l.18.46a13.15,13.15,0,0,0,9.07,8.1l17.77,4.53,1.54-3.77.9.23h0Zm-21.52-.58a11.8,11.8,0,0,1-6.25-4.94l3.07.78c.08.12.15.24.24.36a11.58,11.58,0,0,0,2.77,3.63A1.37,1.37,0,0,0,15.68,17.55Z" transform="translate(0 0.09)"/><path class="cls-2" d="M24.49,27.19a3.84,3.84,0,1,0,2.77,4.67A3.83,3.83,0,0,0,24.49,27.19ZM23.25,32a1.17,1.17,0,0,1-.84-1.4,1.16,1.16,0,1,1,.84,1.4Z" transform="translate(0 0.09)"/><path class="cls-2" d="M7.59,19.44l-.19,0-1.11-.29-1,3.83h0l1.3.33L7,21.78l3.71.94,1.35,2,8.31,2.12a5.19,5.19,0,0,1,7.92,2l5.44,1.39,1-3.85-23.41-6Z" transform="translate(0 0.09)"/></svg>