<?xml version="1.0" encoding="utf-8"?>
<!-- Generator: Adobe Illustrator 26.0.3, SVG Export Plug-In . SVG Version: 6.00 Build 0)  -->
<svg version="1.1" id="Lag_1" xmlns="http://www.w3.org/2000/svg" xmlns:xlink="http://www.w3.org/1999/xlink" x="0px" y="0px"
	 viewBox="0 0 42.5 42.3" style="enable-background:new 0 0 42.5 42.3;" xml:space="preserve">
<style type="text/css">
	.st0{fill:#254E6F;}
	.st1{fill:#FFFFFF;}
</style>
<g>
	<rect x="0.1" y="0.1" class="st0" width="42.5" height="42.5"/>
	<g>
		<path class="st1" d="M29.8,22.1c-1.1-2.3-2.1-4.1-3-5.7c-2.2-4.1-3.5-6.6-4.3-10.1c-0.1-0.5-0.6-0.9-1.1-0.9c-0.5,0-1,0.4-1.1,0.9
			c-0.8,3.5-2.1,6-4.3,10.1c-0.9,1.6-1.8,3.5-3,5.7c-1.9,3.8-1.9,7.6-0.1,10.5c1.7,2.8,5.1,4.7,8.5,4.7c3.4,0,6.7-1.8,8.5-4.7
			C31.7,29.6,31.7,25.9,29.8,22.1z M29.1,28.5c0,0.2-0.1,0.4-0.1,0.5c0,0.1-0.1,0.2-0.1,0.3c0,0.1-0.1,0.3-0.1,0.4
			c-0.1,0.1-0.1,0.3-0.2,0.4c0,0.1-0.1,0.2-0.1,0.3c-0.1,0.2-0.2,0.3-0.3,0.5C28,31,28,31.1,27.9,31.2c-0.1,0.1-0.2,0.3-0.3,0.4
			c-0.1,0.1-0.2,0.3-0.3,0.4c-0.1,0.1-0.2,0.2-0.2,0.2c-0.1,0.1-0.3,0.3-0.5,0.4c-0.1,0-0.1,0.1-0.2,0.1c-0.2,0.1-0.4,0.3-0.6,0.4
			c-0.1,0-0.1,0.1-0.2,0.1c-0.1,0.1-0.2,0.1-0.3,0.2c-1,0.6-2,0.9-3.1,1.1c-0.6,0.1-1.1-0.5-0.9-1.1l1.1-2.2
			c0.1-0.3,0.4-0.4,0.7-0.4c1.2,0,2.3-0.3,3.3-1c1.1-0.7,1.7-1.8,2.2-3l0.4,0.4c0.2,0.2,0.2,0.4,0.2,0.6c0,0.1,0,0.2,0,0.3
			C29.1,28.3,29.1,28.4,29.1,28.5z M18.6,23.9c-0.1,0.1-0.2,0.1-0.3,0.1c0,0,0,0,0,0c-0.5,0.2-1.1,0.1-1.4-0.2
			c-0.6-0.5-0.6-1.6,0.1-2.3c0.2-0.2,0.4-0.3,0.6-0.5c0,0,0,0,0,0c0.1-0.1,0.2-0.1,0.3-0.1c0,0,0,0,0,0c0.5-0.2,1.1-0.1,1.4,0.2
			c0.6,0.5,0.6,1.6-0.1,2.3C19,23.6,18.8,23.8,18.6,23.9C18.6,23.9,18.6,23.9,18.6,23.9z"/>
	</g>
</g>
</svg>
