<?xml version="1.0" standalone="no"?>
<!DOCTYPE svg PUBLIC "-//W3C//DTD SVG 20010904//EN"
 "http://www.w3.org/TR/2001/REC-SVG-20010904/DTD/svg10.dtd">
<svg version="1.0" xmlns="http://www.w3.org/2000/svg"
 width="512.000000pt" height="512.000000pt" viewBox="0 0 512.000000 512.000000"
 preserveAspectRatio="xMidYMid meet">

<g transform="translate(0.000000,512.000000) scale(0.100000,-0.100000)"
fill="param(fill)" stroke="param(outline)">
<path d="M3220 4329 c-87 -13 -227 -57 -319 -100 -235 -110 -431 -294 -556
-522 l-37 -67 67 -31 c37 -16 68 -29 70 -27 1 2 13 23 25 48 60 120 166 251
276 339 144 116 292 182 488 217 l39 7 -30 -44 c-143 -209 -212 -535 -185
-877 10 -133 36 -294 61 -379 l10 -33 -64 0 c-69 0 -198 15 -257 31 -30 8 -42
18 -59 52 -32 63 -138 194 -213 265 -167 156 -359 257 -588 308 -105 24 -346
24 -458 0 -479 -103 -854 -483 -945 -958 -21 -109 -21 -317 0 -426 30 -154 92
-307 183 -447 64 -99 238 -270 343 -339 376 -244 840 -260 1224 -44 266 151
480 413 565 696 18 59 25 72 39 67 187 -76 269 -95 442 -102 176 -7 273 5 419
53 413 133 721 475 811 899 24 115 26 325 4 443 -84 442 -418 814 -839 937
-48 13 -115 29 -149 35 -72 12 -288 11 -367 -1z m480 -175 c277 -80 510 -276
644 -541 67 -134 46 -238 -74 -366 -135 -145 -350 -254 -641 -326 -130 -32
-339 -64 -350 -53 -11 11 -48 189 -64 307 -18 128 -20 386 -5 499 33 236 133
429 256 495 47 25 105 22 234 -15z m-1721 -793 c216 -54 422 -187 566 -365 39
-48 40 -51 40 -130 0 -118 -37 -189 -170 -322 -88 -88 -225 -194 -252 -194 -5
0 -22 41 -37 91 -107 358 -340 707 -579 867 -46 30 -73 54 -65 57 83 30 367
28 497 -4z m-606 -115 c168 -60 350 -261 486 -537 68 -136 167 -409 157 -434
-6 -17 -213 -98 -347 -135 -188 -52 -278 -64 -469 -65 -153 0 -185 3 -255 23
-103 30 -165 64 -220 123 -55 59 -62 92 -46 231 31 287 163 534 375 704 44 35
98 73 121 84 47 24 140 26 198 6z m3074 -128 c-14 -284 -110 -509 -302 -704
-138 -140 -257 -214 -343 -214 -58 0 -145 40 -212 97 -63 54 -150 176 -203
284 -71 147 -76 133 55 153 416 63 791 243 969 464 19 23 36 42 38 42 2 0 1
-55 -2 -122z m-1391 -404 l122 -7 32 -79 c72 -173 200 -357 315 -451 35 -29
61 -55 57 -59 -4 -4 -52 -11 -107 -14 -161 -11 -351 23 -494 87 l-69 31 -5
156 c-4 144 -22 257 -53 336 -7 18 -4 19 37 13 24 -4 99 -10 165 -13z m-312
-154 c23 -107 28 -219 16 -328 -39 -355 -238 -652 -548 -815 -49 -26 -92 -47
-95 -47 -3 0 5 24 19 53 63 138 94 376 75 579 -6 68 -14 139 -17 158 -6 35 -5
36 68 82 194 124 337 270 418 428 l24 45 13 -45 c8 -25 20 -74 27 -110z m-674
-557 c22 -205 -3 -411 -65 -538 -29 -61 -96 -132 -141 -151 -45 -19 -239 -18
-341 1 -352 67 -643 303 -773 628 -17 42 -30 80 -30 85 0 6 32 -3 70 -19 134
-57 233 -73 440 -72 143 0 211 5 300 21 136 25 314 77 425 125 44 19 85 35 91
36 7 1 16 -42 24 -116z"/>
<path d="M3606 1689 c-107 -25 -242 -132 -298 -235 -54 -101 -71 -220 -44
-319 41 -156 159 -282 312 -336 48 -16 77 -20 154 -17 85 3 103 7 174 41 185
88 300 294 267 480 -22 127 -110 259 -221 329 -93 59 -234 83 -344 57z m226
-156 c64 -20 139 -89 169 -155 33 -75 34 -201 1 -273 -53 -116 -153 -179 -287
-179 -71 -1 -88 3 -147 32 -120 59 -173 155 -166 297 5 94 29 152 86 210 83
85 211 110 344 68z"/>
</g>
</svg>
