<?xml version="1.0" encoding="iso-8859-1"?>
<!-- Generator: Adobe Illustrator 16.0.0, SVG Export Plug-In . SVG Version: 6.00 Build 0)  -->
<!DOCTYPE svg PUBLIC "-//W3C//DTD SVG 1.1//EN" "http://www.w3.org/Graphics/SVG/1.1/DTD/svg11.dtd">
<svg version="1.1" id="Capa_1" xmlns="http://www.w3.org/2000/svg" xmlns:xlink="http://www.w3.org/1999/xlink" x="0px" y="0px"
	 width="465.707px" height="465.707px" viewBox="0 0 465.707 465.707" style="enable-background:new 0 0 465.707 465.707;"
	 xml:space="preserve">
<g>
	<path d="M232.854,465.707c128.601,0,232.853-104.251,232.853-232.854C465.707,104.252,361.455,0,232.854,0
		C104.252,0,0,104.252,0,232.854C0,361.456,104.252,465.707,232.854,465.707z M238.854,431.881
		c-2.513,4.377-4.715,8.057-6.12,10.373c-0.455,0.75-1.099,1.365-1.867,1.789l-2.628,1.443c-0.738,0.406-1.567,0.617-2.408,0.617
		c-0.035,0-0.071,0-0.106,0c-4.544-0.098-7.755-0.223-9.544-0.373c-22.813-1.91-44.672-7.174-64.967-15.645
		c-2.383-0.996-3.616-3.641-2.847-6.105l1.78-5.703c0.769-2.465,3.29-3.939,5.815-3.398c17.773,3.785,36.419,5.707,55.421,5.707
		c6.53,0,13.261-0.227,20.006-0.672c1.835-0.121,3.595,0.779,4.572,2.342l2.801,4.486
		C239.734,428.309,239.771,430.283,238.854,431.881z M346.508,378.77c-3.912,9.354-11.062,23.512-14.979,31.119
		c-0.471,0.914-1.211,1.66-2.121,2.139c-9.369,4.918-34.16,14.785-60.799,20.328c-0.338,0.072-0.68,0.105-1.019,0.105
		c-1.567,0-3.069-0.738-4.024-2.033c-1.16-1.572-1.297-3.678-0.351-5.389c1.894-3.42,3.495-6.545,4.897-9.555
		c22.217-47.666,24.449-95.625,6.63-142.543c-5.647-14.871-14.046-28.789-24.959-41.363c-1.246-1.436-1.57-3.454-0.837-5.208
		c8.441-20.167,23.566-40.431,42.59-57.06c1.014-0.886,2.344-1.325,3.686-1.22c1.344,0.106,2.586,0.75,3.447,1.785
		c4.014,4.819,8.254,9.963,12.129,15.22c22.973,31.166,38.098,64.493,44.957,99.055C362.23,316.785,359.121,348.619,346.508,378.77z
		 M419.742,315.84c-4.752,15.158-10.061,23.266-18.24,34.812c-4.924,6.953-10,13.26-15.521,19.281
		c-0.973,1.062-2.322,1.621-3.688,1.621c-0.816,0-1.641-0.199-2.395-0.611c-2.018-1.102-3.025-3.438-2.439-5.66
		c1.246-4.736,2.322-9.59,3.201-14.424c8.135-44.826,0.215-90.741-23.539-136.469c-0.027-0.052-0.061-0.119-0.086-0.173
		c-8.129-17.102-23.822-40.643-35.771-56.386c-0.924-1.219-1.24-2.794-0.857-4.275c0.383-1.481,1.424-2.706,2.824-3.323
		c20.246-8.923,36.576-12.639,46.711-14.185c1.783-0.274,3.57,0.437,4.686,1.853c20.641,26.255,34.969,56.373,43.803,92.075
		C426.928,264.32,427.346,291.604,419.742,315.84z M395.578,133.424l2.463-4.682c0.859-1.632,2.547-2.659,4.391-2.671
		c3.996-0.027,8.086-0.005,12.035,0.062c0.877,0.015,1.734,0.26,2.488,0.712l2.57,1.543c0.75,0.451,1.371,1.092,1.797,1.858
		c1.506,2.712,3.51,6.377,4.488,8.434c9.84,20.659,16.305,42.18,19.217,63.963c0.305,2.286-0.637,7.658-6.906,9.06
		c-6.268,1.402-8.08-3.849-8.625-5.502c-7.605-23.14-18.922-45.899-33.635-67.646C394.828,137.027,394.721,135.055,395.578,133.424z
		 M339.213,57.622c1.029-0.05,2.045,0.22,2.914,0.769c8.941,5.659,29.877,22.202,47.988,42.506c1.303,1.459,1.633,3.542,0.852,5.333
		c-0.783,1.791-2.539,2.96-4.494,2.995c-3.893,0.068-7.4,0.243-10.723,0.533c-52.391,4.573-95.046,26.604-126.786,65.483
		c-10.06,12.324-17.918,26.553-23.357,42.29c-0.621,1.796-2.206,3.085-4.091,3.327c-5.381,0.688-11.016,1.038-16.748,1.038
		c-17.339,0-36.001-3.254-53.968-9.411c-1.273-0.437-2.317-1.368-2.895-2.583c-0.578-1.216-0.641-2.613-0.176-3.876
		c2.166-5.874,4.5-12.112,7.127-18.119c15.517-35.474,36.827-65.229,63.338-88.438c25.033-21.916,54.162-35.128,86.58-39.27
		C314.832,58.913,330.67,58.032,339.213,57.622z M139.947,72.249c25.506-24.523,48.93-38.519,73.72-44.046
		c7.962-1.774,15.094-2.6,22.442-2.6c5.574,0,10.918,0.456,16.828,1.007c8.543,0.797,16.597,2.056,24.619,3.847
		c2.244,0.501,3.857,2.468,3.909,4.767c0.052,2.299-1.471,4.337-3.69,4.938c-33.805,9.167-82.188,32.742-120.697,92.988
		c-0.032,0.049-0.064,0.098-0.097,0.146c-10.75,15.583-23.302,40.945-30.973,59.168c-0.594,1.41-1.8,2.471-3.275,2.879
		c-0.439,0.122-0.888,0.181-1.333,0.181c-1.051,0-2.089-0.332-2.956-0.967c-17.846-13.079-29.224-25.369-35.627-33.375
		c-1.125-1.407-1.406-3.312-0.735-4.984C94.522,125.188,113.45,97.728,139.947,72.249z M51.406,122.062
		c0.015-0.877,0.261-1.735,0.712-2.488c1.596-2.66,3.77-6.225,5.059-8.099c12.983-18.85,28.395-35.204,45.807-48.61
		c2.047-1.575,4.956-1.333,6.714,0.56l4.065,4.378c1.757,1.893,1.784,4.812,0.062,6.737c-16.24,18.146-30.299,39.322-41.788,62.937
		c-0.807,1.658-2.46,2.738-4.303,2.809l-5.286,0.204c-0.064,0.002-0.129,0.004-0.194,0.004c-1.769,0-3.413-0.937-4.313-2.472
		c-2.032-3.467-4.037-6.984-5.96-10.453c-0.425-0.767-0.641-1.632-0.626-2.509L51.406,122.062z M28.641,224.73
		c0.473-10.571,4.439-36.957,13.074-62.76c0.62-1.854,2.264-3.176,4.207-3.385c1.947-0.216,3.83,0.733,4.831,2.412
		c2,3.356,3.893,6.315,5.786,9.045c29.979,43.208,70.281,69.3,119.787,77.55c15.498,2.582,32.141,2.332,48.307-0.719
		c1.866-0.354,3.775,0.385,4.919,1.902c13.167,17.453,23.049,40.729,27.827,65.537c0.256,1.322-0.035,2.691-0.803,3.799
		c-0.768,1.105-1.95,1.855-3.278,2.078c-6.169,1.037-12.737,2.106-19.257,2.809c-10.249,1.102-20.431,1.66-30.265,1.66h-0.006
		c-27.219,0-53.443-4.286-77.945-12.739c-31.451-10.848-57.381-29.573-77.068-55.659c-6.118-8.105-14.74-21.41-19.334-28.619
		C28.867,226.774,28.595,225.758,28.641,224.73z M45.33,317.93c-3.525-7.759-6.416-15.322-8.835-23.125
		c-0.681-2.195,0.223-4.574,2.192-5.762c1.967-1.188,4.494-0.88,6.119,0.746c3.459,3.459,7.107,6.834,10.844,10.029
		c34.605,29.603,78.262,45.897,129.758,48.434c0.059,0.003,0.118,0.007,0.176,0.012c4.968,0.422,10.802,0.635,17.34,0.635
		c15.12,0,33.581-1.16,49.383-3.104c1.519-0.188,3.043,0.333,4.129,1.41c1.088,1.078,1.623,2.595,1.449,4.115
		c-2.494,21.978-7.512,37.949-11.281,47.479c-0.662,1.676-2.176,2.865-3.961,3.111c-10.129,1.404-20.454,2.117-30.686,2.117
		c-22.932,0-46.792-3.59-70.918-10.672c-33.948-9.965-57.726-23.352-74.831-42.129C55.514,339.486,51.186,330.816,45.33,317.93z" fill="param(fill)" stroke="param(outline)"/>
</g>
<g>
</g>
<g>
</g>
<g>
</g>
<g>
</g>
<g>
</g>
<g>
</g>
<g>
</g>
<g>
</g>
<g>
</g>
<g>
</g>
<g>
</g>
<g>
</g>
<g>
</g>
<g>
</g>
<g>
</g>
</svg>
