<svg id="svg" version="1.1" xmlns="http://www.w3.org/2000/svg" xmlns:xlink="http://www.w3.org/1999/xlink" width="400" height="400" viewBox="0, 0, 400,400"><g id="svgg"><path id="path0" d="M160.938 0.860 C 110.137 4.167,76.071 13.175,68.710 25.248 C 66.325 29.158,66.325 370.842,68.710 374.752 C 89.428 408.730,310.572 408.730,331.290 374.752 C 333.675 370.842,333.675 29.158,331.290 25.248 C 320.255 7.150,240.254 -4.303,160.938 0.860 M234.779 14.083 C 273.850 16.591,308.378 23.205,316.739 29.782 C 319.161 31.687,318.875 32.318,314.610 34.494 C 274.332 55.043,125.668 55.043,85.390 34.494 C 81.125 32.318,80.839 31.687,83.261 29.782 C 97.725 18.404,175.911 10.303,234.779 14.083 M119.589 26.891 C 117.015 29.632,117.155 34.146,119.887 36.497 C 122.272 38.548,148.535 39.271,152.645 37.399 C 156.596 35.598,157.190 29.789,153.749 26.584 C 150.881 23.912,122.146 24.170,119.589 26.891 M86.832 50.065 C 133.760 68.535,272.246 67.335,318.173 48.060 C 319.476 47.513,319.539 49.088,319.345 77.421 L 319.141 107.360 316.529 109.120 C 310.539 113.156,296.357 117.269,279.081 119.981 C 260.752 122.858,257.934 124.538,260.256 131.200 C 261.872 135.836,265.153 136.142,282.241 133.247 C 298.264 130.532,308.808 127.773,318.168 123.843 C 319.470 123.296,319.528 127.473,319.339 207.885 L 319.141 292.503 316.016 294.662 C 285.205 315.949,114.795 315.949,83.984 294.662 L 80.859 292.503 80.661 207.885 C 80.472 127.473,80.530 123.296,81.832 123.843 C 105.226 133.665,148.428 139.134,201.549 139.000 C 232.956 138.921,238.720 138.484,240.709 136.028 C 242.799 133.447,242.625 129.273,240.332 126.979 L 238.476 125.123 211.621 125.565 C 152.614 126.536,99.132 119.672,83.471 109.120 L 80.859 107.360 80.655 77.421 C 80.461 49.088,80.524 47.513,81.827 48.060 C 82.584 48.377,84.836 49.280,86.832 50.065 M188.747 159.560 C 155.990 193.507,142.036 217.352,143.183 237.426 C 145.969 286.183,205.618 308.582,240.303 273.897 C 256.435 257.764,261.202 236.201,253.068 216.153 C 244.797 195.768,208.472 151.543,200.000 151.543 C 196.564 151.543,196.308 151.725,188.747 159.560 M209.902 178.172 C 231.139 201.627,243.750 222.393,243.750 233.910 C 243.750 261.424,216.890 282.499,189.924 276.143 C 167.366 270.825,151.465 245.984,157.731 225.849 C 161.656 213.238,194.716 167.969,200.000 167.969 C 200.365 167.969,204.821 172.560,209.902 178.172 M98.205 314.475 C 154.696 329.152,270.611 327.077,314.374 310.605 L 319.531 308.664 319.531 338.277 L 319.531 367.889 316.992 369.784 C 287.038 392.138,112.962 392.138,83.008 369.784 L 80.469 367.889 80.469 338.277 L 80.469 308.664 85.626 310.605 C 88.463 311.673,94.123 313.414,98.205 314.475 " stroke="none" fill="#000000" fill-rule="evenodd"></path></g></svg>