<?xml version="1.0" encoding="utf-8"?>
<!-- Generator: Adobe Illustrator 26.0.3, SVG Export Plug-In . SVG Version: 6.00 Build 0)  -->
<svg version="1.1" id="Lag_1" xmlns="http://www.w3.org/2000/svg" xmlns:xlink="http://www.w3.org/1999/xlink" x="0px" y="0px"
	 viewBox="0 0 42.5 42.3" style="enable-background:new 0 0 42.5 42.3;" xml:space="preserve">
<style type="text/css">
	.st0{fill:#284F6F;}
	.st1{fill:#FFFFFF;}
</style>
<g>
	<rect y="-0.1" class="st0" width="42.5" height="42.5"/>
	<circle class="st1" cx="11.8" cy="9.4" r="3.2"/>
	<path class="st1" d="M13.1,13.9h-1.3h-1.3c-2.8,0-4.2,2.5-4.8,4.9C5.3,20.1,4,26,4,26c-0.1,0.4,0.4,1,1,1h0c0.1,0,0.1,0,0.2,0
		c0,0,0.1,0,0.1,0c0.1,0,0.2-0.1,0.3-0.1c0,0,0,0,0,0c0.2-0.2,0.3-0.4,0.4-0.7L7.6,19c0.1-0.5,0.8-0.4,0.8,0v6.6v0.9v10
		c0,0.5,0.4,1,1,1h0.3c0.5,0,1-0.4,1-1v-9.1h1.2H13v9.1c0,0.5,0.4,1,0.9,1h0.3c0.5,0,1-0.4,1-1v-10v-0.9V19c0-0.4,0.7-0.5,0.8,0
		l1.7,7.1c0.1,0.5,0.4,1,1,1h0c0.5,0,1-0.6,1-1c0,0-1.3-5.9-1.7-7.3C17.3,16.4,15.9,13.9,13.1,13.9z"/>
	<circle class="st1" cx="31" cy="9.4" r="3.2"/>
	<path class="st1" d="M36.9,18.8c-0.6-2.4-1.8-4.9-4.6-4.9H31h-1.3c-2.8,0-4,2.5-4.6,4.9c-0.3,1.3-1.7,7.3-1.7,7.3c0,0.5,0.4,1,1,1
		h0c0.5,0,1-0.4,1-1L27,19c0.1-0.5,0.8-0.4,0.8,0v0.2L26,27l-0.4,1.8h0l0,0h2.3v7.7c0,0.5,0.4,0.9,1,0.9h0.3c0.5,0,0.9-0.4,0.9-0.9
		v-7.7H31h0.9v7.7c0,0.5,0.4,0.9,1,0.9h0.3c0.5,0,1-0.4,1-0.9v-7.7H36l0.4,0l0,0h0l-2.3-9.7V19c0-0.4,0.7-0.5,0.8,0l1.7,7.1
		c0,0.5,0.4,1,1,1h0c0.5,0,1-0.4,1-1C38.5,26,37.2,20.1,36.9,18.8z"/>
</g>
</svg>
