<?xml version="1.0" standalone="no"?>
<!DOCTYPE svg PUBLIC "-//W3C//DTD SVG 20010904//EN"
 "http://www.w3.org/TR/2001/REC-SVG-20010904/DTD/svg10.dtd">
<svg version="1.0" xmlns="http://www.w3.org/2000/svg"
 width="1280.000000pt" height="1026.000000pt" viewBox="0 0 1280.000000 1026.000000"
 preserveAspectRatio="xMidYMid meet">
<metadata>
Created by potrace 1.15, written by Peter Selinger 2001-2017
</metadata>
<g transform="translate(0.000000,1026.000000) scale(0.100000,-0.100000)">
<path d="M7892 10235 c-298 -77 -505 -217 -693 -467 -31 -40 -38 -60 -53 -155
-20 -124 -190 -1154 -371 -2252 -69 -414 -125 -755 -125 -757 0 -2 -1394 -5
-3097 -7 l-3098 -2 -80 -23 c-178 -50 -300 -133 -346 -235 -22 -48 -24 -64
-22 -207 1 -125 8 -197 37 -370 19 -118 53 -326 76 -462 22 -137 58 -358 80
-493 22 -135 58 -356 80 -493 69 -421 109 -664 165 -1012 30 -184 57 -345 60
-357 5 -23 5 -23 225 -23 150 0 220 3 220 11 0 25 66 166 110 233 167 256 460
443 845 540 183 46 313 60 540 60 469 0 850 -110 1170 -339 145 -103 264 -246
340 -409 l45 -96 1309 0 1308 0 6 183 c6 213 24 345 77 554 109 428 330 860
635 1241 470 586 1100 1002 1766 1166 608 149 1228 97 1845 -157 428 -176 888
-477 1274 -834 39 -36 73 -63 76 -61 2 3 7 1185 11 2627 l6 2621 -2164 0
-2164 -1 -93 -24z m3138 -1832 c0 -582 3 -1216 7 -1409 l6 -352 -524 -6
c-1088 -13 -3230 -28 -3236 -23 -10 11 457 2710 478 2757 11 25 30 55 41 67
l21 23 1604 0 1603 0 0 -1057z" fill="param(fill)" fill-opacity="param(fill-opacity)" stroke="param(outline)" stroke-opacity="param(outline-opacity)" stroke-width="param(outline-width)"/>
<path d="M9635 5914 c-226 -22 -343 -41 -517 -84 -518 -129 -981 -392 -1368
-780 -480 -479 -757 -1053 -851 -1760 -17 -123 -17 -536 0 -660 93 -702 370
-1278 846 -1755 463 -465 1027 -748 1685 -846 130 -19 196 -23 405 -23 303 -1
456 17 730 85 516 128 979 391 1366 778 479 478 755 1047 851 1751 17 125 17
555 0 680 -96 704 -372 1272 -851 1751 -471 471 -1034 749 -1711 845 -100 14
-501 26 -585 18z m505 -1472 c297 -61 546 -197 766 -416 220 -221 348 -457
416 -768 19 -87 22 -133 22 -298 0 -165 -3 -211 -22 -298 -71 -327 -217 -585
-459 -812 -263 -246 -595 -383 -968 -397 -753 -29 -1401 494 -1541 1242 -25
135 -26 402 -1 530 74 376 266 697 552 920 217 169 438 265 714 310 120 20
394 13 521 -13z" fill="param(fill)" fill-opacity="param(fill-opacity)" stroke="param(outline)" stroke-opacity="param(outline-opacity)" stroke-width="param(outline-width)"/>
<path d="M2225 3484 c-277 -42 -550 -152 -774 -312 -115 -82 -285 -248 -371
-361 -616 -818 -414 -1971 445 -2530 299 -194 665 -294 1020 -278 268 13 496
74 735 198 284 147 530 380 697 659 237 396 305 883 187 1333 -78 301 -218
548 -438 776 -281 289 -648 472 -1046 521 -115 14 -346 11 -455 -6z m434 -861
c406 -84 703 -450 704 -868 1 -405 -263 -754 -658 -867 -68 -20 -103 -23 -235
-23 -142 0 -162 3 -245 29 -170 54 -285 125 -406 254 -259 275 -312 684 -133
1021 188 354 578 537 973 454z" fill="param(fill)" fill-opacity="param(fill-opacity)" stroke="param(outline)" stroke-opacity="param(outline-opacity)" stroke-width="param(outline-width)"/>
</g>
</svg>
