<?xml version="1.0" encoding="utf-8"?>
<!-- Generator: Adobe Illustrator 26.0.3, SVG Export Plug-In . SVG Version: 6.00 Build 0)  -->
<svg version="1.1" id="Lag_1" xmlns="http://www.w3.org/2000/svg" xmlns:xlink="http://www.w3.org/1999/xlink" x="0px" y="0px"
	 viewBox="0 0 42.5 42.3" style="enable-background:new 0 0 42.5 42.3;" xml:space="preserve">
<style type="text/css">
	.st0{fill:#274E6F;}
	.st1{fill:#FFFFFF;}
</style>
<g>
	<rect x="0" y="0.1" class="st0" width="42.5" height="42.5"/>
	<g>
		<path class="st1" d="M8,14.8v11C8,26.5,8.6,27,9.2,27h1.4V13.6H9.2C8.6,13.6,8,14.1,8,14.8z"/>
		<path class="st1" d="M22.9,11c0-0.8-0.6-1.4-1.4-1.4h-5.8c-0.8,0-1.4,0.6-1.4,1.4v2.6v0h-1.8V27h12.2V13.6h-1.8V11z M21.2,11.3
			v2.3H16v-2.3H21.2z"/>
		<path class="st1" d="M28,13.6h-1.4V27H28c0.7,0,1.2-0.6,1.2-1.2v-11C29.2,14.1,28.6,13.6,28,13.6z"/>
	</g>
	<path class="st1" d="M28,32.9c-1.6,0.7-2.2,2.6-1.5,4.2c0.7,1.6,2.6,2.2,4.2,1.5c1.6-0.7,2.2-2.6,1.5-4.2
		C31.4,32.8,29.6,32.2,28,32.9z M30.1,35.7C30.1,35.8,30.1,35.8,30.1,35.7c0,0.1,0,0.1,0,0.1l0,0l0,0c-0.1,0.4-0.4,0.6-0.8,0.6
		c-0.4,0-0.7-0.3-0.7-0.7c0,0,0-0.1,0-0.1c0-0.3,0.2-0.5,0.4-0.6c0.1-0.1,0.2-0.1,0.4-0.1c0,0,0.1,0,0.1,0
		C29.8,35,30.1,35.3,30.1,35.7z"/>
	<path class="st1" d="M32.9,31.8H8.1c-0.6,0-1.2-0.5-1.2-1.2v0c0-0.6,0.5-1.2,1.2-1.2h24.8c0.6,0,1.2,0.5,1.2,1.2v0
		C34.1,31.2,33.5,31.8,32.9,31.8z"/>
	<path class="st1" d="M31.7,30.6V9.8c0-0.6,0.5-1.2,1.2-1.2l0,0c0.6,0,1.2,0.5,1.2,1.2v20.8c0,0.6-0.5,1.2-1.2,1.2l0,0
		C32.2,31.8,31.7,31.2,31.7,30.6z"/>
	<path class="st1" d="M11.2,32.9c-1.6,0.7-2.2,2.6-1.5,4.2c0.7,1.6,2.6,2.2,4.2,1.5c1.6-0.7,2.2-2.6,1.5-4.2
		C14.6,32.8,12.8,32.2,11.2,32.9z M13.3,35.7C13.3,35.8,13.3,35.8,13.3,35.7c0,0.1,0,0.1,0,0.1l0,0l0,0c-0.1,0.4-0.4,0.6-0.8,0.6
		c-0.4,0-0.7-0.3-0.7-0.7c0,0,0-0.1,0-0.1c0-0.3,0.2-0.5,0.4-0.6c0.1-0.1,0.2-0.1,0.4-0.1c0,0,0.1,0,0.1,0
		C13,35,13.3,35.3,13.3,35.7z"/>
	<path class="st1" d="M32.1,8.6l2.7-2.7c0.5-0.5,1.2-0.5,1.7,0l0,0c0.5,0.5,0.5,1.2,0,1.7l-2.7,2.7c-0.5,0.5-1.2,0.5-1.7,0v0
		C31.7,9.8,31.7,9,32.1,8.6z"/>
</g>
</svg>
