<?xml version="1.0" standalone="no"?>
<!DOCTYPE svg PUBLIC "-//W3C//DTD SVG 20010904//EN"
 "http://www.w3.org/TR/2001/REC-SVG-20010904/DTD/svg10.dtd">
<svg version="1.0" xmlns="http://www.w3.org/2000/svg"
 width="678.000000pt" height="1280.000000pt" viewBox="0 0 678.000000 1280.000000"
 preserveAspectRatio="xMidYMid meet">
<metadata>
Created by potrace 1.15, written by Peter Selinger 2001-2017
</metadata>
<g transform="translate(0.000000,1280.000000) scale(0.100000,-0.100000)">
<path d="M21 12781 c-31 -31 -26 -65 16 -112 21 -23 198 -179 393 -348 1228
-1057 1460 -1265 2045 -1837 209 -204 555 -549 768 -767 213 -217 425 -427
470 -465 138 -117 343 -268 453 -333 57 -34 118 -75 136 -89 l33 -27 -114 -36
-113 -35 -51 39 c-106 80 -197 100 -264 59 -40 -24 -46 -35 -104 -204 -26 -78
-60 -172 -74 -211 -31 -81 -35 -166 -12 -211 24 -47 171 -134 282 -167 46 -13
56 -13 120 4 39 11 83 22 99 26 l29 6 -6 -119 c-14 -241 -107 -1955 -116
-2144 -6 -107 -15 -287 -21 -400 -8 -171 -147 -4010 -180 -4980 -5 -162 -12
-325 -14 -362 l-5 -68 546 0 546 0 -7 248 c-6 252 -18 701 -36 1442 -15 618
-29 1177 -40 1620 -5 217 -14 591 -20 830 -17 712 -29 1031 -55 1520 -14 256
-43 805 -65 1220 -22 415 -44 836 -50 935 -20 360 -10 526 32 513 23 -7 74
-118 207 -450 154 -384 199 -507 371 -1003 265 -768 340 -1004 778 -2455 61
-201 186 -630 277 -955 92 -324 192 -660 223 -745 70 -193 102 -230 153 -179
18 18 20 28 14 72 -17 138 -44 275 -132 660 -119 527 -201 852 -347 1380 -64
229 -168 603 -231 830 -89 322 -171 581 -375 1187 -231 683 -275 824 -372
1190 -118 445 -158 610 -158 651 0 15 15 52 34 83 23 39 38 80 46 129 l12 72
142 145 c223 230 681 740 1050 1170 378 441 388 453 423 528 40 85 18 182 -41
182 -30 0 -63 -23 -231 -156 -83 -66 -289 -230 -460 -364 -405 -318 -860 -703
-972 -821 -37 -41 -138 -221 -189 -339 -39 -90 -59 -120 -81 -120 -27 0 -119
53 -178 103 -33 29 -314 277 -625 552 -739 655 -1117 985 -1325 1161 -685 576
-1021 846 -2115 1697 -233 181 -353 252 -447 263 -43 6 -54 3 -72 -15z" fill="param(fill)" fill-opacity="param(fill-opacity)" stroke="param(outline)" stroke-opacity="param(outline-opacity)" stroke-width="param(outline-width)"/>
</g>
</svg>
