<svg id="svg" version="1.1" xmlns="http://www.w3.org/2000/svg" xmlns:xlink="http://www.w3.org/1999/xlink" width="400" height="400" viewBox="0, 0, 400,400"><g id="svgg"><path id="path0" d="M288.487 183.024 C 284.385 185.897,287.650 191.889,292.148 189.744 C 294.736 188.510,295.132 185.852,293.040 183.760 C 291.523 182.243,289.962 181.991,288.487 183.024 M52.474 184.500 C 52.036 185.435,51.477 186.830,51.232 187.600 C 50.987 188.370,49.970 191.430,48.972 194.400 C 47.973 197.370,46.823 200.880,46.416 202.200 C 45.668 204.625,44.878 206.947,43.559 210.600 C 42.626 213.181,41.486 217.235,41.663 217.343 C 42.298 217.731,48.566 216.906,48.827 216.400 C 49.115 215.842,50.436 212.294,50.949 210.700 C 51.150 210.078,51.793 210.000,56.755 210.000 C 59.824 210.000,62.619 209.891,62.967 209.757 C 63.453 209.571,63.601 209.780,63.604 210.657 C 63.609 211.861,64.386 214.692,65.190 216.432 C 65.623 217.370,71.421 217.800,72.354 216.963 C 72.584 216.757,61.632 183.920,61.132 183.318 C 60.836 182.962,59.541 182.800,56.987 182.800 L 53.271 182.800 52.474 184.500 M206.998 184.100 C 206.305 187.880,206.988 214.703,207.799 215.599 C 209.323 217.283,210.779 217.741,214.380 217.669 C 218.410 217.588,218.452 217.557,218.132 214.858 C 217.828 212.285,217.195 211.541,215.586 211.863 C 213.179 212.344,213.200 212.475,213.200 197.365 C 213.200 181.662,213.493 182.800,209.444 182.800 C 207.269 182.800,207.233 182.819,206.998 184.100 M232.200 191.708 C 229.619 192.004,228.573 192.297,226.705 193.247 C 226.323 193.441,225.738 193.600,225.405 193.600 C 224.556 193.600,224.644 194.193,225.872 196.760 C 227.221 199.579,227.046 199.412,228.101 198.887 C 232.047 196.925,236.005 196.672,237.678 198.275 C 239.955 200.457,239.331 200.883,233.060 201.428 C 226.350 202.012,223.287 205.451,224.179 211.400 C 224.987 216.785,232.334 219.749,237.945 216.952 L 240.047 215.905 240.999 216.799 C 242.325 218.045,245.487 218.407,245.829 217.351 C 246.147 216.370,246.802 214.779,247.250 213.900 C 247.512 213.385,247.447 213.200,247.003 213.200 C 245.109 213.200,244.800 211.998,244.800 204.614 C 244.800 196.198,244.473 195.076,241.400 192.939 C 239.834 191.851,235.740 191.303,232.200 191.708 M149.200 191.847 C 145.570 192.538,143.176 193.885,143.599 194.998 C 144.074 196.246,145.578 199.200,145.739 199.200 C 145.807 199.200,146.970 198.750,148.323 198.200 C 152.842 196.364,157.200 197.217,157.200 199.937 C 157.200 200.805,156.497 200.993,151.600 201.436 C 144.118 202.113,140.427 207.489,143.403 213.377 C 145.497 217.520,152.807 219.412,156.896 216.870 L 158.392 215.940 159.615 216.810 C 161.815 218.377,163.843 218.352,164.509 216.749 C 165.675 213.940,165.704 213.220,164.664 212.824 C 163.284 212.300,163.204 211.845,163.160 204.267 C 163.110 195.699,162.633 194.198,159.439 192.564 C 158.194 191.926,151.313 191.444,149.200 191.847 M343.200 191.954 C 331.367 194.486,332.142 214.977,344.106 215.881 C 346.414 216.056,347.399 215.959,348.399 215.460 C 350.701 214.312,351.280 216.381,349.231 218.431 C 347.612 220.050,343.563 220.171,339.672 218.717 C 338.502 218.280,337.490 217.984,337.424 218.061 C 336.671 218.927,335.589 223.348,336.056 223.651 C 342.180 227.617,353.673 225.554,356.106 220.053 C 356.840 218.394,357.268 193.534,356.574 192.841 C 356.125 192.391,351.600 192.317,351.600 192.760 C 351.600 193.240,349.754 192.965,348.990 192.371 C 348.358 191.878,344.763 191.620,343.200 191.954 M58.803 196.800 C 59.298 198.450,60.024 200.641,60.416 201.669 C 61.317 204.028,61.356 204.000,57.121 204.000 C 52.933 204.000,52.733 203.795,53.899 200.695 C 54.333 199.543,54.908 197.880,55.178 197.000 C 56.982 191.108,57.095 191.102,58.803 196.800 M84.569 193.295 C 72.300 201.365,81.119 223.661,93.955 217.023 L 95.200 216.379 95.200 221.004 C 95.200 225.452,95.230 225.612,95.974 225.214 C 96.399 224.986,97.839 224.800,99.174 224.800 L 101.600 224.800 101.600 208.843 C 101.600 194.661,101.530 192.859,100.967 192.643 C 100.058 192.294,95.581 192.343,95.700 192.700 C 95.894 193.282,94.864 193.161,92.881 192.367 C 90.656 191.478,86.652 191.924,84.569 193.295 M181.745 192.999 C 180.118 193.975,180.087 193.978,179.878 193.177 C 179.686 192.442,179.397 192.374,176.932 192.481 L 174.200 192.600 174.000 208.700 L 173.800 224.800 176.676 224.800 C 178.348 224.800,179.667 224.985,179.826 225.243 C 180.420 226.203,180.788 224.476,180.794 220.700 C 180.801 216.453,180.781 216.479,183.217 217.453 C 193.825 221.698,202.144 204.735,193.991 195.483 C 190.769 191.827,185.489 190.755,181.745 192.999 M263.716 192.786 C 262.553 193.495,262.326 193.514,261.316 192.987 C 259.472 192.025,256.545 192.206,256.252 193.300 C 256.119 193.795,256.008 199.426,256.005 205.813 L 256.000 217.426 258.900 217.265 C 262.578 217.061,262.387 217.540,262.394 208.531 C 262.401 199.654,262.711 198.772,266.015 198.244 C 270.019 197.604,270.387 198.528,270.395 209.219 L 270.400 217.438 273.100 217.293 C 274.585 217.213,276.025 217.075,276.300 216.986 C 277.285 216.669,276.983 198.735,275.959 196.684 C 273.828 192.419,267.580 190.430,263.716 192.786 M313.074 192.407 C 312.455 192.592,311.715 192.939,311.428 193.176 C 311.050 193.491,310.593 193.444,309.754 193.007 C 307.877 192.028,304.948 192.196,304.652 193.300 C 304.519 193.795,304.408 199.444,304.405 205.854 L 304.400 217.508 307.100 217.323 C 308.585 217.221,310.009 217.073,310.264 216.995 C 310.591 216.895,310.768 214.417,310.864 208.635 C 311.025 198.916,311.200 198.487,315.079 198.318 C 318.786 198.157,318.800 198.197,318.800 208.581 L 318.800 217.438 321.500 217.293 C 322.985 217.213,324.430 217.073,324.712 216.982 C 325.506 216.725,325.364 198.766,324.552 196.823 C 322.877 192.814,317.987 190.932,313.074 192.407 M112.000 201.540 C 112.000 207.425,112.165 211.165,112.464 212.040 C 114.317 217.472,120.967 219.351,126.849 216.105 C 126.986 216.029,127.191 216.324,127.305 216.759 C 127.503 217.514,130.562 217.639,132.700 216.979 C 133.085 216.860,133.200 214.083,133.200 204.859 L 133.200 192.893 132.300 192.652 C 131.805 192.519,130.320 192.408,129.000 192.405 L 126.600 192.399 126.719 200.100 C 126.860 209.200,126.431 210.821,123.678 211.585 C 118.990 212.887,118.400 211.708,118.400 201.024 C 118.400 191.736,118.695 192.400,114.567 192.400 L 112.000 192.400 112.000 201.540 M287.200 205.043 C 287.200 216.407,287.264 217.661,287.833 217.443 C 288.181 217.309,289.621 217.200,291.033 217.200 L 293.600 217.200 293.600 205.043 C 293.600 191.207,293.962 192.400,289.767 192.400 L 287.200 192.400 287.200 205.043 M92.153 198.155 C 96.524 199.981,96.616 209.607,92.281 211.509 C 88.126 213.332,85.400 210.753,85.400 205.000 C 85.400 199.303,88.173 196.492,92.153 198.155 M187.565 198.319 C 191.821 200.443,191.939 209.697,187.731 211.455 C 183.350 213.285,180.800 210.852,180.800 204.839 C 180.800 198.907,183.509 196.296,187.565 198.319 M348.127 198.408 C 351.244 199.873,351.859 205.854,349.187 208.721 C 347.953 210.046,344.085 209.992,342.905 208.634 C 338.554 203.631,342.558 195.790,348.127 198.408 M156.567 206.643 C 157.374 206.952,157.393 208.867,156.604 210.392 C 155.939 211.679,154.957 212.109,152.689 212.109 C 147.727 212.109,147.688 207.901,152.640 206.944 C 155.641 206.363,155.806 206.351,156.567 206.643 M238.167 206.643 C 238.901 206.924,239.007 208.709,238.372 210.103 C 236.930 213.267,230.800 212.840,230.800 209.575 C 230.800 207.770,231.052 207.576,234.200 206.953 C 237.197 206.360,237.391 206.345,238.167 206.643 " stroke="none" fill="#0d0d0d" fill-rule="evenodd"></path><path id="path1" d="M19.374 114.358 C 19.637 114.784,18.686 115.200,17.447 115.200 C 16.959 115.200,16.389 115.351,16.180 115.536 C 15.971 115.721,15.170 116.116,14.400 116.414 C 12.499 117.151,9.322 119.114,8.176 120.260 C 7.659 120.777,7.048 121.200,6.818 121.200 C 6.588 121.200,6.400 121.394,6.400 121.631 C 6.400 121.868,5.888 122.574,5.262 123.200 C 3.949 124.513,2.005 128.188,1.242 130.800 C 0.953 131.790,0.555 133.013,0.358 133.519 C -0.136 134.787,-0.091 137.349,0.435 137.875 C 0.748 138.188,0.748 138.385,0.435 138.578 C 0.125 138.770,-0.000 157.026,-0.000 202.253 L -0.000 265.659 0.975 268.564 C 2.104 271.925,3.227 274.400,3.626 274.400 C 3.778 274.400,4.111 274.895,4.366 275.500 C 5.843 279.010,12.926 283.758,18.500 284.975 C 19.105 285.107,19.600 285.392,19.600 285.608 C 19.600 285.864,82.336 286.000,200.000 286.000 C 317.664 286.000,380.400 285.864,380.400 285.608 C 380.400 285.392,380.895 285.107,381.500 284.975 C 389.786 283.166,396.371 276.999,399.163 268.434 C 400.178 265.323,400.523 138.683,399.520 137.680 C 399.147 137.307,399.147 137.200,399.520 137.200 C 401.034 137.200,398.260 127.403,396.148 125.291 C 395.847 124.990,395.600 124.579,395.600 124.378 C 395.600 122.941,389.357 117.865,386.000 116.572 C 385.010 116.191,384.029 115.727,383.820 115.540 C 383.611 115.353,383.041 115.200,382.553 115.200 C 381.314 115.200,380.363 114.784,380.626 114.358 C 380.748 114.161,379.956 114.000,378.866 114.000 C 377.350 114.000,376.822 114.164,376.614 114.700 C 376.356 115.367,376.318 115.367,375.827 114.700 C 375.250 113.916,18.889 113.574,19.374 114.358 M381.432 127.559 C 384.572 128.985,386.775 131.851,387.551 135.520 C 388.268 138.903,388.167 261.836,387.446 264.901 C 386.826 267.535,385.211 270.216,384.015 270.595 C 383.567 270.737,383.200 271.031,383.200 271.247 C 383.200 271.748,380.070 273.180,378.949 273.191 C 378.481 273.196,377.868 273.478,377.586 273.817 C 377.231 274.245,376.946 274.306,376.657 274.017 C 376.369 273.729,321.610 273.597,199.620 273.592 C 58.587 273.585,22.513 273.481,20.582 273.076 C 16.504 272.221,13.345 269.031,12.452 264.867 C 11.822 261.930,11.809 138.162,12.439 135.120 C 13.104 131.906,16.229 128.283,19.157 127.331 C 21.982 126.412,379.403 126.637,381.432 127.559 M52.806 183.100 C 52.810 183.579,52.909 183.648,53.119 183.317 C 53.310 183.016,54.782 182.783,57.013 182.699 L 60.600 182.565 56.700 182.482 C 53.219 182.409,52.801 182.475,52.806 183.100 M209.400 182.765 C 210.940 182.894,212.470 183.148,212.800 183.330 C 213.130 183.511,213.051 183.376,212.624 183.030 C 212.071 182.581,211.092 182.419,209.224 182.465 L 206.600 182.529 209.400 182.765 M206.582 184.102 C 206.476 184.378,206.437 191.173,206.495 199.202 L 206.601 213.800 206.800 198.700 C 206.910 190.395,206.949 183.600,206.887 183.600 C 206.826 183.600,206.688 183.826,206.582 184.102 M151.700 191.491 C 152.525 191.578,153.875 191.578,154.700 191.491 C 155.525 191.405,154.850 191.334,153.200 191.334 C 151.550 191.334,150.875 191.405,151.700 191.491 M232.705 191.483 C 233.202 191.579,233.922 191.575,234.305 191.475 C 234.687 191.375,234.280 191.296,233.400 191.301 C 232.520 191.305,232.207 191.387,232.705 191.483 M88.700 191.882 C 89.195 191.978,90.005 191.978,90.500 191.882 C 90.995 191.787,90.590 191.709,89.600 191.709 C 88.610 191.709,88.205 191.787,88.700 191.882 M185.500 191.882 C 185.995 191.978,186.805 191.978,187.300 191.882 C 187.795 191.787,187.390 191.709,186.400 191.709 C 185.410 191.709,185.005 191.787,185.500 191.882 M266.905 191.887 C 267.514 191.979,268.414 191.977,268.905 191.882 C 269.397 191.787,268.900 191.711,267.800 191.714 C 266.700 191.717,266.297 191.795,266.905 191.887 M315.705 191.887 C 316.314 191.979,317.214 191.977,317.705 191.882 C 318.197 191.787,317.700 191.711,316.600 191.714 C 315.500 191.717,315.097 191.795,315.705 191.887 M95.230 192.564 C 94.935 192.920,94.906 193.219,95.153 193.371 C 95.368 193.504,95.658 193.430,95.796 193.207 C 95.934 192.983,95.902 192.769,95.724 192.731 C 95.546 192.693,96.570 192.544,98.000 192.400 L 100.600 192.138 98.149 192.069 C 96.458 192.021,95.553 192.175,95.230 192.564 M111.600 192.300 C 111.600 192.465,112.545 192.548,113.700 192.484 C 117.221 192.291,117.554 192.112,114.500 192.054 C 112.905 192.025,111.600 192.135,111.600 192.300 M126.324 192.300 C 126.256 192.465,126.300 196.200,126.421 200.600 L 126.642 208.600 126.621 200.516 L 126.600 192.431 129.200 192.294 L 131.800 192.157 129.124 192.078 C 127.652 192.035,126.392 192.135,126.324 192.300 M175.400 192.238 C 177.274 192.539,179.909 192.577,179.738 192.300 C 179.636 192.135,178.438 192.025,177.076 192.054 C 175.714 192.084,174.960 192.167,175.400 192.238 M256.000 192.300 C 256.000 192.465,257.063 192.600,258.362 192.600 C 259.661 192.600,260.640 192.465,260.538 192.300 C 260.436 192.135,259.373 192.000,258.176 192.000 C 256.979 192.000,256.000 192.135,256.000 192.300 M286.846 192.900 C 286.880 193.549,286.943 193.610,287.072 193.118 C 287.214 192.580,287.817 192.406,289.926 192.296 L 292.600 192.157 289.700 192.078 C 286.924 192.003,286.802 192.038,286.846 192.900 M304.400 192.300 C 304.400 192.465,305.463 192.600,306.762 192.600 C 308.061 192.600,309.040 192.465,308.938 192.300 C 308.836 192.135,307.773 192.000,306.576 192.000 C 305.379 192.000,304.400 192.135,304.400 192.300 M351.200 192.300 C 351.200 192.465,352.263 192.600,353.562 192.600 C 354.861 192.600,355.840 192.465,355.738 192.300 C 355.636 192.135,354.573 192.000,353.376 192.000 C 352.179 192.000,351.200 192.135,351.200 192.300 M118.570 201.200 C 118.570 205.930,118.628 207.865,118.698 205.500 C 118.769 203.135,118.769 199.265,118.698 196.900 C 118.628 194.535,118.570 196.470,118.570 201.200 M356.977 204.400 C 356.977 210.890,357.032 213.545,357.099 210.300 C 357.166 207.055,357.166 201.745,357.099 198.500 C 357.032 195.255,356.977 197.910,356.977 204.400 M293.777 204.800 C 293.777 211.290,293.832 213.945,293.899 210.700 C 293.966 207.455,293.966 202.145,293.899 198.900 C 293.832 195.655,293.777 198.310,293.777 204.800 M255.777 205.800 C 255.777 212.400,255.832 215.156,255.899 211.925 C 255.966 208.693,255.966 203.293,255.899 199.925 C 255.832 196.556,255.777 199.200,255.777 205.800 M304.177 205.600 C 304.177 212.090,304.232 214.745,304.299 211.500 C 304.366 208.255,304.366 202.945,304.299 199.700 C 304.232 196.455,304.177 199.110,304.177 205.600 M163.365 204.800 C 163.365 208.650,163.425 210.225,163.498 208.300 C 163.571 206.375,163.571 203.225,163.498 201.300 C 163.425 199.375,163.365 200.950,163.365 204.800 M244.965 204.800 C 244.965 208.650,245.025 210.225,245.098 208.300 C 245.171 206.375,245.171 203.225,245.098 201.300 C 245.025 199.375,244.965 200.950,244.965 204.800 M270.170 209.000 C 270.171 213.840,270.229 215.765,270.299 213.278 C 270.369 210.791,270.369 206.831,270.298 204.478 C 270.228 202.125,270.170 204.160,270.170 209.000 M350.524 203.400 C 350.526 204.720,350.601 205.212,350.690 204.493 C 350.779 203.774,350.777 202.694,350.686 202.093 C 350.595 201.492,350.522 202.080,350.524 203.400 M334.520 203.600 C 334.520 204.810,334.595 205.305,334.687 204.700 C 334.778 204.095,334.778 203.105,334.687 202.500 C 334.595 201.895,334.520 202.390,334.520 203.600 M310.966 209.200 C 310.966 213.270,311.025 214.935,311.098 212.900 C 311.171 210.865,311.171 207.535,311.098 205.500 C 311.025 203.465,310.966 205.130,310.966 209.200 M197.324 205.000 C 197.326 206.320,197.401 206.812,197.490 206.093 C 197.579 205.374,197.577 204.294,197.486 203.693 C 197.395 203.092,197.322 203.680,197.324 205.000 M57.200 203.600 L 53.400 203.847 57.076 203.923 C 59.183 203.967,60.858 203.829,61.000 203.600 C 61.136 203.380,61.192 203.234,61.124 203.277 C 61.056 203.319,59.290 203.464,57.200 203.600 M190.509 204.800 C 190.509 205.790,190.587 206.195,190.682 205.700 C 190.778 205.205,190.778 204.395,190.682 203.900 C 190.587 203.405,190.509 203.810,190.509 204.800 M156.901 208.200 C 156.905 209.080,156.987 209.393,157.083 208.895 C 157.179 208.398,157.175 207.678,157.075 207.295 C 156.975 206.913,156.896 207.320,156.901 208.200 M238.464 207.867 C 238.429 208.564,238.296 209.464,238.170 209.867 C 237.953 210.559,237.965 210.560,238.394 209.891 C 238.645 209.502,238.777 208.602,238.689 207.891 L 238.528 206.600 238.464 207.867 M142.093 209.600 C 142.093 210.370,142.175 210.685,142.276 210.300 C 142.376 209.915,142.376 209.285,142.276 208.900 C 142.175 208.515,142.093 208.830,142.093 209.600 M57.208 209.900 C 54.023 209.968,51.287 210.153,51.127 210.312 C 50.968 210.470,53.484 210.545,56.719 210.479 C 59.953 210.412,62.771 210.187,62.980 209.979 C 63.189 209.770,63.279 209.640,63.180 209.688 C 63.081 209.737,60.394 209.832,57.208 209.900 M213.240 210.220 C 213.186 211.330,213.948 212.010,215.180 211.953 C 216.140 211.908,216.130 211.890,215.018 211.652 C 214.212 211.479,213.747 211.081,213.558 210.399 C 213.325 209.561,213.273 209.533,213.240 210.220 M224.800 214.125 C 224.800 214.194,225.385 214.779,226.100 215.425 L 227.400 216.600 226.225 215.300 C 225.130 214.088,224.800 213.816,224.800 214.125 M349.016 215.174 C 348.864 215.420,349.001 215.498,349.350 215.364 C 349.746 215.212,349.996 215.444,350.109 216.069 C 350.274 216.983,350.277 216.983,350.239 216.031 C 350.198 215.002,349.447 214.477,349.016 215.174 M48.580 216.780 C 48.370 216.990,46.849 217.224,45.200 217.301 L 42.200 217.441 45.251 217.521 C 47.549 217.580,48.425 217.452,48.800 217.000 C 49.348 216.339,49.184 216.176,48.580 216.780 M130.800 217.200 L 128.600 217.470 130.676 217.535 C 131.818 217.571,132.864 217.420,133.000 217.200 C 133.136 216.980,133.192 216.829,133.124 216.865 C 133.056 216.901,132.010 217.052,130.800 217.200 M273.800 217.200 L 271.000 217.459 273.676 217.529 C 275.148 217.568,276.464 217.420,276.600 217.200 C 276.736 216.980,276.792 216.832,276.724 216.871 C 276.656 216.909,275.340 217.058,273.800 217.200 M308.000 217.200 L 305.400 217.462 307.876 217.531 C 309.238 217.569,310.464 217.420,310.600 217.200 C 310.736 216.980,310.792 216.831,310.724 216.869 C 310.656 216.907,309.430 217.056,308.000 217.200 M322.200 217.200 L 319.400 217.459 322.076 217.529 C 323.548 217.568,324.864 217.420,325.000 217.200 C 325.136 216.980,325.192 216.832,325.124 216.871 C 325.056 216.909,323.740 217.058,322.200 217.200 M68.100 217.491 C 68.925 217.578,70.275 217.578,71.100 217.491 C 71.925 217.405,71.250 217.334,69.600 217.334 C 67.950 217.334,67.275 217.405,68.100 217.491 M257.891 217.489 C 258.601 217.577,259.861 217.579,260.691 217.492 C 261.521 217.405,260.940 217.333,259.400 217.331 C 257.860 217.329,257.181 217.400,257.891 217.489 M289.091 217.489 C 289.801 217.577,291.061 217.579,291.891 217.492 C 292.721 217.405,292.140 217.333,290.600 217.331 C 289.060 217.329,288.381 217.400,289.091 217.489 M342.100 219.476 C 342.485 219.576,343.115 219.576,343.500 219.476 C 343.885 219.375,343.570 219.293,342.800 219.293 C 342.030 219.293,341.715 219.375,342.100 219.476 M97.491 225.089 C 98.201 225.177,99.461 225.179,100.291 225.092 C 101.121 225.005,100.540 224.933,99.000 224.931 C 97.460 224.929,96.781 225.000,97.491 225.089 M175.300 225.091 C 176.125 225.178,177.475 225.178,178.300 225.091 C 179.125 225.005,178.450 224.934,176.800 224.934 C 175.150 224.934,174.475 225.005,175.300 225.091 M343.700 225.891 C 344.525 225.978,345.875 225.978,346.700 225.891 C 347.525 225.805,346.850 225.734,345.200 225.734 C 343.550 225.734,342.875 225.805,343.700 225.891 " stroke="none" fill="#ec1a32" fill-rule="evenodd"></path><path id="path2" d="M0.027 124.100 C 0.042 129.823,0.197 133.853,0.385 133.400 C 0.566 132.960,0.952 131.790,1.241 130.800 C 2.006 128.187,3.949 124.512,5.262 123.200 C 5.888 122.574,6.400 121.868,6.400 121.631 C 6.400 121.394,6.588 121.200,6.818 121.200 C 7.048 121.200,7.659 120.777,8.176 120.260 C 9.322 119.114,12.499 117.151,14.400 116.414 C 15.170 116.116,15.971 115.721,16.180 115.536 C 16.389 115.351,16.959 115.200,17.447 115.200 C 18.686 115.200,19.637 114.784,19.374 114.358 C 19.252 114.161,14.843 114.000,9.576 114.000 L 0.000 114.000 0.027 124.100 M375.677 114.430 C 375.755 114.666,375.991 114.860,376.200 114.860 C 376.409 114.860,376.645 114.666,376.723 114.430 C 376.802 114.194,376.567 114.000,376.200 114.000 C 375.833 114.000,375.598 114.194,375.677 114.430 M380.626 114.358 C 380.363 114.784,381.314 115.200,382.553 115.200 C 383.041 115.200,383.611 115.353,383.820 115.540 C 384.029 115.727,385.010 116.191,386.000 116.572 C 389.658 117.980,395.074 122.514,395.789 124.766 C 395.935 125.225,396.191 125.600,396.359 125.600 C 396.749 125.600,398.155 128.711,399.161 131.800 L 399.943 134.200 399.971 124.100 L 400.000 114.000 390.424 114.000 C 385.157 114.000,380.748 114.161,380.626 114.358 M19.157 127.331 C 16.229 128.283,13.104 131.906,12.439 135.120 C 11.809 138.162,11.822 261.930,12.452 264.867 C 13.345 269.031,16.504 272.221,20.582 273.076 C 22.513 273.481,58.587 273.585,199.620 273.592 C 321.610 273.597,376.369 273.729,376.657 274.017 C 376.946 274.306,377.231 274.245,377.586 273.817 C 377.868 273.478,378.481 273.196,378.949 273.191 C 380.070 273.180,383.200 271.748,383.200 271.247 C 383.200 271.031,383.567 270.737,384.015 270.595 C 385.211 270.216,386.826 267.535,387.446 264.901 C 388.167 261.836,388.268 138.903,387.551 135.520 C 386.775 131.851,384.572 128.985,381.432 127.559 C 379.403 126.637,21.982 126.412,19.157 127.331 M60.902 182.900 C 61.520 183.371,62.311 185.209,63.270 188.400 C 63.501 189.170,65.650 195.685,68.045 202.878 C 73.567 219.460,73.845 217.718,65.700 217.596 C 65.199 217.588,63.576 212.702,63.540 211.090 C 63.514 209.964,63.384 209.682,63.025 209.979 C 62.762 210.198,59.983 210.427,56.851 210.489 L 51.156 210.600 50.147 213.596 C 48.770 217.688,48.890 217.600,44.708 217.600 C 41.442 217.600,41.141 217.536,41.403 216.900 C 41.562 216.515,41.828 215.660,41.994 215.000 C 42.160 214.340,42.695 212.720,43.184 211.400 C 43.672 210.080,44.208 208.460,44.376 207.800 C 44.754 206.306,47.527 198.085,48.018 197.000 C 48.377 196.205,50.035 191.082,51.346 186.714 C 51.723 185.456,52.205 184.321,52.416 184.190 C 52.627 184.060,52.800 183.603,52.800 183.176 C 52.800 182.225,59.709 181.989,60.902 182.900 M212.426 182.814 C 213.166 183.210,213.202 183.808,213.240 196.314 C 213.287 211.618,213.242 211.320,215.526 211.628 C 217.745 211.927,217.948 212.187,218.254 215.118 L 218.514 217.600 216.157 217.690 C 210.227 217.917,208.104 217.181,206.989 214.512 C 206.250 212.744,206.100 184.232,206.827 183.783 C 207.062 183.638,207.158 183.267,207.040 182.960 C 206.776 182.272,211.190 182.153,212.426 182.814 M293.081 183.678 C 294.906 185.447,294.936 187.579,293.158 189.240 C 289.371 192.777,284.079 187.480,287.622 183.700 C 289.306 181.904,291.242 181.896,293.081 183.678 M157.443 191.830 C 162.575 193.322,163.339 194.907,163.598 204.596 L 163.800 212.191 164.875 212.706 L 165.950 213.220 165.166 215.499 C 164.735 216.753,164.251 217.905,164.091 218.059 C 163.582 218.550,160.345 217.723,159.511 216.889 L 158.708 216.086 156.775 217.089 C 150.245 220.477,142.197 216.211,142.230 209.379 C 142.257 203.791,146.743 201.068,156.327 200.824 C 157.098 200.804,157.209 200.648,156.985 199.900 C 156.023 196.678,151.845 196.533,145.899 199.516 C 145.584 199.674,143.201 194.934,143.200 194.149 C 143.200 193.652,144.271 193.172,147.600 192.178 C 148.810 191.817,149.980 191.463,150.200 191.392 C 151.343 191.024,155.544 191.278,157.443 191.830 M238.787 191.791 C 244.024 193.185,244.936 195.035,245.200 204.796 L 245.400 212.191 246.476 212.706 C 247.561 213.225,247.497 214.913,246.345 216.180 C 246.155 216.389,246.000 216.873,246.000 217.256 C 246.000 218.703,242.088 218.291,240.807 216.710 C 240.134 215.878,240.018 215.856,239.338 216.438 C 233.657 221.291,223.903 216.825,223.900 209.369 C 223.898 206.465,225.491 203.200,226.908 203.200 C 227.111 203.200,227.754 202.865,228.338 202.456 C 229.384 201.724,231.485 201.319,236.192 200.941 C 239.167 200.703,239.384 200.127,237.286 198.029 C 236.584 197.327,231.364 197.276,230.676 197.964 C 230.436 198.204,229.975 198.400,229.651 198.400 C 229.328 198.400,228.745 198.688,228.357 199.039 C 227.968 199.391,227.479 199.572,227.269 199.442 C 226.851 199.185,224.259 193.986,224.470 193.831 C 224.829 193.565,229.201 192.044,230.600 191.697 C 233.005 191.102,236.338 191.140,238.787 191.791 M93.359 192.342 C 94.126 192.937,95.579 193.154,95.486 192.659 C 95.370 192.042,99.725 191.825,100.790 192.394 C 101.583 192.819,101.600 193.168,101.600 209.014 L 101.600 225.200 99.033 225.200 C 97.621 225.200,96.181 225.309,95.833 225.443 C 95.281 225.655,95.200 225.153,95.200 221.509 C 95.200 216.708,95.187 216.679,93.380 217.434 C 83.300 221.646,74.377 207.930,80.301 197.331 C 81.416 195.335,84.703 192.522,86.339 192.163 C 86.922 192.035,87.580 191.859,87.800 191.772 C 88.450 191.516,92.880 191.970,93.359 192.342 M190.910 192.652 C 197.606 196.091,199.589 206.490,194.913 213.642 C 192.590 217.196,187.125 218.948,182.915 217.488 C 180.753 216.739,180.800 216.656,180.800 221.200 C 180.800 225.848,181.163 225.443,177.215 225.200 L 173.961 225.000 173.989 209.030 C 174.009 197.729,174.150 192.901,174.472 192.513 C 175.303 191.512,179.770 191.992,179.928 193.099 L 180.055 193.998 181.328 193.033 C 183.374 191.479,188.248 191.285,190.910 192.652 M272.289 192.576 C 273.620 193.304,275.200 194.621,275.200 195.002 C 275.200 195.153,275.563 195.787,276.007 196.410 C 276.772 197.484,276.809 198.062,276.707 207.472 L 276.600 217.400 273.300 217.516 L 270.000 217.632 270.000 208.748 C 270.000 198.478,269.976 198.400,266.813 198.400 C 262.995 198.400,262.400 199.856,262.400 209.193 C 262.400 218.185,262.654 217.600,258.746 217.600 L 255.577 217.600 255.739 205.500 C 255.828 198.845,255.934 193.085,255.975 192.700 C 256.075 191.763,259.351 191.738,261.198 192.659 C 262.303 193.210,262.655 193.233,263.347 192.801 C 265.462 191.480,270.074 191.364,272.289 192.576 M321.390 192.973 C 322.467 193.604,323.583 194.712,324.196 195.758 L 325.214 197.495 325.107 207.447 L 325.000 217.400 321.928 217.516 L 318.855 217.633 318.728 208.633 C 318.582 198.366,318.607 198.437,315.155 198.413 C 313.684 198.403,313.095 198.614,312.255 199.455 L 311.200 200.509 311.200 208.378 C 311.200 217.964,311.323 217.684,307.191 217.519 L 304.200 217.400 304.248 205.400 C 304.274 198.800,304.330 193.085,304.372 192.700 C 304.485 191.683,307.916 191.742,309.788 192.793 C 310.565 193.229,311.200 193.415,311.200 193.205 C 311.200 191.499,318.587 191.330,321.390 192.973 M349.286 192.290 C 350.294 193.098,351.618 193.313,351.355 192.626 C 351.048 191.827,354.473 191.737,356.117 192.500 L 357.194 193.000 357.197 205.240 C 357.200 218.456,357.120 219.079,355.044 221.878 C 351.828 226.214,344.131 227.242,337.100 224.274 C 336.275 223.926,335.600 223.752,335.600 223.887 C 335.600 224.023,335.495 224.029,335.368 223.901 C 334.997 223.530,337.299 218.000,337.824 218.000 C 338.086 218.000,339.087 218.286,340.050 218.635 C 343.007 219.709,347.724 219.599,348.971 218.427 C 350.356 217.126,350.450 214.983,349.100 215.473 C 335.808 220.302,328.201 198.753,341.000 192.530 C 343.123 191.497,348.116 191.353,349.286 192.290 M117.781 192.464 L 118.800 192.928 118.800 201.642 C 118.800 211.483,118.838 211.600,122.056 211.600 C 126.016 211.600,126.442 210.491,126.381 200.329 L 126.333 192.200 128.631 192.078 C 129.895 192.011,131.442 192.169,132.070 192.429 L 133.211 192.902 133.106 205.151 L 133.000 217.400 130.100 217.518 C 127.702 217.615,127.200 217.528,127.200 217.018 C 127.200 216.258,127.238 216.257,125.349 217.051 C 121.748 218.563,115.043 217.449,114.222 215.203 C 114.101 214.872,113.552 213.988,113.001 213.241 C 112.001 211.883,112.000 211.876,112.000 202.574 C 112.000 197.454,111.891 192.981,111.757 192.633 C 111.455 191.845,116.134 191.714,117.781 192.464 M293.014 192.646 L 294.000 193.292 294.000 204.672 C 294.000 218.253,294.193 217.600,290.186 217.600 L 287.200 217.600 287.200 206.050 C 287.200 199.697,287.088 193.938,286.950 193.250 L 286.700 192.000 289.364 192.000 C 291.143 192.000,292.356 192.215,293.014 192.646 M56.293 194.078 C 55.946 195.025,55.186 197.330,54.606 199.200 C 54.026 201.070,53.458 202.825,53.343 203.100 C 53.184 203.480,54.055 203.600,56.967 203.600 C 59.075 203.600,60.800 203.514,60.800 203.408 C 60.800 203.303,60.550 202.538,60.245 201.708 C 59.940 200.879,59.213 198.670,58.630 196.800 C 57.190 192.178,57.050 192.016,56.293 194.078 M88.135 198.582 C 84.883 199.996,84.323 208.851,87.356 210.900 C 91.421 213.647,95.196 210.755,95.199 204.892 C 95.201 199.130,92.474 196.694,88.135 198.582 M182.952 198.740 C 179.297 201.038,180.152 210.361,184.124 211.534 C 188.244 212.751,190.400 210.449,190.400 204.832 C 190.400 199.198,186.847 196.292,182.952 198.740 M343.205 199.133 C 339.475 202.863,341.305 209.600,346.047 209.600 C 349.146 209.600,350.400 207.871,350.400 203.600 C 350.400 198.615,346.281 196.057,343.205 199.133 M151.833 207.194 C 147.855 207.960,148.426 212.000,152.513 212.000 C 155.827 212.000,156.782 211.130,156.795 208.100 C 156.801 206.667,155.654 206.458,151.833 207.194 M233.521 207.180 C 229.233 208.013,229.836 211.960,234.256 211.987 C 236.998 212.004,238.011 211.176,238.292 208.684 L 238.504 206.800 236.752 206.846 C 235.788 206.871,234.334 207.021,233.521 207.180 M0.000 276.200 L 0.000 286.000 9.800 286.000 C 18.928 286.000,21.699 285.674,18.500 284.975 C 12.926 283.758,5.843 279.010,4.366 275.500 C 4.111 274.895,3.776 274.400,3.620 274.400 C 3.253 274.400,1.804 271.180,0.965 268.500 C 0.008 265.441,0.000 265.504,0.000 276.200 M399.396 267.700 C 397.799 275.464,389.831 283.156,381.500 284.975 C 378.301 285.674,381.072 286.000,390.200 286.000 L 400.000 286.000 400.000 276.200 C 400.000 266.470,399.910 265.202,399.396 267.700 " stroke="none" fill="#fbfbfb" fill-rule="evenodd"></path></g></svg>