<svg id="svg" version="1.1" xmlns="http://www.w3.org/2000/svg" xmlns:xlink="http://www.w3.org/1999/xlink" width="400" height="400" viewBox="0, 0, 400,400"><g id="svgg"><path id="path0" d="M19.284 114.615 C 19.001 114.937,18.356 115.200,17.851 115.200 C 17.346 115.200,16.811 115.322,16.662 115.471 C 16.513 115.621,15.628 116.028,14.695 116.376 C 10.675 117.878,5.690 121.940,3.618 125.401 C 0.968 129.827,-0.873 137.013,0.435 137.822 C 0.748 138.015,0.748 138.212,0.435 138.525 C -0.111 139.071,-0.187 265.084,0.358 266.481 C 0.555 266.987,0.952 268.210,1.240 269.200 C 1.528 270.190,2.086 271.585,2.481 272.300 C 2.877 273.015,3.575 274.275,4.033 275.100 C 4.867 276.602,9.858 281.600,10.523 281.600 C 10.718 281.600,11.362 281.946,11.955 282.368 C 12.548 282.790,14.511 283.624,16.317 284.221 C 18.122 284.818,19.600 285.462,19.600 285.653 C 19.600 286.427,376.286 286.074,376.586 285.300 C 376.844 284.633,376.882 284.633,377.373 285.300 C 377.879 285.987,380.661 286.346,380.243 285.670 C 380.131 285.488,381.155 285.023,382.520 284.637 C 390.612 282.343,396.194 277.043,398.779 269.201 L 400.000 265.494 400.000 201.827 C 400.000 152.842,399.889 138.049,399.520 137.680 C 399.147 137.307,399.147 137.200,399.520 137.200 C 399.795 137.200,400.000 136.643,400.000 135.895 C 400.000 133.599,397.145 125.600,396.326 125.600 C 396.147 125.600,395.998 125.285,395.997 124.900 C 395.985 122.534,385.341 115.200,381.918 115.200 C 381.510 115.200,381.071 114.930,380.945 114.600 C 380.594 113.686,376.975 113.770,376.614 114.700 C 376.356 115.367,376.318 115.367,375.827 114.700 C 375.099 113.711,20.156 113.627,19.284 114.615 M382.484 128.201 C 384.778 129.693,386.643 131.999,387.299 134.154 C 388.031 136.558,388.031 263.442,387.299 265.846 C 386.386 268.848,383.253 272.014,380.417 272.802 C 377.880 273.507,20.687 273.331,18.996 272.624 C 15.521 271.172,13.101 268.207,12.430 264.581 C 11.817 261.263,11.829 138.059,12.443 135.120 C 13.133 131.814,16.015 128.474,19.141 127.356 C 20.334 126.929,53.417 126.849,200.619 126.917 L 380.638 127.000 382.484 128.201 M71.780 158.000 C 71.780 165.810,71.834 169.005,71.899 165.100 C 71.965 161.195,71.965 154.805,71.899 150.900 C 71.834 146.995,71.780 150.190,71.780 158.000 M137.597 147.682 C 137.489 149.817,137.542 151.420,137.716 151.245 C 137.891 151.070,137.979 149.323,137.914 147.364 L 137.794 143.800 137.597 147.682 M78.261 148.700 C 78.158 148.865,79.812 148.952,81.937 148.894 C 89.065 148.698,89.843 148.549,84.124 148.474 C 81.002 148.433,78.363 148.535,78.261 148.700 M276.100 150.287 C 276.705 150.378,277.695 150.378,278.300 150.287 C 278.905 150.195,278.410 150.120,277.200 150.120 C 275.990 150.120,275.495 150.195,276.100 150.287 M320.505 150.287 C 321.114 150.379,322.014 150.377,322.505 150.282 C 322.997 150.187,322.500 150.111,321.400 150.114 C 320.300 150.117,319.897 150.195,320.505 150.287 M254.800 151.600 C 254.800 152.347,254.907 152.453,255.280 152.080 C 255.653 151.707,255.653 151.493,255.280 151.120 C 254.907 150.747,254.800 150.853,254.800 151.600 M306.531 153.800 C 306.533 155.340,306.605 155.921,306.692 155.091 C 306.779 154.261,306.777 153.001,306.689 152.291 C 306.600 151.581,306.529 152.260,306.531 153.800 M78.351 154.513 C 78.524 154.685,80.901 154.774,83.633 154.711 L 88.600 154.597 83.319 154.398 C 80.414 154.289,78.179 154.341,78.351 154.513 M276.500 155.476 C 276.885 155.576,277.515 155.576,277.900 155.476 C 278.285 155.375,277.970 155.293,277.200 155.293 C 276.430 155.293,276.115 155.375,276.500 155.476 M249.062 155.900 C 248.960 156.065,249.652 156.200,250.600 156.200 C 251.548 156.200,252.240 156.065,252.138 155.900 C 252.036 155.735,251.344 155.600,250.600 155.600 C 249.856 155.600,249.164 155.735,249.062 155.900 M195.588 157.222 C 195.346 157.674,195.207 158.222,195.280 158.439 C 195.352 158.657,195.618 158.287,195.871 157.617 C 196.397 156.225,196.239 156.005,195.588 157.222 M233.365 164.600 C 233.366 168.560,233.426 170.126,233.498 168.080 C 233.571 166.034,233.571 162.794,233.498 160.880 C 233.424 158.966,233.365 160.640,233.365 164.600 M208.258 159.200 C 208.575 160.925,208.802 161.251,208.794 159.967 C 208.791 159.435,208.611 158.730,208.394 158.400 C 208.118 157.978,208.077 158.215,208.258 159.200 M254.128 160.400 C 254.128 161.830,254.201 162.415,254.289 161.700 C 254.378 160.985,254.378 159.815,254.289 159.100 C 254.201 158.385,254.128 158.970,254.128 160.400 M137.737 161.400 C 137.739 163.160,137.809 163.830,137.893 162.889 C 137.978 161.949,137.977 160.509,137.891 159.689 C 137.805 158.870,137.736 159.640,137.737 161.400 M246.961 158.958 C 246.843 159.265,246.808 160.210,246.883 161.058 C 247.010 162.487,247.034 162.446,247.210 160.500 C 247.404 158.356,247.341 157.967,246.961 158.958 M96.928 161.200 C 96.928 162.630,97.001 163.215,97.089 162.500 C 97.178 161.785,97.178 160.615,97.089 159.900 C 97.001 159.185,96.928 159.770,96.928 161.200 M117.320 161.600 C 117.320 162.810,117.395 163.305,117.487 162.700 C 117.578 162.095,117.578 161.105,117.487 160.500 C 117.395 159.895,117.320 160.390,117.320 161.600 M286.901 161.400 C 286.905 162.280,286.987 162.593,287.083 162.095 C 287.179 161.598,287.175 160.878,287.075 160.495 C 286.975 160.113,286.896 160.520,286.901 161.400 M124.093 163.200 C 124.093 163.970,124.175 164.285,124.276 163.900 C 124.376 163.515,124.376 162.885,124.276 162.500 C 124.175 162.115,124.093 162.430,124.093 163.200 M188.878 163.084 C 189.675 163.206,189.900 163.425,189.740 163.924 C 189.562 164.482,189.596 164.499,189.936 164.019 C 190.513 163.204,190.135 162.790,188.876 162.860 L 187.800 162.920 188.878 163.084 M106.500 167.076 C 106.885 167.176,107.515 167.176,107.900 167.076 C 108.285 166.975,107.970 166.893,107.200 166.893 C 106.430 166.893,106.115 166.975,106.500 167.076 M133.300 167.076 C 133.685 167.176,134.315 167.176,134.700 167.076 C 135.085 166.975,134.770 166.893,134.000 166.893 C 133.230 166.893,132.915 166.975,133.300 167.076 M127.978 170.500 C 128.780 171.373,129.701 171.981,130.178 171.954 C 130.982 171.908,130.982 171.903,130.200 171.716 C 129.760 171.610,128.770 170.956,128.000 170.262 L 126.600 169.000 127.978 170.500 M162.624 170.213 C 162.196 170.536,162.051 170.800,162.300 170.800 C 162.549 170.800,162.864 170.620,163.000 170.400 C 163.418 169.723,163.936 169.955,164.118 170.900 C 164.266 171.672,164.299 171.643,164.346 170.700 C 164.406 169.472,163.821 169.307,162.624 170.213 M191.362 170.500 L 190.600 171.400 191.492 170.645 C 192.267 169.990,192.479 169.963,193.092 170.445 C 193.735 170.949,193.750 170.936,193.251 170.300 C 192.537 169.389,192.279 169.416,191.362 170.500 M74.100 171.887 C 74.705 171.978,75.695 171.978,76.300 171.887 C 76.905 171.795,76.410 171.720,75.200 171.720 C 73.990 171.720,73.495 171.795,74.100 171.887 M139.300 171.887 C 139.905 171.978,140.895 171.978,141.500 171.887 C 142.105 171.795,141.610 171.720,140.400 171.720 C 139.190 171.720,138.695 171.795,139.300 171.887 M218.300 171.882 C 218.795 171.978,219.605 171.978,220.100 171.882 C 220.595 171.787,220.190 171.709,219.200 171.709 C 218.210 171.709,217.805 171.787,218.300 171.882 M230.300 171.882 C 230.795 171.978,231.605 171.978,232.100 171.882 C 232.595 171.787,232.190 171.709,231.200 171.709 C 230.210 171.709,229.805 171.787,230.300 171.882 M296.707 171.890 C 297.426 171.979,298.506 171.977,299.107 171.886 C 299.708 171.795,299.120 171.722,297.800 171.724 C 296.480 171.726,295.988 171.801,296.707 171.890 M106.500 172.676 C 106.885 172.776,107.515 172.776,107.900 172.676 C 108.285 172.575,107.970 172.493,107.200 172.493 C 106.430 172.493,106.115 172.575,106.500 172.676 M153.100 173.414 C 152.101 174.750,152.231 175.123,153.246 173.833 C 153.711 173.242,154.026 172.695,153.946 172.618 C 153.866 172.541,153.485 172.900,153.100 173.414 M159.305 179.087 C 159.914 179.179,160.814 179.177,161.305 179.082 C 161.797 178.987,161.300 178.911,160.200 178.914 C 159.100 178.917,158.697 178.995,159.305 179.087 M248.905 179.087 C 249.514 179.179,250.414 179.177,250.905 179.082 C 251.397 178.987,250.900 178.911,249.800 178.914 C 248.700 178.917,248.297 178.995,248.905 179.087 M80.883 189.067 C 80.798 192.843,80.987 194.000,81.692 194.000 C 81.953 194.000,81.943 193.814,81.665 193.478 C 81.427 193.191,81.172 191.256,81.099 189.178 L 80.966 185.400 80.883 189.067 M181.600 191.600 L 180.200 191.895 181.476 191.947 C 182.178 191.976,182.864 191.820,183.000 191.600 C 183.136 191.380,183.192 191.224,183.124 191.253 C 183.056 191.282,182.370 191.438,181.600 191.600 M129.505 193.483 C 130.002 193.579,130.722 193.575,131.105 193.475 C 131.487 193.375,131.080 193.296,130.200 193.301 C 129.320 193.305,129.007 193.387,129.505 193.483 M153.705 193.487 C 154.314 193.579,155.214 193.577,155.705 193.482 C 156.197 193.387,155.700 193.311,154.600 193.314 C 153.500 193.317,153.097 193.395,153.705 193.487 M167.305 193.487 C 167.914 193.579,168.814 193.577,169.305 193.482 C 169.797 193.387,169.300 193.311,168.200 193.314 C 167.100 193.317,166.697 193.395,167.305 193.487 M180.505 193.487 C 181.114 193.579,182.014 193.577,182.505 193.482 C 182.997 193.387,182.500 193.311,181.400 193.314 C 180.300 193.317,179.897 193.395,180.505 193.487 M283.905 193.483 C 284.402 193.579,285.122 193.575,285.505 193.475 C 285.887 193.375,285.480 193.296,284.600 193.301 C 283.720 193.305,283.407 193.387,283.905 193.483 M293.305 193.487 C 293.914 193.579,294.814 193.577,295.305 193.482 C 295.797 193.387,295.300 193.311,294.200 193.314 C 293.100 193.317,292.697 193.395,293.305 193.487 M306.905 193.487 C 307.514 193.579,308.414 193.577,308.905 193.482 C 309.397 193.387,308.900 193.311,307.800 193.314 C 306.700 193.317,306.297 193.395,306.905 193.487 M310.574 204.200 C 310.575 209.920,310.631 212.204,310.699 209.276 C 310.768 206.348,310.767 201.668,310.699 198.876 C 310.630 196.084,310.574 198.480,310.574 204.200 M282.920 196.800 C 282.920 198.010,282.995 198.505,283.087 197.900 C 283.178 197.295,283.178 196.305,283.087 195.700 C 282.995 195.095,282.920 195.590,282.920 196.800 M135.600 198.556 C 135.600 198.642,136.217 198.785,136.972 198.873 C 137.727 198.961,138.256 198.890,138.148 198.716 C 137.955 198.403,135.600 198.255,135.600 198.556 M192.493 200.000 C 192.493 200.770,192.575 201.085,192.676 200.700 C 192.776 200.315,192.776 199.685,192.676 199.300 C 192.575 198.915,192.493 199.230,192.493 200.000 M113.600 200.533 C 113.600 201.308,107.440 201.550,107.063 200.790 C 106.951 200.565,106.906 200.610,106.962 200.890 C 107.129 201.721,113.540 201.822,113.856 200.999 C 113.989 200.651,113.987 200.253,113.849 200.116 C 113.712 199.979,113.600 200.167,113.600 200.533 M222.502 200.800 C 222.630 201.274,223.416 201.406,226.232 201.427 L 229.800 201.454 226.413 201.310 C 224.381 201.223,222.888 200.972,222.682 200.682 C 222.439 200.340,222.386 200.374,222.502 200.800 M235.590 204.081 C 235.484 205.116,235.545 205.815,235.726 205.634 C 235.907 205.453,235.993 204.607,235.919 203.753 L 235.783 202.200 235.590 204.081 M80.959 208.800 C 80.959 211.990,81.021 213.295,81.097 211.700 C 81.173 210.105,81.173 207.495,81.097 205.900 C 81.021 204.305,80.959 205.610,80.959 208.800 M230.749 208.664 C 230.249 209.270,230.277 209.281,231.068 208.788 C 231.802 208.331,232.048 208.337,232.668 208.824 C 233.339 209.352,233.354 209.341,232.851 208.700 C 232.162 207.821,231.455 207.809,230.749 208.664 M75.808 214.742 C 76.059 214.992,80.116 214.815,80.391 214.541 C 80.496 214.437,79.460 214.392,78.090 214.441 C 76.719 214.491,75.693 214.626,75.808 214.742 M89.500 214.682 C 89.995 214.778,90.805 214.778,91.300 214.682 C 91.795 214.587,91.390 214.509,90.400 214.509 C 89.410 214.509,89.005 214.587,89.500 214.682 M128.066 214.751 C 127.754 214.949,128.418 215.016,129.666 214.913 C 132.597 214.671,132.995 214.468,130.600 214.438 C 129.500 214.424,128.360 214.565,128.066 214.751 M140.257 214.707 C 140.153 214.876,140.817 214.957,141.734 214.886 C 144.425 214.679,144.753 214.496,142.524 214.446 C 141.382 214.421,140.362 214.538,140.257 214.707 M160.900 214.687 C 161.505 214.778,162.495 214.778,163.100 214.687 C 163.705 214.595,163.210 214.520,162.000 214.520 C 160.790 214.520,160.295 214.595,160.900 214.687 M178.866 214.751 C 178.554 214.949,179.218 215.016,180.466 214.913 C 183.397 214.671,183.795 214.468,181.400 214.438 C 180.300 214.424,179.160 214.565,178.866 214.751 M306.900 214.687 C 307.505 214.778,308.495 214.778,309.100 214.687 C 309.705 214.595,309.210 214.520,308.000 214.520 C 306.790 214.520,306.295 214.595,306.900 214.687 M324.100 215.087 C 324.705 215.178,325.695 215.178,326.300 215.087 C 326.905 214.995,326.410 214.920,325.200 214.920 C 323.990 214.920,323.495 214.995,324.100 215.087 M250.500 215.476 C 250.885 215.576,251.515 215.576,251.900 215.476 C 252.285 215.375,251.970 215.293,251.200 215.293 C 250.430 215.293,250.115 215.375,250.500 215.476 M101.107 228.290 C 101.826 228.379,102.906 228.377,103.507 228.286 C 104.108 228.195,103.520 228.122,102.200 228.124 C 100.880 228.126,100.388 228.201,101.107 228.290 M171.742 231.800 C 171.741 233.780,171.808 234.640,171.892 233.712 C 171.976 232.784,171.977 231.164,171.895 230.112 C 171.812 229.060,171.743 229.820,171.742 231.800 M260.893 229.600 C 260.893 230.370,260.975 230.685,261.076 230.300 C 261.176 229.915,261.176 229.285,261.076 228.900 C 260.975 228.515,260.893 228.830,260.893 229.600 M104.980 242.800 C 104.980 250.390,105.034 253.495,105.099 249.700 C 105.165 245.905,105.165 239.695,105.099 235.900 C 105.034 232.105,104.980 235.210,104.980 242.800 M316.131 233.000 C 316.133 234.540,316.205 235.121,316.292 234.291 C 316.379 233.461,316.377 232.201,316.289 231.491 C 316.200 230.781,316.129 231.460,316.131 233.000 M187.324 233.000 C 187.326 234.320,187.401 234.812,187.490 234.093 C 187.579 233.374,187.577 232.294,187.486 231.693 C 187.395 231.092,187.322 231.680,187.324 233.000 M93.905 235.483 C 94.402 235.579,95.122 235.575,95.505 235.475 C 95.887 235.375,95.480 235.296,94.600 235.301 C 93.720 235.305,93.407 235.387,93.905 235.483 M305.600 235.893 C 306.150 235.994,306.870 236.284,307.200 236.538 C 307.722 236.940,307.729 236.909,307.251 236.300 C 306.948 235.914,306.230 235.624,305.651 235.654 L 304.600 235.709 305.600 235.893 M197.800 238.400 C 197.800 239.458,197.935 240.240,198.100 240.138 C 198.265 240.036,198.400 239.254,198.400 238.400 C 198.400 237.546,198.265 236.764,198.100 236.662 C 197.935 236.560,197.800 237.342,197.800 238.400 M176.870 238.420 C 176.831 239.421,176.576 240.501,176.303 240.820 C 176.015 241.156,176.110 241.130,176.529 240.760 C 177.076 240.275,177.214 239.692,177.096 238.360 L 176.940 236.600 176.870 238.420 M183.714 239.000 C 183.717 240.100,183.795 240.503,183.887 239.895 C 183.979 239.286,183.977 238.386,183.882 237.895 C 183.787 237.403,183.711 237.900,183.714 239.000 M307.632 240.276 C 307.606 240.986,307.316 241.181,306.100 241.309 L 304.600 241.466 306.113 241.533 C 307.648 241.601,308.304 240.996,307.869 239.913 C 307.756 239.631,307.649 239.794,307.632 240.276 M50.968 248.600 C 50.968 253.000,51.026 254.855,51.098 252.721 C 51.170 250.588,51.170 246.988,51.099 244.721 C 51.027 242.455,50.968 244.200,50.968 248.600 M171.757 246.400 C 171.757 249.370,171.820 250.585,171.897 249.100 C 171.974 247.615,171.974 245.185,171.897 243.700 C 171.820 242.215,171.757 243.430,171.757 246.400 M255.767 248.800 C 255.767 253.090,255.826 254.845,255.898 252.700 C 255.970 250.555,255.970 247.045,255.898 244.900 C 255.826 242.755,255.767 244.510,255.767 248.800 M316.159 246.800 C 316.159 249.990,316.221 251.295,316.297 249.700 C 316.373 248.105,316.373 245.495,316.297 243.900 C 316.221 242.305,316.159 243.610,316.159 246.800 M187.276 247.600 C 187.241 251.010,187.344 254.009,187.506 254.264 C 187.668 254.519,187.751 252.449,187.692 249.664 C 187.521 241.708,187.346 240.835,187.276 247.600 M302.370 242.700 L 301.400 243.800 302.600 242.800 C 303.260 242.250,303.875 241.755,303.967 241.700 C 304.058 241.645,303.955 241.600,303.736 241.600 C 303.518 241.600,302.903 242.095,302.370 242.700 M213.111 243.893 C 214.051 243.978,215.491 243.977,216.311 243.891 C 217.130 243.805,216.360 243.736,214.600 243.737 C 212.840 243.739,212.170 243.809,213.111 243.893 M45.467 244.667 C 45.097 245.036,45.129 256.709,45.500 256.938 C 45.665 257.040,45.800 254.261,45.800 250.762 C 45.800 247.263,45.785 244.400,45.767 244.400 C 45.748 244.400,45.613 244.520,45.467 244.667 M28.960 250.600 C 28.961 253.900,29.022 255.197,29.098 253.482 C 29.173 251.767,29.172 249.067,29.097 247.482 C 29.021 245.897,28.959 247.300,28.960 250.600 M40.159 250.400 C 40.159 253.590,40.221 254.895,40.297 253.300 C 40.373 251.705,40.373 249.095,40.297 247.500 C 40.221 245.905,40.159 247.210,40.159 250.400 M64.109 246.400 C 64.109 247.390,64.187 247.795,64.282 247.300 C 64.378 246.805,64.378 245.995,64.282 245.500 C 64.187 245.005,64.109 245.410,64.109 246.400 M348.509 246.400 C 348.509 247.390,348.587 247.795,348.682 247.300 C 348.778 246.805,348.778 245.995,348.682 245.500 C 348.587 245.005,348.509 245.410,348.509 246.400 M300.957 251.200 C 300.957 254.170,301.020 255.385,301.097 253.900 C 301.174 252.415,301.174 249.985,301.097 248.500 C 301.020 247.015,300.957 248.230,300.957 251.200 M145.700 248.276 C 146.085 248.376,146.715 248.376,147.100 248.276 C 147.485 248.175,147.170 248.093,146.400 248.093 C 145.630 248.093,145.315 248.175,145.700 248.276 M112.975 252.500 L 111.800 253.800 113.100 252.625 C 114.312 251.530,114.584 251.200,114.275 251.200 C 114.206 251.200,113.621 251.785,112.975 252.500 M127.775 255.300 L 126.600 256.600 127.900 255.425 C 129.112 254.330,129.384 254.000,129.075 254.000 C 129.006 254.000,128.421 254.585,127.775 255.300 M284.175 255.300 L 283.000 256.600 284.300 255.425 C 285.015 254.779,285.600 254.194,285.600 254.125 C 285.600 253.816,285.270 254.088,284.175 255.300 M26.400 256.800 L 24.600 257.080 26.276 257.140 C 27.198 257.173,28.064 257.020,28.200 256.800 C 28.336 256.580,28.392 256.427,28.324 256.460 C 28.256 256.493,27.390 256.646,26.400 256.800 M99.563 256.924 C 99.742 257.103,100.769 257.190,101.844 257.118 L 103.800 256.987 101.519 256.794 C 100.264 256.687,99.384 256.746,99.563 256.924 M370.800 256.800 L 369.000 257.080 370.676 257.140 C 371.598 257.173,372.464 257.020,372.600 256.800 C 372.736 256.580,372.792 256.427,372.724 256.460 C 372.656 256.493,371.790 256.646,370.800 256.800 M36.700 257.082 C 37.195 257.178,38.005 257.178,38.500 257.082 C 38.995 256.987,38.590 256.909,37.600 256.909 C 36.610 256.909,36.205 256.987,36.700 257.082 M48.300 257.082 C 48.795 257.178,49.605 257.178,50.100 257.082 C 50.595 256.987,50.190 256.909,49.200 256.909 C 48.210 256.909,47.805 256.987,48.300 257.082 M252.500 257.087 C 253.105 257.178,254.095 257.178,254.700 257.087 C 255.305 256.995,254.810 256.920,253.600 256.920 C 252.390 256.920,251.895 256.995,252.500 257.087 M298.300 257.082 C 298.795 257.178,299.605 257.178,300.100 257.082 C 300.595 256.987,300.190 256.909,299.200 256.909 C 298.210 256.909,297.805 256.987,298.300 257.082 M277.800 257.600 L 275.800 257.874 277.600 257.931 C 278.590 257.962,279.670 257.813,280.000 257.600 C 280.330 257.387,280.420 257.238,280.200 257.269 C 279.980 257.300,278.900 257.449,277.800 257.600 M67.905 257.883 C 68.402 257.979,69.122 257.975,69.505 257.875 C 69.887 257.775,69.480 257.696,68.600 257.701 C 67.720 257.705,67.407 257.787,67.905 257.883 M144.100 257.876 C 144.485 257.976,145.115 257.976,145.500 257.876 C 145.885 257.775,145.570 257.693,144.800 257.693 C 144.030 257.693,143.715 257.775,144.100 257.876 M171.305 257.887 C 171.914 257.979,172.814 257.977,173.305 257.882 C 173.797 257.787,173.300 257.711,172.200 257.714 C 171.100 257.717,170.697 257.795,171.305 257.887 M214.705 257.883 C 215.202 257.979,215.922 257.975,216.305 257.875 C 216.687 257.775,216.280 257.696,215.400 257.701 C 214.520 257.705,214.207 257.787,214.705 257.883 M343.100 257.882 C 343.595 257.978,344.405 257.978,344.900 257.882 C 345.395 257.787,344.990 257.709,344.000 257.709 C 343.010 257.709,342.605 257.787,343.100 257.882 " stroke="none" fill="#ec1b33" fill-rule="evenodd"></path><path id="path1" d="M71.924 143.100 C 71.408 144.350,72.257 172.335,72.800 171.992 C 73.130 171.783,74.435 171.609,75.700 171.606 L 78.000 171.600 78.000 166.000 L 78.000 160.400 83.592 160.400 C 89.944 160.400,89.792 160.493,89.526 156.768 L 89.400 155.000 83.800 154.800 L 78.200 154.600 78.200 151.600 L 78.200 148.600 84.300 148.490 L 90.400 148.379 90.400 146.134 C 90.400 142.800,90.483 142.828,80.524 142.813 C 75.862 142.806,71.992 142.935,71.924 143.100 M138.267 143.067 C 138.120 143.213,138.000 145.093,138.000 147.243 C 138.000 150.605,137.583 152.517,137.134 151.216 C 136.915 150.582,132.747 150.275,130.945 150.761 C 120.196 153.658,123.470 174.056,134.382 172.172 C 135.382 171.999,137.865 171.845,139.900 171.829 L 143.600 171.800 143.600 158.532 C 143.600 142.948,143.571 142.807,140.367 142.803 C 139.358 142.801,138.413 142.920,138.267 143.067 M105.380 150.436 C 103.414 150.686,101.600 151.483,101.600 152.096 C 101.600 152.263,101.340 152.400,101.023 152.400 C 100.705 152.400,100.126 152.940,99.736 153.600 C 99.346 154.260,98.908 154.800,98.762 154.800 C 96.924 154.800,96.840 164.999,98.658 167.600 C 104.931 176.580,117.143 172.619,117.190 161.587 C 117.207 157.674,115.089 152.400,113.499 152.400 C 113.276 152.400,112.803 152.065,112.447 151.656 C 111.628 150.714,108.048 150.096,105.380 150.436 M183.600 150.578 C 178.244 151.594,177.416 153.114,180.240 156.742 C 180.300 156.820,180.946 156.583,181.675 156.216 C 184.624 154.731,187.582 154.725,189.059 156.202 C 190.326 157.469,189.573 158.179,186.597 158.525 C 181.556 159.112,181.176 159.224,179.828 160.522 C 172.776 167.314,184.106 177.144,191.297 170.473 L 192.395 169.455 193.297 170.261 C 196.430 173.057,203.671 172.950,206.838 170.061 L 208.001 169.000 206.701 167.315 C 205.264 165.454,204.642 165.257,203.490 166.300 C 202.460 167.231,197.640 167.297,196.735 166.392 C 196.118 165.775,195.200 164.240,195.200 163.826 C 195.200 163.702,197.945 163.594,201.300 163.587 C 209.602 163.570,209.736 163.402,207.465 155.853 C 205.975 150.900,198.379 148.543,193.938 151.656 C 192.606 152.590,192.293 152.586,191.426 151.629 C 191.043 151.205,189.980 150.742,189.064 150.600 C 188.149 150.458,187.130 150.284,186.800 150.213 C 186.470 150.143,185.030 150.307,183.600 150.578 M158.034 150.668 C 150.062 152.357,148.904 165.924,156.394 169.884 C 158.401 170.946,161.443 171.106,162.624 170.213 C 163.782 169.337,164.400 169.478,164.400 170.618 C 164.400 171.952,162.730 173.589,161.318 173.641 C 158.796 173.732,157.323 173.538,155.910 172.929 C 154.196 172.191,153.282 172.865,152.370 175.537 C 151.797 177.214,151.950 177.342,155.546 178.203 C 160.860 179.476,166.233 178.464,168.333 175.795 C 169.668 174.097,170.000 171.228,170.000 161.391 L 170.000 152.021 168.820 151.410 C 166.905 150.420,164.821 150.582,165.097 151.700 L 165.319 152.600 164.308 151.676 C 163.271 150.728,160.133 150.224,158.034 150.668 M224.217 150.673 C 223.786 150.793,223.030 151.155,222.536 151.479 C 221.629 152.073,220.000 151.876,220.000 151.173 C 220.000 150.968,219.055 150.800,217.900 150.800 L 215.800 150.799 215.913 161.447 L 216.026 172.095 217.263 171.847 C 217.943 171.711,219.197 171.600,220.050 171.600 L 221.600 171.600 221.600 164.782 C 221.600 157.024,221.984 156.000,224.893 156.000 C 227.862 156.000,228.000 156.374,228.000 164.399 C 228.000 172.444,227.811 171.968,230.900 171.700 L 233.200 171.501 233.200 163.412 C 233.200 154.316,233.038 153.623,230.497 151.874 C 228.992 150.839,225.809 150.230,224.217 150.673 M248.600 150.597 C 248.380 150.670,247.660 150.850,247.000 150.997 C 245.029 151.437,242.244 154.714,241.616 157.333 C 239.567 165.873,245.638 172.677,253.100 170.205 C 253.904 169.939,254.000 170.039,254.000 171.144 C 254.000 173.582,250.138 174.452,245.823 172.987 C 244.778 172.633,243.889 172.400,243.845 172.471 C 241.423 176.413,241.637 177.209,245.384 178.181 C 250.445 179.495,255.805 178.597,257.795 176.102 C 259.813 173.573,259.963 172.601,259.982 161.946 L 260.000 152.092 259.014 151.446 C 257.520 150.467,255.214 150.567,255.484 151.600 C 255.601 152.047,255.496 152.400,255.247 152.400 C 255.001 152.400,254.800 152.240,254.800 152.043 C 254.800 151.137,250.198 150.063,248.600 150.597 M274.244 150.687 C 265.807 152.848,265.483 167.877,273.791 171.652 C 277.338 173.263,284.831 171.781,285.791 169.278 C 286.502 167.427,282.811 165.387,281.021 166.640 C 278.825 168.178,273.600 166.576,273.600 164.364 C 273.600 163.645,273.962 163.600,279.751 163.600 C 286.969 163.600,287.033 163.569,286.685 160.204 C 286.469 158.109,285.719 155.439,285.110 154.600 C 282.486 150.982,278.581 149.575,274.244 150.687 M317.600 151.013 C 309.787 154.535,309.961 168.240,317.862 171.627 C 320.880 172.920,326.986 172.304,328.434 170.559 C 328.689 170.251,329.127 170.000,329.406 170.000 C 330.527 170.000,330.287 168.776,328.849 167.156 C 327.303 165.413,327.276 165.409,325.200 166.610 C 323.375 167.666,320.369 167.374,318.858 165.994 C 316.693 164.017,317.154 163.812,324.033 163.694 C 330.951 163.575,331.278 163.441,330.954 160.866 C 330.534 157.528,329.792 155.029,328.981 154.217 C 328.506 153.743,328.047 153.178,327.959 152.963 C 327.109 150.869,320.626 149.649,317.600 151.013 M294.851 151.465 C 295.279 151.984,295.290 152.167,294.900 152.298 C 294.518 152.427,294.400 154.819,294.400 162.447 C 294.400 172.191,294.418 172.418,295.174 172.014 C 295.599 171.786,296.859 171.600,297.974 171.600 L 300.000 171.600 300.000 165.646 C 300.000 157.805,300.691 156.448,304.700 156.414 L 306.400 156.400 306.400 153.600 L 306.400 150.800 304.595 150.800 C 302.874 150.800,301.320 151.355,300.726 152.182 C 300.424 152.602,298.400 151.690,298.400 151.132 C 298.400 150.950,297.478 150.800,296.351 150.800 C 294.487 150.800,294.352 150.860,294.851 151.465 M201.900 156.496 C 203.826 158.300,203.196 158.800,199.000 158.800 C 194.793 158.800,194.401 158.503,196.136 156.631 C 197.957 154.666,199.897 154.620,201.900 156.496 M279.473 156.100 C 282.128 157.908,281.377 158.800,277.200 158.800 C 273.074 158.800,272.510 158.189,274.831 156.236 C 276.344 154.962,277.742 154.922,279.473 156.100 M323.211 155.859 C 326.417 157.993,325.920 158.800,321.400 158.800 C 317.361 158.800,317.142 158.670,318.272 156.946 C 319.417 155.199,321.524 154.735,323.211 155.859 M109.635 156.113 C 111.234 157.341,112.136 160.606,111.572 163.123 C 110.384 168.426,104.108 168.550,102.899 163.293 C 101.685 158.019,106.053 153.363,109.635 156.113 M136.600 156.564 C 139.261 158.693,138.258 166.328,135.229 166.994 C 132.103 167.680,130.101 165.941,129.715 162.201 C 129.171 156.930,133.069 153.739,136.600 156.564 M162.281 156.095 C 166.051 157.763,165.060 165.204,161.054 165.317 C 157.532 165.417,155.769 162.041,157.358 158.239 C 158.340 155.889,160.092 155.126,162.281 156.095 M253.210 156.809 C 254.670 158.173,254.875 163.297,253.523 164.649 C 252.894 165.277,249.298 165.555,248.464 165.039 C 247.202 164.260,246.211 159.211,247.200 158.600 C 247.420 158.464,247.600 158.077,247.600 157.741 C 247.600 155.588,251.253 154.981,253.210 156.809 M190.081 163.015 C 190.342 163.276,189.302 166.395,188.720 167.097 C 188.103 167.840,184.807 167.731,183.931 166.938 C 182.242 165.409,183.337 163.586,186.111 163.309 C 187.036 163.216,187.869 163.064,187.963 162.970 C 188.207 162.726,189.827 162.760,190.081 163.015 M75.590 185.900 C 75.500 188.669,75.662 214.177,75.771 214.354 C 75.854 214.489,77.019 214.539,78.361 214.464 L 80.800 214.329 80.800 208.352 C 80.800 202.207,81.119 200.538,82.573 199.084 C 84.134 197.523,87.558 198.752,87.630 200.900 C 87.647 201.395,87.692 204.680,87.730 208.200 L 87.800 214.600 90.200 214.464 C 93.432 214.282,93.292 214.700,93.131 205.743 C 92.989 197.849,92.981 197.790,91.900 196.253 C 89.928 193.450,86.723 192.360,83.415 193.368 C 80.892 194.137,80.814 194.015,80.806 189.300 L 80.800 185.600 78.200 185.600 C 76.770 185.600,75.596 185.735,75.590 185.900 M179.058 186.581 C 176.813 188.662,178.627 192.144,181.668 191.588 C 183.627 191.229,184.400 190.367,184.400 188.539 C 184.400 185.813,181.166 184.628,179.058 186.581 M305.723 186.309 C 304.187 187.519,304.322 190.345,305.962 191.314 C 307.621 192.294,308.695 192.167,310.031 190.831 C 312.976 187.885,309.008 183.720,305.723 186.309 M319.200 198.122 C 319.200 214.263,319.577 215.187,325.966 214.725 C 329.055 214.502,329.324 214.231,328.912 211.761 L 328.585 209.800 326.793 209.600 L 325.000 209.400 324.800 197.600 L 324.600 185.800 321.900 185.682 L 319.200 185.563 319.200 198.122 M288.000 186.982 C 287.450 187.286,286.984 187.685,286.965 187.868 C 286.946 188.050,286.817 188.470,286.677 188.800 C 286.538 189.130,286.373 190.300,286.312 191.400 L 286.200 193.400 284.460 193.525 C 282.889 193.638,282.743 193.735,282.954 194.525 C 283.083 195.006,283.192 196.154,283.195 197.075 L 283.200 198.750 284.583 198.525 C 286.349 198.239,287.526 198.634,286.867 199.293 C 286.039 200.121,286.267 210.269,287.158 212.230 C 288.779 215.799,298.002 216.550,297.316 213.057 C 296.674 209.796,296.696 209.822,294.775 209.923 C 291.981 210.069,291.961 210.025,292.088 203.969 L 292.200 198.600 294.600 198.400 L 297.000 198.200 297.000 196.000 L 297.000 193.800 294.600 193.600 L 292.200 193.400 292.084 189.900 L 291.969 186.400 290.484 186.414 C 289.668 186.422,288.550 186.677,288.000 186.982 M106.491 193.668 C 96.970 198.285,100.230 215.200,110.641 215.200 C 112.685 215.200,117.660 213.439,118.624 212.374 C 120.011 210.840,116.788 207.791,115.011 208.956 C 113.260 210.103,109.054 209.839,107.816 208.504 C 105.978 206.521,106.255 206.401,112.700 206.387 C 119.444 206.373,120.000 206.176,120.000 203.808 C 120.000 196.105,112.726 190.645,106.491 193.668 M135.600 193.342 C 134.830 193.594,133.967 193.950,133.682 194.134 C 133.383 194.328,132.933 194.276,132.615 194.012 C 132.307 193.757,131.127 193.610,129.932 193.678 L 127.800 193.800 127.693 204.345 C 127.597 213.871,127.648 214.867,128.226 214.645 C 128.578 214.510,129.841 214.400,131.033 214.400 L 133.200 214.400 133.206 207.700 C 133.213 200.050,133.445 199.193,135.656 198.643 C 137.334 198.225,139.600 199.015,139.600 200.018 C 139.600 200.360,139.796 200.836,140.035 201.075 C 140.348 201.388,140.348 201.585,140.035 201.778 C 139.750 201.955,139.600 204.342,139.600 208.704 C 139.600 213.881,139.707 215.253,140.080 214.880 C 140.344 214.616,141.604 214.400,142.880 214.400 L 145.200 214.400 145.196 206.700 C 145.191 196.432,144.530 194.793,139.800 193.313 C 137.926 192.726,137.472 192.729,135.600 193.342 M196.848 193.796 C 190.572 197.234,191.486 204.414,198.400 205.988 C 203.385 207.123,204.433 207.910,202.943 209.400 C 201.891 210.452,198.017 210.013,196.212 208.637 C 194.580 207.392,194.549 207.388,194.284 208.400 C 194.169 208.840,193.827 209.200,193.524 209.200 C 192.611 209.200,191.378 211.606,192.050 212.075 C 198.814 216.794,207.263 215.668,209.204 209.788 C 210.396 206.175,207.010 201.600,203.144 201.600 C 201.143 201.600,198.465 200.692,198.270 199.947 C 197.778 198.066,201.714 197.329,204.544 198.771 C 206.209 199.620,206.170 199.637,208.123 197.228 C 210.709 194.040,201.512 191.240,196.848 193.796 M221.968 193.792 C 214.253 197.811,214.959 210.925,223.074 214.330 C 226.440 215.742,231.211 215.020,234.181 212.649 L 235.362 211.707 233.697 209.957 L 232.033 208.208 230.819 208.925 C 228.250 210.443,223.214 209.626,222.685 207.605 C 222.379 206.431,222.544 206.400,229.024 206.400 C 235.890 206.400,235.600 206.542,235.600 203.172 C 235.600 199.941,232.883 194.400,231.300 194.400 C 231.025 194.400,230.800 194.256,230.800 194.080 C 230.800 192.637,224.575 192.433,221.968 193.792 M247.631 193.706 C 241.271 197.036,242.095 204.459,249.000 206.027 C 254.155 207.197,254.490 207.371,254.144 208.693 C 253.690 210.427,248.555 210.307,246.625 208.518 L 245.538 207.510 244.425 208.576 C 241.598 211.285,242.078 212.512,246.638 214.229 C 249.844 215.436,252.837 215.496,255.106 214.400 C 256.016 213.960,256.918 213.600,257.110 213.600 C 257.872 213.600,259.722 210.133,259.902 208.366 C 260.275 204.707,257.937 202.490,252.523 201.371 C 248.868 200.616,248.800 200.584,248.800 199.590 C 248.800 197.881,253.418 197.476,255.719 198.984 C 256.712 199.634,259.600 197.274,259.600 195.812 C 259.600 193.608,250.781 192.056,247.631 193.706 M152.336 193.797 C 152.095 194.038,154.428 201.367,155.677 204.296 C 156.075 205.228,156.400 206.210,156.400 206.477 C 156.400 208.438,159.057 214.795,159.800 214.610 C 160.240 214.500,161.524 214.408,162.654 214.405 L 164.708 214.400 167.954 204.593 C 171.920 192.610,171.870 193.534,168.547 193.682 L 165.893 193.800 164.580 198.000 C 163.858 200.310,163.027 202.997,162.734 203.971 C 162.231 205.641,161.198 206.695,161.202 205.533 C 161.203 205.240,160.643 203.200,159.958 201.000 C 159.272 198.800,158.492 196.280,158.224 195.400 L 157.736 193.800 155.151 193.684 C 153.729 193.620,152.463 193.671,152.336 193.797 M178.667 193.867 C 178.014 194.520,178.373 214.896,179.033 214.643 C 179.381 214.509,180.641 214.400,181.833 214.400 L 184.000 214.400 184.000 204.000 L 184.000 193.600 181.467 193.600 C 180.073 193.600,178.813 193.720,178.667 193.867 M305.067 193.867 C 304.920 194.013,304.800 198.804,304.800 204.513 L 304.800 214.893 305.700 214.652 C 306.195 214.519,307.455 214.408,308.500 214.405 L 310.400 214.400 310.400 204.000 L 310.400 193.600 307.867 193.600 C 306.473 193.600,305.213 193.720,305.067 193.867 M112.439 198.687 C 113.641 199.397,114.237 200.493,113.802 201.196 C 113.481 201.716,107.325 201.726,107.005 201.208 C 106.729 200.761,107.298 199.559,108.226 198.631 C 109.054 197.803,110.986 197.828,112.439 198.687 M228.830 199.169 C 230.773 201.111,230.140 201.651,226.084 201.515 C 222.155 201.383,221.736 201.003,223.537 199.202 C 225.184 197.555,227.204 197.542,228.830 199.169 M253.697 228.242 C 251.498 229.051,250.000 231.430,250.000 234.111 C 250.000 235.949,249.998 235.952,248.500 236.076 C 245.816 236.298,246.150 241.200,248.849 241.200 L 250.000 241.200 250.000 248.976 C 250.000 253.253,250.135 256.829,250.300 256.921 C 250.465 257.014,251.725 257.003,253.100 256.897 L 255.600 256.704 255.600 248.952 L 255.600 241.200 257.338 241.200 C 261.185 241.200,261.849 236.893,258.104 236.228 C 254.542 235.595,254.759 232.800,258.371 232.800 C 259.774 232.800,260.382 232.624,260.557 232.167 C 260.930 231.196,260.845 228.475,260.434 228.221 C 259.485 227.635,255.311 227.648,253.697 228.242 M99.467 228.667 C 99.320 228.813,99.200 230.634,99.200 232.713 C 99.200 236.456,99.191 236.490,98.300 236.190 C 88.455 232.877,81.398 245.506,88.251 254.173 C 90.535 257.062,96.061 258.559,98.142 256.852 C 98.411 256.632,99.754 256.603,101.400 256.783 C 102.940 256.951,104.335 257.013,104.500 256.920 C 104.665 256.828,104.800 250.373,104.800 242.576 L 104.800 228.400 102.267 228.400 C 100.873 228.400,99.613 228.520,99.467 228.667 M168.517 229.242 L 166.434 230.043 166.317 232.922 L 166.200 235.800 164.600 236.000 L 163.000 236.200 163.000 238.600 L 163.000 241.000 164.700 241.123 L 166.400 241.246 166.400 247.436 C 166.400 256.667,167.218 257.864,173.286 257.513 C 177.136 257.290,177.456 257.029,176.969 254.511 L 176.600 252.600 174.610 252.474 C 171.634 252.287,171.600 252.217,171.600 246.351 L 171.600 241.200 173.720 241.200 C 176.323 241.200,176.800 240.761,176.800 238.367 C 176.800 236.291,176.422 236.016,173.543 236.005 C 171.745 235.999,171.600 235.668,171.600 231.567 C 171.600 227.990,171.659 228.035,168.517 229.242 M189.419 229.343 L 187.438 230.237 187.548 232.311 C 187.708 235.315,187.398 235.999,185.873 236.006 C 183.996 236.015,183.763 236.358,183.925 238.879 L 184.072 241.157 185.736 241.279 L 187.400 241.400 187.600 248.239 C 187.816 255.612,187.903 255.915,190.132 257.069 C 191.414 257.731,194.991 257.833,197.000 257.263 C 199.775 256.477,198.221 252.502,195.067 252.320 L 193.000 252.200 192.889 246.700 L 192.777 241.200 194.975 241.200 C 197.473 241.200,198.000 240.680,198.000 238.216 C 198.000 236.565,197.076 236.000,194.374 236.000 L 192.800 236.000 192.800 232.200 C 192.800 227.839,192.783 227.825,189.419 229.343 M319.200 229.027 C 318.430 229.343,317.493 229.711,317.117 229.843 C 316.575 230.035,316.409 230.676,316.317 232.942 L 316.200 235.800 314.600 236.000 L 313.000 236.200 313.000 238.600 L 313.000 241.000 314.700 241.123 L 316.400 241.246 316.400 247.409 C 316.400 256.908,317.908 258.632,325.145 257.409 C 327.138 257.073,327.432 256.563,326.952 254.276 L 326.600 252.600 324.400 252.400 L 322.200 252.200 322.089 246.700 L 321.977 241.200 324.125 241.200 C 326.493 241.200,327.200 240.466,327.200 238.005 C 327.200 236.571,326.922 236.396,324.204 236.116 L 322.029 235.891 321.914 232.250 C 321.787 228.194,321.643 228.023,319.200 229.027 M66.800 235.466 C 60.577 236.587,56.947 243.895,59.183 250.800 C 62.284 260.378,76.377 259.545,78.429 249.662 C 80.221 241.026,74.527 234.075,66.800 235.466 M120.000 235.480 C 118.962 235.639,117.714 236.119,116.000 237.019 C 112.223 239.001,112.788 246.612,116.800 247.789 C 117.570 248.015,118.380 248.311,118.600 248.447 C 118.820 248.584,119.720 248.816,120.600 248.964 C 124.130 249.557,125.291 250.635,123.700 251.843 C 122.882 252.464,118.962 252.585,118.600 252.000 C 118.464 251.780,118.025 251.600,117.625 251.600 C 117.225 251.600,116.674 251.330,116.400 251.000 C 115.675 250.127,115.428 250.224,113.668 252.073 L 112.076 253.746 113.538 255.049 C 119.423 260.292,130.000 257.262,130.000 250.334 C 130.000 246.621,126.985 244.466,120.300 243.402 C 119.072 243.207,118.800 242.997,118.800 242.246 C 118.800 240.383,122.451 239.798,125.229 241.215 L 126.827 242.030 127.913 240.756 C 129.733 238.623,129.893 237.200,128.313 237.200 C 128.099 237.200,127.446 236.866,126.862 236.458 C 125.803 235.718,121.989 235.174,120.000 235.480 M143.600 235.588 C 141.160 235.990,138.000 237.265,138.000 237.847 C 138.000 239.166,139.904 242.397,140.359 241.849 C 141.423 240.567,147.159 239.939,148.500 240.957 C 150.433 242.424,149.411 243.499,146.027 243.561 C 140.433 243.663,137.200 246.137,137.200 250.318 C 137.200 256.002,142.981 259.327,148.569 256.855 C 150.445 256.025,150.450 256.025,151.918 256.812 C 154.158 258.012,155.083 257.855,155.795 256.151 C 156.611 254.197,156.556 253.334,155.600 253.084 C 154.852 252.888,154.800 252.538,154.800 247.661 C 154.800 244.604,154.634 242.345,154.399 242.199 C 154.178 242.063,154.093 241.557,154.210 241.075 C 155.042 237.657,149.243 234.658,143.600 235.588 M212.800 235.474 C 206.138 236.625,202.851 245.781,206.656 252.589 C 209.593 257.844,216.500 259.155,221.897 255.483 C 223.521 254.378,223.517 254.099,221.846 252.167 L 220.492 250.601 218.892 251.500 C 215.636 253.330,211.200 252.134,211.200 249.426 C 211.200 248.884,212.056 248.800,217.573 248.800 C 224.959 248.800,224.697 248.965,224.020 244.723 C 222.981 238.221,218.461 234.495,212.800 235.474 M275.600 235.558 C 264.030 238.034,265.564 257.600,277.328 257.600 C 283.567 257.600,288.007 252.886,287.998 246.269 C 287.988 239.305,282.054 234.178,275.600 235.558 M341.920 235.568 C 334.710 237.026,331.533 246.947,336.161 253.552 C 340.639 259.941,351.553 258.247,353.651 250.838 C 356.228 241.737,350.202 233.894,341.920 235.568 M30.113 236.261 C 29.354 236.791,28.944 236.808,27.276 236.381 C 26.204 236.106,24.849 236.001,24.264 236.148 L 23.200 236.415 23.200 246.175 C 23.200 257.608,23.133 257.270,25.342 256.973 C 29.231 256.449,28.859 257.200,28.770 250.040 C 28.674 242.278,29.052 241.200,31.872 241.200 C 34.362 241.200,34.507 241.687,34.428 249.827 C 34.353 257.613,34.182 257.207,37.400 256.859 L 39.800 256.600 39.855 250.149 C 39.921 242.361,40.203 241.459,42.624 241.281 C 45.565 241.064,45.778 241.663,45.648 249.776 C 45.524 257.528,45.410 257.244,48.527 256.923 L 50.800 256.688 50.800 248.306 C 50.800 240.422,50.750 239.853,49.957 238.740 C 47.612 235.446,43.311 234.614,39.878 236.791 C 38.845 237.446,38.000 237.810,38.000 237.599 C 38.000 236.064,31.882 235.026,30.113 236.261 M296.041 236.723 C 295.535 237.670,295.422 255.900,295.918 256.680 C 296.127 257.010,296.939 257.087,298.511 256.924 L 300.800 256.688 300.810 251.644 C 300.825 243.527,301.615 241.797,305.518 241.335 L 307.600 241.089 307.600 238.993 C 307.600 236.340,307.041 235.813,304.613 236.177 C 303.626 236.325,302.714 236.616,302.586 236.823 C 302.274 237.328,300.902 237.305,300.731 236.793 C 300.430 235.891,296.518 235.833,296.041 236.723 M361.260 236.700 C 360.856 237.469,361.064 238.250,363.889 246.600 C 364.856 249.460,365.914 252.780,366.239 253.977 C 367.079 257.071,367.292 257.241,369.947 256.943 C 373.135 256.586,373.373 256.380,374.364 253.119 C 374.852 251.514,375.408 249.840,375.599 249.400 C 375.791 248.960,376.130 247.970,376.353 247.200 C 376.576 246.430,377.295 244.180,377.951 242.200 C 380.045 235.873,380.016 235.782,375.999 236.074 L 374.262 236.200 373.388 239.000 C 372.907 240.540,372.082 243.209,371.555 244.932 C 370.131 249.577,370.125 249.570,367.358 240.456 C 366.127 236.401,365.734 236.000,362.988 236.000 C 362.100 236.000,361.501 236.243,361.260 236.700 M71.133 241.458 C 73.104 242.733,73.770 246.560,72.550 249.607 C 70.762 254.076,64.935 252.841,64.184 247.834 C 63.370 242.404,67.186 238.904,71.133 241.458 M216.945 241.300 C 219.313 243.453,218.858 244.045,214.937 243.916 C 210.935 243.784,210.327 243.237,212.154 241.409 C 213.467 240.096,215.569 240.048,216.945 241.300 M279.672 241.017 C 282.900 241.786,282.972 250.482,279.762 251.945 C 276.249 253.545,273.200 250.879,273.200 246.207 C 273.200 242.923,275.717 239.983,278.000 240.600 C 278.330 240.689,279.082 240.877,279.672 241.017 M345.693 240.981 C 350.159 242.847,349.631 251.358,344.995 252.227 C 340.809 253.013,338.140 247.611,340.439 243.007 C 341.618 240.648,343.322 239.990,345.693 240.981 M98.484 242.005 C 99.582 243.360,99.523 249.903,98.402 251.106 C 94.292 255.517,88.555 247.713,92.100 242.535 C 93.478 240.522,97.044 240.226,98.484 242.005 M149.200 249.732 C 149.200 252.186,145.414 253.672,143.407 252.006 C 141.391 250.332,143.584 248.093,147.300 248.032 L 149.200 248.000 149.200 249.732 " stroke="none" fill="#0f0f0f" fill-rule="evenodd"></path><path id="path2" d="M0.000 123.800 C 0.000 129.190,0.072 133.600,0.161 133.600 C 0.250 133.600,0.694 132.385,1.148 130.900 C 3.074 124.606,8.522 118.664,14.400 116.447 C 15.170 116.157,16.160 115.771,16.600 115.591 C 17.040 115.410,17.895 115.155,18.500 115.023 C 21.707 114.327,18.924 114.000,9.800 114.000 L 0.000 114.000 0.000 123.800 M375.677 114.430 C 375.755 114.666,375.991 114.860,376.200 114.860 C 376.409 114.860,376.645 114.666,376.723 114.430 C 376.802 114.194,376.567 114.000,376.200 114.000 C 375.833 114.000,375.598 114.194,375.677 114.430 M380.897 114.490 C 380.986 114.759,381.586 115.095,382.230 115.236 C 387.047 116.295,395.985 122.569,395.997 124.900 C 395.998 125.285,396.149 125.600,396.332 125.600 C 396.745 125.600,398.129 128.632,399.161 131.800 L 399.943 134.200 399.971 124.100 L 400.000 114.000 390.367 114.000 C 382.946 114.000,380.771 114.112,380.897 114.490 M19.141 127.356 C 16.015 128.474,13.133 131.814,12.443 135.120 C 11.829 138.059,11.817 261.263,12.430 264.581 C 13.101 268.207,15.521 271.172,18.996 272.624 C 20.687 273.331,377.880 273.507,380.417 272.802 C 383.253 272.014,386.386 268.848,387.299 265.846 C 388.031 263.442,388.031 136.558,387.299 134.154 C 386.643 131.999,384.778 129.693,382.484 128.201 L 380.638 127.000 200.619 126.917 C 53.417 126.849,20.334 126.929,19.141 127.356 M89.700 143.357 C 90.221 143.752,90.400 144.464,90.400 146.136 C 90.400 148.862,90.641 148.766,83.400 148.902 L 78.200 149.000 78.200 151.600 L 78.200 154.200 83.800 154.440 C 86.880 154.572,89.453 154.707,89.518 154.740 C 89.583 154.773,89.583 156.015,89.518 157.500 L 89.400 160.200 83.800 160.400 L 78.200 160.600 78.089 166.095 C 77.963 172.328,78.322 171.790,74.066 172.122 C 71.374 172.333,71.630 173.831,71.506 157.100 L 71.400 142.800 80.200 142.813 C 86.883 142.822,89.168 142.953,89.700 143.357 M142.954 143.786 C 143.983 145.357,143.932 172.556,142.900 172.237 C 142.515 172.118,140.850 172.032,139.200 172.047 C 137.550 172.061,134.683 172.086,132.828 172.104 L 129.456 172.136 127.376 169.900 C 119.595 161.541,126.000 147.817,136.303 150.772 L 137.600 151.144 137.605 147.872 C 137.614 142.945,137.688 142.800,140.201 142.800 C 141.999 142.800,142.403 142.945,142.954 143.786 M110.483 150.529 C 111.299 150.813,112.303 151.350,112.714 151.723 C 113.126 152.095,113.629 152.404,113.831 152.409 C 115.172 152.440,117.606 158.374,117.595 161.584 C 117.564 170.821,107.047 176.096,100.550 170.133 C 91.826 162.128,99.621 146.745,110.483 150.529 M189.454 150.455 C 190.449 150.706,191.472 151.246,191.727 151.655 C 192.312 152.592,192.735 152.592,193.774 151.655 C 198.137 147.722,205.915 150.637,207.962 156.973 C 209.953 163.136,209.516 163.600,201.720 163.600 C 194.979 163.600,194.708 163.719,196.560 165.871 C 197.852 167.374,201.506 167.491,203.469 166.093 C 205.044 164.972,204.772 164.891,206.539 167.005 L 208.048 168.809 207.229 169.959 C 206.684 170.725,205.907 171.203,204.905 171.390 C 204.077 171.545,203.174 171.858,202.899 172.086 C 201.796 172.997,197.447 172.564,194.761 171.275 C 192.616 170.245,192.112 170.134,191.604 170.577 C 184.142 177.086,172.236 167.187,179.511 160.524 C 181.125 159.045,181.364 158.965,185.200 158.599 C 189.843 158.156,190.480 157.720,188.757 156.162 C 187.636 155.148,184.400 155.193,182.001 156.255 L 180.201 157.052 179.100 154.868 C 177.782 152.256,177.932 151.970,181.105 151.019 C 182.367 150.640,183.580 150.271,183.800 150.197 C 184.714 149.891,187.768 150.031,189.454 150.455 M280.204 150.530 C 284.205 152.090,286.323 155.210,287.067 160.639 C 287.449 163.426,287.050 163.600,280.278 163.600 C 273.671 163.600,273.026 163.853,274.690 165.787 C 275.966 167.270,279.202 167.478,281.783 166.242 L 283.366 165.484 284.893 167.205 L 286.421 168.926 285.571 169.831 C 283.358 172.187,277.242 173.278,273.971 171.901 C 262.148 166.926,268.286 145.883,280.204 150.530 M326.100 151.323 C 328.980 153.015,330.498 155.642,331.022 159.841 C 331.503 163.689,331.656 163.600,324.560 163.600 C 317.619 163.600,316.912 163.894,318.954 165.935 C 320.468 167.447,324.611 167.493,326.185 166.014 L 327.219 165.043 328.994 167.022 L 330.770 169.000 329.536 170.070 C 324.334 174.581,315.888 172.919,312.913 166.800 C 308.139 156.977,317.342 146.176,326.100 151.323 M165.678 150.764 C 167.150 150.757,168.317 150.989,168.978 151.422 L 170.000 152.092 170.000 162.186 C 170.000 175.785,169.461 177.063,163.000 178.772 C 159.279 179.757,150.439 177.801,151.920 176.320 C 152.184 176.056,152.406 175.471,152.413 175.020 C 152.449 172.802,154.054 172.079,156.800 173.044 C 160.193 174.237,164.000 173.123,164.000 170.938 C 164.000 169.910,163.614 169.746,162.893 170.467 C 160.821 172.539,152.400 168.934,152.400 165.975 C 152.400 165.585,152.209 165.203,151.976 165.125 C 151.743 165.048,151.448 163.606,151.321 161.921 C 150.777 154.733,154.634 150.118,160.800 150.580 C 162.230 150.687,164.425 150.770,165.678 150.764 M229.413 150.980 C 230.176 151.298,230.800 151.748,230.800 151.980 C 230.800 152.211,231.068 152.400,231.395 152.400 C 232.802 152.400,233.313 155.077,233.505 163.459 C 233.715 172.592,233.996 171.860,230.200 172.066 L 228.200 172.175 227.996 164.987 C 227.741 156.021,227.555 155.597,224.175 156.231 C 221.955 156.648,221.600 157.909,221.600 165.380 C 221.600 172.410,221.959 171.755,217.900 172.127 L 216.000 172.302 216.000 162.184 C 216.000 156.619,215.891 151.781,215.757 151.433 C 215.434 150.591,219.442 150.555,220.545 151.390 C 221.195 151.882,221.473 151.855,222.739 151.177 C 224.472 150.248,227.451 150.160,229.413 150.980 M254.071 151.243 C 254.371 151.672,254.507 151.685,254.664 151.300 C 254.970 150.545,258.388 150.665,259.269 151.462 C 260.316 152.410,260.389 172.070,259.353 174.120 C 257.076 178.623,250.339 180.375,244.300 178.034 C 241.519 176.956,241.446 175.919,243.878 172.046 C 243.931 171.961,244.459 172.209,245.051 172.597 C 246.720 173.690,252.542 173.693,253.369 172.600 C 254.733 170.797,254.220 170.011,252.100 170.658 C 245.293 172.734,239.488 165.222,241.555 157.013 C 242.182 154.523,244.256 152.026,246.600 150.938 C 248.154 150.217,253.507 150.435,254.071 151.243 M299.028 151.455 C 299.958 152.064,300.119 152.062,301.314 151.424 C 302.174 150.966,303.263 150.782,304.600 150.869 L 306.600 151.000 306.718 153.700 L 306.837 156.400 305.318 156.401 C 301.036 156.402,300.074 158.204,300.030 166.300 L 300.000 172.000 297.833 172.000 C 296.641 172.000,295.374 172.112,295.017 172.249 C 294.429 172.475,294.374 171.499,294.419 161.649 L 294.470 150.800 296.249 150.800 C 297.227 150.800,298.478 151.095,299.028 151.455 M197.743 155.588 C 196.798 155.979,195.600 157.489,195.600 158.289 C 195.600 158.664,196.508 158.800,199.000 158.800 C 202.316 158.800,202.400 158.777,202.400 157.846 C 202.400 156.253,199.516 154.855,197.743 155.588 M104.928 156.075 C 102.572 157.215,102.155 163.870,104.314 165.871 C 106.478 167.877,109.834 167.053,111.015 164.227 C 113.143 159.133,109.287 153.968,104.928 156.075 M132.477 156.110 C 128.000 157.528,129.173 166.791,133.830 166.797 C 137.064 166.802,137.662 165.893,137.516 161.199 C 137.370 156.513,135.898 155.026,132.477 156.110 M274.943 156.309 C 272.654 158.154,273.232 158.800,277.173 158.800 C 280.491 158.800,280.800 158.734,280.800 158.027 C 280.800 156.090,276.705 154.889,274.943 156.309 M318.870 156.526 C 317.142 158.365,317.627 158.800,321.400 158.800 C 324.491 158.800,324.800 158.730,324.800 158.029 C 324.800 155.863,320.513 154.776,318.870 156.526 M158.468 156.732 C 155.481 159.719,157.035 165.200,160.868 165.200 C 165.727 165.200,165.975 156.660,161.131 156.114 C 159.634 155.945,159.141 156.059,158.468 156.732 M248.395 156.723 C 247.061 157.804,246.903 162.964,248.162 164.357 C 249.175 165.478,252.362 165.547,253.338 164.469 C 254.244 163.467,254.292 157.540,253.400 156.800 C 252.282 155.872,249.499 155.830,248.395 156.723 M185.400 163.485 C 182.055 163.945,182.889 167.600,186.338 167.600 C 188.155 167.600,189.123 166.717,189.593 164.629 L 189.916 163.200 188.258 163.260 C 187.346 163.293,186.060 163.394,185.400 163.485 M182.555 185.583 C 185.771 186.806,184.906 192.000,181.486 192.000 C 177.912 192.000,176.640 187.895,179.589 185.877 C 180.728 185.097,181.164 185.054,182.555 185.583 M309.611 185.877 C 310.970 186.807,311.187 187.196,311.194 188.719 C 311.207 191.601,307.450 193.087,305.382 191.018 C 302.574 188.210,306.337 183.636,309.611 185.877 M81.286 189.500 C 81.415 193.915,80.943 193.507,85.274 192.946 C 87.646 192.639,90.090 193.741,91.800 195.891 L 93.000 197.400 93.128 205.846 L 93.256 214.292 92.328 214.541 C 91.818 214.677,90.545 214.792,89.500 214.795 L 87.600 214.800 87.596 208.500 C 87.590 200.112,87.448 199.344,85.808 198.803 C 82.141 197.593,81.077 199.713,81.170 208.044 C 81.248 215.149,81.487 214.666,77.800 214.866 L 75.800 214.975 75.703 211.187 C 75.649 209.104,75.559 202.495,75.503 196.500 L 75.400 185.599 78.286 185.600 L 81.171 185.600 81.286 189.500 M324.800 196.967 C 324.800 209.985,324.737 209.600,326.853 209.600 C 328.606 209.600,329.200 210.457,329.200 212.987 C 329.200 215.171,324.495 216.134,322.291 214.400 C 321.731 213.960,320.994 213.600,320.653 213.600 C 319.471 213.600,319.187 210.780,319.093 198.100 L 319.000 185.599 321.900 185.600 L 324.800 185.600 324.800 196.967 M291.367 186.243 C 291.875 186.438,292.000 187.150,292.000 189.843 L 292.000 193.200 293.700 193.205 C 296.974 193.216,297.200 193.400,297.200 196.047 L 297.200 198.400 295.850 198.400 C 295.108 198.400,293.938 198.513,293.250 198.650 L 292.000 198.900 292.000 204.203 C 292.000 210.176,292.048 210.258,295.272 209.742 C 297.754 209.345,298.629 214.198,296.200 214.886 C 288.780 216.984,286.365 214.543,286.422 205.000 L 286.461 198.600 284.667 198.716 L 282.873 198.832 282.730 196.316 C 282.570 193.489,282.762 193.215,284.900 193.206 L 286.400 193.200 286.400 191.450 C 286.400 188.040,286.734 187.292,288.546 186.649 C 290.542 185.942,290.572 185.938,291.367 186.243 M114.587 193.732 C 117.673 195.375,119.367 198.137,120.016 202.588 C 120.557 206.300,120.378 206.400,113.162 206.400 C 106.615 206.400,106.330 206.507,107.996 208.331 C 109.466 209.940,112.644 210.137,114.972 208.763 L 116.390 207.927 117.495 209.233 C 119.531 211.639,119.552 211.688,118.848 212.400 C 113.738 217.561,103.824 215.250,101.416 208.337 C 99.702 203.414,102.037 194.400,105.027 194.400 C 105.342 194.400,105.600 194.235,105.600 194.033 C 105.600 192.614,112.079 192.396,114.587 193.732 M141.431 193.833 C 144.854 195.565,145.200 196.719,145.200 206.403 C 145.200 215.470,145.601 214.551,141.482 214.929 L 139.563 215.106 139.627 207.588 C 139.697 199.241,139.716 199.333,137.817 198.977 C 133.796 198.223,133.200 199.404,133.200 208.121 C 133.200 215.219,133.561 214.555,129.500 214.927 L 127.600 215.102 127.600 204.398 L 127.600 193.693 128.500 193.452 C 129.913 193.073,131.313 193.168,132.394 193.715 C 133.231 194.138,133.609 194.105,134.779 193.509 C 136.746 192.506,139.027 192.617,141.431 193.833 M206.221 193.610 C 209.158 195.032,209.449 195.632,208.125 197.539 C 206.751 199.519,206.255 199.749,204.875 199.051 C 202.059 197.626,198.600 197.945,198.600 199.629 C 198.600 200.524,198.835 200.641,201.600 201.127 C 210.739 202.734,212.765 210.683,204.978 214.377 C 201.538 216.009,194.121 214.892,192.680 212.525 C 192.504 212.236,192.099 212.000,191.780 212.000 C 191.461 212.000,191.200 211.860,191.200 211.689 C 191.200 211.200,193.507 208.800,193.977 208.800 C 194.210 208.800,194.400 208.429,194.400 207.975 C 194.400 207.208,194.524 207.239,196.158 208.413 C 197.796 209.589,202.221 210.361,202.924 209.593 C 204.374 208.008,203.287 207.045,199.307 206.389 C 194.800 205.646,192.582 203.469,192.623 199.828 C 192.647 197.665,194.172 194.729,195.527 194.233 C 195.897 194.098,196.650 193.723,197.200 193.400 C 198.770 192.477,204.139 192.602,206.221 193.610 M229.782 193.193 C 232.728 194.313,235.328 198.544,235.862 203.087 C 236.246 206.356,236.155 206.400,228.951 206.400 C 222.212 206.400,221.862 206.547,223.746 208.579 C 225.003 209.936,228.903 210.063,230.509 208.800 C 231.891 207.713,231.965 207.737,233.858 209.888 L 235.519 211.776 234.059 212.824 C 226.079 218.554,216.400 213.510,216.400 203.621 C 216.400 196.014,223.222 190.699,229.782 193.193 M257.245 193.951 C 259.568 195.191,259.989 195.920,259.045 197.068 C 258.714 197.471,258.088 198.250,257.653 198.800 C 256.891 199.765,256.823 199.777,255.732 199.152 C 253.245 197.727,248.391 197.957,248.973 199.473 C 249.098 199.799,249.200 200.199,249.200 200.362 C 249.200 200.525,250.671 200.907,252.468 201.212 C 257.818 202.116,261.032 205.407,260.158 209.085 C 259.852 210.372,257.953 213.564,257.481 213.585 C 257.305 213.593,256.448 213.944,255.577 214.365 C 252.021 216.084,247.831 215.630,243.981 213.110 C 241.616 211.562,241.648 211.783,243.454 209.466 C 245.133 207.310,245.229 207.285,246.927 208.547 C 249.394 210.383,254.000 210.316,254.000 208.445 C 254.000 207.341,252.093 206.400,249.855 206.400 C 247.205 206.400,243.815 203.753,243.360 201.327 C 242.120 194.715,250.418 190.306,257.245 193.951 M157.823 193.690 C 157.995 193.862,159.578 199.046,160.697 203.102 C 161.404 205.667,161.983 206.076,162.484 204.367 C 162.640 203.835,163.315 201.646,163.984 199.501 C 164.653 197.357,165.200 195.248,165.200 194.815 C 165.200 193.410,167.327 192.845,170.345 193.449 C 171.755 193.731,171.760 194.105,170.396 197.800 C 169.990 198.900,168.626 203.004,167.365 206.920 C 165.991 211.188,164.818 214.173,164.437 214.372 C 163.337 214.945,158.800 215.112,158.800 214.579 C 158.800 214.319,158.454 213.228,158.031 212.153 C 155.634 206.062,152.001 193.845,152.488 193.510 C 152.964 193.183,157.468 193.334,157.823 193.690 M183.367 193.443 C 183.922 193.656,184.000 194.967,184.000 204.035 L 184.000 214.385 183.100 214.569 C 182.605 214.670,181.345 214.831,180.300 214.927 L 178.400 215.102 178.400 204.380 C 178.400 194.506,178.455 193.644,179.100 193.476 C 180.185 193.192,182.665 193.173,183.367 193.443 M310.026 193.614 C 310.760 194.007,310.800 194.553,310.800 204.206 L 310.800 214.385 309.900 214.570 C 309.405 214.672,308.055 214.829,306.900 214.919 L 304.800 215.083 304.800 204.371 C 304.800 194.505,304.855 193.644,305.500 193.476 C 306.832 193.128,309.256 193.202,310.026 193.614 M108.926 198.394 C 108.065 198.750,107.200 199.942,107.200 200.774 C 107.200 201.040,108.402 201.200,110.400 201.200 C 113.321 201.200,113.600 201.131,113.600 200.409 C 113.600 198.975,110.626 197.693,108.926 198.394 M224.526 198.390 C 223.664 198.750,222.800 199.943,222.800 200.774 C 222.800 201.042,224.060 201.200,226.200 201.200 C 228.835 201.200,229.600 201.075,229.600 200.644 C 229.600 198.956,226.485 197.572,224.526 198.390 M260.558 228.200 C 261.225 228.704,261.273 229.030,260.956 230.887 L 260.596 233.000 259.103 232.883 C 255.351 232.590,254.620 235.546,258.300 236.129 L 260.400 236.461 260.400 238.351 C 260.400 240.684,259.915 241.200,257.720 241.200 L 256.000 241.200 256.000 248.567 C 256.000 257.720,256.195 257.200,252.757 257.200 L 250.000 257.200 250.000 249.200 L 250.000 241.200 248.849 241.200 C 247.352 241.200,246.960 240.645,246.676 238.122 L 246.443 236.044 248.121 235.922 L 249.800 235.800 250.003 233.526 C 250.422 228.818,256.994 225.502,260.558 228.200 M104.786 228.774 C 105.231 229.606,105.391 255.438,104.957 256.567 C 104.677 257.297,99.833 257.501,99.401 256.801 C 99.246 256.550,98.727 256.624,97.997 257.001 C 96.188 257.937,93.222 257.761,91.013 256.586 C 79.826 250.638,86.959 231.202,98.500 236.183 C 99.140 236.460,99.200 236.143,99.200 232.476 C 99.200 227.975,99.127 228.079,102.286 228.032 C 103.959 228.006,104.454 228.153,104.786 228.774 M172.085 232.100 L 172.200 235.800 174.200 236.007 C 176.877 236.284,177.200 236.558,177.200 238.544 C 177.200 240.754,176.683 241.200,174.120 241.200 L 172.000 241.200 172.000 246.557 C 172.000 252.554,171.921 252.400,175.000 252.400 L 176.734 252.400 177.170 254.433 C 177.710 256.951,177.655 257.036,175.177 257.568 C 168.077 259.090,166.676 257.595,166.400 248.200 L 166.200 241.400 164.500 241.277 L 162.800 241.154 162.800 238.577 L 162.800 236.000 164.151 236.000 C 165.998 236.000,166.479 235.262,166.357 232.616 C 166.240 230.095,166.395 229.849,168.610 229.039 C 171.871 227.845,171.955 227.919,172.085 232.100 M192.800 231.957 C 192.800 235.817,192.909 236.000,195.207 236.000 C 197.497 236.000,198.400 236.639,198.400 238.259 C 198.400 240.440,197.506 241.200,194.938 241.200 L 192.800 241.200 192.800 246.320 C 192.800 252.191,192.899 252.400,195.690 252.400 C 197.847 252.400,198.400 253.097,198.400 255.818 C 198.400 257.460,197.682 257.741,193.400 257.777 C 188.140 257.820,187.200 256.248,187.200 247.409 L 187.200 241.246 185.500 241.123 L 183.800 241.000 183.682 238.524 L 183.563 236.048 185.282 235.924 L 187.000 235.800 187.117 232.944 L 187.233 230.088 189.117 229.257 C 192.615 227.714,192.800 227.850,192.800 231.957 M322.085 232.100 L 322.200 235.800 323.400 235.906 C 327.150 236.236,327.200 236.268,327.200 238.338 C 327.200 240.762,326.728 241.200,324.120 241.200 L 322.000 241.200 322.000 246.557 C 322.000 252.555,321.920 252.400,325.006 252.400 C 326.876 252.400,326.919 252.451,327.417 255.266 C 327.744 257.114,327.131 257.498,323.338 257.820 C 317.538 258.312,316.261 256.501,316.058 247.500 L 315.916 241.200 314.358 241.200 L 312.800 241.200 312.740 239.200 C 312.707 238.100,312.662 236.975,312.640 236.700 C 312.615 236.389,313.244 236.153,314.300 236.077 L 316.000 235.954 316.000 233.191 C 316.000 230.197,316.090 230.069,319.000 228.930 C 321.802 227.834,321.957 227.993,322.085 232.100 M34.777 235.600 C 35.168 235.600,36.124 236.031,36.900 236.558 L 38.311 237.516 40.056 236.474 C 43.292 234.540,47.498 235.406,50.000 238.521 C 50.978 239.738,51.003 239.940,51.131 247.531 C 51.304 257.731,51.451 257.266,48.088 257.118 L 45.400 257.000 45.289 251.054 C 45.219 247.295,45.334 244.921,45.602 244.598 C 46.392 243.646,44.554 241.198,43.060 241.213 C 41.142 241.232,39.266 243.228,40.031 244.436 C 40.227 244.746,40.391 247.416,40.394 250.369 C 40.401 256.910,40.246 257.200,36.738 257.200 L 34.400 257.200 34.400 250.460 C 34.400 242.184,34.142 241.200,31.970 241.200 C 30.714 241.200,30.285 241.409,29.718 242.300 C 29.333 242.905,28.836 243.528,28.613 243.683 C 28.347 243.869,28.378 244.138,28.703 244.463 C 29.051 244.811,29.200 246.629,29.200 250.536 C 29.200 257.050,29.135 257.167,25.500 257.187 L 23.200 257.200 23.200 246.600 L 23.200 236.000 25.226 236.000 C 26.341 236.000,27.613 236.193,28.053 236.428 C 28.658 236.752,29.076 236.711,29.763 236.261 C 30.719 235.634,32.632 235.229,33.533 235.462 C 33.826 235.538,34.386 235.600,34.777 235.600 M73.226 236.300 C 82.503 241.005,80.071 256.231,69.789 257.824 C 65.690 258.459,60.389 255.219,59.200 251.352 C 55.939 240.743,64.298 231.772,73.226 236.300 M125.701 235.771 C 128.119 236.634,130.117 238.330,129.505 239.000 C 129.227 239.304,128.550 240.174,128.001 240.934 L 127.002 242.315 125.601 241.615 C 123.446 240.539,121.721 240.339,120.175 240.985 C 117.670 242.031,118.836 243.288,122.725 243.733 C 127.859 244.321,131.093 248.058,129.973 252.112 C 128.225 258.444,118.573 259.930,112.943 254.733 C 112.290 254.130,112.036 254.067,111.875 254.471 C 111.706 254.892,111.657 254.887,111.632 254.443 C 111.614 254.136,112.503 252.983,113.606 251.879 L 115.613 249.873 116.532 250.736 C 117.038 251.211,117.744 251.600,118.102 251.600 C 118.460 251.600,118.864 251.780,119.000 252.000 C 119.324 252.525,122.238 252.515,123.226 251.986 C 124.991 251.042,123.613 249.234,121.112 249.213 C 117.062 249.178,113.042 245.683,113.013 242.171 C 112.973 237.199,119.905 233.702,125.701 235.771 M151.036 236.235 C 153.350 237.367,155.201 240.035,154.367 241.039 C 154.091 241.372,154.096 241.612,154.381 241.788 C 154.638 241.947,154.800 244.034,154.800 247.190 C 154.800 252.170,154.831 252.357,155.773 253.067 C 156.745 253.799,156.419 256.453,155.198 257.743 C 154.810 258.153,152.070 257.334,151.150 256.533 C 150.585 256.040,150.305 256.083,148.978 256.866 C 141.601 261.218,133.037 251.828,138.930 245.849 C 140.820 243.933,141.525 243.691,146.000 243.431 C 148.607 243.279,149.016 243.153,149.123 242.467 C 149.508 239.992,143.180 239.750,140.500 242.138 C 139.721 242.832,139.600 242.851,139.600 242.279 C 139.600 241.916,139.241 241.030,138.801 240.310 C 137.242 237.752,137.743 237.146,142.800 235.463 C 144.697 234.831,148.989 235.234,151.036 236.235 M218.689 236.220 C 222.212 237.975,223.997 241.103,224.123 245.741 L 224.200 248.600 218.009 248.711 C 211.321 248.831,210.919 248.945,211.638 250.523 C 212.416 252.231,215.736 252.793,218.150 251.624 C 220.328 250.570,221.031 250.730,222.538 252.623 C 224.155 254.654,222.644 256.100,217.299 257.638 C 214.338 258.490,207.200 255.851,207.200 253.904 C 207.200 253.721,206.885 253.091,206.500 252.504 C 200.674 243.612,209.598 231.689,218.689 236.220 M281.720 235.859 C 294.287 242.331,286.395 262.771,273.600 256.889 C 265.429 253.132,265.305 240.243,273.400 236.062 C 275.453 235.001,279.847 234.895,281.720 235.859 M348.822 236.348 C 356.493 241.300,356.310 253.241,348.507 256.834 C 339.917 260.789,331.679 252.479,334.357 242.558 C 335.984 236.526,343.860 233.145,348.822 236.348 M307.111 236.100 C 307.336 236.375,307.583 237.680,307.660 239.000 L 307.800 241.400 305.698 241.611 C 301.895 241.994,301.422 242.863,301.292 249.708 C 301.143 257.633,301.322 257.200,298.192 257.200 L 295.600 257.200 295.600 246.600 L 295.600 236.000 297.771 236.000 C 299.229 236.000,300.153 236.211,300.583 236.640 C 301.156 237.213,301.358 237.218,302.512 236.689 C 305.172 235.467,306.459 235.303,307.111 236.100 M365.867 236.309 C 366.335 236.607,367.092 238.708,368.817 244.500 C 370.202 249.149,370.188 249.167,373.187 238.900 L 374.034 236.000 376.629 236.000 C 380.135 236.000,380.231 236.751,377.625 243.800 C 377.218 244.900,376.139 248.125,375.227 250.967 C 373.325 256.897,373.083 257.170,369.724 257.187 C 366.934 257.202,367.028 257.278,366.229 254.352 C 365.906 253.168,364.820 249.770,363.816 246.800 C 360.876 238.106,360.796 237.842,360.798 236.900 C 360.800 235.968,364.629 235.522,365.867 236.309 M213.158 240.837 C 212.285 241.165,210.907 243.058,211.285 243.410 C 211.893 243.976,218.252 243.719,218.099 243.134 C 217.629 241.339,215.036 240.133,213.158 240.837 M66.764 241.063 C 64.567 241.653,63.616 247.595,65.300 250.207 C 68.032 254.444,73.087 251.788,72.951 246.187 C 72.849 241.993,70.512 240.058,66.764 241.063 M93.900 241.088 C 93.295 241.179,92.800 241.438,92.800 241.663 C 92.800 241.889,92.440 242.531,92.000 243.091 C 90.294 245.259,91.488 251.154,93.756 251.762 C 97.724 252.828,99.203 251.443,99.191 246.671 C 99.179 241.698,98.015 240.470,93.900 241.088 M276.108 241.081 C 272.438 241.790,272.515 250.286,276.206 251.828 C 279.384 253.156,281.998 250.746,281.999 246.487 C 282.001 241.920,280.221 240.287,276.108 241.081 M342.163 241.189 C 338.773 242.560,339.353 251.034,342.898 251.934 C 346.384 252.819,348.401 250.760,348.399 246.320 C 348.396 241.857,345.798 239.719,342.163 241.189 M146.244 248.295 C 141.531 248.780,141.701 252.664,146.421 252.327 C 147.913 252.220,148.279 252.021,148.733 251.071 C 149.331 249.817,149.059 247.963,148.292 248.067 C 148.022 248.104,147.100 248.207,146.244 248.295 M0.027 275.900 L 0.000 286.000 9.800 286.000 C 20.542 286.000,21.176 285.827,16.317 284.221 C 14.511 283.624,12.548 282.790,11.955 282.368 C 11.362 281.946,10.718 281.600,10.523 281.600 C 9.858 281.600,4.867 276.602,4.033 275.100 C 3.575 274.275,2.877 273.015,2.481 272.300 C 2.086 271.585,1.527 270.190,1.239 269.200 C 0.951 268.210,0.566 267.040,0.385 266.600 C 0.197 266.147,0.042 270.177,0.027 275.900 M398.694 269.428 C 396.271 276.961,390.519 282.369,382.520 284.637 C 378.534 285.766,379.856 286.000,390.224 286.000 L 400.000 286.000 400.000 276.000 C 400.000 270.500,399.954 266.000,399.899 266.000 C 399.843 266.000,399.301 267.543,398.694 269.428 M376.656 285.078 C 376.205 285.528,376.381 286.000,377.000 286.000 C 377.330 286.000,377.600 285.831,377.600 285.624 C 377.600 285.119,376.975 284.758,376.656 285.078 " stroke="none" fill="#fbfbfb" fill-rule="evenodd"></path></g></svg>