<?xml version="1.0" encoding="utf-8"?>
<!-- Generator: Adobe Illustrator 26.3.1, SVG Export Plug-In . SVG Version: 6.00 Build 0)  -->
<svg version="1.1" id="Lag_1" xmlns="http://www.w3.org/2000/svg" xmlns:xlink="http://www.w3.org/1999/xlink" x="0px" y="0px"
	 viewBox="0 0 42.5 42.3" style="enable-background:new 0 0 42.5 42.3;" xml:space="preserve">
<style type="text/css">
	.st0{fill:#A60F17;}
	.st1{fill:#FFFFFF;}
</style>
<rect y="0" class="st0" width="42.5" height="42.3"/>
<path class="st1" d="M36,15.6c0,2-1.6,3.6-3.6,3.6c-1.9,0-3.7-1.5-3.7-3.6l0,0c0-2,1.6-3.6,3.6-3.6S36,13.6,36,15.6
	C36,15.5,36,15.6,36,15.6z"/>
<path class="st0" d="M35,15.6c0,1.4-1.2,2.6-2.6,2.6c-1.4,0-2.6-1.2-2.6-2.5l0,0c0-1.4,1.2-2.6,2.6-2.6C33.9,13.1,34.9,14.2,35,15.6
	L35,15.6z"/>
<rect x="23.9" y="15" class="st1" width="11.2" height="1.1"/>
<rect x="31.8" y="12.4" class="st1" width="1.1" height="6.3"/>
<path id="winding" class="st1" d="M12.8,5.6L12.8,5.6C13.5,5.6,14,6,14,6.5v18.2c0,0.5-0.5,0.9-1.2,0.9l0,0c-0.7,0-1.2-0.4-1.2-0.9
	V6.5C11.6,6,12.1,5.6,12.8,5.6z"/>
<g transform="translate(65.5,3.2e-6)">
	<path id="winding_00000005229507012719080180000007143621464600156093_" class="st1" d="M-48.8,5.6L-48.8,5.6
		c0.7,0,1.2,0.4,1.2,0.9v18.2c0,0.5-0.5,0.9-1.2,0.9l0,0c-0.7,0-1.2-0.4-1.2-0.9V6.5C-50,6-49.5,5.6-48.8,5.6z"/>
</g>
<path id="edge_00000022537377178237620010000013727057700729861034_" class="st1" d="M23,15.6V4.8c1,0,2.2,0.4,2.2,0.7v20.2
	c0,0.4-1.4,0.8-2.2,0.7V15.6L23,15.6z"/>
<path class="st1" d="M10.4,6.5c0-0.5-0.5-0.9-1.2-0.9S7.9,6,7.9,6.5v26.1h2.4V6.5H10.4z"/>
<rect x="7.6" y="33.3" class="st1" width="3" height="0.8"/>
<path class="st1" d="M7.9,34.8h2.4l-0.9,3.7H8.7L7.9,34.8L7.9,34.8z"/>
<path id="winding_00000039816225036179454430000012090627732558135990_" class="st1" d="M20.6,5.6L20.6,5.6c0.7,0,1.2,0.4,1.2,0.9
	v18.2c0,0.5-0.5,0.9-1.2,0.9l0,0c-0.7,0-1.2-0.4-1.2-0.9V6.5C19.4,6,19.9,5.6,20.6,5.6z"/>
</svg>
