<?xml version="1.0" encoding="utf-8"?>
<!-- Generator: Adobe Illustrator 26.0.3, SVG Export Plug-In . SVG Version: 6.00 Build 0)  -->
<svg version="1.1" id="Lag_1" xmlns="http://www.w3.org/2000/svg" xmlns:xlink="http://www.w3.org/1999/xlink" x="0px" y="0px"
	 viewBox="0 0 42.5 42.3" style="enable-background:new 0 0 42.5 42.3;" xml:space="preserve">
<style type="text/css">
	.st0{fill:#274E6F;}
	.st1{fill:#FFFFFF;}
</style>
<g>
	<rect x="0" y="-0.1" class="st0" width="42.5" height="42.5"/>
	<g>
		<path class="st1" d="M9.1,32.4h24.5c0,0,0.1,0,0.1-0.1V10.5H9.1V32.4z M12,20.5c0.5-4.7,4.4-8.4,9.3-8.4c1.2,0,2.3,0.2,3.3,0.6
			c0,0,0,0,0,0c0.2,0.1,0.4,0.1,0.6,0.2c0.1,0,0.1,0.1,0.1,0.1c0.1,0.1,0.3,0.1,0.4,0.2c0.1,0,0.1,0.1,0.2,0.1
			c0.1,0.1,0.3,0.2,0.4,0.2c0,0,0.1,0,0.1,0.1c0.2,0.1,0.3,0.2,0.4,0.3c0,0,0,0,0,0c1.2,0.9,2.2,2.1,2.8,3.5h1.3
			c0.8,0,1.5,0.7,1.5,1.5v5.4c0,0.8-0.7,1.5-1.5,1.5h-1.3h-0.2c-1.6,2.8-4.6,4.8-8,4.9h-0.2c-5.1,0-9.3-4.2-9.3-9.3
			C11.9,21.1,11.9,20.8,12,20.5z"/>
		<path class="st1" d="M31.4,4.8h-0.9v1.5c0,0.3-0.2,0.5-0.5,0.5h-4.3c-0.3,0-0.5-0.2-0.5-0.5V4.8H11.4c-1.3,0-2.3,1-2.3,2.3v2.5
			h24.6V7.1C33.7,5.8,32.7,4.8,31.4,4.8z M13.7,8.4c-0.7,0-1.3-0.6-1.3-1.3c0-0.7,0.6-1.3,1.3-1.3S15,6.4,15,7.1
			C15,7.8,14.4,8.4,13.7,8.4z"/>
		<path class="st1" d="M9.1,33.9L9.1,33.9c0,1.6,1.2,2.8,2.7,2.8h19.1c1.5,0,2.8-1.2,2.8-2.7c0,0,0-0.1,0-0.1h0c0,0,0,0,0,0H9.1z"/>
		<path class="st1" d="M21.2,29c2,0,3.9-0.8,5.4-2.2c1.4-1.4,2.2-3.3,2.2-5.4c0,0,0-0.1,0-0.1c-0.1-4.1-3.4-7.5-7.6-7.5
			c-2,0-3.9,0.8-5.4,2.2c-1.4,1.4-2.2,3.3-2.2,5.3c0,0,0,0,0,0.1C13.6,25.6,17,29,21.2,29z M14.9,20.5L14.9,20.5
			c0-0.1,0.1-0.1,0.1-0.2c0-0.1,0.2-0.1,0.2,0c0.2,0.6,0.8,1,1.5,1c0.7,0,1.3-0.4,1.5-1c0-0.1,0.2-0.1,0.2,0c0.2,0.6,0.8,1,1.5,1
			c0.7,0,1.3-0.4,1.5-1c0-0.1,0.2-0.1,0.2,0c0.2,0.6,0.8,1,1.5,1c0.7,0,1.3-0.4,1.5-1c0-0.1,0.2-0.1,0.2,0c0.2,0.6,0.8,1,1.5,1
			c0.5,0,1-0.3,1.3-0.7c0.1-0.1,0.1-0.1,0.1-0.2c0,0.3,0.1,0.6,0.1,1c0,3.5-2.9,6.4-6.4,6.4c-3.5,0-6.4-2.9-6.4-6.4
			C14.9,21.1,14.9,20.8,14.9,20.5z"/>
	</g>
</g>
</svg>
